<?xml version="1.0" standalone="no"?>
<!DOCTYPE svg PUBLIC "-//W3C//DTD SVG 1.1//EN" "http://www.w3.org/Graphics/SVG/1.1/DTD/svg11.dtd" >
<svg xmlns="http://www.w3.org/2000/svg" xmlns:xlink="http://www.w3.org/1999/xlink" version="1.1">
<metadata>
Created by FontForge 20201107 at Fri May 22 12:50:51 2020
 By Unknown
Copyright (c) 2020 by Kong font. All rights reserved.
</metadata>
<defs>
<font id="Eastwood" horiz-adv-x="281" >
  <font-face 
    font-family="Eastwood"
    font-weight="400"
    font-stretch="normal"
    units-per-em="1000"
    panose-1="0 0 0 0 0 0 0 0 0 0"
    ascent="800"
    descent="-200"
    x-height="544.5"
    cap-height="698"
    bbox="-328 -250 1256.23 882"
    underline-thickness="50"
    underline-position="-125"
    unicode-range="U+0020-20AC"
  />
<missing-glyph horiz-adv-x="283" 
 />
    <glyph glyph-name="o_o" unicode="oo" horiz-adv-x="864" 
d="M839 261q0 -68 -17 -120.5t-48 -88.5t-75.5 -55t-98.5 -19q-58 1 -103.5 21t-76.5 60q-32 -40 -77.5 -60t-102.5 -21q-55 0 -99 19t-75.5 55t-48.5 88.5t-17 120.5v1q0 68 17 120.5t48.5 88.5t75.5 55t99 19q115 0 180 -80q63 80 180 80q54 0 98.5 -19t75.5 -55t48 -88.5
t17 -120.5v-1zM240 19q30 0 52.5 17.5t37.5 50t22.5 77t7.5 98.5t-7.5 98.5t-22.5 76.5t-37.5 49.5t-52.5 17.5t-52.5 -17.5t-38 -49.5t-23 -76.5t-7.5 -98.5t7.5 -98.5t22.5 -77t37.5 -50t53.5 -17.5zM600 19q30 0 52.5 17.5t37.5 50t22.5 77t7.5 98.5t-7.5 98.5
t-22.5 76.5t-37.5 49.5t-52.5 17.5t-52.5 -17.5t-38 -49.5t-23 -76.5t-7.5 -98.5t7.5 -98.5t22.5 -77t37.5 -50t53.5 -17.5z" />
    <glyph glyph-name="s_s" unicode="ss" horiz-adv-x="786" 
d="M450 450q-3 -30 18.5 -54.5t55.5 -46.5t74.5 -43.5t75.5 -46t58.5 -53.5t23.5 -67q0 -39 -18.5 -69.5t-48.5 -50.5t-68.5 -30.5t-78.5 -10.5q-58 0 -99.5 12.5t-67.5 32.5q-31 -23 -70.5 -34t-81.5 -11q-70 0 -115.5 17.5t-71 43.5t-32.5 56t1 56t29 43.5t52 17.5
q22 0 35 -12.5t18 -22.5q0 -2 -1 -2q-23 -7 -33 -26t-10 -42q0 -27 16.5 -46.5t41.5 -30t54 -12t54 7.5t41.5 29t16.5 51q0 28 -21.5 50t-54 42t-70 39.5t-70 43t-54 52t-21.5 67.5t16 67t42.5 46t59.5 27t66 9t58.5 -6.5t45.5 -15.5t35.5 -18.5t29.5 -16.5q27 29 67.5 43
t82.5 14q47 0 78.5 -11.5t55 -25t41 -23t37.5 -6.5q5 1 8.5 1.5t6.5 2.5q2 2 2 -2t-1.5 -12t-6.5 -16.5t-13.5 -14t-21.5 -4.5q4 -18 -1 -32.5t-17 -24t-28 -13.5t-34 0q-3 2 -2 4q10 20 9 43.5t-13.5 44t-37.5 34.5t-62 14q-32 0 -55 -14.5t-26 -43.5zM422 75
q14 -30 49.5 -44.5t72.5 -12t65.5 24t28.5 63.5q0 26 -18.5 46.5t-47.5 39t-63.5 36.5t-66.5 38.5t-57 45t-34 56.5q-15 -3 -34 0q-2 2 -1 4q10 20 9 43.5t-13.5 44t-37.5 34.5t-62 14q-33 0 -55.5 -14.5t-25.5 -43.5q-3 -30 18.5 -54.5t55.5 -46.5t74.5 -43.5t75.5 -46
t58.5 -53.5t23.5 -67q0 -18 -4 -34t-11 -30z" />
    <glyph glyph-name="t_t" unicode="tt" horiz-adv-x="923" 
d="M896 562q5 -21 -4 -32.5t-21 -17.5q-14 -7 -34 -9q9 -11 15 -21q10 -19 6.5 -38t-15.5 -33t-30.5 -19.5t-38.5 2.5q7 14 8.5 33t-6.5 36.5t-26.5 29.5t-51.5 12q-16 0 -25 -4.5t-14 -12.5t-6.5 -18.5t-1.5 -22.5v-368q0 -5 1.5 -15.5t7.5 -21t19 -19t36 -9.5q4 -2 2 -4
q-8 -13 -27 -22.5t-42 -9.5q-31 0 -55 20l-3 3l-3 -3q-13 -11 -26.5 -15.5t-27.5 -4.5q-23 0 -42.5 9.5t-27.5 22.5q-2 2 3 4q22 1 35 9.5t19 19t7.5 21t1.5 15.5v368q0 24 -7.5 41t-38.5 17h-67q-16 0 -25 -4.5t-14 -12.5t-6.5 -18.5t-1.5 -22.5v-368q0 -5 1.5 -15.5
t7.5 -21t19 -19t36 -9.5q4 -2 2 -4q-8 -13 -27 -22.5t-42 -9.5q-14 0 -28 4.5t-26 15.5q-2 1 -4 3l-3 -3q-12 -11 -26 -15.5t-28 -4.5q-23 0 -42 9.5t-27 22.5q-3 1 2 4q23 1 36 9.5t19 19t7.5 21t1.5 15.5v368q0 12 -1.5 22.5t-6.5 18.5t-14 12.5t-25 4.5q-33 0 -51.5 -12
t-26.5 -29.5t-6.5 -36.5t8.5 -33q-20 -8 -39 -2.5t-31 19.5t-15.5 33t7.5 38q3 5 6.5 10.5t7.5 10.5q-20 2 -34 9q-12 6 -21 17.5t-4 32.5q11 -5 27 -9q14 -3 34.5 -5.5t48.5 -2.5h144q26 0 49 -20l3 -3q2 2 4 3q23 20 49 20h177q26 0 49 -20l3 -3l3 3q25 20 50 20h144
q28 0 48 2.5t34 5.5q16 4 27 9z" />
    <glyph glyph-name=".notdef" horiz-adv-x="283" 
 />
    <glyph glyph-name=".null" horiz-adv-x="0" 
 />
    <glyph glyph-name="nonmarkingreturn" horiz-adv-x="283" 
 />
    <glyph glyph-name="space" unicode=" " horiz-adv-x="283" 
 />
    <glyph glyph-name="space" unicode="&#xa0;" horiz-adv-x="283" 
 />
    <glyph glyph-name="e" unicode="e" horiz-adv-x="511" 
d="M425 21q20 -2 34 -9q12 -6 20.5 -18t4.5 -33q-11 4 -27 8q-14 3 -34.5 6t-48.5 3h-193q-26 0 -50 21l-3 3l-3 -3q-17 -15 -36 -18.5t-36.5 -0.5t-31.5 11.5t-20 18.5q-2 4 3 4q22 1 35 9.5t19 19t7.5 21t1.5 15.5v365q0 5 -1.5 15t-7.5 20.5t-19 19t-35 10.5q-5 0 -3 4
q6 10 20 18.5t31.5 11.5t36.5 -0.5t36 -18.5l3 -3l3 3q24 21 50 21h193q28 0 48.5 2.5t34.5 5.5q16 4 27 9q4 -21 -4.5 -33t-20.5 -18q-14 -7 -34 -9q4 -5 7.5 -10.5t6.5 -10.5q10 -19 7 -38t-15 -32.5t-31 -19t-39 2.5q7 14 6.5 33t-10.5 36.5t-30.5 29.5t-53.5 12h-23
q-20 0 -32 -5t-18.5 -13.5t-8.5 -20t-2 -24.5v-60v-105q7 7 19.5 18t28 21t34 17.5t37.5 7.5q31 0 45.5 -15t15 -34t-12.5 -36.5t-37 -21.5q-5 0 -3 5q8 18 -2 29t-30.5 11.5t-46 -11t-48.5 -37.5v-90v-60q0 -13 2 -24.5t8.5 -20t18.5 -13.5t32 -5h23q33 0 53.5 12t30.5 29
t10.5 36.5t-6.5 33.5q20 8 39 2.5t31 -19t15 -32.5t-7 -38q-3 -5 -6.5 -10.5t-7.5 -10.5z" />
    <glyph glyph-name="f" unicode="f" horiz-adv-x="511" 
d="M484 563q4 -21 -4.5 -33t-20.5 -18q-14 -7 -34 -9q4 -5 7.5 -10.5t6.5 -10.5q10 -19 7 -38t-15 -32.5t-31 -19t-39 2.5q7 14 6.5 33t-10.5 36.5t-30.5 29.5t-53.5 12h-23q-20 0 -32 -5t-18.5 -13.5t-8.5 -20t-2 -24.5v-168v-4q7 8 19.5 18.5t28 20.5t33 16.5t36.5 6.5
q31 0 45.5 -15t14.5 -34t-13 -36.5t-37 -21.5q-4 0 -2 5q8 18 -2 28.5t-29.5 11.5t-45 -9.5t-48.5 -35.5v-147q0 -5 1.5 -15t7.5 -20.5t18.5 -19.5t35.5 -10q5 0 3 -4q-6 -10 -20 -18.5t-31.5 -11.5t-36.5 0.5t-36 18.5l-3 3l-3 -3q-17 -15 -36 -18.5t-36.5 -0.5t-31.5 11.5
t-20 18.5q-2 4 3 4q22 1 35 10t19 19.5t7.5 20.5t1.5 15v366q0 5 -1.5 15.5t-7.5 21t-19 18.5t-35 10q-5 0 -3 4q6 10 20 18.5t31.5 11.5t36.5 -0.5t36 -18.5l3 -3l3 3q24 21 50 21h193q28 0 48.5 2.5t34.5 5.5q16 4 27 9z" />
    <glyph glyph-name="h" unicode="h" horiz-adv-x="576" 
d="M548 14q4 0 2 -4q-6 -10 -20 -18.5t-31.5 -11.5t-36.5 0.5t-35 18.5q-1 1 -2 1.5t-2 1.5l-3 -3q-17 -15 -35.5 -18.5t-36 -0.5t-31.5 11.5t-20 18.5q-2 4 2 4q23 1 36 10t19 19.5t7.5 20.5t1.5 15v163h-174v-163q0 -5 1.5 -15t7.5 -20.5t18.5 -19.5t35.5 -10q5 0 3 -4
q-6 -10 -20 -18.5t-31.5 -11.5t-36.5 0.5t-36 18.5l-3 3l-3 -3q-17 -15 -36 -18.5t-36.5 -0.5t-31.5 11.5t-20 18.5q-2 4 3 4q22 1 35 10t19 19.5t7.5 20.5t1.5 15v366q0 5 -1.5 15t-7.5 20.5t-19 19t-35 10.5q-5 0 -3 4q6 10 20 18.5t31.5 11.5t36.5 -0.5t36 -18.5l3 -3
l3 3q17 15 36 18.5t36.5 0.5t31.5 -11.5t20 -18.5q2 -4 -3 -4q-23 -2 -35.5 -10.5t-18.5 -19t-7.5 -20.5t-1.5 -15v-163h174v163q0 5 -1.5 15t-7.5 20.5t-19 19t-36 10.5q-4 0 -2 4q6 10 20 18.5t31.5 11.5t36 -0.5t35.5 -18.5l3 -3q1 1 2 1.5t2 1.5q16 15 35 18.5t36.5 0.5
t31.5 -11.5t20 -18.5q2 -4 -2 -4q-23 -2 -36 -10.5t-19 -19t-7.5 -20.5t-1.5 -15v-366q0 -5 1.5 -15t7.5 -20.5t19 -19.5t36 -10z" />
    <glyph glyph-name="i" unicode="i" 
d="M252 14q5 0 3 -4q-6 -10 -20 -18.5t-31.5 -11.5t-36.5 0.5t-36 18.5l-3 3l-3 -3q-17 -15 -36 -18.5t-36.5 -0.5t-31.5 11.5t-20 18.5q-2 4 3 4q22 1 35 10t19 19.5t7.5 20.5t1.5 15v366q0 5 -1.5 15t-7.5 20.5t-19 19t-35 10.5q-5 0 -3 4q6 10 20 18.5t31.5 11.5
t36.5 -0.5t36 -18.5l3 -3l3 3q17 15 36 18.5t36.5 0.5t31.5 -11.5t20 -18.5q2 -4 -3 -4q-23 -2 -35.5 -10.5t-18.5 -19t-7.5 -20.5t-1.5 -15v-366q0 -5 1.5 -15t7.5 -20.5t18.5 -19.5t35.5 -10z" />
    <glyph glyph-name="k" unicode="k" horiz-adv-x="561" 
d="M532 14q5 0 3 -4q-6 -10 -20 -18.5t-31.5 -11.5t-36.5 0.5t-36 18.5l-3 3l-3 -3q-17 -15 -36 -18.5t-36.5 -0.5t-31.5 11.5t-20 18.5q-2 4 3 4q29 2 32 15.5t-3 27.5l-92 162l-32 -41v-99q0 -5 1.5 -15t7.5 -20.5t18.5 -19.5t35.5 -10q5 0 3 -4q-6 -10 -20 -18.5
t-31.5 -11.5t-36.5 0.5t-36 18.5l-3 3l-3 -3q-17 -15 -36 -18.5t-36.5 -0.5t-31.5 11.5t-20 18.5q-2 4 3 4q22 1 35 10t19 19.5t7.5 20.5t1.5 15v366q0 5 -1.5 15t-7.5 20.5t-19 19t-35 10.5q-5 0 -3 4q6 10 20 18.5t31.5 11.5t36.5 -0.5t36 -18.5l3 -3l3 3q17 15 36 18.5
t36.5 0.5t31.5 -11.5t20 -18.5q2 -4 -3 -4q-23 -2 -35.5 -10.5t-18.5 -19t-7.5 -20.5t-1.5 -15v-202l169 215l17 22q5 8 9 16.5t3.5 14.5t-6 9t-19.5 1q-5 -2 -2 3q4 4 12 10t18.5 9t22 1.5t23.5 -11.5q12 10 23.5 11.5t22 -1.5t18.5 -9t12 -10q3 -5 -2 -3q-17 3 -35 -7
t-34 -24q-18 -16 -36 -36l-103 -131l143 -252q4 -7 11 -16.5t17.5 -18t25 -15t33.5 -7.5z" />
    <glyph glyph-name="l" unicode="l" horiz-adv-x="511" 
d="M484 -39q-11 4 -27 8q-14 3 -34.5 6t-48.5 3h-193q-26 0 -50 21l-3 3l-3 -3q-17 -15 -36 -18.5t-36.5 -0.5t-31.5 11.5t-20 18.5q-2 4 3 4q22 1 35 10t19 19.5t7.5 20.5t1.5 15v366q0 5 -1.5 15t-7.5 20.5t-19 19t-35 10.5q-5 0 -3 4q6 10 20 18.5t31.5 11.5t36.5 -0.5
t36 -18.5l3 -3l3 3q17 15 36 18.5t37 0.5t32 -11.5t20 -18.5q2 -4 -3 -4q-23 -2 -35.5 -10.5t-18.5 -19t-7.5 -20.5t-1.5 -15l-1 -364q0 -13 2 -24.5t8.5 -20t18.5 -13.5t32 -5h23q33 0 53.5 12t30.5 29t10.5 36.5t-6.5 33.5q20 8 39 2.5t31 -19t15 -32.5t-7 -38
q-3 -5 -6.5 -10.5t-7.5 -10.5q20 -2 34 -9q12 -6 20.5 -18t4.5 -33z" />
    <glyph glyph-name="m" unicode="m" horiz-adv-x="667" 
d="M638 14q5 0 3 -4q-6 -10 -20 -18.5t-31.5 -11.5t-36.5 0.5t-36 18.5l-3 3l-3 -3q-17 -15 -36 -18.5t-36.5 -0.5t-31.5 11.5t-20 18.5q-2 4 3 4q22 1 35 10t19 19.5t7.5 20.5t1.5 15v290l-59 -205l-48 -165q-3 -9 -10.5 -15t-17.5 -6l-81 1q-10 0 -18 5.5t-10 15.5
l-45 154l-67 235v-156v-17v-140q0 -11 1.5 -25t7 -26t16 -18.5t29.5 -3.5q5 0 2 -3q-4 -4 -12 -10t-18.5 -9t-22 -2t-23.5 12q-12 -11 -23.5 -12t-22 2t-18.5 9t-12 10q-3 3 2 3q19 -3 29.5 3.5t16 18.5t7 26t1.5 25v140v17v220q0 23 -15 39t-37 18h-1q-5 0 -3 4
q6 10 20 18.5t31.5 11.5t36.5 -0.5t36 -18.5l3 -3l3 3q17 15 36 18.5t36.5 0.5t31.5 -11.5t20 -18.5q2 -4 -3 -4q-23 -2 -33 -10t-13.5 -18.5t-2 -20.5t3.5 -14l113 -396l102 352l13 44q6 23 -7.5 42t-36.5 21h-1q-5 0 -3 4q6 10 20 18.5t31.5 11.5t36.5 -0.5t36 -18.5l3 -3
l3 3q17 15 36 18.5t36.5 0.5t31.5 -11.5t20 -18.5q2 -4 -3 -4q-23 -2 -35.5 -10.5t-18.5 -19t-7.5 -20.5t-1.5 -15v-366q0 -5 1.5 -15t7.5 -20.5t18.5 -19.5t35.5 -10z" />
    <glyph glyph-name="n" unicode="n" horiz-adv-x="557" 
d="M529 3q5 0 2 -3q-4 -4 -12 -10t-18.5 -9t-22 -2t-23.5 12q-12 -11 -23.5 -12t-22 2t-18.5 9t-12 10q-3 3 2 3q19 -3 29.5 3.5t16 18.5t7 26t1.5 25v44l-338 286v-330q0 -11 1.5 -25t7 -26t16 -18.5t29.5 -3.5q5 0 2 -3q-4 -4 -12 -10t-18.5 -9t-22 -2t-23.5 12
q-12 -11 -23.5 -12t-22 2t-18.5 9t-12 10q-3 3 2 3q19 -3 29.5 3.5t16 18.5t7 26t1.5 25v372q0 11 -1.5 25t-7 26t-16 18.5t-29.5 3.5q-5 -2 -2 3q4 4 12 10t18.5 9t22 1.5t23.5 -11.5q9 10 19 11.5t20.5 -3t21 -12t18.5 -14.5l279 -236v169q0 11 -1.5 25t-7 26t-16 18.5
t-29.5 3.5q-5 -2 -2 3q4 4 12 10t18.5 9t22 1.5t23.5 -11.5q12 10 23.5 11.5t22 -1.5t18.5 -9t12 -10q3 -5 -2 -3q-19 3 -29.5 -3.5t-16 -18.5t-7 -26t-1.5 -25v-372q0 -11 1.5 -25t7 -26t16 -18.5t29.5 -3.5z" />
    <glyph glyph-name="o" unicode="o" horiz-adv-x="504" 
d="M479 261q0 -68 -17 -120.5t-48 -88.5t-75.5 -55t-98.5 -19q-55 0 -99 19t-75.5 55t-48.5 88.5t-17 120.5v1q0 68 17 120.5t48.5 88.5t75.5 55t99 19q54 0 98.5 -19t75.5 -55t48 -88.5t17 -120.5v-1zM240 19q30 0 52.5 17.5t37.5 50t22.5 77t7.5 98.5t-7.5 98.5
t-22.5 76.5t-37.5 49.5t-52.5 17.5t-52.5 -17.5t-38 -49.5t-23 -76.5t-7.5 -98.5t7.5 -98.5t22.5 -77t37.5 -50t53.5 -17.5z" />
    <glyph glyph-name="p" unicode="p" horiz-adv-x="509" 
d="M484 354q0 -49 -17 -84.5t-48 -59t-75 -35.5t-99 -12h-56v-84q0 -5 1.5 -15t7.5 -20.5t18.5 -19.5t35.5 -10q5 0 3 -4q-6 -10 -20 -18.5t-31.5 -11.5t-36.5 0.5t-36 18.5l-3 3l-3 -3q-17 -15 -36 -18.5t-36.5 -0.5t-31.5 11.5t-20 18.5q-2 4 3 4q22 1 35 10t19 19.5
t7.5 20.5t1.5 15v129v21v216q0 5 -1.5 15t-7.5 20.5t-19 19t-35 10.5q-5 0 -3 4q6 10 20 18.5t31.5 11.5t36.5 -0.5t36 -18.5l3 -3l3 3q13 11 27 15.5t28 4.5h59q55 0 99 -11.5t75 -35t48 -59.5t17 -85zM227 203q61 0 99.5 36.5t38.5 114.5q0 77 -29 113.5t-89 37.5
q-23 -1 -34.5 -9t-17 -17.5t-6 -19t-0.5 -14.5v-216v-21v-5h38z" />
    <glyph glyph-name="r" unicode="r" horiz-adv-x="514" 
d="M485 24q5 0 4 -5.5t-3 -9.5q-3 -5 -8.5 -11.5t-15 -12.5t-24.5 -10t-36 -4q-34 0 -54.5 13t-32.5 33t-19 44t-13.5 45t-15.5 37t-26 20h-52v-84q0 -5 1.5 -15t7.5 -20.5t18.5 -19.5t35.5 -10q5 0 3 -4q-6 -10 -20 -18.5t-31.5 -11.5t-36.5 0.5t-36 18.5l-3 3l-3 -3
q-17 -15 -36 -18.5t-36.5 -0.5t-31.5 11.5t-20 18.5q-2 4 3 4q22 1 35 10t19 19.5t7.5 20.5t1.5 15v366q0 5 -1.5 15t-7.5 20.5t-19 19t-35 10.5q-5 0 -3 4q6 10 20 18.5t31.5 11.5t36.5 -0.5t36 -18.5l3 -3l3 3q13 11 27 15.5t28 5.5h59q55 0 99 -12t75 -35.5t48 -59
t17 -84.5v-1q0 -77 -41 -121.5t-113 -60.5q23 -6 38 -20.5t25 -32t18 -35.5t17.5 -32.5t22.5 -22.5t34 -5zM227 203q61 0 99.5 37t38.5 114q0 151 -118 151q-23 -1 -34.5 -9t-17 -17.5t-6 -19t-0.5 -14.5v-242h38z" />
    <glyph glyph-name="s" unicode="s" horiz-adv-x="466" 
d="M131 450q-3 -30 18.5 -54.5t55.5 -46.5t74.5 -43.5t75.5 -46t58.5 -53.5t23.5 -67q0 -39 -18.5 -69.5t-48.5 -50.5t-68.5 -30.5t-78.5 -10.5q-70 0 -115.5 17.5t-71 43.5t-32.5 56t1 56t29 43.5t52 17.5q22 0 35 -12.5t18 -22.5q0 -2 -1 -2q-23 -7 -33 -26t-10 -42
q0 -27 16.5 -46.5t41.5 -30t54 -12t54 7.5t41.5 29t16.5 51q0 28 -21.5 50t-54 42t-70 39.5t-70 43t-54 52t-21.5 67.5t16 67t42.5 46t59.5 27t66 9q47 0 78.5 -11.5t55 -25t41 -23t37.5 -6.5q5 1 8.5 1.5t6.5 2.5q1 1 1 -2q0 -4 -1.5 -12t-6.5 -16.5t-13.5 -14t-20.5 -4.5
q4 -18 -1 -32.5t-17 -24t-28.5 -13.5t-34.5 0q-2 2 -1 4q10 20 9 43.5t-13.5 44t-37.5 34.5t-62 14q-33 0 -55.5 -14.5t-25.5 -43.5z" />
    <glyph glyph-name="t" unicode="t" horiz-adv-x="642" 
d="M615 562q4 -21 -5 -32.5t-21 -17.5q-14 -7 -34 -9q9 -11 15 -21q10 -19 7 -38t-15 -33t-31 -19.5t-39 2.5q7 14 8.5 33t-6.5 36.5t-26.5 29.5t-51.5 12q-16 0 -25 -4.5t-14 -12.5t-6.5 -18.5t-1.5 -22.5v-368q0 -5 1.5 -15.5t7.5 -21t19 -19t36 -9.5q4 -2 2 -4
q-8 -13 -27 -22.5t-42 -9.5q-14 0 -28 4.5t-26 15.5q-2 1 -4 3l-3 -3q-12 -11 -26 -15.5t-28 -4.5q-23 0 -42 9.5t-27 22.5q-3 1 2 4q23 1 36 9.5t19 19t7.5 21t1.5 15.5v368q0 12 -1.5 22.5t-6.5 18.5t-14 12.5t-25 4.5q-33 0 -51.5 -12t-26.5 -29.5t-6.5 -36.5t8.5 -33
q-20 -8 -39 -2.5t-31 19.5t-15.5 33t7.5 38q3 5 6.5 10.5t7.5 10.5q-20 2 -34 9q-12 6 -21 17.5t-4 32.5q11 -5 27 -9q14 -3 34.5 -5.5t48.5 -2.5h144q26 0 49 -20l3 -3q2 2 4 3q23 20 49 20h144q28 0 48.5 2.5t34.5 5.5q16 4 27 9z" />
    <glyph glyph-name="u" unicode="u" horiz-adv-x="567" 
d="M1 514q6 10 20 18.5t31.5 11.5t36.5 -0.5t36 -18.5l3 -3l3 3q17 15 36 18.5t36.5 0.5t31.5 -11.5t20 -18.5q2 -4 -3 -4q-23 -2 -35.5 -10.5t-18.5 -19t-7.5 -20.5t-1.5 -15v-232q0 -54 5 -90t15.5 -58t27 -32.5t39.5 -13.5q27 -4 56.5 -1t54.5 22t41.5 60t16.5 113v235
q0 11 -1.5 25t-6.5 26t-15.5 18.5t-29.5 3.5q-5 -2 -2 3q3 4 11 10t18.5 9t22 1.5t23.5 -11.5q12 10 24 11.5t22.5 -1.5t18.5 -9t11 -10q3 -5 -2 -3q-19 3 -29.5 -3.5t-16 -18.5t-7 -26t-1.5 -25v-235q0 -68 -14.5 -113t-42 -72t-66 -38.5t-86.5 -11.5t-86.5 11.5
t-65.5 38.5t-42 72t-15 113v232q0 5 -1.5 15t-7.5 20.5t-19 19t-35 10.5q-5 0 -3 4z" />
    <glyph glyph-name="v" unicode="v" horiz-adv-x="571" 
d="M4 510q-5 0 -3 4q6 10 20 18.5t31.5 11.5t36.5 -0.5t36 -18.5l3 -3l3 3q17 15 36 18.5t36.5 0.5t31.5 -11.5t20 -18.5q2 -4 -3 -4q-23 -2 -33 -10t-13.5 -18.5t-2 -20.5t3.5 -14l113 -396l102 352l19 68q2 6 3 15.5t-0.5 18.5t-7 16t-16.5 9q-3 0 -3.5 2t1.5 4
q9 5 25 8.5t30 -10.5h2q2 1 10.5 5t19 5.5t21.5 -3t19 -20.5q1 -2 -0.5 -4.5t-3.5 -1.5q-14 4 -30.5 -2t-26.5 -39l-21 -71l-93 -324l-5 -16q-2 -8 -2 -16t4 -15t13 -12t26 -6q4 0 2 -4q-6 -10 -20 -18.5t-31.5 -11.5t-36.5 0.5t-35 18.5q-2 2 -4 3l-3 -3
q-17 -15 -35.5 -18.5t-36 -0.5t-31.5 11.5t-20 18.5q-2 4 2 4q14 1 21.5 6t10.5 12.5t2.5 16t-1.5 15.5l-109 381q-2 6 -6 16t-12 20.5t-22.5 18.5t-36.5 10z" />
    <glyph glyph-name="w" unicode="w" horiz-adv-x="860" 
d="M834 521q1 -2 0 -4.5t-3 -1.5q-14 4 -30.5 -2t-27.5 -39l-114 -395l-5 -16q-2 -8 -2 -16t4 -15t13 -12t26 -6q5 0 3 -4q-6 -10 -20 -18.5t-31.5 -11.5t-36.5 0.5t-36 18.5l-3 3q-2 -2 -4 -3q-17 -15 -35.5 -18.5t-36 -0.5t-31.5 11.5t-20 18.5q-2 4 3 4q14 1 21.5 6
t10.5 12.5t2 16t-2 15.5l-57 198l-52 -183l-5 -16q-2 -8 -2 -16t3.5 -15t12.5 -12t26 -6q5 0 3 -4q-6 -10 -20 -18.5t-31.5 -11.5t-36.5 0.5t-35 18.5q-2 1 -4 3l-3 -3q-17 -15 -35.5 -18.5t-36 -0.5t-31.5 11.5t-20 18.5q-2 2 -1 3t3 1q14 1 21.5 6t10.5 12.5t2.5 16
t-1.5 15.5l-109 381q-2 6 -6 16t-12 20.5t-22.5 18.5t-36.5 10q-5 0 -3 4q6 10 20 18.5t31.5 11.5t36.5 -0.5t36 -18.5l3 -3l3 3q17 15 36 18.5t36.5 0.5t31.5 -11.5t20 -18.5q2 -4 -3 -4q-23 -2 -33 -10t-13.5 -18.5t-2 -20.5t2.5 -14l114 -396l82 284l-32 110
q-2 6 -5.5 16t-12 20.5t-22.5 18.5t-37 10q-4 0 -2 4q6 10 20 18.5t31.5 11.5t36 -0.5t35.5 -18.5l3 -3q2 2 4 3q16 15 35 18.5t36.5 0.5t31.5 -11.5t20 -18.5q2 -4 -2 -4q-23 -2 -33.5 -10t-13.5 -18.5t-1.5 -20.5t2.5 -14l113 -396l120 420q1 6 2 15.5t-0.5 18.5t-7 16
t-16.5 9q-2 0 -2.5 2t1.5 4q9 5 25.5 8.5t30.5 -10.5h2q2 1 10.5 5t19 5.5t21.5 -3t19 -20.5z" />
    <glyph glyph-name="x" unicode="x" horiz-adv-x="555" 
d="M527 3q5 2 2 -3q-4 -4 -12 -10t-18.5 -9t-22 -2t-23.5 12q-12 -11 -23.5 -12t-22 2t-18.5 9t-12 10q-2 3 2 3q13 -2 19 0.5t6.5 8.5t-3 14t-8.5 16l-99 143l-59 -118q-3 -8 -5 -16.5t0 -16.5t9 -13.5t22 -6.5q5 0 3 -4q-6 -10 -20 -18.5t-31.5 -11.5t-36.5 0.5t-36 18.5
l-3 3l-3 -3q-17 -15 -36 -18.5t-36.5 -0.5t-31.5 11.5t-20 18.5q-2 4 3 4q22 1 38.5 9.5t28 19t18 21t8.5 15.5l109 220l-107 155q-2 2 -12.5 14t-25.5 24.5t-33 22t-34 6.5q-5 0 -2 3q4 4 12 10t18.5 9t22 1.5t23.5 -11.5q12 10 23.5 11.5t22 -1.5t18.5 -9t12 -10
q3 -3 -2 -3q-13 2 -18.5 -0.5t-6.5 -8t2 -13t8 -15.5l99 -144l58 117q3 7 5 16t0.5 17t-9 13.5t-22.5 6.5q-4 0 -2 4q6 10 20 18.5t31.5 11.5t36 -0.5t35.5 -18.5l3 -3q1 1 2 1.5t2 1.5q16 15 35 18.5t36.5 0.5t31.5 -11.5t20 -18.5q2 -4 -2 -4q-23 -2 -39.5 -10t-28 -18.5
t-17.5 -21t-9 -15.5l-108 -219l110 -158q4 -5 14.5 -17.5t24.5 -24.5t31 -20t33 -3z" />
    <glyph glyph-name="z" unicode="z" horiz-adv-x="535" 
d="M449 21q20 -2 34 -9q12 -6 21 -18t4 -33q-11 4 -27 8q-14 3 -34 6t-48 3h-206q-16 -1 -32 3.5t-30 17.5l-3 3l-3 -3q-17 -15 -36 -18.5t-36.5 -0.5t-31.5 11.5t-20 18.5q-2 4 3 4q22 1 38.5 9.5t28 19t17.5 21t9 15.5l187 378q6 15 0.5 31.5t-35.5 16.5h-36
q-33 0 -53.5 -12t-30.5 -29.5t-10.5 -36.5t6.5 -33q-20 -8 -39 -2.5t-31 19.5t-15.5 33t7.5 38q3 5 6.5 10.5t7.5 10.5q-20 2 -34 9q-12 6 -21 17.5t-4 32.5q11 -5 27 -9q14 -3 34.5 -5.5t48.5 -2.5h205q15 2 31.5 -2.5t30.5 -17.5l3 -3q2 2 4 3q16 15 35 18.5t36.5 0.5
t31.5 -11.5t20 -18.5q2 -4 -2 -4q-23 -2 -39.5 -10.5t-28 -19t-17.5 -20.5l-9 -15l-187 -379q-3 -7 -5 -14.5t-0.5 -14.5t7.5 -12.5t21 -6.5h48q33 0 54 12t30.5 29.5t10 36.5t-6.5 34q20 8 39 2.5t31 -19.5t15 -33t-7 -38q-3 -5 -6 -10.5t-8 -10.5z" />
    <glyph glyph-name="A" unicode="A" horiz-adv-x="857" 
d="M828 14q5 0 3 -4q-6 -10 -20 -18.5t-31.5 -11.5t-36.5 0.5t-36 18.5l-3 3l-3 -3q-17 -15 -36 -18.5t-36.5 -0.5t-31.5 11.5t-20 18.5q-2 4 3 4q22 1 33 9t15 17.5t2.5 20t-3.5 18.5l-10 38q-7 18 -19.5 45.5t-33.5 56.5q-63 86 -153 113l-76 -290q-2 -14 2.5 -29.5
t21.5 -18.5q2 -1 3 -3t-1 -3q-9 -6 -25 -9.5t-30 11.5h-2q-4 -4 -12 -8t-18 -4t-20.5 5t-19.5 19q-2 7 4 7q5 0 13.5 2t17 6.5t16 13.5t11.5 23l75 287q-8 1 -16.5 1.5t-17.5 1.5q-86 2 -152 -30.5t-105 -96.5q-38 -63 -40 -138t31 -138q1 -2 1.5 -2.5t1.5 -2.5
q23 -38 55 -61t65.5 -32.5t65.5 -7t57 15t38.5 33.5t10.5 49q0 7 8 7q29 0 47 -18.5t18 -43.5q0 -47 -32.5 -76t-81.5 -37.5t-105.5 5.5t-105.5 52t-81.5 101t-32.5 154q0 43 12 84t34 76q42 70 113 108q78 42 180 39q11 -1 21.5 -1.5t21.5 -2.5l57 219q1 5 3 15.5t-1 21
t-12.5 19t-30.5 9.5q-5 0 -3 4q6 10 20 18.5t31.5 11.5t36 -0.5t35.5 -18.5q2 -1 4 -3l3 3q16 15 35 18.5t36.5 0.5t31.5 -11.5t20 -18.5q2 -4 -2 -4q-24 -1 -29 -16.5t-3 -30.5l128 -478q9 -34 21 -61q11 -23 26.5 -43t38.5 -21zM498 336q23 -14 43 -32t38 -40l-92 360
l-66 -253q40 -12 77 -35z" />
    <glyph glyph-name="B" unicode="B" horiz-adv-x="639" 
d="M413 383q52 -16 90 -42t63 -57.5t36.5 -67.5t11.5 -73q0 -66 -26.5 -116t-69.5 -84.5t-98 -53t-113 -21.5t-113 9t-98 39.5t-69.5 70t-26.5 99.5q0 55 32.5 96.5t83.5 58.5v367q-1 7 -3.5 16.5t-8.5 17.5t-16.5 14.5t-27.5 7.5q-4 0 -2 4q7 13 24.5 22.5t37.5 9.5
q12 0 25 -5t24 -16l2 -2l2 2q11 11 24 16t25 5h64h1q54 0 100 -9.5t79.5 -29.5t52.5 -51t19 -74q0 -54 -33.5 -96t-91.5 -57zM226 413q17 0 37 -0.5t35 -2.5q47 0 79 18.5t48 46.5t16.5 60t-15 60t-47.5 46.5t-80 18.5h-14q-33 0 -45.5 -14.5t-13.5 -36.5v-196zM155 157
q-32 0 -52 -19t-26.5 -47t2 -61t32 -61t63 -47t96.5 -19q43 0 83.5 13t71 41.5t49 72t18.5 105.5q0 46 -13.5 89t-40 76t-66.5 53t-94 20h-52v-137q33 -14 49.5 -39.5t19.5 -52.5t-7.5 -51t-32.5 -36q-5 -2 -5 2q0 26 -8 44.5t-21.5 30.5t-30.5 17.5t-35 5.5z" />
    <glyph glyph-name="C" unicode="C" horiz-adv-x="564" 
d="M480 43q24 -3 36 -11t17 -18t5 -19.5t-1 -15.5q-2 -5 -4 -1q-8 9 -27.5 10.5t-36.5 1.5q-9 0 -26.5 -2t-40 -4t-47.5 -4t-49 -2h-6q-73 0 -129 28.5t-94 77.5t-57.5 114.5t-19.5 140.5t19.5 140.5t57.5 114.5t94 77.5t129 28.5h6q24 0 49 -2t47.5 -4t40 -4t26.5 -2
q17 0 36.5 1.5t27.5 11.5q2 2 4 -1q1 -6 1 -16t-5 -19.5t-17 -17.5t-36 -11q23 -28 25.5 -60t-11.5 -57.5t-43 -39t-69 -4.5q-5 1 -7.5 3.5t0.5 4.5q25 19 32.5 49.5t-1.5 58.5t-35.5 48.5t-70.5 20.5q-52 0 -84 -32t-50 -80.5t-24 -104.5t-6 -104t6 -104t24 -104t50 -80.5
t84 -32.5q44 0 70.5 20.5t35.5 49t1.5 58.5t-32.5 49q-3 2 -0.5 4.5t7.5 4.5q40 9 69 -5t43 -39.5t11.5 -57t-25.5 -59.5z" />
    <glyph glyph-name="D" unicode="D" horiz-adv-x="658" 
d="M293 700q88 0 153 -34.5t107.5 -91t62 -128.5t17 -147.5t-28 -147.5t-73.5 -128.5t-118.5 -91t-163.5 -34.5q-41 0 -85 13.5t-80.5 40t-60 66.5t-23.5 93q0 26 7 51t21 46t34.5 36.5t47.5 22.5v331q0 5 -1.5 15.5t-7.5 21.5t-19 19.5t-36 10.5q-5 0 -2 3q6 10 20 19
t31.5 12.5t36 -0.5t35.5 -19q2 -2 4 -3l3 4t9 8.5t15.5 8t22.5 3.5h72zM169 186q-34 0 -56 -18.5t-30.5 -46t-3 -60t25 -60.5t53.5 -47.5t83 -20.5q47 -2 93 16t82 63t58.5 120.5t22.5 189.5q0 166 -56 252t-150 86q-5 -1 -9 -1h-11q-14 0 -21.5 -8t-12 -18.5t-5.5 -21
t-1 -14.5v-337q27 -15 41 -41t16 -53t-8 -50.5t-29 -34.5q-2 -2 -3.5 -1t-1.5 3q4 26 -1 45.5t-16 32t-27 19t-33 6.5z" />
    <glyph glyph-name="E" unicode="E" horiz-adv-x="666" 
d="M579 21q20 -2 34 -9q12 -6 21 -18t5 -33q-11 4 -27 8q-14 3 -34.5 6t-48.5 3h-272q-28 2 -49 21q-2 2 -4 3l-3 -3q-17 -15 -35.5 -18.5t-36 -0.5t-31.5 11.5t-20 18.5q-2 4 2 4q23 1 36 10t19 19.5t7.5 20.5t1.5 15v226q-34 -8 -64 -11t-53 5q-12 5 -19.5 13.5t-7.5 22.5
q23 -28 60 -21.5t84 27.5v258q0 5 -1.5 15.5t-7.5 21t-19 19t-36 9.5q-3 2 -2 4q6 10 20 18.5t31.5 11.5t36 -0.5t35.5 -18.5l3 -3q2 1 4 3q21 19 49 21h272q28 0 48.5 2.5t34.5 5.5q16 4 27 9q4 -21 -5 -33t-21 -18q-14 -7 -34 -8q25 -32 27 -60t-13 -48t-43.5 -29
t-62.5 -2q-5 1 -8.5 3t1.5 4q18 7 24 29t-3.5 45t-37.5 41.5t-78 18.5h-43q-28 0 -43.5 -5t-23 -13.5t-9 -20t-1.5 -24.5v-198q29 13 56.5 22.5t54.5 12.5q48 6 75 -9t37 -38t6.5 -48t-15.5 -40q-4 -2 -4 0q2 15 -5.5 30.5t-27 26t-50.5 13t-75 -9.5q-11 -3 -24.5 -7
t-27.5 -9v-262q0 -13 1.5 -24.5t9 -20t23 -13.5t43.5 -5h43q50 0 78 18.5t37.5 41.5t3.5 45t-24 29q-5 2 -1.5 4t8.5 3q34 7 62.5 -2t43.5 -29t13 -48t-27 -59z" />
    <glyph glyph-name="F" unicode="F" horiz-adv-x="636" 
d="M609 717q4 -21 -5 -33t-21 -18q-14 -7 -34 -8q25 -32 27 -60t-13 -48t-43.5 -29t-62.5 -2q-5 1 -8.5 3t1.5 4q18 7 24 29t-3.5 45t-37 41.5t-78.5 18.5h-42q-28 0 -44 -5t-23.5 -13.5t-9 -20t-1.5 -24.5v-64q0 -29 0.5 -67.5t0.5 -80.5q35 17 70.5 30.5t69.5 18.5
q48 6 75 -9t37 -38t6.5 -48t-15.5 -40q-4 -2 -4 0q2 15 -5.5 30.5t-27 26t-50.5 13t-75 -9.5q-17 -5 -38 -11.5t-43 -14.5v-251v-3q0 -5 1.5 -15t7.5 -20.5t18.5 -19.5t35.5 -10q5 0 3 -4q-6 -10 -20 -18.5t-31.5 -11.5t-37 0.5t-35.5 18.5q-2 2 -4 3l-3 -3
q-17 -15 -35.5 -18.5t-36 -0.5t-31.5 11.5t-20 18.5q-2 4 2 4q23 1 36 10t19 19.5t7.5 20.5t1.5 15v220q-26 -5 -48 -5.5t-39 5.5q-12 5 -19.5 13.5t-7.5 22.5q19 -23 48 -22t66 15v271q0 5 -1.5 15.5t-7.5 21t-19 19t-36 9.5q-4 0 -2 4q6 10 20 18.5t31.5 11.5t36 -0.5
t35.5 -18.5q1 -1 2 -1.5t2 -1.5l3 3q21 19 49 21h272q28 0 48.5 2.5t34.5 5.5q16 4 27 9z" />
    <glyph glyph-name="G" unicode="G" horiz-adv-x="614" 
d="M588 294q2 -4 -3 -4q-23 -2 -36 -10.5t-19.5 -19t-8 -20.5t-1.5 -15v-105v-16v-67q14 -5 21 -13t10 -16.5t2.5 -16t-1.5 -12.5q-2 -5 -4 -1q-8 9 -28.5 10.5t-37.5 1.5q-9 0 -27 -2t-41 -4t-49 -4t-50 -2h-6q-75 0 -132.5 28.5t-97 77.5t-59.5 114.5t-20 140.5t20 140.5
t59.5 114.5t97 77.5t132.5 28.5h6q24 0 50 -2t49 -4t41 -4t27 -2q17 0 37.5 1.5t28.5 10.5q2 3 4 -1q1 -6 1 -15.5t-5 -19.5t-17.5 -18t-36.5 -11q24 -28 26 -59.5t-12.5 -57t-44.5 -39.5t-71 -5q-4 2 -7 4.5t1 4.5q25 15 34.5 44.5t1 59t-36.5 51.5t-76 22
q-54 0 -87.5 -32.5t-52.5 -80.5t-26 -104t-7 -104t7 -104t26 -104t52.5 -80.5t87.5 -32.5q14 0 29.5 4t28 14.5t20.5 28.5t8 46v114q0 5 -1.5 15t-8 20.5t-19.5 19t-36 10.5q-5 0 -3 4q7 10 21 18.5t32 11.5t37.5 -0.5t36.5 -18.5l3 -3q2 1 4 3q17 15 36.5 18.5t37.5 0.5
t32 -11.5t21 -18.5z" />
    <glyph glyph-name="H" unicode="H" horiz-adv-x="862" 
d="M833 14q5 0 3 -4q-6 -10 -20 -18.5t-31.5 -11.5t-36.5 0.5t-36 18.5l-3 3l-3 -3q-17 -15 -36 -18.5t-36.5 -0.5t-31.5 11.5t-20 18.5q-2 4 3 4q22 1 35 10t19 19.5t7.5 20.5t1.5 15v3v52q-7 19 -20 45t-33 53q-72 101 -182 126v-276v-3q0 -5 1.5 -15t7.5 -20.5
t18.5 -19.5t35.5 -10q5 0 3 -4q-6 -10 -20 -18.5t-31.5 -11.5t-36.5 0.5t-36 18.5l-3 3l-3 -3q-17 -15 -36 -18.5t-36.5 -0.5t-31.5 11.5t-20 18.5q-2 4 3 4q22 1 35 10t19 19.5t7.5 20.5t1.5 15v3v279q-68 -10 -120.5 -43t-85.5 -88q-20 -33 -30 -70t-11.5 -75t6.5 -75.5
t26 -70.5q1 -1 1.5 -2t1.5 -2q25 -41 58.5 -65t68.5 -34t69 -7.5t60 15.5t40.5 35.5t11.5 51.5q0 8 8 8q24 0 39 -12.5t20 -32t0 -41.5t-22.5 -41.5t-48 -32t-74.5 -12.5q-94 0 -164 42q-66 38 -103 105q-43 76 -41 169q2 92 48 169q45 73 120 114q28 14 58.5 23.5
t63.5 13.5v194v2q0 5 -1.5 15.5t-7.5 21t-19 19t-35 9.5q-5 0 -3 4q6 10 20 18.5t31.5 11.5t36.5 -0.5t36 -18.5l3 -3l3 3q17 15 36 18.5t36.5 0.5t31.5 -11.5t20 -18.5q2 -4 -3 -4q-23 -1 -35.5 -9.5t-18.5 -19t-7.5 -21t-1.5 -15.5v-2v-196q61 -12 113 -45
q60 -37 105 -100q5 -7 9 -13.5t8 -13.5v368v2q0 5 -1.5 15.5t-7.5 21t-19 19t-35 9.5q-5 0 -3 4q6 10 20 18.5t31.5 11.5t36.5 -0.5t36 -18.5l3 -3l3 3q17 15 36 18.5t36.5 0.5t31.5 -11.5t20 -18.5q2 -4 -3 -4q-23 -1 -35.5 -9.5t-18.5 -19t-7.5 -21t-1.5 -15.5v-2v-515v-3
q0 -5 1.5 -15t7.5 -20.5t18.5 -19.5t35.5 -10z" />
    <glyph glyph-name="I" unicode="I" 
d="M252 14q5 0 3 -4q-6 -10 -20 -18.5t-31.5 -11.5t-36.5 0.5t-36 18.5l-3 3l-3 -3q-17 -15 -36 -18.5t-36.5 -0.5t-31.5 11.5t-20 18.5q-2 4 3 4q22 1 35 10t19 19.5t7.5 20.5t1.5 15v3v515v2q0 5 -1.5 15.5t-7.5 21t-19 19t-35 9.5q-5 0 -3 4q6 10 20 18.5t31.5 11.5
t36.5 -0.5t36 -18.5l3 -3l3 3q17 15 36 18.5t36.5 0.5t31.5 -11.5t20 -18.5q2 -4 -3 -4q-23 -1 -35.5 -9.5t-18.5 -19t-7.5 -21t-1.5 -15.5v-2v-515v-3q0 -5 1.5 -15t7.5 -20.5t18.5 -19.5t35.5 -10z" />
    <glyph glyph-name="J" unicode="J" horiz-adv-x="549" 
d="M523 668q2 -4 -2 -4q-23 -1 -36 -9.5t-19 -19t-7.5 -21t-1.5 -15.5v-354q0 -75 -18.5 -126t-50.5 -82.5t-75.5 -45t-94.5 -13.5q-67 0 -112.5 22t-71 55.5t-31.5 72t4.5 72t37 55.5t66.5 22q23 0 38.5 -10t23.5 -23.5t8 -28.5t-8 -24q-2 -2 -4 -0.5t-4 1.5
q-20 0 -34.5 -13t-21 -32t-4.5 -42t14 -42t35 -32t58 -13q70 0 97 52t27 153v376q0 5 -1.5 15.5t-7.5 21t-19 19t-36 9.5q-4 0 -2 4q6 10 20 18.5t31.5 11.5t36 -0.5t35.5 -18.5q1 -1 2 -1.5t2 -1.5l3 3q16 15 35 18.5t36.5 0.5t31.5 -11.5t20 -18.5z" />
    <glyph glyph-name="K" unicode="K" horiz-adv-x="859" 
d="M640 745q60 0 88.5 -24.5t30 -54t-22 -54t-67.5 -24.5q-3 0 -3 4q6 20 0.5 39t-23 29t-45.5 7t-67 -27t-87.5 -72t-106.5 -128q-15 -20 -28.5 -40.5t-26.5 -40.5q41 -59 91 -132t101 -148q3 -5 6 -9l6 -8q11 -15 29.5 -30.5t47.5 -17.5q5 0 3 -4q-6 -10 -20 -18.5
t-31.5 -11.5t-36.5 0.5t-36 18.5l-3 3q-2 -2 -4 -3q-17 -15 -35.5 -18.5t-36 -0.5t-31.5 11.5t-20 18.5q-2 4 3 4q16 1 23 7t8 13.5t-2.5 16.5t-8.5 17l-6 9l-2 2q-30 44 -59 86t-55 80q-8 -14 -14 -25.5t-10 -19.5v-121q0 -5 1.5 -15t7.5 -20.5t18.5 -19.5t35.5 -10
q5 0 3 -4q-6 -10 -20 -18.5t-31.5 -11.5t-36.5 0.5t-36 18.5l-3 3l-3 -3q-17 -15 -36 -18.5t-36.5 -0.5t-31.5 11.5t-20 18.5q-2 4 3 4q22 1 35 10t19 19.5t7.5 20.5t1.5 15v520q0 5 -1.5 15.5t-7.5 21t-19 19t-35 9.5q-4 2 -3 4q6 10 20 18.5t31.5 11.5t36.5 -0.5t36 -18.5
l3 -3l3 3q17 15 36 18.5t36.5 0.5t31.5 -11.5t20 -18.5q1 -2 -3 -4q-23 -1 -35.5 -9.5t-18.5 -19t-7.5 -21t-1.5 -15.5v-2v-315q21 38 51.5 84t63.5 97q91 137 173 209.5t163 72.5z" />
    <glyph glyph-name="L" unicode="L" horiz-adv-x="589" 
d="M503 20q20 -2 34 -9q12 -6 21 -17.5t4 -32.5q-11 4 -27 8q-14 3 -34 6t-48 3h-272q-13 1 -25.5 5.5t-24.5 15.5l-3 3l-3 -3q-17 -15 -36 -18.5t-36.5 -0.5t-31.5 11.5t-20 18.5q-2 4 3 4q22 1 35 9.5t19 19t7.5 21t1.5 15.5v520q0 5 -1.5 15.5t-7.5 21t-19 19t-35 9.5
q-5 0 -3 4q6 10 20 18.5t31.5 11.5t36.5 -0.5t36 -18.5l3 -3l3 3q17 15 36 18.5t36.5 0.5t31.5 -11.5t20 -18.5q2 -4 -3 -4q-23 -1 -35.5 -9.5t-18.5 -19t-7.5 -21t-1.5 -15.5v-518q0 -13 1.5 -24.5t9 -20t23 -13.5t43.5 -5h42q51 0 78.5 18.5t37 41.5t3.5 45t-24 29
q-4 2 -1 4t8 3q34 7 62.5 -2t43.5 -29t13.5 -48.5t-26.5 -59.5z" />
    <glyph glyph-name="M" unicode="M" horiz-adv-x="1167" 
d="M1139 14q5 0 2 -3q-6 -10 -20 -18.5t-31.5 -12t-36.5 0t-35 18.5l-3 3q-1 -1 -2 -1.5t-2 -1.5q-17 -15 -35.5 -18.5t-36 0t-31.5 12t-20 18.5q-3 3 2 3q23 1 36 10t19 19.5t7.5 21t1.5 15.5v2v446l-188 -430q-8 -20 -30 -20q-21 0 -31 20l-214 504v-606q0 -101 -70 -162
q-30 -27 -69.5 -41t-83.5 -14q-87 0 -145.5 35t-89 87.5t-33 114t21 114t73 87.5t124.5 35q45 0 76 -16t49 -40.5t23 -53t-2.5 -53t-26.5 -40.5t-50 -16q8 16 8 30q0 17 -8.5 31t-22.5 24t-32.5 14.5t-37.5 3.5q-39 -3 -65.5 -27.5t-39 -59.5t-9 -75.5t25 -75t61 -57
t100.5 -22.5q33 0 65.5 10.5t59 32t42.5 55t16 79.5v627q0 17 -12 29t-29 12q-5 0 -3 4q6 10 20 18.5t31.5 11.5t36.5 -0.5t36 -18.5l3 -3l3 3q17 15 36 18.5t36.5 0.5t31.5 -11.5t20 -18.5q2 -4 -3 -4q-17 -1 -25.5 -7t-12 -14t-3 -18t2.5 -18l163 -377l154 357
q6 13 5 26.5t-7.5 24.5t-18 18t-25.5 8h-1q-4 0 -2 4q6 10 20 18.5t31.5 11.5t36 -0.5t35.5 -18.5q1 -1 2 -1.5t2 -1.5l3 3q16 15 35 18.5t36.5 0.5t31.5 -11.5t20 -18.5q2 -4 -2 -4q-23 -1 -36 -9.5t-19 -19t-7.5 -21t-1.5 -15.5v-517v-2q0 -5 1.5 -15.5t7.5 -21t19 -19.5
t36 -10z" />
    <glyph glyph-name="N" unicode="N" horiz-adv-x="1012" 
d="M983 14q5 0 3 -4q-6 -10 -20 -18.5t-31.5 -11.5t-36.5 0.5t-36 18.5l-3 3l-3 -3q-17 -15 -36 -18.5t-36.5 -0.5t-31.5 11.5t-20 18.5q-2 4 3 4q26 2 28.5 16.5t-3.5 31.5q-30 61 -64 131t-69 143t-70 145t-66 137v-628q0 -101 -70 -162q-30 -27 -69.5 -41.5t-83.5 -14.5
q-87 0 -145.5 35t-89 88t-33 114t21 114t73 88t124.5 35q37 0 62 -12t40.5 -31t20.5 -41t2 -42t-14.5 -34.5t-29.5 -18.5q-2 0 -2 1q-1 26 -17.5 43.5t-41.5 25t-53.5 3.5t-52 -22t-39 -50.5t-13.5 -82.5q1 -32 12 -62.5t33.5 -55.5t57.5 -40t84 -15q33 0 65.5 10.5t59 32.5
t42.5 55.5t16 79.5v611v4v6q0 7 -1.5 16t-7 16.5t-16 13.5t-28.5 7q-4 2 -3 4q6 10 20 18.5t31.5 11.5t36.5 -0.5t36 -18.5l3 -3l3 3q17 15 36 18.5t36.5 0.5t31.5 -11.5t20 -18.5q1 -3 -3 -4q-23 -2 -24.5 -16.5t4.5 -30.5l14 -28l250 -518v532q0 11 -1.5 25t-7 26
t-16 18.5t-29.5 2.5q-5 0 -2 3q3 4 11 10t18.5 9.5t22.5 2t24 -11.5q12 10 23.5 11.5t22 -2t18.5 -9.5t12 -10q3 -3 -2 -3q-19 4 -30 -2.5t-16 -18.5t-6.5 -26t-1.5 -25v-525v-5v-5q0 -8 1.5 -16.5t7 -16.5t16 -14t28.5 -7z" />
    <glyph glyph-name="O" unicode="O" horiz-adv-x="586" 
d="M561 339q0 -75 -18.5 -140.5t-54 -114.5t-87.5 -77.5t-120 -28.5h-1q-68 0 -120 28.5t-87.5 77.5t-54 114.5t-18.5 140.5t18.5 140.5t54 114.5t87.5 77.5t120 28.5h1q68 0 120 -28.5t87.5 -77.5t54 -114.5t18.5 -140.5zM281 18q32 0 56 15t41 40t28 58t17.5 68.5t9 71.5
t2.5 68q-1 45 -6 97t-19 99q-8 -9 -19.5 -12.5t-22.5 -3.5t-21 1.5t-15 2.5q-7 2 -2 5q23 31 25.5 56t-7.5 41.5t-29 25.5t-38 9l-1 -1v1q-48 0 -78.5 -32.5t-47 -80.5t-22.5 -104t-6 -104q0 -45 5.5 -97t19.5 -99q7 9 18.5 12.5t23 3.5t21.5 -2l15 -3q2 0 3 -1.5t-1 -2.5
q-24 -32 -26.5 -56.5t8 -41.5t29 -25.5t38.5 -8.5h1z" />
    <glyph glyph-name="P" unicode="P" horiz-adv-x="583" 
d="M119 388q-41 6 -69.5 35.5t-40.5 69.5t-5.5 85.5t35.5 83.5t82 63t135 25q54 0 108 -16t97 -47.5t70 -79.5t27 -112q0 -63 -27 -114.5t-72 -90.5t-102 -65t-117 -38v-108q0 -5 1.5 -15t7.5 -20.5t19 -19.5t36 -10q4 0 2 -4q-6 -10 -20 -18.5t-31.5 -11.5t-36.5 0.5
t-35 18.5l-3 3q-2 -2 -4 -3q-17 -15 -35.5 -18.5t-36 -0.5t-31.5 11.5t-20 18.5q-2 4 2 4q23 1 36 10t19 19.5t7.5 20.5t1.5 15v309zM240 223q97 34 148 109.5t50 175.5q0 39 -12.5 75t-37 64t-61 44.5t-85.5 16.5q-31 0 -59.5 -9t-50 -26.5t-34.5 -42.5t-13 -56
q0 -29 13 -50t32.5 -32.5t42.5 -13t42.5 8.5t32 32t12.5 57q0 4 5 2q19 -12 28.5 -35.5t7.5 -50.5t-17 -52.5t-44 -39.5v-177z" />
    <glyph glyph-name="R" unicode="R" horiz-adv-x="701" 
d="M671 -85q2 0 3.5 -1t0.5 -3q-2 -5 -6 -12.5t-12 -15t-20 -13.5t-30 -7q-46 -3 -75 11.5t-47 40t-27.5 59t-17 68t-15 67t-22 56t-38 35t-62.5 4.5q-15 -5 -30.5 -9t-32.5 -8v-108q0 -5 1.5 -15t7.5 -20.5t19 -19.5t36 -10q4 0 2 -4q-6 -10 -20 -18.5t-31.5 -11.5
t-36.5 0.5t-35 18.5l-3 3q-2 -2 -4 -3q-17 -15 -35.5 -18.5t-36 -0.5t-31.5 11.5t-20 18.5q-2 4 2 4q23 1 36 10t19 19.5t7.5 20.5t1.5 15v309q-41 6 -69.5 35.5t-40.5 69.5t-5.5 85.5t35.5 83.5t82 63t135 25q54 0 108 -16t97 -47.5t70 -79.5t27 -112q0 -46 -15 -86
t-40.5 -73t-61 -59.5t-75.5 -46.5q61 4 98.5 -19t60 -60t35.5 -80.5t26.5 -80t32 -59t52.5 -16.5zM265 578q19 -12 28.5 -35.5t7.5 -50.5t-17 -52.5t-44 -39.5v-92v-29v-33v-16v-7q97 34 148 109.5t50 175.5q0 39 -12.5 75t-37 64t-61 44.5t-85.5 16.5q-31 0 -59.5 -9
t-50 -26.5t-34.5 -42.5t-13 -56q0 -29 13 -50t32.5 -32.5t42.5 -13t42.5 8.5t32 32t12.5 57q0 4 5 2z" />
    <glyph glyph-name="S" unicode="S" horiz-adv-x="542" 
d="M131 544q4 -30 35 -53t75.5 -45.5t94.5 -47t91.5 -57.5t67.5 -76.5t21 -103.5q-3 -47 -24.5 -81t-54.5 -57t-74.5 -34t-86.5 -11q-89 0 -147 24.5t-89 59.5t-37 74.5t8 70t46 45t78 -0.5q5 -2 3 -6q-24 -40 -26.5 -80.5t16 -73.5t56.5 -53.5t95 -20.5q29 0 54 8t43.5 24
t28.5 39t9 53q-1 37 -30 64t-72 50t-93 46t-92.5 52t-70.5 66t-27 90q1 43 18.5 79t48.5 61.5t74.5 39t96.5 12.5q5 -1 9 -1h8h1q3 0 18 -1t37 -1.5t47.5 -0.5t48.5 1t40.5 4t23.5 8q0 1 0.5 0.5t0.5 -1.5q0 -5 -2 -16t-8.5 -22.5t-19 -21t-33.5 -10.5q24 -26 32 -56
t1.5 -55.5t-25.5 -42t-47 -16.5q-12 0 -27 5.5t-22 15.5q-5 5 2 11q23 14 32 40t0.5 52.5t-37 46.5t-80.5 21q-27 0 -53 -7t-46 -21.5t-30.5 -36.5t-6.5 -52z" />
    <glyph glyph-name="T" unicode="T" horiz-adv-x="983" 
d="M783 651q45 -2 65 12.5t27 32.5q8 21 4 49q24 3 42.5 -6.5t28 -25.5t7.5 -35t-18 -35t-49 -26t-86 -6q-45 3 -96 8.5t-107 13.5v-554q0 -5 1.5 -15t7.5 -20.5t19 -19.5t36 -10q4 0 2 -4q-6 -10 -20 -18.5t-31.5 -11.5t-36.5 0.5t-35 18.5q-2 2 -4 3l-3 -3
q-17 -15 -35.5 -18.5t-36 -0.5t-31.5 11.5t-20 18.5q-2 4 2 4q23 1 36 10t19 19.5t7.5 20.5t1.5 15v565v3v3q-48 6 -93 10.5t-86 4.5q-72 0 -121 -27t-75.5 -67.5t-31 -88t10.5 -88t49.5 -67.5t87.5 -27q28 0 54 9.5t43.5 28t23.5 45.5t-5 61q-1 2 0.5 3t3.5 1q35 -4 52 -28
t19 -56q3 -37 -10.5 -65.5t-37.5 -48.5t-56.5 -31t-66.5 -12q-63 -2 -110 19t-77 56t-43.5 80.5t-9.5 93.5t24 93.5t57.5 80.5t92 56t126.5 19q63 -2 135 -10t145 -19q62 -8 108.5 -15t93.5 -10z" />
    <glyph glyph-name="U" unicode="U" horiz-adv-x="628" 
d="M1 668q6 10 20 18.5t31.5 11.5t36.5 -0.5t36 -18.5l3 -3l3 3q17 15 36 18.5t36.5 0.5t31.5 -11.5t20 -18.5q2 -4 -3 -4q-23 -1 -35.5 -9.5t-18.5 -19t-7.5 -21t-1.5 -15.5v-354q0 -56 6 -97t20.5 -68.5t38.5 -42.5t59 -19q32 -4 66.5 4t62.5 33t46 71t18 119v358
q0 11 -1.5 25t-7 26t-16 18.5t-29.5 2.5q-5 0 -2 3q4 4 12 10t18.5 9.5t22 2t23.5 -11.5q12 10 23.5 11.5t22 -2t18.5 -9.5t12 -10q3 -3 -2 -3q-19 4 -29.5 -2.5t-16 -18.5t-7 -26t-1.5 -25v-358q0 -75 -17 -126t-48 -82.5t-75 -45t-99 -13.5q-56 0 -100.5 13.5t-75.5 45
t-47.5 82.5t-16.5 126v354q0 5 -1.5 15.5t-7.5 21t-19 19t-35 9.5q-5 0 -3 4z" />
    <glyph glyph-name="V" unicode="V" horiz-adv-x="624" 
d="M4 664q-5 0 -3 4q6 10 20 18.5t31.5 11.5t36.5 -0.5t36 -18.5l3 -3l3 3q17 15 36 18.5t36.5 0.5t31.5 -11.5t20 -18.5q2 -4 -3 -4q-23 -1 -33.5 -8.5t-14.5 -17.5t-2.5 -21t3.5 -18l3 -8l137 -536l152 582q2 14 -2 29t-22 18q-2 1 -3 3t1 4q10 5 25.5 8.5t29.5 -10.5
l2 -1q4 4 12 8t18 4t20.5 -5t19.5 -19q2 -6 -4 -7q-5 0 -13.5 -1.5t-17 -6.5t-16 -13.5t-11.5 -22.5l-143 -546q-2 -5 -3.5 -15.5t1.5 -21t13 -19t31 -9.5q4 0 2 -4q-6 -10 -20 -18.5t-31.5 -11.5t-36.5 0.5t-35 18.5q-1 1 -2 1.5t-2 1.5l-3 -3q-17 -15 -35.5 -18.5
t-36 -0.5t-31.5 11.5t-20 18.5q-2 4 2 4q12 1 19 5.5t10 11.5t3.5 15t-0.5 15l-128 478q-9 34 -21 61q-11 23 -27 42.5t-38 21.5z" />
    <glyph glyph-name="W" unicode="W" horiz-adv-x="964" 
d="M938 676q3 -5 -3 -7q-6 0 -14 -1.5t-16.5 -6.5t-16 -13.5t-11.5 -22.5l-143 -546q-2 -5 -3.5 -15.5t1.5 -21t12.5 -19t30.5 -9.5q5 0 3 -4q-6 -10 -20 -18.5t-31.5 -11.5t-36.5 0.5t-36 18.5l-3 3l-3 -3q-17 -15 -36 -18.5t-36.5 -0.5t-31.5 11.5t-20 18.5q-2 4 3 4
q23 1 28 17t3 30l-84 316l-81 -298q-2 -5 -3.5 -15.5t1.5 -21t13 -19t31 -9.5q4 0 2 -4q-6 -10 -20 -18.5t-31.5 -11.5t-36.5 0.5t-35 18.5q-1 1 -2 1.5t-2 1.5l-3 -3q-17 -15 -35.5 -18.5t-36 -0.5t-31.5 11.5t-20 18.5q-2 4 2 4q12 1 19 5.5t10 11.5t3.5 15t-0.5 15
l-128 498l-10 40l-1 2q-2 6 -5.5 16t-12 20t-22.5 18t-35 9q-5 0 -3 4q6 10 20 18.5t31.5 11.5t36.5 -0.5t36 -18.5l3 -3l3 3q17 15 36 18.5t36.5 0.5t31.5 -11.5t20 -18.5q2 -4 -3 -4q-23 -1 -33.5 -8.5t-14.5 -17.5t-2.5 -21t3.5 -18l3 -8l137 -536l108 401l-22 103
l-11 40v2q-2 6 -5.5 16t-12 20t-22.5 18t-35 9q-5 0 -3 4q6 10 20 18.5t31.5 11.5t36 -0.5t35.5 -18.5q2 -1 4 -3l3 3q16 15 35 18.5t36.5 0.5t31.5 -11.5t20 -18.5q2 -2 1 -3t-3 -1q-23 -1 -34 -8.5t-14.5 -17.5t-2 -21t3.5 -18l2 -8l138 -536l151 582q2 14 -2 29t-22 18
q-2 1 -2.5 3t1.5 4q9 5 25 8.5t30 -10.5l2 -1q4 4 11.5 8t17.5 4t20.5 -5t19.5 -19z" />
    <glyph glyph-name="X" unicode="X" horiz-adv-x="590" 
d="M562 14q4 0 2 -4q-6 -10 -20 -18.5t-31.5 -11.5t-36.5 0.5t-35 18.5l-3 3q-2 -2 -4 -3q-17 -15 -35.5 -18.5t-36 -0.5t-31.5 11.5t-20 18.5q-2 4 2 4q23 1 30.5 10t7.5 20.5t-5 22t-7 16.5q-10 20 -33.5 68.5t-52.5 109.5l-129 -215l-2 -4q-8 -15 -5 -30t20 -18
q2 -1 2.5 -3t-1.5 -3q-9 -6 -25 -9.5t-30 10.5l-2 1q-3 -4 -11 -8t-18 -4t-20.5 5t-19.5 19q-2 2 -0.5 4.5t3.5 2.5q10 1 28 7t32 26l157 263q-20 42 -43 89.5t-43 89.5q-23 48 -46 97l-5 10q-5 9 -12.5 21t-19 23.5t-26.5 19.5t-33 9q-5 0 -3 4q6 10 20 18.5t31.5 11.5
t36.5 -0.5t36 -18.5l3 -3l3 3q17 15 36 18.5t36.5 0.5t31.5 -11.5t20 -18.5q2 -4 -3 -4q-23 -1 -30.5 -10t-7 -20t5.5 -22t7 -17q9 -19 31 -64.5t50 -103.5l123 206l2 3q8 15 5 30.5t-20 17.5q-2 1 -2.5 3t1.5 4q9 5 24.5 8.5t30.5 -10.5l1 -1q4 4 12 8t18 4t20.5 -5
t19.5 -19q3 -5 -3 -7q-10 0 -28 -6.5t-32 -25.5l-151 -254q20 -42 44 -92t45 -93l48 -100q1 -3 2 -5.5t3 -5.5q4 -9 12 -21t19.5 -23.5t26.5 -19.5t33 -9z" />
    <glyph glyph-name="Z" unicode="Z" horiz-adv-x="590" 
d="M3 717q11 -5 27 -9q14 -3 34.5 -5.5t48.5 -2.5h264q14 0 29 -4.5t28 -16.5q2 -1 4 -3l3 3q16 15 35 18.5t36.5 0.5t31.5 -11.5t20 -18.5q2 -4 -2 -4q-18 -1 -33 -9t-26.5 -19.5t-19.5 -23.5t-12 -21q-2 -3 -3 -5.5t-2 -4.5q-6 -12 -25 -52t-44.5 -93t-54 -112.5
t-53 -110.5t-42 -87.5t-20.5 -42.5q-2 -6 -6.5 -16.5t-4 -21.5t9 -19t31.5 -8h70q51 0 74 18.5t27.5 41.5t-6.5 45t-29 29q-4 2 -0.5 4t7.5 3q34 7 62.5 -2t43.5 -29t13.5 -48t-26.5 -59q20 -2 34 -9q12 -6 21 -18t4 -33q-11 4 -27 8q-14 3 -34 6t-48 3h-253q-14 -1 -29.5 4
t-29.5 17l-3 3l-3 -3q-17 -15 -36 -18.5t-36.5 -0.5t-31.5 11.5t-20 18.5q-2 4 3 4q18 1 33 9t26.5 19.5t19 23.5t12.5 21q2 3 2.5 5.5t2.5 5.5q6 12 25 52t45 93t54 112.5t53 110.5t42 87t20 42l5.5 16.5t2 21.5t-10.5 19t-32 8h-47q-50 0 -78 -18.5t-37.5 -41.5t-3.5 -45
t24 -29q5 -2 1.5 -4t-8.5 -3q-35 -7 -63 2t-43 29t-13 48t27 60q-20 1 -34 8q-12 6 -21.5 18t-4.5 33z" />
    <glyph glyph-name="one" unicode="1" 
d="M252 14q5 0 3 -4q-6 -10 -20 -18.5t-31.5 -11.5t-36.5 0.5t-36 18.5l-3 3l-3 -3q-17 -15 -36 -18.5t-36.5 -0.5t-31.5 11.5t-20 18.5q-2 4 3 4q22 1 35 10t19 19.5t7.5 20.5t1.5 15v3v515v2q0 5 -1.5 15.5t-7.5 21t-19 19t-35 9.5q-5 0 -3 4q6 10 20 18.5t31.5 11.5
t36.5 -0.5t36 -18.5l3 -3l3 3q17 15 36 18.5t36.5 0.5t31.5 -11.5t20 -18.5q2 -4 -3 -4q-23 -1 -35.5 -9.5t-18.5 -19t-7.5 -21t-1.5 -15.5v-2v-515v-3q0 -5 1.5 -15t7.5 -20.5t18.5 -19.5t35.5 -10z" />
    <glyph glyph-name="two" unicode="2" horiz-adv-x="523" 
d="M498 491q0 -49 -19.5 -89t-51 -74t-72 -63t-82 -56.5t-81 -54t-68.5 -54.5h249q5 0 15.5 1.5t21 7.5t19 18.5t9.5 35.5q0 5 4 3q10 -6 18.5 -20t11.5 -31.5t-0.5 -36.5t-18.5 -36l-3 -3l3 -3q15 -17 18.5 -36t0.5 -36.5t-11.5 -31.5t-18.5 -20q-4 -2 -4 3q-1 22 -9.5 35
t-19 19t-21 7.5t-15.5 1.5h-330q-14 0 -22.5 10t-5.5 24q9 47 40.5 88t73 79t87 74.5t84 75t63.5 79.5t25 89q0 82 -38.5 124t-101.5 42q-44 0 -73 -21t-42 -51t-7 -62t33 -53q5 -5 2 -12q-14 -25 -41 -33.5t-53.5 -2.5t-46.5 26t-20 52q0 48 22 84.5t57 60.5t80 36.5
t90 12.5h1q61 0 107.5 -17t77.5 -46t47 -66.5t16 -79.5z" />
    <glyph glyph-name="three" unicode="3" horiz-adv-x="534" 
d="M475 650q-1 -10 -10 -22l-165 -191q76 -18 124 -59t68.5 -92t15 -105.5t-36.5 -99.5t-86.5 -74t-134.5 -29h-1q-45 0 -90 12.5t-80 37t-57 61t-22 84.5q0 32 20 52t46.5 26t53.5 -2.5t41 -33.5q4 -7 -2 -13q-27 -21 -33 -52.5t7 -61.5t42 -51t73 -21q45 0 78.5 23t52 59
t21.5 80t-13 85.5t-51.5 76t-93.5 52.5q-11 3 -17 11.5t-6 19.5q-1 15 10 26l133 130h-221q-5 0 -15.5 -1.5t-21 -7.5t-19 -19t-9.5 -36q0 -4 -4 -2q-10 6 -18.5 20t-11.5 31.5t0.5 36t18.5 35.5q1 1 1.5 2t1.5 2l-3 3q-29 33 -31 63.5t18 43.5q1 1 2 0t1 -3
q3 -20 15.5 -29.5t27.5 -13.5t28.5 -4h18.5h291q20 0 33 -15t10 -35z" />
    <glyph glyph-name="five" unicode="5" horiz-adv-x="523" 
d="M498 187q0 -42 -16 -79.5t-47 -66.5t-77.5 -46t-107.5 -17h-1q-45 0 -90 12.5t-80 37t-57 61t-22 84.5q0 32 20 52t46.5 26t53.5 -2.5t41 -33.5q4 -7 -2 -13q-27 -21 -33 -53t7 -61.5t42 -50.5t73 -21q29 0 54.5 10.5t44.5 31.5t30 51.5t11 71.5q0 58 -27 102t-71.5 73.5
t-102.5 45.5t-119 19q-9 0 -14 8.5t-2 16.5l81 234q7 20 28 20h212q5 0 17 0.5t24 5t22.5 14t12.5 28.5q0 5 4 3q10 -6 16.5 -17.5t8 -26t-4 -31.5t-20.5 -33l-3 -3q1 -1 1.5 -2t1.5 -2q15 -17 18.5 -35.5t0.5 -36t-11.5 -31.5t-18.5 -20q-4 -2 -4 2q-1 23 -9.5 36t-19 19
t-21 7.5t-15.5 1.5h-205q-16 0 -21 -15l-25 -80q-3 -8 2 -15.5t14 -8.5q67 -5 132 -20.5t115.5 -47t81.5 -81.5t31 -124z" />
    <glyph glyph-name="six" unicode="6" horiz-adv-x="520" 
d="M279 412q54 0 94.5 -19.5t67.5 -51t40.5 -71.5t13.5 -80q0 -70 -36.5 -117.5t-91.5 -71t-119.5 -23t-119.5 25t-91.5 73.5t-36.5 123v-10q0 65 18.5 124t50 110t72 94.5t83.5 78t86 61t80 43.5q6 2 9 2q13 0 17 -11.5t-6 -18.5q-81 -58 -149.5 -135.5t-106.5 -165.5
q20 14 51.5 27t73.5 13zM114 200q-2 -62 17 -103t49 -61.5t66 -21t67 18.5t51.5 57.5t20.5 95.5q0 32 -6.5 63.5t-21 57t-36 42t-51.5 18.5q-50 4 -76.5 -13t-35 -39.5t-1.5 -42t25 -19.5q6 0 2 -9q-10 -21 -31.5 -26.5t-38.5 -3.5v-14z" />
    <glyph glyph-name="seven" unicode="7" horiz-adv-x="518" 
d="M450 700q20 0 32.5 -14t9.5 -34q-1 -7 -4 -13t-8 -11q-34 -33 -68.5 -79t-63.5 -111t-49.5 -153.5t-27.5 -206.5q0 -6 2 -16t8.5 -20.5t19 -18.5t34.5 -9q4 0 2 -4q-6 -10 -20 -18.5t-31.5 -11.5t-36.5 0.5t-35 18.5l-3 3q-2 -1 -4 -3q-17 -15 -35.5 -18.5t-36 -0.5
t-31.5 11.5t-20 18.5q-2 4 2 4q19 1 30.5 7t18 14t9 17t3.5 17q9 94 34.5 174t58.5 145t70 113t69 78h-266q-5 0 -15.5 -1.5t-21 -7.5t-19.5 -19t-10 -36q0 -5 -3 -2q-10 6 -18.5 20t-12 31.5t0 36t18.5 35.5q1 1 1.5 2t1.5 2l-3 3q-29 33 -31 63.5t18 43.5q4 2 4 -3
q3 -20 15.5 -29.5t27.5 -13.5t28.5 -4h18.5h337z" />
    <glyph glyph-name="eight" unicode="8" horiz-adv-x="528" 
d="M503 193q0 -51 -18 -91t-50.5 -67t-78.5 -41.5t-103 -15.5h-1h-2q-56 1 -102 15.5t-79 41.5t-51 67t-18 91v1q0 80 42.5 131t114.5 71q-45 20 -73 57.5t-28 88.5q0 37 14 66.5t39.5 49.5t61.5 31t79 11h2h1q43 0 79 -11t61.5 -31t39.5 -49.5t14 -66.5q0 -51 -27.5 -88.5
t-72.5 -57.5q72 -20 114 -71t42 -131v-1zM252 672q-48 -1 -71.5 -35.5t-23.5 -94.5q0 -59 23 -95.5t72 -37.5q48 1 71 37.5t23 95.5q0 60 -23 94.5t-71 35.5zM252 13q31 0 54.5 14.5t39 38.5t23 57t7.5 71q0 36 -7.5 68.5t-23 57.5t-39 39.5t-54.5 14.5q-32 0 -55 -14.5
t-38.5 -39.5t-23 -57.5t-7.5 -68.5q0 -38 7.5 -71t22.5 -57t38.5 -38.5t55.5 -14.5z" />
    <glyph glyph-name="nine" unicode="9" horiz-adv-x="520" 
d="M216 263q-55 0 -95.5 18t-67.5 48t-40 68.5t-13 78.5q0 75 36.5 125t91.5 75t119.5 24.5t119.5 -25.5t91.5 -75t36.5 -124v10q0 -65 -19 -124t-50 -110t-71.5 -94.5t-84 -78.5t-87 -61t-79.5 -43q-4 -2 -8 -2q-13 0 -17 11t6 19q40 29 77.5 63.5t71 72.5t61 79.5
t46.5 85.5q-20 -15 -51.5 -28t-73.5 -13zM380 476q3 62 -16.5 103t-49.5 61.5t-65.5 21t-66.5 -18.5t-51.5 -57.5t-20.5 -95.5q0 -33 6.5 -64.5t21 -56.5t36 -41.5t51.5 -18.5q49 -4 75.5 13t35 39.5t1.5 42t-25 19.5q-6 0 -2 8q11 22 32 27t38 3v15z" />
    <glyph glyph-name="g" unicode="g" horiz-adv-x="526" 
d="M498 14q4 0 2 -4q-6 -10 -20 -18.5t-31.5 -11.5t-36.5 0.5t-35 18.5q-2 1 -4 3l-2 2q-3 3 -4 6q-29 -17 -61 -24t-61 -7q-55 0 -100 18.5t-77.5 54.5t-50 89t-17.5 121t17.5 121t50 89t77.5 54.5t100 18.5q28 0 60 -7t59.5 -22t47 -39t22.5 -58q2 -25 -4.5 -42.5
t-17.5 -29t-26 -16t-29 -4.5q-17 0 -31 8.5t-21 14.5q-2 1 0 3q18 9 27.5 34t4.5 51.5t-27 46.5t-65 20q-31 0 -54 -17.5t-38.5 -50t-23.5 -77t-8 -98.5t8 -98.5t23.5 -77t38.5 -50t54 -17.5q22 0 35.5 6t20.5 15.5t9.5 22t2.5 26.5v72q0 5 -1.5 15.5t-7.5 21t-19 19
t-36 9.5q-4 2 -2 4q6 10 20 18.5t31.5 12t36 0t35.5 -18.5q1 -2 3 -4l4 4q16 15 35 18.5t36.5 0t31.5 -12t20 -18.5q2 -2 -2 -4q-23 -1 -36 -9.5t-19 -19t-7.5 -21t-1.5 -15.5v-82q0 -5 1.5 -15t7.5 -20.5t19 -19.5t36 -10z" />
    <glyph glyph-name="period" unicode="." horiz-adv-x="155" 
d="M130 43q0 -27 -19 -46t-46 -19t-46 19t-19 46t19 46t46 19t46 -19t19 -46z" />
    <glyph glyph-name="comma" unicode="," horiz-adv-x="155" 
d="M130 42q0 -16 -5 -33t-15 -33.5t-25.5 -31t-37.5 -24.5q-2 -1 -4 0.5t0 3.5q6 9 17.5 23t16.5 33q-8 -2 -12 -2q-27 0 -46 19t-19 46t19 46t46 19t46 -19t19 -46v-1v0z" />
    <glyph glyph-name="less" unicode="&#x3c;" horiz-adv-x="397" 
d="M359 545q9 0 12 -8t-3 -14q-46 -45 -111.5 -108.5t-138.5 -134.5q-8 -8 -8 -18t8 -18q73 -71 138.5 -134.5t111.5 -108.5q6 -6 3 -14.5t-12 -8.5h-74q-3 0 -9 4q-21 21 -58 57t-77 75t-77 74.5t-57 55.5q-8 8 -6 20t22 31l253 247q4 3 9 3h74v0z" />
    <glyph glyph-name="greater" unicode="&#x3e;" horiz-adv-x="397" 
d="M87 545q4 0 9 -3l253 -247q20 -19 22 -31t-6 -20q-20 -20 -57 -55.5t-77 -74.5t-77 -75t-58 -57q-6 -4 -9 -4h-74q-9 0 -12 8.5t3 14.5q46 45 111.5 108.5t138.5 134.5q8 8 8 18t-8 18q-73 71 -138.5 134.5t-111.5 108.5q-6 6 -3 14t12 8h74z" />
    <glyph glyph-name="dollar" unicode="$" horiz-adv-x="542" 
d="M286 346q42 -19 84.5 -41t76.5 -50.5t53.5 -65.5t15.5 -86q-3 -42 -23.5 -73.5t-52 -52.5t-71.5 -32t-83 -12q0 -5 0.5 -15.5t3.5 -21t8.5 -19t15.5 -9.5q1 0 1 -3q-3 -10 -9 -18.5t-14 -12t-16.5 0t-15.5 18.5q0 1 -0.5 1.5t-0.5 1.5q0 -1 -2 -3q-7 -15 -15.5 -18.5
t-16 0t-13.5 12t-9 18.5q0 3 1 3q10 1 15.5 10t8.5 19.5t3.5 21t0.5 15.5v1q-77 6 -126.5 30.5t-75 57t-29 67t11.5 60.5t46.5 37.5t75.5 -1.5q4 -2 3 -6q-21 -33 -25 -66.5t8 -62t40 -49.5t71 -29v193v13v48q-38 17 -74.5 35.5t-65.5 42t-46.5 53t-16.5 67.5
q2 75 56.5 122.5t146.5 54.5q0 6 -1 16t-4 20t-8.5 17.5t-14.5 8.5q-1 0 -1 4q3 10 9 18.5t13.5 11.5t16 -0.5t15.5 -18.5q2 -2 2 -3q0 1 0.5 1.5t0.5 1.5q7 15 15.5 18.5t16.5 0.5t14 -11.5t9 -18.5q0 -4 -1 -4q-9 -1 -14.5 -8.5t-8.5 -17.5t-4 -20t-1 -16q5 0 21 -0.5
t37.5 -1t46 -0.5t47 1t39.5 3.5t23 7.5q0 1 0.5 0.5t0.5 -1.5q0 -5 -2 -15t-8.5 -21t-19 -19.5t-33.5 -9.5q24 -24 32 -51.5t1.5 -51.5t-25.5 -39.5t-47 -15.5q-12 0 -27 5t-22 15q-5 5 2 10q22 12 31 35t2.5 46.5t-30.5 42t-69 23.5v-219zM131 458q4 -26 32 -46.5t69 -40.5
v193q-22 -4 -41.5 -12.5t-34 -21.5t-21.5 -31t-4 -41zM286 -31q28 1 51.5 9t41 22.5t27 35.5t8.5 48q-2 39 -39 66.5t-89 51.5v-23v-13v-197z" />
    <glyph glyph-name="ampersand" unicode="&#x26;" horiz-adv-x="534" 
d="M306 -65v-2q0 -5 1.5 -15.5t6.5 -21t16 -19.5t30 -10q5 0 2 -3q-5 -10 -17 -18.5t-26.5 -12t-31 0t-30.5 18.5l-3 3q0 -1 -2 -3q-14 -15 -30.5 -18.5t-31 0t-26.5 12t-17 18.5q-3 3 2 3q19 1 30 10t16 19.5t6.5 21t1.5 15.5v2v6q-66 10 -111 40.5t-68 72t-24 89t21.5 91
t69 78t118.5 50.5l-165 176q-9 10 -10 21q-3 18 10 32t33 14h126q0 7 -2.5 16.5t-8 18.5t-16 16t-27.5 8q-4 0 -2 4q5 10 17 18.5t26.5 11.5t31 -0.5t30.5 -18.5q2 -2 2 -3l3 3q14 15 30.5 18.5t31 0.5t26.5 -11.5t17 -18.5q2 -4 -2 -4q-17 -1 -27.5 -8t-16.5 -16t-8 -18.5
t-2 -16.5h62h18.5t28.5 3.5t27.5 12.5t15.5 27q0 2 1 3t2 0q20 -12 18 -40t-31 -59l-3 -3l3 -3q15 -15 18.5 -33t0.5 -34t-11.5 -28.5t-18.5 -18.5q-4 -2 -4 2q-2 21 -10 33t-18.5 17.5t-21 7t-15.5 1.5h-221l133 -121q11 -10 10 -23q0 -11 -6.5 -19t-16.5 -11
q-58 -16 -93.5 -48t-51.5 -70.5t-13 -79t21.5 -73.5t52 -54.5t78.5 -21.5q43 0 72.5 19.5t42.5 47t7 56.5t-33 49q-6 4 -2 12q14 23 41 31t53.5 2.5t46.5 -24t20 -48.5q0 -39 -17 -69.5t-45 -53t-65 -36t-76 -18.5v-5z" />
    <glyph glyph-name="at" unicode="@" horiz-adv-x="962" 
d="M202 262q0 68 17.5 120.5t50.5 88.5t79 55t103 19q89 0 152 -46q17 5 30.5 11.5t22.5 14.5q11 8 19 18q9 5 18 -0.5t9 -15.5v-448q0 -6 2 -19.5t13 -25.5q12 -12 30.5 -8.5t36 29.5t29.5 77t12 134q0 88 -28 161t-77 125.5t-114 81t-138 28.5q-74 0 -139 -28.5
t-113.5 -81t-76.5 -125.5t-29 -161q1 -88 29 -161t76.5 -125t113.5 -80.5t139 -28.5q104 0 187 55q8 5 17.5 4t16.5 -8q9 -10 6.5 -23t-14.5 -19q-48 -23 -102 -35t-111 -12q-97 0 -182.5 34t-149 93t-100.5 137.5t-37 168.5t37 169t100.5 138t149 93t182.5 34t182 -34
t148.5 -93t100.5 -138t37 -169q0 -21 -3 -50.5t-11.5 -61.5t-24.5 -63.5t-42.5 -56.5t-65.5 -40.5t-92 -15.5q-35 0 -60.5 12t-39.5 30q-62 -42 -146 -42q-57 0 -103 19t-79 55t-50.5 88.5t-17.5 120.5v1zM452 504q-31 0 -54.5 -17.5t-39 -49.5t-23.5 -76.5t-8 -98.5
t7.5 -98.5t23 -77t39 -50t55.5 -17.5t56 17.5t39.5 50t23 77t7.5 98.5t-7.5 98.5t-23.5 76.5t-39.5 49.5t-55.5 17.5z" />
    <glyph glyph-name="parenleft" unicode="(" horiz-adv-x="238" 
d="M110 98q0 -100 19 -152.5t68 -68.5q16 -5 16 -22q0 -10 -7 -17t-18 -5q-44 3 -79 19t-59 47.5t-37 80.5t-13 118v336q0 69 13 118t37 80.5t59 47.5t79 20q11 1 18 -6t7 -17q0 -17 -16 -22q-49 -15 -68 -67.5t-19 -153.5v-336z" />
    <glyph glyph-name="parenright" unicode=")" horiz-adv-x="238" 
d="M103 434q0 101 -19 153.5t-68 67.5q-16 5 -16 22q0 10 7 17t18 6q44 -4 79 -20t59 -47.5t37 -80.5t13 -118v-336q0 -69 -13 -118t-37 -80.5t-59 -47.5t-79 -19q-11 -2 -18 5t-7 17q0 17 16 22q49 16 68 68.5t19 152.5v336v0z" />
    <glyph glyph-name="bracketleft" unicode="[" horiz-adv-x="309" 
d="M264 -127q8 0 14 -6t6 -14t-6 -14t-14 -6h-104q-24 2 -44 20l-3 3l-3 -3q-15 -15 -31.5 -18.5t-32 0t-27.5 12t-18 18.5q-1 1 0 2t3 1q20 1 31 10t16.5 19.5t7 21t1.5 15.5v2v661v2q0 5 -1.5 15.5t-7 21t-16.5 19t-31 9.5q-5 0 -3 4q6 10 18 18.5t27.5 11.5t32 -0.5
t31.5 -18.5l3 -3l3 3q11 11 22 15.5t22 5.5h104q8 0 14 -6t6 -14t-6 -14t-14 -6h-21q-41 0 -58.5 -15t-17.5 -62v-2v-629v-3q0 -23 4.5 -38t13.5 -23.5t23.5 -11.5t34.5 -3h21v0z" />
    <glyph glyph-name="braceleft" unicode="{" horiz-adv-x="309" 
d="M264 -128q8 0 14 -6t6 -14t-6 -14t-14 -6h-104v1q-11 1 -22 5t-22 15l-3 3l-3 -3q-15 -15 -31.5 -18.5t-32 -0.5t-27.5 11.5t-18 18.5q-2 4 3 4q20 1 31 10t16.5 19.5t7 20.5t1.5 15v3v236q0 21 -7.5 34.5t-17 23t-17 18t-7.5 18.5t7.5 18.5t17 18t17 23t7.5 34.5v237v2
q0 5 -1.5 15.5t-7 21t-16.5 19t-31 9.5q-5 0 -3 4q6 10 18 18.5t27.5 11.5t32 -0.5t31.5 -18.5l3 -3l3 3q11 11 22 15.5t22 5.5h104q8 0 14 -6t6 -14t-6 -14t-14 -6h-21q-41 0 -58.5 -15t-17.5 -62v-2v-214q0 -22 -16 -36.5t-35 -25.5t-36 -20t-18 -19q1 -10 18 -19t36 -20
t35 -25.5t16 -36.5v-214v-2q0 -47 17.5 -62t58.5 -15h21v0z" />
    <glyph glyph-name="braceright" unicode="}" horiz-adv-x="309" 
d="M40 -128q40 0 58.5 15t18.5 62v2v214q0 22 16 36.5t35 25.5t35.5 20t18.5 19q-2 10 -18.5 19t-35.5 20t-35 25.5t-16 36.5v214v2q0 47 -18.5 62t-58.5 15h-20q-8 0 -14 6t-6 14t6 14t14 6h104q11 -1 22 -5.5t22 -15.5l3 -3l3 3q15 15 31.5 18.5t32 0.5t27.5 -11.5
t18 -18.5q2 -4 -3 -4q-20 -1 -31 -9.5t-16.5 -19t-7 -21t-1.5 -15.5v-2v-237q0 -21 7.5 -34.5t17 -23t17 -18t7.5 -18.5t-7.5 -18.5t-17 -18t-17 -23t-7.5 -34.5v-236v-3q0 -5 1.5 -15t7 -20.5t16.5 -19.5t31 -10q5 0 3 -4q-6 -10 -18 -18.5t-27.5 -11.5t-32 0.5t-31.5 18.5
l-3 3l-3 -3q-11 -11 -22 -15t-22 -5v-1h-104q-8 0 -14 6t-6 14t6 14t14 6h20z" />
    <glyph glyph-name="bracketright" unicode="]" horiz-adv-x="309" 
d="M40 -127q20 0 34.5 3t24 11.5t14 23.5t4.5 38v3v629v2q0 47 -18.5 62t-58.5 15h-20q-8 0 -14 6t-6 14t6 14t14 6h104q11 -1 22 -5.5t22 -15.5l3 -3l3 3q15 15 31.5 18.5t32 0.5t27.5 -11.5t18 -18.5q2 -4 -3 -4q-20 -1 -31 -9.5t-16.5 -19t-7 -21t-1.5 -15.5v-2v-661v-2
q0 -5 1.5 -15.5t7 -21t16.5 -19.5t31 -10q2 0 3 -1t0 -2q-6 -10 -18 -18.5t-27.5 -12t-32 0t-31.5 18.5l-3 3l-3 -3q-20 -18 -44 -20h-104q-8 0 -14 6t-6 14t6 14t14 6h20z" />
    <glyph glyph-name="slash" unicode="/" horiz-adv-x="384" 
d="M109 -155q-3 -12 -17 -12h-74q-9 0 -14.5 7t-2.5 16l248 831q5 13 17 13h75q9 0 14.5 -7t2.5 -16l-249 -832v0z" />
    <glyph glyph-name="hyphenminus" unicode="-" horiz-adv-x="524" 
d="M463 341q0 2 3 2q10 -4 18.5 -13t12 -20t0 -23.5t-18.5 -22.5q-1 -1 -1.5 -1t-1.5 -1q2 -2 3 -2q15 -11 18.5 -23t0 -23t-12 -20t-18.5 -13q-3 -3 -3 2q-2 14 -10.5 22t-19 12t-21 5t-15.5 1h-2h-291h-2q-5 0 -15.5 -1t-21 -5t-19 -12t-9.5 -22q-2 -4 -4 -2
q-10 4 -18.5 13t-12 20t0 23t18.5 23q2 0 4 2q-1 1 -2 1t-2 1q-15 10 -18.5 22.5t0 23.5t12 20t18.5 13q3 0 4 -2q1 -15 9.5 -23t19 -11.5t21 -4.5t15.5 -1h2h291h2q5 0 15.5 1t21 4.5t19 11.5t10.5 23z" />
    <glyph glyph-name="equal" unicode="=" horiz-adv-x="524" 
d="M466 215q10 -4 18.5 -13t12 -20t0 -23.5t-18.5 -22.5q-1 -1 -1.5 -1t-1.5 -1q2 -2 3 -2q15 -11 18.5 -23t0 -23t-12 -20t-18.5 -13q-3 -3 -3 2q-2 14 -10.5 22t-19 12t-21 5t-15.5 1h-2h-291h-2q-5 0 -15.5 -1t-21 -5t-19 -12t-9.5 -22q-2 -4 -4 -2q-10 4 -18.5 13
t-12 20t0 23t18.5 23q2 0 4 2q-1 1 -2 1t-2 1q-15 10 -18.5 22.5t0 23.5t12 20t18.5 13q3 0 4 -2q1 -15 9.5 -23t19 -11.5t21 -4.5t15.5 -1h2h291h2q5 0 15.5 1t21 4.5t19 11.5t10.5 23q0 2 3 2zM478 384q15 -11 18.5 -23t0 -23t-12 -19.5t-18.5 -12.5q-3 -3 -3 1
q-2 15 -10.5 23t-19 12t-21 5t-15.5 1h-2h-291h-2q-5 0 -15.5 -1t-21 -5t-19 -12t-9.5 -23q-3 -3 -4 -1q-10 4 -18.5 12.5t-12 19.5t0 23t18.5 23q2 2 4 2q-1 1 -2 1.5t-2 1.5q-15 10 -18.5 22t0 23t12 20t18.5 13q1 1 4 -1q1 -15 9.5 -23t19 -12t21 -5t15.5 -1h2h291h2
q5 0 15.5 1t21 5t19 12t10.5 23q0 4 3 1q10 -4 18.5 -13t12 -20t0 -23t-18.5 -22l-3 -3q1 0 3 -2z" />
    <glyph glyph-name="plus" unicode="+" horiz-adv-x="593" 
d="M547 260q15 -11 18.5 -23t0.5 -23t-11.5 -20t-18.5 -13q-2 -1 -4 2q-1 14 -9.5 22t-19 12t-21 5t-15.5 1h-2h-142v-141v-3q0 -5 1 -15t5 -20.5t12 -19.5t23 -10q3 0 1 -4q-4 -10 -13 -18.5t-20 -11.5t-23 0.5t-22 18.5l-3 3q0 -1 -2 -3q-11 -15 -23 -18.5t-23 -0.5
t-19.5 11.5t-12.5 18.5q-2 4 1 4q15 1 23 10t12 19.5t5 20.5t1 15v3v141h-142h-2q-5 0 -15.5 -1t-21 -5t-19 -12t-9.5 -22q-2 -4 -4 -2q-10 4 -18.5 13t-12 20t0 23t18.5 23q2 0 4 2q-1 1 -2 1t-2 1q-15 10 -18.5 22.5t0 23.5t12 20t18.5 13q3 0 4 -2q1 -15 9.5 -23
t19 -11.5t21 -4.5t15.5 -1h2h142v141v3q0 5 -1 15t-5 20.5t-12 19t-23 10.5q-3 0 -1 4q4 10 12.5 18.5t19.5 11.5t23 -0.5t23 -18.5q2 -2 2 -3l3 3q10 15 22 18.5t23 0.5t20 -11.5t13 -18.5q2 -4 -1 -4q-15 -2 -23 -10.5t-12 -19t-5 -20.5t-1 -15v-3v-141h142h2q5 0 15.5 1
t21 4.5t19 11.5t9.5 23q1 2 4 2q10 -4 18.5 -13t11.5 -20t-0.5 -23.5t-18.5 -22.5q-1 -1 -1.5 -1t-1.5 -1q2 -2 3 -2z" />
    <glyph glyph-name="question" unicode="?" horiz-adv-x="523" 
d="M250 700q61 0 107.5 -17t77.5 -46t47 -66.5t16 -79.5q0 -48 -17.5 -97.5t-45 -97t-59.5 -91.5t-61.5 -83.5t-51.5 -72t-29 -55.5q-4 -16 -20 -16q-10 0 -16.5 7.5t-4.5 17.5q5 31 22 63.5t38.5 68t45 75t43.5 84t33 95t13 108.5q0 82 -38.5 124t-101.5 42q-44 0 -73 -21
t-42 -51t-7 -62t33 -53q5 -5 2 -12q-14 -25 -41 -33.5t-53.5 -2.5t-46.5 26t-20 52q0 48 22 84.5t57 60.5t80 36.5t90 12.5h1zM213 -50q25 0 42 -17t17 -42q0 -24 -17 -41t-42 -17q-24 0 -41 17t-17 41q0 25 17 42t41 17z" />
    <glyph glyph-name="exclam" unicode="!" 
d="M128 -50q24 0 41.5 -17t17.5 -42q0 -24 -17.5 -41t-41.5 -17t-41 17t-17 41q0 25 17 42t41 17zM255 668q2 -4 -3 -4q-23 -1 -35.5 -9.5t-18.5 -19t-7.5 -21t-1.5 -15.5l-38 -600q0 -8 -6.5 -14.5t-15.5 -6.5t-15.5 6t-6.5 15l-40 600q0 5 -1.5 15.5t-7.5 21t-19 19
t-35 9.5q-5 0 -3 4q6 10 20 18.5t31.5 11.5t36.5 -0.5t36 -18.5l3 -3l3 3q17 15 36 18.5t36.5 0.5t31.5 -11.5t20 -18.5z" />
    <glyph glyph-name="colon" unicode=":" horiz-adv-x="155" 
d="M130 43q0 -27 -19 -46t-46 -19t-46 19t-19 46t19 46t46 19t46 -19t19 -46zM130 480q0 -27 -19 -46t-46 -19t-46 19t-19 46t19 46t46 19t46 -19t19 -46z" />
    <glyph glyph-name="semicolon" unicode=";" horiz-adv-x="155" 
d="M130 480q0 -27 -19 -46t-46 -19t-46 19t-19 46t19 46t46 19t46 -19t19 -46zM130 42q0 -16 -5 -33t-15 -33.5t-25.5 -31t-37.5 -24.5q-2 -1 -4 0.5t0 3.5q6 9 17.5 23t16.5 33q-8 -2 -12 -2q-27 0 -46 19t-19 46t19 46t46 19t46 -19t19 -46v-1z" />
    <glyph glyph-name="numbersign" unicode="#" horiz-adv-x="1049" 
d="M1006 495q9 0 14 -7.5t3 -15.5l-22 -72q-3 -12 -17 -12h-220l-66 -221h210q9 0 14 -7.5t3 -15.5l-22 -72q-3 -12 -17 -12h-220l-64 -215q-5 -12 -17 -12h-75q-9 0 -14.5 7t-2.5 16l61 204h-192l-64 -215q-5 -12 -17 -12h-75q-9 0 -14.5 7t-2.5 16l61 204h-232
q-9 0 -14 7.5t-3 15.5l22 71q3 13 17 13h242l66 221h-232q-9 0 -14 7.5t-3 15.5l22 71q3 13 17 13h242l58 192q3 13 17 13h74q9 0 14.5 -7t2.5 -16l-54 -182h192l58 192q3 13 17 13h74q9 0 14.5 -7t2.5 -16l-54 -182h210zM652 388h-192l-66 -221h192z" />
    <glyph glyph-name="backslash" unicode="\" horiz-adv-x="384" 
d="M1 677q-3 9 2.5 16t14.5 7h74q14 0 17 -13l249 -831q3 -9 -2.5 -16t-14.5 -7h-75q-12 0 -17 12z" />
    <glyph glyph-name="asciicircum" unicode="^" horiz-adv-x="251" 
d="M224 558q2 -4 2 -6v-38q0 -10 -8 -10q-4 0 -6 4l-95 127q-2 3 -4 3t-5 -3l-94 -127q-4 -4 -6 -4q-8 0 -8 10v38q0 2 2 6l95 129q10 13 17 13q4 0 8 -4l102 -138v0z" />
    <glyph glyph-name="endash" unicode="&#x2013;" horiz-adv-x="575" 
d="M514 341q1 2 4 2q10 -4 18.5 -13t11.5 -20t-0.5 -23.5t-18.5 -22.5q-1 -1 -1.5 -1t-1.5 -1q2 -2 3 -2q15 -11 18.5 -23t0.5 -23t-11.5 -20t-18.5 -13q-2 -1 -4 2q-1 14 -9.5 22t-19 12t-21 5t-15.5 1h-2h-343h-2q-5 0 -15.5 -1t-21 -5t-19 -12t-9.5 -22q-2 -4 -4 -2
q-10 4 -18.5 13t-12 20t0 23t18.5 23q2 0 4 2q-1 1 -2 1t-2 1q-15 10 -18.5 22.5t0 23.5t12 20t18.5 13q3 0 4 -2q1 -15 9.5 -23t19 -11.5t21 -4.5t15.5 -1h2h343h2q5 0 15.5 1t21 4.5t19 11.5t9.5 23z" />
    <glyph glyph-name="emdash" unicode="&#x2014;" horiz-adv-x="723" 
d="M662 341q0 2 3 2q10 -4 18.5 -13t12 -20t0 -23.5t-18.5 -22.5q-1 -1 -1.5 -1t-1.5 -1q2 -2 3 -2q15 -11 18.5 -23t0 -23t-12 -20t-18.5 -13q-3 -3 -3 2q-2 14 -10.5 22t-19 12t-21 5t-15.5 1h-2h-490h-2q-5 0 -15.5 -1t-21 -5t-19 -12t-9.5 -22q-2 -4 -4 -2
q-10 4 -18.5 13t-12 20t0 23t18.5 23q2 0 4 2q-1 1 -2 1t-2 1q-15 10 -18.5 22.5t0 23.5t12 20t18.5 13q3 0 4 -2q1 -15 9.5 -23t19 -11.5t21 -4.5t15.5 -1h2h490h2q5 0 15.5 1t21 4.5t19 11.5t10.5 23z" />
    <glyph glyph-name="underscore" unicode="_" horiz-adv-x="723" 
d="M662 -51q0 2 3 2q10 -4 18.5 -13t12 -20t0 -23.5t-18.5 -22.5q-1 -1 -1.5 -1t-1.5 -1q2 -2 3 -2q15 -11 18.5 -23t0 -23t-12 -20t-18.5 -13q-3 -3 -3 2q-2 14 -10.5 22t-19 12t-21 5t-15.5 1h-2h-490h-2q-5 0 -15.5 -1t-21 -5t-19 -12t-9.5 -22q-2 -4 -4 -2
q-10 4 -18.5 13t-12 20t0 23t18.5 23q2 0 4 2q-1 1 -2 1t-2 1q-15 10 -18.5 22.5t0 23.5t12 20t18.5 13q3 0 4 -2q1 -15 9.5 -23t19 -11.5t21 -4.5t15.5 -1h2h490h2q5 0 15.5 1t21 4.5t19 11.5t10.5 23z" />
    <glyph glyph-name="quotedblbase" unicode="&#x201e;" horiz-adv-x="297" 
d="M130 42q0 -16 -5 -33t-15 -33.5t-25.5 -31t-37.5 -24.5q-2 -1 -4 0.5t0 3.5q6 9 17.5 23t16.5 33q-8 -2 -12 -2q-27 0 -46 19t-19 46t19 46t46 19t46 -19t19 -46v-1zM272 42q0 -16 -5 -33t-15 -33.5t-25.5 -31t-37.5 -24.5q-2 -1 -4 0.5t0 3.5q6 9 17.5 23t16.5 33
q-8 -2 -12 -2q-27 0 -46 19t-19 46t19 46t46 19t46 -19t19 -46v-1z" />
    <glyph glyph-name="quotesinglbase" unicode="&#x201a;" horiz-adv-x="155" 
d="M130 42q0 -16 -5 -33t-15 -33.5t-25.5 -31t-37.5 -24.5q-2 -1 -4 0.5t0 3.5q6 9 17.5 23t16.5 33q-8 -2 -12 -2q-27 0 -46 19t-19 46t19 46t46 19t46 -19t19 -46v-1v0z" />
    <glyph glyph-name="quotedblright" unicode="&#x201d;" horiz-adv-x="297" 
d="M130 634q0 -16 -5 -33t-15 -33.5t-25.5 -31t-37.5 -24.5q-2 -1 -4 0.5t0 3.5q6 8 17.5 22.5t16.5 32.5q-4 -1 -12 -1q-27 0 -46 19t-19 46t19 46t46 19t46 -19t19 -46v-1zM272 634q0 -16 -5 -33t-15 -33.5t-25.5 -31t-37.5 -24.5q-2 -1 -4 0.5t0 3.5q6 8 17.5 22.5
t16.5 32.5q-4 -1 -12 -1q-27 0 -46 19t-19 46t19 46t46 19t46 -19t19 -46v-1z" />
    <glyph glyph-name="quoteright" unicode="&#x2019;" horiz-adv-x="155" 
d="M130 634q0 -16 -5 -33t-15 -33.5t-25.5 -31t-37.5 -24.5q-2 -1 -4 0.5t0 3.5q6 8 17.5 22.5t16.5 32.5q-4 -1 -12 -1q-27 0 -46 19t-19 46t19 46t46 19t46 -19t19 -46v-1v0z" />
    <glyph glyph-name="quotedblleft" unicode="&#x201c;" horiz-adv-x="297" 
d="M142 578q0 32 19.5 66.5t63.5 55.5q2 1 4 -1t0 -4q-6 -8 -17.5 -22t-16.5 -33q8 2 12 2q27 0 46 -19.5t19 -45.5q0 -27 -19 -46t-46 -19t-46 19t-19 46v1zM0 578q0 32 19.5 66.5t63.5 55.5q2 1 4 -1t0 -4q-6 -8 -17.5 -22t-16.5 -33q8 2 12 2q27 0 46 -19.5t19 -45.5
q0 -27 -19 -46t-46 -19t-46 19t-19 46v1z" />
    <glyph glyph-name="quoteleft" unicode="&#x2018;" horiz-adv-x="155" 
d="M0 578q0 32 19.5 66.5t63.5 55.5q2 1 4 -1t0 -4q-6 -8 -17.5 -22t-16.5 -33q8 2 12 2q27 0 46 -19.5t19 -45.5q0 -27 -19 -46t-46 -19t-46 19t-19 46v1v0z" />
    <glyph glyph-name="bullet" unicode="&#x2022;" horiz-adv-x="236" 
d="M211 328q0 -22 -8.5 -41t-22.5 -33.5t-33.5 -22.5t-41.5 -8t-41 8t-33.5 22.5t-22.5 33.5t-8 41t8 41t22.5 33t33.5 22.5t41 8.5t41.5 -8.5t33.5 -22.5t22.5 -33t8.5 -41z" />
    <glyph glyph-name="aacute" unicode="&#xe1;" horiz-adv-x="571" 
d="M331 700q8 0 4 -8l-98 -122q-2 -2 -4 -2h-22q-6 0 -4 6l58 123q0 3 4 3h62zM542 14q5 0 3 -4q-6 -10 -20 -18.5t-31.5 -11.5t-36.5 0.5t-36 18.5l-3 3l-3 -3q-17 -15 -36 -18.5t-36.5 -0.5t-31.5 11.5t-20 18.5q-2 4 3 4q17 1 27 6t15 12.5t6 15.5t0 15q-27 34 -58 63
q-26 25 -61 49t-73 35l-26 -89l-19 -68q-2 -6 -3 -15.5t1 -18.5t7.5 -16t16.5 -9q2 -1 2.5 -3t-1.5 -3q-9 -6 -25 -9.5t-30 11.5h-2q-2 -2 -10.5 -6t-19 -5.5t-21.5 3t-19 20.5q-1 2 0.5 5t3.5 2q14 -4 30.5 2t26.5 39l21 71l27 96q-31 2 -60 -13q-5 -3 -5 4q0 9 5 21
t15 22.5t25.5 18t37.5 8.5l48 166l5 17q1 7 1.5 15t-3.5 15.5t-13 12.5t-26 6q-4 0 -2 4q6 10 20 18.5t31.5 11.5t36 -0.5t35.5 -18.5q2 -2 4 -3l3 3q16 15 35 18.5t36.5 0.5t31.5 -11.5t20 -18.5q2 -4 -2 -4q-14 -1 -21.5 -6t-10.5 -12.5t-3 -16t2 -15.5l109 -381
q2 -6 6 -16.5t12 -20.5t22 -18.5t37 -9.5zM168 273q17 -7 38 -21.5t42 -33.5t40.5 -41t34.5 -43l-97 339z" />
    <glyph glyph-name="agrave" unicode="&#xe0;" horiz-adv-x="571" 
d="M262 700q4 0 4 -3l58 -123q2 -6 -4 -6h-22q-2 0 -4 2l-98 122q-4 8 4 8h62zM542 14q5 0 3 -4q-6 -10 -20 -18.5t-31.5 -11.5t-36.5 0.5t-36 18.5l-3 3l-3 -3q-17 -15 -36 -18.5t-36.5 -0.5t-31.5 11.5t-20 18.5q-2 4 3 4q17 1 27 6t15 12.5t6 15.5t0 15q-27 34 -58 63
q-26 25 -61 49t-73 35l-26 -89l-19 -68q-2 -6 -3 -15.5t1 -18.5t7.5 -16t16.5 -9q2 -1 2.5 -3t-1.5 -3q-9 -6 -25 -9.5t-30 11.5h-2q-2 -2 -10.5 -6t-19 -5.5t-21.5 3t-19 20.5q-1 2 0.5 5t3.5 2q14 -4 30.5 2t26.5 39l21 71l27 96q-31 2 -60 -13q-5 -3 -5 4q0 9 5 21
t15 22.5t25.5 18t37.5 8.5l48 166l5 17q1 7 1.5 15t-3.5 15.5t-13 12.5t-26 6q-4 0 -2 4q6 10 20 18.5t31.5 11.5t36 -0.5t35.5 -18.5q2 -2 4 -3l3 3q16 15 35 18.5t36.5 0.5t31.5 -11.5t20 -18.5q2 -4 -2 -4q-14 -1 -21.5 -6t-10.5 -12.5t-3 -16t2 -15.5l109 -381
q2 -6 6 -16.5t12 -20.5t22 -18.5t37 -9.5zM168 273q17 -7 38 -21.5t42 -33.5t40.5 -41t34.5 -43l-97 339z" />
    <glyph glyph-name="acircumflex" unicode="&#xe2;" horiz-adv-x="571" 
d="M357 574q2 -6 -5 -6h-21q-4 0 -4 2l-64 80l-64 -80q-2 -2 -4 -2h-21q-7 0 -5 6l58 123q1 3 5 3h1h60h1q3 0 5 -3zM542 14q5 0 3 -4q-6 -10 -20 -18.5t-31.5 -11.5t-36.5 0.5t-36 18.5l-3 3l-3 -3q-17 -15 -36 -18.5t-36.5 -0.5t-31.5 11.5t-20 18.5q-2 4 3 4q17 1 27 6
t15 12.5t6 15.5t0 15q-27 34 -58 63q-26 25 -61 49t-73 35l-26 -89l-19 -68q-2 -6 -3 -15.5t1 -18.5t7.5 -16t16.5 -9q2 -1 2.5 -3t-1.5 -3q-9 -6 -25 -9.5t-30 11.5h-2q-2 -2 -10.5 -6t-19 -5.5t-21.5 3t-19 20.5q-1 2 0.5 5t3.5 2q14 -4 30.5 2t26.5 39l21 71l27 96
q-31 2 -60 -13q-5 -3 -5 4q0 9 5 21t15 22.5t25.5 18t37.5 8.5l48 166l5 17q1 7 1.5 15t-3.5 15.5t-13 12.5t-26 6q-4 0 -2 4q6 10 20 18.5t31.5 11.5t36 -0.5t35.5 -18.5q2 -2 4 -3l3 3q16 15 35 18.5t36.5 0.5t31.5 -11.5t20 -18.5q2 -4 -2 -4q-14 -1 -21.5 -6
t-10.5 -12.5t-3 -16t2 -15.5l109 -381q2 -6 6 -16.5t12 -20.5t22 -18.5t37 -9.5zM168 273q17 -7 38 -21.5t42 -33.5t40.5 -41t34.5 -43l-97 339z" />
    <glyph glyph-name="adieresis" unicode="&#xe4;" horiz-adv-x="571" 
d="M199 680q23 0 39.5 -16.5t16.5 -39.5t-16.5 -39.5t-39.5 -16.5t-40 16.5t-17 39.5t17 39.5t40 16.5zM317 680q23 0 39.5 -16.5t16.5 -39.5t-16.5 -39.5t-39.5 -16.5t-40 16.5t-17 39.5t17 39.5t40 16.5zM542 14q5 0 3 -4q-6 -10 -20 -18.5t-31.5 -11.5t-36.5 0.5
t-36 18.5l-3 3l-3 -3q-17 -15 -36 -18.5t-36.5 -0.5t-31.5 11.5t-20 18.5q-2 4 3 4q17 1 27 6t15 12.5t6 15.5t0 15q-27 34 -58 63q-26 25 -61 49t-73 35l-26 -89l-19 -68q-2 -6 -3 -15.5t1 -18.5t7.5 -16t16.5 -9q2 -1 2.5 -3t-1.5 -3q-9 -6 -25 -9.5t-30 11.5h-2
q-2 -2 -10.5 -6t-19 -5.5t-21.5 3t-19 20.5q-1 2 0.5 5t3.5 2q14 -4 30.5 2t26.5 39l21 71l27 96q-31 2 -60 -13q-5 -3 -5 4q0 9 5 21t15 22.5t25.5 18t37.5 8.5l48 166l5 17q1 7 1.5 15t-3.5 15.5t-13 12.5t-26 6q-4 0 -2 4q6 10 20 18.5t31.5 11.5t36 -0.5t35.5 -18.5
q2 -2 4 -3l3 3q16 15 35 18.5t36.5 0.5t31.5 -11.5t20 -18.5q2 -4 -2 -4q-14 -1 -21.5 -6t-10.5 -12.5t-3 -16t2 -15.5l109 -381q2 -6 6 -16.5t12 -20.5t22 -18.5t37 -9.5zM168 273q17 -7 38 -21.5t42 -33.5t40.5 -41t34.5 -43l-97 339z" />
    <glyph glyph-name="atilde" unicode="&#xe3;" horiz-adv-x="571" 
d="M312 587q-14 0 -27.5 6t-27.5 13q-11 5 -21.5 10t-20.5 5q-5 0 -10 -1.5t-11 -9.5q-10 -12 -21 -4l-1 1q-7 5 -8 13.5t4 15.5q19 25 47 25h1q14 0 28 -5.5t28 -13.5q24 -13 36.5 -15t22.5 12q10 12 22 5q8 -5 9.5 -13.5t-3.5 -15.5q-20 -28 -46 -28h-1zM542 14q5 0 3 -4
q-6 -10 -20 -18.5t-31.5 -11.5t-36.5 0.5t-36 18.5l-3 3l-3 -3q-17 -15 -36 -18.5t-36.5 -0.5t-31.5 11.5t-20 18.5q-2 4 3 4q17 1 27 6t15 12.5t6 15.5t0 15q-27 34 -58 63q-26 25 -61 49t-73 35l-26 -89l-19 -68q-2 -6 -3 -15.5t1 -18.5t7.5 -16t16.5 -9q2 -1 2.5 -3
t-1.5 -3q-9 -6 -25 -9.5t-30 11.5h-2q-2 -2 -10.5 -6t-19 -5.5t-21.5 3t-19 20.5q-1 2 0.5 5t3.5 2q14 -4 30.5 2t26.5 39l21 71l27 96q-31 2 -60 -13q-5 -3 -5 4q0 9 5 21t15 22.5t25.5 18t37.5 8.5l48 166l5 17q1 7 1.5 15t-3.5 15.5t-13 12.5t-26 6q-4 0 -2 4
q6 10 20 18.5t31.5 11.5t36 -0.5t35.5 -18.5q2 -2 4 -3l3 3q16 15 35 18.5t36.5 0.5t31.5 -11.5t20 -18.5q2 -4 -2 -4q-14 -1 -21.5 -6t-10.5 -12.5t-3 -16t2 -15.5l109 -381q2 -6 6 -16.5t12 -20.5t22 -18.5t37 -9.5zM168 273q17 -7 38 -21.5t42 -33.5t40.5 -41t34.5 -43
l-97 339z" />
    <glyph glyph-name="aring" unicode="&#xe5;" horiz-adv-x="571" 
d="M269 680q23 0 39.5 -16.5t16.5 -39.5t-16.5 -39.5t-39.5 -16.5t-39.5 16.5t-16.5 39.5t16.5 39.5t39.5 16.5zM269 597q11 0 19 8t8 19t-8 19t-19 8t-19 -8t-8 -19t8 -19t19 -8zM542 14q5 0 3 -4q-6 -10 -20 -18.5t-31.5 -11.5t-36.5 0.5t-36 18.5l-3 3l-3 -3
q-17 -15 -36 -18.5t-36.5 -0.5t-31.5 11.5t-20 18.5q-2 4 3 4q17 1 27 6t15 12.5t6 15.5t0 15q-27 34 -58 63q-26 25 -61 49t-73 35l-26 -89l-19 -68q-2 -6 -3 -15.5t1 -18.5t7.5 -16t16.5 -9q2 -1 2.5 -3t-1.5 -3q-9 -6 -25 -9.5t-30 11.5h-2q-2 -2 -10.5 -6t-19 -5.5
t-21.5 3t-19 20.5q-1 2 0.5 5t3.5 2q14 -4 30.5 2t26.5 39l21 71l27 96q-31 2 -60 -13q-5 -3 -5 4q0 9 5 21t15 22.5t25.5 18t37.5 8.5l48 166l5 17q1 7 1.5 15t-3.5 15.5t-13 12.5t-26 6q-4 0 -2 4q6 10 20 18.5t31.5 11.5t36 -0.5t35.5 -18.5q2 -2 4 -3l3 3q16 15 35 18.5
t36.5 0.5t31.5 -11.5t20 -18.5q2 -4 -2 -4q-14 -1 -21.5 -6t-10.5 -12.5t-3 -16t2 -15.5l109 -381q2 -6 6 -16.5t12 -20.5t22 -18.5t37 -9.5zM168 273q17 -7 38 -21.5t42 -33.5t40.5 -41t34.5 -43l-97 339z" />
    <glyph glyph-name="ae" unicode="&#xe6;" horiz-adv-x="919" 
d="M833 21q20 -2 34 -9q12 -6 20.5 -18t4.5 -33q-11 4 -27 8q-14 3 -34.5 6t-48.5 3h-193q-26 0 -50 21l-2 2q-4 -4 -9 -7l-10 -6q-22 -12 -46 -10q-8 1 -15 2.5t-15 5.5q-17 7 -25 15l-2 -2q-17 -15 -36 -18.5t-36.5 -0.5t-31.5 11.5t-20 18.5q-2 4 3 4q17 1 27 6t15 12.5
t6 15.5t0 15q-27 34 -58 63q-26 25 -61 49t-73 35l-26 -89l-19 -68q-2 -6 -3 -15.5t1 -18.5t7.5 -16t16.5 -9q2 -1 2.5 -3t-1.5 -3q-9 -6 -25 -9.5t-30 11.5h-2q-2 -2 -10.5 -6t-19 -5.5t-21.5 3t-19 20.5q-1 2 0.5 5t3.5 2q14 -4 30.5 2t26.5 39l21 71l27 96q-31 2 -60 -13
q-5 -3 -5 4q0 9 5 21t15 22.5t25.5 18t37.5 8.5l48 166l5 17q1 7 1.5 15t-3.5 15.5t-13 12.5t-26 6q-4 0 -2 4q6 10 20 18.5t31.5 11.5t36 -0.5t35.5 -18.5q2 -2 4 -3l3 3q16 15 35 18.5t36.5 0.5t31.5 -11.5t20 -18.5q2 -4 -2 -4q-14 -1 -21.5 -6t-10.5 -12.5t-3 -16
t2 -15.5l109 -381q1 -5 8 -21q2 7 2 12.5v8.5v365q0 5 -1.5 15t-7.5 20.5t-19 19t-35 10.5q-5 0 -3 4q6 10 20 18.5t31.5 11.5t36.5 -0.5t36 -18.5l3 -3l3 3q24 21 50 21h193q28 0 48.5 2.5t34.5 5.5q16 4 27 9q4 -21 -4.5 -33t-20.5 -18q-14 -7 -34 -9q4 -5 7.5 -10.5
t6.5 -10.5q10 -19 7 -38t-15 -32.5t-31 -19t-39 2.5q7 14 6.5 33t-10.5 36.5t-30.5 29.5t-53.5 12h-23q-20 0 -32 -5t-18.5 -13.5t-8.5 -20t-2 -24.5v-60v-105q7 7 19.5 18t28 21t34 17.5t37.5 7.5q31 0 45.5 -15t15 -34t-12.5 -36.5t-37 -21.5q-5 0 -3 5q8 18 -2 29
t-30.5 11.5t-46 -11t-48.5 -37.5v-90v-60q0 -13 2 -24.5t8.5 -20t18.5 -13.5t32 -5h23q33 0 53.5 12t30.5 29t10.5 36.5t-6.5 33.5q20 8 39 2.5t31 -19t15 -32.5t-7 -38q-3 -5 -6.5 -10.5t-7.5 -10.5zM168 273q17 -7 38 -21.5t42 -33.5t40.5 -41t34.5 -43l-97 339z" />
    <glyph glyph-name="eacute" unicode="&#xe9;" horiz-adv-x="511" 
d="M339 700q8 0 4 -8l-98 -122q-2 -2 -4 -2h-22q-6 0 -4 6l58 123q0 3 4 3h62zM425 21q20 -2 34 -9q12 -6 20.5 -18t4.5 -33q-11 4 -27 8q-14 3 -34.5 6t-48.5 3h-193q-26 0 -50 21l-3 3l-3 -3q-17 -15 -36 -18.5t-36.5 -0.5t-31.5 11.5t-20 18.5q-2 4 3 4q22 1 35 9.5
t19 19t7.5 21t1.5 15.5v365q0 5 -1.5 15t-7.5 20.5t-19 19t-35 10.5q-5 0 -3 4q6 10 20 18.5t31.5 11.5t36.5 -0.5t36 -18.5l3 -3l3 3q24 21 50 21h193q28 0 48.5 2.5t34.5 5.5q16 4 27 9q4 -21 -4.5 -33t-20.5 -18q-14 -7 -34 -9q4 -5 7.5 -10.5t6.5 -10.5q10 -19 7 -38
t-15 -32.5t-31 -19t-39 2.5q7 14 6.5 33t-10.5 36.5t-30.5 29.5t-53.5 12h-23q-20 0 -32 -5t-18.5 -13.5t-8.5 -20t-2 -24.5v-60v-105q7 7 19.5 18t28 21t34 17.5t37.5 7.5q31 0 45.5 -15t15 -34t-12.5 -36.5t-37 -21.5q-5 0 -3 5q8 18 -2 29t-30.5 11.5t-46 -11
t-48.5 -37.5v-90v-60q0 -13 2 -24.5t8.5 -20t18.5 -13.5t32 -5h23q33 0 53.5 12t30.5 29t10.5 36.5t-6.5 33.5q20 8 39 2.5t31 -19t15 -32.5t-7 -38q-3 -5 -6.5 -10.5t-7.5 -10.5z" />
    <glyph glyph-name="egrave" unicode="&#xe8;" horiz-adv-x="511" 
d="M245 700q4 0 4 -3l58 -123q2 -6 -4 -6h-22q-2 0 -4 2l-98 122q-4 8 4 8h62zM425 21q20 -2 34 -9q12 -6 20.5 -18t4.5 -33q-11 4 -27 8q-14 3 -34.5 6t-48.5 3h-193q-26 0 -50 21l-3 3l-3 -3q-17 -15 -36 -18.5t-36.5 -0.5t-31.5 11.5t-20 18.5q-2 4 3 4q22 1 35 9.5
t19 19t7.5 21t1.5 15.5v365q0 5 -1.5 15t-7.5 20.5t-19 19t-35 10.5q-5 0 -3 4q6 10 20 18.5t31.5 11.5t36.5 -0.5t36 -18.5l3 -3l3 3q24 21 50 21h193q28 0 48.5 2.5t34.5 5.5q16 4 27 9q4 -21 -4.5 -33t-20.5 -18q-14 -7 -34 -9q4 -5 7.5 -10.5t6.5 -10.5q10 -19 7 -38
t-15 -32.5t-31 -19t-39 2.5q7 14 6.5 33t-10.5 36.5t-30.5 29.5t-53.5 12h-23q-20 0 -32 -5t-18.5 -13.5t-8.5 -20t-2 -24.5v-60v-105q7 7 19.5 18t28 21t34 17.5t37.5 7.5q31 0 45.5 -15t15 -34t-12.5 -36.5t-37 -21.5q-5 0 -3 5q8 18 -2 29t-30.5 11.5t-46 -11
t-48.5 -37.5v-90v-60q0 -13 2 -24.5t8.5 -20t18.5 -13.5t32 -5h23q33 0 53.5 12t30.5 29t10.5 36.5t-6.5 33.5q20 8 39 2.5t31 -19t15 -32.5t-7 -38q-3 -5 -6.5 -10.5t-7.5 -10.5z" />
    <glyph glyph-name="ecircumflex" unicode="&#xea;" horiz-adv-x="511" 
d="M337 574q2 -6 -5 -6h-22q-3 0 -3 2l-64 80l-64 -80q-2 -2 -4 -2h-21q-7 0 -5 6l58 123q1 3 5 3h1h60h1q3 0 5 -3zM425 21q20 -2 34 -9q12 -6 20.5 -18t4.5 -33q-11 4 -27 8q-14 3 -34.5 6t-48.5 3h-193q-26 0 -50 21l-3 3l-3 -3q-17 -15 -36 -18.5t-36.5 -0.5t-31.5 11.5
t-20 18.5q-2 4 3 4q22 1 35 9.5t19 19t7.5 21t1.5 15.5v365q0 5 -1.5 15t-7.5 20.5t-19 19t-35 10.5q-5 0 -3 4q6 10 20 18.5t31.5 11.5t36.5 -0.5t36 -18.5l3 -3l3 3q24 21 50 21h193q28 0 48.5 2.5t34.5 5.5q16 4 27 9q4 -21 -4.5 -33t-20.5 -18q-14 -7 -34 -9
q4 -5 7.5 -10.5t6.5 -10.5q10 -19 7 -38t-15 -32.5t-31 -19t-39 2.5q7 14 6.5 33t-10.5 36.5t-30.5 29.5t-53.5 12h-23q-20 0 -32 -5t-18.5 -13.5t-8.5 -20t-2 -24.5v-60v-105q7 7 19.5 18t28 21t34 17.5t37.5 7.5q31 0 45.5 -15t15 -34t-12.5 -36.5t-37 -21.5q-5 0 -3 5
q8 18 -2 29t-30.5 11.5t-46 -11t-48.5 -37.5v-90v-60q0 -13 2 -24.5t8.5 -20t18.5 -13.5t32 -5h23q33 0 53.5 12t30.5 29t10.5 36.5t-6.5 33.5q20 8 39 2.5t31 -19t15 -32.5t-7 -38q-3 -5 -6.5 -10.5t-7.5 -10.5z" />
    <glyph glyph-name="edieresis" unicode="&#xeb;" horiz-adv-x="511" 
d="M184 680q23 0 39.5 -16.5t16.5 -39.5t-16.5 -39.5t-39.5 -16.5t-39.5 16.5t-16.5 39.5t16.5 39.5t39.5 16.5zM302 680q23 0 39.5 -16.5t16.5 -39.5t-16.5 -39.5t-39.5 -16.5t-39.5 16.5t-16.5 39.5t16.5 39.5t39.5 16.5zM425 21q20 -2 34 -9q12 -6 20.5 -18t4.5 -33
q-11 4 -27 8q-14 3 -34.5 6t-48.5 3h-193q-26 0 -50 21l-3 3l-3 -3q-17 -15 -36 -18.5t-36.5 -0.5t-31.5 11.5t-20 18.5q-2 4 3 4q22 1 35 9.5t19 19t7.5 21t1.5 15.5v365q0 5 -1.5 15t-7.5 20.5t-19 19t-35 10.5q-5 0 -3 4q6 10 20 18.5t31.5 11.5t36.5 -0.5t36 -18.5l3 -3
l3 3q24 21 50 21h193q28 0 48.5 2.5t34.5 5.5q16 4 27 9q4 -21 -4.5 -33t-20.5 -18q-14 -7 -34 -9q4 -5 7.5 -10.5t6.5 -10.5q10 -19 7 -38t-15 -32.5t-31 -19t-39 2.5q7 14 6.5 33t-10.5 36.5t-30.5 29.5t-53.5 12h-23q-20 0 -32 -5t-18.5 -13.5t-8.5 -20t-2 -24.5v-60
v-105q7 7 19.5 18t28 21t34 17.5t37.5 7.5q31 0 45.5 -15t15 -34t-12.5 -36.5t-37 -21.5q-5 0 -3 5q8 18 -2 29t-30.5 11.5t-46 -11t-48.5 -37.5v-90v-60q0 -13 2 -24.5t8.5 -20t18.5 -13.5t32 -5h23q33 0 53.5 12t30.5 29t10.5 36.5t-6.5 33.5q20 8 39 2.5t31 -19t15 -32.5
t-7 -38q-3 -5 -6.5 -10.5t-7.5 -10.5z" />
    <glyph glyph-name="idieresis" unicode="&#xef;" 
d="M69 680q23 0 39.5 -16.5t16.5 -39.5t-16.5 -39.5t-39.5 -16.5t-39.5 16.5t-16.5 39.5t16.5 39.5t39.5 16.5zM187 680q23 0 39.5 -16.5t16.5 -39.5t-16.5 -39.5t-39.5 -16.5t-39.5 16.5t-16.5 39.5t16.5 39.5t39.5 16.5zM252 14q5 0 3 -4q-6 -10 -20 -18.5t-31.5 -11.5
t-36.5 0.5t-36 18.5l-3 3l-3 -3q-17 -15 -36 -18.5t-36.5 -0.5t-31.5 11.5t-20 18.5q-2 4 3 4q22 1 35 10t19 19.5t7.5 20.5t1.5 15v366q0 5 -1.5 15t-7.5 20.5t-19 19t-35 10.5q-5 0 -3 4q6 10 20 18.5t31.5 11.5t36.5 -0.5t36 -18.5l3 -3l3 3q17 15 36 18.5t36.5 0.5
t31.5 -11.5t20 -18.5q2 -4 -3 -4q-23 -2 -35.5 -10.5t-18.5 -19t-7.5 -20.5t-1.5 -15v-366q0 -5 1.5 -15t7.5 -20.5t18.5 -19.5t35.5 -10z" />
    <glyph glyph-name="icircumflex" unicode="&#xee;" 
d="M222 574q2 -6 -5 -6h-21q-2 0 -4 2l-64 80l-64 -80q0 -2 -3 -2h-22q-7 0 -5 6l58 123q1 3 5 3h1h60h1q3 0 5 -3zM252 14q5 0 3 -4q-6 -10 -20 -18.5t-31.5 -11.5t-36.5 0.5t-36 18.5l-3 3l-3 -3q-17 -15 -36 -18.5t-36.5 -0.5t-31.5 11.5t-20 18.5q-2 4 3 4q22 1 35 10
t19 19.5t7.5 20.5t1.5 15v366q0 5 -1.5 15t-7.5 20.5t-19 19t-35 10.5q-5 0 -3 4q6 10 20 18.5t31.5 11.5t36.5 -0.5t36 -18.5l3 -3l3 3q17 15 36 18.5t36.5 0.5t31.5 -11.5t20 -18.5q2 -4 -3 -4q-23 -2 -35.5 -10.5t-18.5 -19t-7.5 -20.5t-1.5 -15v-366q0 -5 1.5 -15
t7.5 -20.5t18.5 -19.5t35.5 -10z" />
    <glyph glyph-name="iacute" unicode="&#xed;" 
d="M188 700q8 0 4 -8l-98 -122q-2 -2 -4 -2h-22q-6 0 -4 6l58 123q0 3 4 3h62zM252 14q5 0 3 -4q-6 -10 -20 -18.5t-31.5 -11.5t-36.5 0.5t-36 18.5l-3 3l-3 -3q-17 -15 -36 -18.5t-36.5 -0.5t-31.5 11.5t-20 18.5q-2 4 3 4q22 1 35 10t19 19.5t7.5 20.5t1.5 15v366
q0 5 -1.5 15t-7.5 20.5t-19 19t-35 10.5q-5 0 -3 4q6 10 20 18.5t31.5 11.5t36.5 -0.5t36 -18.5l3 -3l3 3q17 15 36 18.5t36.5 0.5t31.5 -11.5t20 -18.5q2 -4 -3 -4q-23 -2 -35.5 -10.5t-18.5 -19t-7.5 -20.5t-1.5 -15v-366q0 -5 1.5 -15t7.5 -20.5t18.5 -19.5t35.5 -10z
" />
    <glyph glyph-name="igrave" unicode="&#xec;" 
d="M130 700q4 0 4 -3l58 -123q2 -6 -4 -6h-22q-2 0 -4 2l-98 122q-4 8 4 8h62zM252 14q5 0 3 -4q-6 -10 -20 -18.5t-31.5 -11.5t-36.5 0.5t-36 18.5l-3 3l-3 -3q-17 -15 -36 -18.5t-36.5 -0.5t-31.5 11.5t-20 18.5q-2 4 3 4q22 1 35 10t19 19.5t7.5 20.5t1.5 15v366
q0 5 -1.5 15t-7.5 20.5t-19 19t-35 10.5q-5 0 -3 4q6 10 20 18.5t31.5 11.5t36.5 -0.5t36 -18.5l3 -3l3 3q17 15 36 18.5t36.5 0.5t31.5 -11.5t20 -18.5q2 -4 -3 -4q-23 -2 -35.5 -10.5t-18.5 -19t-7.5 -20.5t-1.5 -15v-366q0 -5 1.5 -15t7.5 -20.5t18.5 -19.5t35.5 -10z
" />
    <glyph glyph-name="ntilde" unicode="&#xf1;" horiz-adv-x="557" 
d="M315 587q-14 0 -27.5 6t-27.5 13q-11 5 -21.5 10t-20.5 5q-5 0 -10 -1.5t-11 -9.5q-10 -12 -21 -4l-1 1q-7 5 -8 13.5t4 15.5q19 25 47 25h1q14 0 28 -5.5t28 -13.5q24 -13 36.5 -15t22.5 12q10 12 22 5q8 -5 9.5 -13.5t-3.5 -15.5q-20 -28 -46 -28h-1zM529 3q5 0 2 -3
q-4 -4 -12 -10t-18.5 -9t-22 -2t-23.5 12q-12 -11 -23.5 -12t-22 2t-18.5 9t-12 10q-3 3 2 3q19 -3 29.5 3.5t16 18.5t7 26t1.5 25v44l-338 286v-330q0 -11 1.5 -25t7 -26t16 -18.5t29.5 -3.5q5 0 2 -3q-4 -4 -12 -10t-18.5 -9t-22 -2t-23.5 12q-12 -11 -23.5 -12t-22 2
t-18.5 9t-12 10q-3 3 2 3q19 -3 29.5 3.5t16 18.5t7 26t1.5 25v372q0 11 -1.5 25t-7 26t-16 18.5t-29.5 3.5q-5 -2 -2 3q4 4 12 10t18.5 9t22 1.5t23.5 -11.5q9 10 19 11.5t20.5 -3t21 -12t18.5 -14.5l279 -236v169q0 11 -1.5 25t-7 26t-16 18.5t-29.5 3.5q-5 -2 -2 3
q4 4 12 10t18.5 9t22 1.5t23.5 -11.5q12 10 23.5 11.5t22 -1.5t18.5 -9t12 -10q3 -5 -2 -3q-19 3 -29.5 -3.5t-16 -18.5t-7 -26t-1.5 -25v-372q0 -11 1.5 -25t7 -26t16 -18.5t29.5 -3.5z" />
    <glyph glyph-name="otilde" unicode="&#xf5;" horiz-adv-x="504" 
d="M288 587q-14 0 -27.5 6t-26.5 13l-22 10t-20 5q-5 0 -10 -1.5t-12 -9.5q-4 -5 -10 -6.5t-11 2.5l-1 1q-7 5 -7.5 13.5t4.5 15.5q19 25 47 25q15 0 28.5 -5.5t27.5 -13.5q24 -13 37 -15t23 12q4 5 10 7t11 -2h1q7 -5 8.5 -13.5t-3.5 -15.5q-19 -28 -46 -28h-1zM479 261
q0 -68 -17 -120.5t-48 -88.5t-75.5 -55t-98.5 -19q-55 0 -99 19t-75.5 55t-48.5 88.5t-17 120.5v1q0 68 17 120.5t48.5 88.5t75.5 55t99 19q54 0 98.5 -19t75.5 -55t48 -88.5t17 -120.5v-1zM240 19q30 0 52.5 17.5t37.5 50t22.5 77t7.5 98.5t-7.5 98.5t-22.5 76.5
t-37.5 49.5t-52.5 17.5t-52.5 -17.5t-38 -49.5t-23 -76.5t-7.5 -98.5t7.5 -98.5t22.5 -77t37.5 -50t53.5 -17.5z" />
    <glyph glyph-name="odieresis" unicode="&#xf6;" horiz-adv-x="504" 
d="M181 680q23 0 39.5 -16.5t16.5 -39.5t-16.5 -39.5t-39.5 -16.5t-40 16.5t-17 39.5t17 39.5t40 16.5zM299 680q23 0 39.5 -16.5t16.5 -39.5t-16.5 -39.5t-39.5 -16.5t-40 16.5t-17 39.5t17 39.5t40 16.5zM479 261q0 -68 -17 -120.5t-48 -88.5t-75.5 -55t-98.5 -19
q-55 0 -99 19t-75.5 55t-48.5 88.5t-17 120.5v1q0 68 17 120.5t48.5 88.5t75.5 55t99 19q54 0 98.5 -19t75.5 -55t48 -88.5t17 -120.5v-1zM240 19q30 0 52.5 17.5t37.5 50t22.5 77t7.5 98.5t-7.5 98.5t-22.5 76.5t-37.5 49.5t-52.5 17.5t-52.5 -17.5t-38 -49.5t-23 -76.5
t-7.5 -98.5t7.5 -98.5t22.5 -77t37.5 -50t53.5 -17.5z" />
    <glyph glyph-name="ocircumflex" unicode="&#xf4;" horiz-adv-x="504" 
d="M333 574q2 -6 -4 -6h-22q-2 0 -4 2l-63 80l-64 -80q-2 -2 -4 -2h-22q-6 0 -4 6l58 123q1 3 4 3h1h61h1q4 0 4 -3zM479 261q0 -68 -17 -120.5t-48 -88.5t-75.5 -55t-98.5 -19q-55 0 -99 19t-75.5 55t-48.5 88.5t-17 120.5v1q0 68 17 120.5t48.5 88.5t75.5 55t99 19
q54 0 98.5 -19t75.5 -55t48 -88.5t17 -120.5v-1zM240 19q30 0 52.5 17.5t37.5 50t22.5 77t7.5 98.5t-7.5 98.5t-22.5 76.5t-37.5 49.5t-52.5 17.5t-52.5 -17.5t-38 -49.5t-23 -76.5t-7.5 -98.5t7.5 -98.5t22.5 -77t37.5 -50t53.5 -17.5z" />
    <glyph glyph-name="oacute" unicode="&#xf3;" horiz-adv-x="504" 
d="M299 700q8 0 4 -8l-98 -122q0 -2 -3 -2h-22q-7 0 -5 6l58 123q1 3 5 3h61zM479 261q0 -68 -17 -120.5t-48 -88.5t-75.5 -55t-98.5 -19q-55 0 -99 19t-75.5 55t-48.5 88.5t-17 120.5v1q0 68 17 120.5t48.5 88.5t75.5 55t99 19q54 0 98.5 -19t75.5 -55t48 -88.5t17 -120.5
v-1zM240 19q30 0 52.5 17.5t37.5 50t22.5 77t7.5 98.5t-7.5 98.5t-22.5 76.5t-37.5 49.5t-52.5 17.5t-52.5 -17.5t-38 -49.5t-23 -76.5t-7.5 -98.5t7.5 -98.5t22.5 -77t37.5 -50t53.5 -17.5z" />
    <glyph glyph-name="ograve" unicode="&#xf2;" horiz-adv-x="504" 
d="M241 700q3 0 5 -3l58 -123q2 -6 -5 -6h-21q-2 0 -4 2l-98 122q-4 8 4 8h61zM479 261q0 -68 -17 -120.5t-48 -88.5t-75.5 -55t-98.5 -19q-55 0 -99 19t-75.5 55t-48.5 88.5t-17 120.5v1q0 68 17 120.5t48.5 88.5t75.5 55t99 19q54 0 98.5 -19t75.5 -55t48 -88.5t17 -120.5
v-1zM240 19q30 0 52.5 17.5t37.5 50t22.5 77t7.5 98.5t-7.5 98.5t-22.5 76.5t-37.5 49.5t-52.5 17.5t-52.5 -17.5t-38 -49.5t-23 -76.5t-7.5 -98.5t7.5 -98.5t22.5 -77t37.5 -50t53.5 -17.5z" />
    <glyph glyph-name="ugrave" unicode="&#xf9;" horiz-adv-x="567" 
d="M273 700q3 0 5 -3l58 -123q2 -6 -5 -6h-22q-2 0 -4 2l-97 122q-2 3 -0.5 5.5t3.5 2.5h62zM1 514q6 10 20 18.5t31.5 11.5t36.5 -0.5t36 -18.5l3 -3l3 3q17 15 36 18.5t36.5 0.5t31.5 -11.5t20 -18.5q2 -4 -3 -4q-23 -2 -35.5 -10.5t-18.5 -19t-7.5 -20.5t-1.5 -15v-232
q0 -54 5 -90t15.5 -58t27 -32.5t39.5 -13.5q27 -4 56.5 -1t54.5 22t41.5 60t16.5 113v235q0 11 -1.5 25t-6.5 26t-15.5 18.5t-29.5 3.5q-5 -2 -2 3q3 4 11 10t18.5 9t22 1.5t23.5 -11.5q12 10 24 11.5t22.5 -1.5t18.5 -9t11 -10q3 -5 -2 -3q-19 3 -29.5 -3.5t-16 -18.5
t-7 -26t-1.5 -25v-235q0 -68 -14.5 -113t-42 -72t-66 -38.5t-86.5 -11.5t-86.5 11.5t-65.5 38.5t-42 72t-15 113v232q0 5 -1.5 15t-7.5 20.5t-19 19t-35 10.5q-5 0 -3 4z" />
    <glyph glyph-name="uacute" unicode="&#xfa;" horiz-adv-x="567" 
d="M366 700q8 0 4 -8l-98 -122q-2 -2 -4 -2h-21q-7 0 -5 6l58 123q1 3 5 3h61zM1 514q6 10 20 18.5t31.5 11.5t36.5 -0.5t36 -18.5l3 -3l3 3q17 15 36 18.5t36.5 0.5t31.5 -11.5t20 -18.5q2 -4 -3 -4q-23 -2 -35.5 -10.5t-18.5 -19t-7.5 -20.5t-1.5 -15v-232q0 -54 5 -90
t15.5 -58t27 -32.5t39.5 -13.5q27 -4 56.5 -1t54.5 22t41.5 60t16.5 113v235q0 11 -1.5 25t-6.5 26t-15.5 18.5t-29.5 3.5q-5 -2 -2 3q3 4 11 10t18.5 9t22 1.5t23.5 -11.5q12 10 24 11.5t22.5 -1.5t18.5 -9t11 -10q3 -5 -2 -3q-19 3 -29.5 -3.5t-16 -18.5t-7 -26t-1.5 -25
v-235q0 -68 -14.5 -113t-42 -72t-66 -38.5t-86.5 -11.5t-86.5 11.5t-65.5 38.5t-42 72t-15 113v232q0 5 -1.5 15t-7.5 20.5t-19 19t-35 10.5q-5 0 -3 4z" />
    <glyph glyph-name="ucircumflex" unicode="&#xfb;" horiz-adv-x="567" 
d="M390 574q2 -6 -5 -6h-22q-3 0 -3 2l-64 80l-64 -80q-2 -2 -4 -2h-21q-7 0 -5 6l58 123q1 3 5 3h1h60h1q3 0 5 -3zM1 514q6 10 20 18.5t31.5 11.5t36.5 -0.5t36 -18.5l3 -3l3 3q17 15 36 18.5t36.5 0.5t31.5 -11.5t20 -18.5q2 -4 -3 -4q-23 -2 -35.5 -10.5t-18.5 -19
t-7.5 -20.5t-1.5 -15v-232q0 -54 5 -90t15.5 -58t27 -32.5t39.5 -13.5q27 -4 56.5 -1t54.5 22t41.5 60t16.5 113v235q0 11 -1.5 25t-6.5 26t-15.5 18.5t-29.5 3.5q-5 -2 -2 3q3 4 11 10t18.5 9t22 1.5t23.5 -11.5q12 10 24 11.5t22.5 -1.5t18.5 -9t11 -10q3 -5 -2 -3
q-19 3 -29.5 -3.5t-16 -18.5t-7 -26t-1.5 -25v-235q0 -68 -14.5 -113t-42 -72t-66 -38.5t-86.5 -11.5t-86.5 11.5t-65.5 38.5t-42 72t-15 113v232q0 5 -1.5 15t-7.5 20.5t-19 19t-35 10.5q-5 0 -3 4z" />
    <glyph glyph-name="udieresis" unicode="&#xfc;" horiz-adv-x="567" 
d="M246 680q23 0 40 -16.5t17 -39.5t-17 -39.5t-40 -16.5t-39.5 16.5t-16.5 39.5t16.5 39.5t39.5 16.5zM364 680q23 0 40 -16.5t17 -39.5t-17 -39.5t-40 -16.5t-39.5 16.5t-16.5 39.5t16.5 39.5t39.5 16.5zM1 514q6 10 20 18.5t31.5 11.5t36.5 -0.5t36 -18.5l3 -3l3 3
q17 15 36 18.5t36.5 0.5t31.5 -11.5t20 -18.5q2 -4 -3 -4q-23 -2 -35.5 -10.5t-18.5 -19t-7.5 -20.5t-1.5 -15v-232q0 -54 5 -90t15.5 -58t27 -32.5t39.5 -13.5q27 -4 56.5 -1t54.5 22t41.5 60t16.5 113v235q0 11 -1.5 25t-6.5 26t-15.5 18.5t-29.5 3.5q-5 -2 -2 3
q3 4 11 10t18.5 9t22 1.5t23.5 -11.5q12 10 24 11.5t22.5 -1.5t18.5 -9t11 -10q3 -5 -2 -3q-19 3 -29.5 -3.5t-16 -18.5t-7 -26t-1.5 -25v-235q0 -68 -14.5 -113t-42 -72t-66 -38.5t-86.5 -11.5t-86.5 11.5t-65.5 38.5t-42 72t-15 113v232q0 5 -1.5 15t-7.5 20.5t-19 19
t-35 10.5q-5 0 -3 4z" />
    <glyph glyph-name="j" unicode="j" horiz-adv-x="489" 
d="M463 514q2 -4 -2 -4q-23 -2 -36 -10.5t-19 -19t-7.5 -20.5t-1.5 -15v-232q0 -68 -15 -113t-42 -72t-65.5 -38.5t-86.5 -11.5q-63 1 -109 20t-72 69q-7 16 -7 27q0 30 12 47t29.5 24t35.5 6t30 -8q8 -4 5 -8q-19 -28 -18 -54t14.5 -45.5t35 -29.5t44.5 -7t40 13.5
t27.5 32.5t15.5 58t5 90v232q0 5 -1.5 15t-7.5 20.5t-19 19t-36 10.5q-4 0 -2 4q6 10 20 18.5t31.5 11.5t36 -0.5t35.5 -18.5l3 -3q1 1 2 1.5t2 1.5q16 15 35 18.5t36.5 0.5t31.5 -11.5t20 -18.5z" />
    <glyph glyph-name="Adieresis" unicode="&#xc4;" horiz-adv-x="857" 
d="M466 862q23 0 39.5 -16.5t16.5 -39.5t-16.5 -39.5t-39.5 -16.5t-39.5 16.5t-16.5 39.5t16.5 39.5t39.5 16.5zM584 862q23 0 39.5 -16.5t16.5 -39.5t-16.5 -39.5t-39.5 -16.5t-39.5 16.5t-16.5 39.5t16.5 39.5t39.5 16.5zM828 14q5 0 3 -4q-6 -10 -20 -18.5t-31.5 -11.5
t-36.5 0.5t-36 18.5l-3 3l-3 -3q-17 -15 -36 -18.5t-36.5 -0.5t-31.5 11.5t-20 18.5q-2 4 3 4q22 1 33 9t15 17.5t2.5 20t-3.5 18.5l-10 38q-7 18 -19.5 45.5t-33.5 56.5q-63 86 -153 113l-76 -290q-2 -14 2.5 -29.5t21.5 -18.5q2 -1 3 -3t-1 -3q-9 -6 -25 -9.5t-30 11.5h-2
q-4 -4 -12 -8t-18 -4t-20.5 5t-19.5 19q-2 7 4 7q5 0 13.5 2t17 6.5t16 13.5t11.5 23l75 287q-8 1 -16.5 1.5t-17.5 1.5q-86 2 -152 -30.5t-105 -96.5q-38 -63 -40 -138t31 -138q1 -2 1.5 -2.5t1.5 -2.5q23 -38 55 -61t65.5 -32.5t65.5 -7t57 15t38.5 33.5t10.5 49q0 7 8 7
q29 0 47 -18.5t18 -43.5q0 -47 -32.5 -76t-81.5 -37.5t-105.5 5.5t-105.5 52t-81.5 101t-32.5 154q0 43 12 84t34 76q42 70 113 108q78 42 180 39q11 -1 21.5 -1.5t21.5 -2.5l57 219q1 5 3 15.5t-1 21t-12.5 19t-30.5 9.5q-5 0 -3 4q6 10 20 18.5t31.5 11.5t36 -0.5
t35.5 -18.5q2 -1 4 -3l3 3q16 15 35 18.5t36.5 0.5t31.5 -11.5t20 -18.5q2 -4 -2 -4q-24 -1 -29 -16.5t-3 -30.5l128 -478q9 -34 21 -61q11 -23 26.5 -43t38.5 -21zM498 336q23 -14 43 -32t38 -40l-92 360l-66 -253q40 -12 77 -35z" />
    <glyph glyph-name="Acircumflex" unicode="&#xc2;" horiz-adv-x="857" 
d="M506 882q8 0 4 -8l-98 -122q-2 -2 -4 -2h-21q-7 0 -5 6l58 123q1 3 5 3h61zM640 756q2 -6 -5 -6h-21q-2 0 -4 2l-98 122q-4 8 4 8h61q3 0 5 -3zM828 14q5 0 3 -4q-6 -10 -20 -18.5t-31.5 -11.5t-36.5 0.5t-36 18.5l-3 3l-3 -3q-17 -15 -36 -18.5t-36.5 -0.5t-31.5 11.5
t-20 18.5q-2 4 3 4q22 1 33 9t15 17.5t2.5 20t-3.5 18.5l-10 38q-7 18 -19.5 45.5t-33.5 56.5q-63 86 -153 113l-76 -290q-2 -14 2.5 -29.5t21.5 -18.5q2 -1 3 -3t-1 -3q-9 -6 -25 -9.5t-30 11.5h-2q-4 -4 -12 -8t-18 -4t-20.5 5t-19.5 19q-2 7 4 7q5 0 13.5 2t17 6.5
t16 13.5t11.5 23l75 287q-8 1 -16.5 1.5t-17.5 1.5q-86 2 -152 -30.5t-105 -96.5q-38 -63 -40 -138t31 -138q1 -2 1.5 -2.5t1.5 -2.5q23 -38 55 -61t65.5 -32.5t65.5 -7t57 15t38.5 33.5t10.5 49q0 7 8 7q29 0 47 -18.5t18 -43.5q0 -47 -32.5 -76t-81.5 -37.5t-105.5 5.5
t-105.5 52t-81.5 101t-32.5 154q0 43 12 84t34 76q42 70 113 108q78 42 180 39q11 -1 21.5 -1.5t21.5 -2.5l57 219q1 5 3 15.5t-1 21t-12.5 19t-30.5 9.5q-5 0 -3 4q6 10 20 18.5t31.5 11.5t36 -0.5t35.5 -18.5q2 -1 4 -3l3 3q16 15 35 18.5t36.5 0.5t31.5 -11.5t20 -18.5
q2 -4 -2 -4q-24 -1 -29 -16.5t-3 -30.5l128 -478q9 -34 21 -61q11 -23 26.5 -43t38.5 -21zM498 336q23 -14 43 -32t38 -40l-92 360l-66 -253q40 -12 77 -35z" />
    <glyph glyph-name="Aacute" unicode="&#xc1;" horiz-adv-x="857" 
d="M571 882q8 0 4 -8l-98 -122q-2 -2 -4 -2h-22q-6 0 -4 6l58 123q0 3 4 3h62zM828 14q5 0 3 -4q-6 -10 -20 -18.5t-31.5 -11.5t-36.5 0.5t-36 18.5l-3 3l-3 -3q-17 -15 -36 -18.5t-36.5 -0.5t-31.5 11.5t-20 18.5q-2 4 3 4q22 1 33 9t15 17.5t2.5 20t-3.5 18.5l-10 38
q-7 18 -19.5 45.5t-33.5 56.5q-63 86 -153 113l-76 -290q-2 -14 2.5 -29.5t21.5 -18.5q2 -1 3 -3t-1 -3q-9 -6 -25 -9.5t-30 11.5h-2q-4 -4 -12 -8t-18 -4t-20.5 5t-19.5 19q-2 7 4 7q5 0 13.5 2t17 6.5t16 13.5t11.5 23l75 287q-8 1 -16.5 1.5t-17.5 1.5q-86 2 -152 -30.5
t-105 -96.5q-38 -63 -40 -138t31 -138q1 -2 1.5 -2.5t1.5 -2.5q23 -38 55 -61t65.5 -32.5t65.5 -7t57 15t38.5 33.5t10.5 49q0 7 8 7q29 0 47 -18.5t18 -43.5q0 -47 -32.5 -76t-81.5 -37.5t-105.5 5.5t-105.5 52t-81.5 101t-32.5 154q0 43 12 84t34 76q42 70 113 108
q78 42 180 39q11 -1 21.5 -1.5t21.5 -2.5l57 219q1 5 3 15.5t-1 21t-12.5 19t-30.5 9.5q-5 0 -3 4q6 10 20 18.5t31.5 11.5t36 -0.5t35.5 -18.5q2 -1 4 -3l3 3q16 15 35 18.5t36.5 0.5t31.5 -11.5t20 -18.5q2 -4 -2 -4q-24 -1 -29 -16.5t-3 -30.5l128 -478q9 -34 21 -61
q11 -23 26.5 -43t38.5 -21zM498 336q23 -14 43 -32t38 -40l-92 360l-66 -253q40 -12 77 -35z" />
    <glyph glyph-name="Agrave" unicode="&#xc0;" horiz-adv-x="857" 
d="M525 882q2 0 4 -3l58 -123q2 -6 -4 -6h-22q-2 0 -4 2l-98 122q-4 8 4 8h62zM828 14q5 0 3 -4q-6 -10 -20 -18.5t-31.5 -11.5t-36.5 0.5t-36 18.5l-3 3l-3 -3q-17 -15 -36 -18.5t-36.5 -0.5t-31.5 11.5t-20 18.5q-2 4 3 4q22 1 33 9t15 17.5t2.5 20t-3.5 18.5l-10 38
q-7 18 -19.5 45.5t-33.5 56.5q-63 86 -153 113l-76 -290q-2 -14 2.5 -29.5t21.5 -18.5q2 -1 3 -3t-1 -3q-9 -6 -25 -9.5t-30 11.5h-2q-4 -4 -12 -8t-18 -4t-20.5 5t-19.5 19q-2 7 4 7q5 0 13.5 2t17 6.5t16 13.5t11.5 23l75 287q-8 1 -16.5 1.5t-17.5 1.5q-86 2 -152 -30.5
t-105 -96.5q-38 -63 -40 -138t31 -138q1 -2 1.5 -2.5t1.5 -2.5q23 -38 55 -61t65.5 -32.5t65.5 -7t57 15t38.5 33.5t10.5 49q0 7 8 7q29 0 47 -18.5t18 -43.5q0 -47 -32.5 -76t-81.5 -37.5t-105.5 5.5t-105.5 52t-81.5 101t-32.5 154q0 43 12 84t34 76q42 70 113 108
q78 42 180 39q11 -1 21.5 -1.5t21.5 -2.5l57 219q1 5 3 15.5t-1 21t-12.5 19t-30.5 9.5q-5 0 -3 4q6 10 20 18.5t31.5 11.5t36 -0.5t35.5 -18.5q2 -1 4 -3l3 3q16 15 35 18.5t36.5 0.5t31.5 -11.5t20 -18.5q2 -4 -2 -4q-24 -1 -29 -16.5t-3 -30.5l128 -478q9 -34 21 -61
q11 -23 26.5 -43t38.5 -21zM498 336q23 -14 43 -32t38 -40l-92 360l-66 -253q40 -12 77 -35z" />
    <glyph glyph-name="Atilde" unicode="&#xc3;" horiz-adv-x="857" 
d="M586 769q-14 0 -27.5 6t-27.5 13q-11 5 -21.5 10t-20.5 5q-5 0 -10 -1.5t-11 -9.5q-10 -12 -21 -4l-1 1q-7 5 -8 13.5t4 15.5q19 25 47 25h1q14 0 28 -5.5t28 -13.5q24 -13 36.5 -15t23.5 12q4 5 9.5 7t11.5 -2q8 -5 9.5 -13.5t-3.5 -15.5q-20 -28 -46 -28h-1zM828 14
q5 0 3 -4q-6 -10 -20 -18.5t-31.5 -11.5t-36.5 0.5t-36 18.5l-3 3l-3 -3q-17 -15 -36 -18.5t-36.5 -0.5t-31.5 11.5t-20 18.5q-2 4 3 4q22 1 33 9t15 17.5t2.5 20t-3.5 18.5l-10 38q-7 18 -19.5 45.5t-33.5 56.5q-63 86 -153 113l-76 -290q-2 -14 2.5 -29.5t21.5 -18.5
q2 -1 3 -3t-1 -3q-9 -6 -25 -9.5t-30 11.5h-2q-4 -4 -12 -8t-18 -4t-20.5 5t-19.5 19q-2 7 4 7q5 0 13.5 2t17 6.5t16 13.5t11.5 23l75 287q-8 1 -16.5 1.5t-17.5 1.5q-86 2 -152 -30.5t-105 -96.5q-38 -63 -40 -138t31 -138q1 -2 1.5 -2.5t1.5 -2.5q23 -38 55 -61
t65.5 -32.5t65.5 -7t57 15t38.5 33.5t10.5 49q0 7 8 7q29 0 47 -18.5t18 -43.5q0 -47 -32.5 -76t-81.5 -37.5t-105.5 5.5t-105.5 52t-81.5 101t-32.5 154q0 43 12 84t34 76q42 70 113 108q78 42 180 39q11 -1 21.5 -1.5t21.5 -2.5l57 219q1 5 3 15.5t-1 21t-12.5 19
t-30.5 9.5q-5 0 -3 4q6 10 20 18.5t31.5 11.5t36 -0.5t35.5 -18.5q2 -1 4 -3l3 3q16 15 35 18.5t36.5 0.5t31.5 -11.5t20 -18.5q2 -4 -2 -4q-24 -1 -29 -16.5t-3 -30.5l128 -478q9 -34 21 -61q11 -23 26.5 -43t38.5 -21zM498 336q23 -14 43 -32t38 -40l-92 360l-66 -253
q40 -12 77 -35z" />
    <glyph glyph-name="Aring" unicode="&#xc5;" horiz-adv-x="857" 
d="M533 862q23 0 39.5 -16.5t16.5 -39.5t-16.5 -39.5t-39.5 -16.5t-39.5 16.5t-16.5 39.5t16.5 39.5t39.5 16.5zM533 779q11 0 19 8t8 19t-8 19t-19 8t-19 -8t-8 -19t8 -19t19 -8zM828 14q5 0 3 -4q-6 -10 -20 -18.5t-31.5 -11.5t-36.5 0.5t-36 18.5l-3 3l-3 -3
q-17 -15 -36 -18.5t-36.5 -0.5t-31.5 11.5t-20 18.5q-2 4 3 4q22 1 33 9t15 17.5t2.5 20t-3.5 18.5l-10 38q-7 18 -19.5 45.5t-33.5 56.5q-63 86 -153 113l-76 -290q-2 -14 2.5 -29.5t21.5 -18.5q2 -1 3 -3t-1 -3q-9 -6 -25 -9.5t-30 11.5h-2q-4 -4 -12 -8t-18 -4t-20.5 5
t-19.5 19q-2 7 4 7q5 0 13.5 2t17 6.5t16 13.5t11.5 23l75 287q-8 1 -16.5 1.5t-17.5 1.5q-86 2 -152 -30.5t-105 -96.5q-38 -63 -40 -138t31 -138q1 -2 1.5 -2.5t1.5 -2.5q23 -38 55 -61t65.5 -32.5t65.5 -7t57 15t38.5 33.5t10.5 49q0 7 8 7q29 0 47 -18.5t18 -43.5
q0 -47 -32.5 -76t-81.5 -37.5t-105.5 5.5t-105.5 52t-81.5 101t-32.5 154q0 43 12 84t34 76q42 70 113 108q78 42 180 39q11 -1 21.5 -1.5t21.5 -2.5l57 219q1 5 3 15.5t-1 21t-12.5 19t-30.5 9.5q-5 0 -3 4q6 10 20 18.5t31.5 11.5t36 -0.5t35.5 -18.5q2 -1 4 -3l3 3
q16 15 35 18.5t36.5 0.5t31.5 -11.5t20 -18.5q2 -4 -2 -4q-24 -1 -29 -16.5t-3 -30.5l128 -478q9 -34 21 -61q11 -23 26.5 -43t38.5 -21zM498 336q23 -14 43 -32t38 -40l-92 360l-66 -253q40 -12 77 -35z" />
    <glyph glyph-name="AE" unicode="&#xc6;" horiz-adv-x="1282" 
d="M1195 21q20 -2 34 -9q12 -6 21 -18t5 -33q-11 4 -27 8q-14 3 -34.5 6t-48.5 3h-272q-28 2 -49 21q-1 0 -1 0.5t-1 0.5q-14 -12 -36 -18q-24 -8 -47 -1t-37 19l-1 -1q-17 -15 -36 -18.5t-36.5 -0.5t-31.5 11.5t-20 18.5q-2 4 3 4q22 1 33 9t15 17.5t2.5 20t-3.5 18.5
l-10 38q-7 18 -19.5 45.5t-33.5 56.5q-63 86 -153 113l-76 -290q-2 -14 2.5 -29.5t21.5 -18.5q2 -1 3 -3t-1 -3q-9 -6 -25 -9.5t-30 11.5h-2q-4 -4 -12 -8t-18 -4t-20.5 5t-19.5 19q-2 7 4 7q5 0 13.5 2t17 6.5t16 13.5t11.5 23l75 287q-8 1 -16.5 1.5t-17.5 1.5
q-86 2 -152 -30.5t-105 -96.5q-38 -63 -40 -138t31 -138q1 -2 1.5 -2.5t1.5 -2.5q23 -38 55 -61t65.5 -32.5t65.5 -7t57 15t38.5 33.5t10.5 49q0 7 8 7q29 0 47 -18.5t18 -43.5q0 -47 -32.5 -76t-81.5 -37.5t-105.5 5.5t-105.5 52t-81.5 101t-32.5 154q0 43 12 84t34 76
q42 70 113 108q78 42 180 39q11 -1 21.5 -1.5t21.5 -2.5l57 219q1 5 3 15.5t-1 21t-12.5 19t-30.5 9.5q-5 0 -3 4q6 10 20 18.5t31.5 11.5t36 -0.5t35.5 -18.5q2 -1 4 -3l3 3q16 15 35 18.5t36.5 0.5t31.5 -11.5t20 -18.5q2 -4 -2 -4q-24 -1 -29 -16.5t-3 -30.5l128 -478
q1 -8 4 -17q2 -8 5.5 -17.5t8.5 -20.5v515q0 5 -1.5 15.5t-7.5 21t-19 19t-36 9.5q-3 2 -2 4q6 10 20 18.5t31.5 11.5t36 -0.5t35.5 -18.5l3 -3q2 1 4 3q21 19 49 21h272q28 0 48.5 2.5t34.5 5.5q16 4 27 9q4 -21 -5 -33t-21 -18q-14 -7 -34 -8q25 -32 27 -60t-13 -48
t-43.5 -29t-62.5 -2q-5 1 -8.5 3t1.5 4q18 7 24 29t-3.5 45t-37.5 41.5t-78 18.5h-43q-28 0 -43.5 -5t-23 -13.5t-9 -20t-1.5 -24.5v-198q29 13 56.5 22.5t54.5 12.5q48 6 75 -9t37 -38t6.5 -48t-15.5 -40q-4 -2 -4 0q2 15 -5.5 30.5t-27 26t-50.5 13t-75 -9.5
q-11 -3 -24.5 -7t-27.5 -9v-262q0 -13 1.5 -24.5t9 -20t23 -13.5t43.5 -5h43q50 0 78 18.5t37.5 41.5t3.5 45t-24 29q-5 2 -1.5 4t8.5 3q34 7 62.5 -2t43.5 -29t13 -48t-27 -59zM498 336q23 -14 43 -32t38 -40l-92 360l-66 -253q40 -12 77 -35z" />
    <glyph glyph-name="Edieresis" unicode="&#xcb;" horiz-adv-x="666" 
d="M328 862q23 0 40 -16.5t17 -39.5t-17 -39.5t-40 -16.5t-39.5 16.5t-16.5 39.5t16.5 39.5t39.5 16.5zM446 862q23 0 40 -16.5t17 -39.5t-17 -39.5t-40 -16.5t-39.5 16.5t-16.5 39.5t16.5 39.5t39.5 16.5zM579 21q20 -2 34 -9q12 -6 21 -18t5 -33q-11 4 -27 8
q-14 3 -34.5 6t-48.5 3h-272q-28 2 -49 21q-2 2 -4 3l-3 -3q-17 -15 -35.5 -18.5t-36 -0.5t-31.5 11.5t-20 18.5q-2 4 2 4q23 1 36 10t19 19.5t7.5 20.5t1.5 15v226q-34 -8 -64 -11t-53 5q-12 5 -19.5 13.5t-7.5 22.5q23 -28 60 -21.5t84 27.5v258q0 5 -1.5 15.5t-7.5 21
t-19 19t-36 9.5q-3 2 -2 4q6 10 20 18.5t31.5 11.5t36 -0.5t35.5 -18.5l3 -3q2 1 4 3q21 19 49 21h272q28 0 48.5 2.5t34.5 5.5q16 4 27 9q4 -21 -5 -33t-21 -18q-14 -7 -34 -8q25 -32 27 -60t-13 -48t-43.5 -29t-62.5 -2q-5 1 -8.5 3t1.5 4q18 7 24 29t-3.5 45t-37.5 41.5
t-78 18.5h-43q-28 0 -43.5 -5t-23 -13.5t-9 -20t-1.5 -24.5v-198q29 13 56.5 22.5t54.5 12.5q48 6 75 -9t37 -38t6.5 -48t-15.5 -40q-4 -2 -4 0q2 15 -5.5 30.5t-27 26t-50.5 13t-75 -9.5q-11 -3 -24.5 -7t-27.5 -9v-262q0 -13 1.5 -24.5t9 -20t23 -13.5t43.5 -5h43
q50 0 78 18.5t37.5 41.5t3.5 45t-24 29q-5 2 -1.5 4t8.5 3q34 7 62.5 -2t43.5 -29t13 -48t-27 -59z" />
    <glyph glyph-name="Ecircumflex" unicode="&#xca;" horiz-adv-x="666" 
d="M379 882q8 0 4 -8l-98 -122q-2 -2 -4 -2h-21q-7 0 -5 6l58 123q1 3 4 3h62zM513 756q2 -6 -5 -6h-21q-4 0 -4 2l-98 122q-4 8 4 8h61q3 0 5 -3zM579 21q20 -2 34 -9q12 -6 21 -18t5 -33q-11 4 -27 8q-14 3 -34.5 6t-48.5 3h-272q-28 2 -49 21q-2 2 -4 3l-3 -3
q-17 -15 -35.5 -18.5t-36 -0.5t-31.5 11.5t-20 18.5q-2 4 2 4q23 1 36 10t19 19.5t7.5 20.5t1.5 15v226q-34 -8 -64 -11t-53 5q-12 5 -19.5 13.5t-7.5 22.5q23 -28 60 -21.5t84 27.5v258q0 5 -1.5 15.5t-7.5 21t-19 19t-36 9.5q-3 2 -2 4q6 10 20 18.5t31.5 11.5t36 -0.5
t35.5 -18.5l3 -3q2 1 4 3q21 19 49 21h272q28 0 48.5 2.5t34.5 5.5q16 4 27 9q4 -21 -5 -33t-21 -18q-14 -7 -34 -8q25 -32 27 -60t-13 -48t-43.5 -29t-62.5 -2q-5 1 -8.5 3t1.5 4q18 7 24 29t-3.5 45t-37.5 41.5t-78 18.5h-43q-28 0 -43.5 -5t-23 -13.5t-9 -20t-1.5 -24.5
v-198q29 13 56.5 22.5t54.5 12.5q48 6 75 -9t37 -38t6.5 -48t-15.5 -40q-4 -2 -4 0q2 15 -5.5 30.5t-27 26t-50.5 13t-75 -9.5q-11 -3 -24.5 -7t-27.5 -9v-262q0 -13 1.5 -24.5t9 -20t23 -13.5t43.5 -5h43q50 0 78 18.5t37.5 41.5t3.5 45t-24 29q-5 2 -1.5 4t8.5 3
q34 7 62.5 -2t43.5 -29t13 -48t-27 -59z" />
    <glyph glyph-name="Eacute" unicode="&#xc9;" horiz-adv-x="666" 
d="M444 882q8 0 4 -8l-98 -122q-2 -2 -4 -2h-21q-7 0 -5 6l58 123q1 3 5 3h61zM579 21q20 -2 34 -9q12 -6 21 -18t5 -33q-11 4 -27 8q-14 3 -34.5 6t-48.5 3h-272q-28 2 -49 21q-2 2 -4 3l-3 -3q-17 -15 -35.5 -18.5t-36 -0.5t-31.5 11.5t-20 18.5q-2 4 2 4q23 1 36 10
t19 19.5t7.5 20.5t1.5 15v226q-34 -8 -64 -11t-53 5q-12 5 -19.5 13.5t-7.5 22.5q23 -28 60 -21.5t84 27.5v258q0 5 -1.5 15.5t-7.5 21t-19 19t-36 9.5q-3 2 -2 4q6 10 20 18.5t31.5 11.5t36 -0.5t35.5 -18.5l3 -3q2 1 4 3q21 19 49 21h272q28 0 48.5 2.5t34.5 5.5
q16 4 27 9q4 -21 -5 -33t-21 -18q-14 -7 -34 -8q25 -32 27 -60t-13 -48t-43.5 -29t-62.5 -2q-5 1 -8.5 3t1.5 4q18 7 24 29t-3.5 45t-37.5 41.5t-78 18.5h-43q-28 0 -43.5 -5t-23 -13.5t-9 -20t-1.5 -24.5v-198q29 13 56.5 22.5t54.5 12.5q48 6 75 -9t37 -38t6.5 -48
t-15.5 -40q-4 -2 -4 0q2 15 -5.5 30.5t-27 26t-50.5 13t-75 -9.5q-11 -3 -24.5 -7t-27.5 -9v-262q0 -13 1.5 -24.5t9 -20t23 -13.5t43.5 -5h43q50 0 78 18.5t37.5 41.5t3.5 45t-24 29q-5 2 -1.5 4t8.5 3q34 7 62.5 -2t43.5 -29t13 -48t-27 -59z" />
    <glyph glyph-name="Egrave" unicode="&#xc8;" horiz-adv-x="666" 
d="M386 882q3 0 5 -3l58 -123q2 -6 -5 -6h-21q-2 0 -4 2l-98 122q-4 8 4 8h61zM579 21q20 -2 34 -9q12 -6 21 -18t5 -33q-11 4 -27 8q-14 3 -34.5 6t-48.5 3h-272q-28 2 -49 21q-2 2 -4 3l-3 -3q-17 -15 -35.5 -18.5t-36 -0.5t-31.5 11.5t-20 18.5q-2 4 2 4q23 1 36 10
t19 19.5t7.5 20.5t1.5 15v226q-34 -8 -64 -11t-53 5q-12 5 -19.5 13.5t-7.5 22.5q23 -28 60 -21.5t84 27.5v258q0 5 -1.5 15.5t-7.5 21t-19 19t-36 9.5q-3 2 -2 4q6 10 20 18.5t31.5 11.5t36 -0.5t35.5 -18.5l3 -3q2 1 4 3q21 19 49 21h272q28 0 48.5 2.5t34.5 5.5
q16 4 27 9q4 -21 -5 -33t-21 -18q-14 -7 -34 -8q25 -32 27 -60t-13 -48t-43.5 -29t-62.5 -2q-5 1 -8.5 3t1.5 4q18 7 24 29t-3.5 45t-37.5 41.5t-78 18.5h-43q-28 0 -43.5 -5t-23 -13.5t-9 -20t-1.5 -24.5v-198q29 13 56.5 22.5t54.5 12.5q48 6 75 -9t37 -38t6.5 -48
t-15.5 -40q-4 -2 -4 0q2 15 -5.5 30.5t-27 26t-50.5 13t-75 -9.5q-11 -3 -24.5 -7t-27.5 -9v-262q0 -13 1.5 -24.5t9 -20t23 -13.5t43.5 -5h43q50 0 78 18.5t37.5 41.5t3.5 45t-24 29q-5 2 -1.5 4t8.5 3q34 7 62.5 -2t43.5 -29t13 -48t-27 -59z" />
    <glyph glyph-name="Igrave" unicode="&#xcc;" 
d="M130 882q4 0 4 -3l58 -123q2 -6 -4 -6h-22q-2 0 -4 2l-98 122q-4 8 4 8h62zM252 14q5 0 3 -4q-6 -10 -20 -18.5t-31.5 -11.5t-36.5 0.5t-36 18.5l-3 3l-3 -3q-17 -15 -36 -18.5t-36.5 -0.5t-31.5 11.5t-20 18.5q-2 4 3 4q22 1 35 10t19 19.5t7.5 20.5t1.5 15v3v515v2
q0 5 -1.5 15.5t-7.5 21t-19 19t-35 9.5q-5 0 -3 4q6 10 20 18.5t31.5 11.5t36.5 -0.5t36 -18.5l3 -3l3 3q17 15 36 18.5t36.5 0.5t31.5 -11.5t20 -18.5q2 -4 -3 -4q-23 -1 -35.5 -9.5t-18.5 -19t-7.5 -21t-1.5 -15.5v-2v-515v-3q0 -5 1.5 -15t7.5 -20.5t18.5 -19.5t35.5 -10
z" />
    <glyph glyph-name="Iacute" unicode="&#xcd;" 
d="M188 882q8 0 4 -8l-98 -122q-2 -2 -4 -2h-22q-6 0 -4 6l58 123q0 3 4 3h62zM252 14q5 0 3 -4q-6 -10 -20 -18.5t-31.5 -11.5t-36.5 0.5t-36 18.5l-3 3l-3 -3q-17 -15 -36 -18.5t-36.5 -0.5t-31.5 11.5t-20 18.5q-2 4 3 4q22 1 35 10t19 19.5t7.5 20.5t1.5 15v3v515v2
q0 5 -1.5 15.5t-7.5 21t-19 19t-35 9.5q-5 0 -3 4q6 10 20 18.5t31.5 11.5t36.5 -0.5t36 -18.5l3 -3l3 3q17 15 36 18.5t36.5 0.5t31.5 -11.5t20 -18.5q2 -4 -3 -4q-23 -1 -35.5 -9.5t-18.5 -19t-7.5 -21t-1.5 -15.5v-2v-515v-3q0 -5 1.5 -15t7.5 -20.5t18.5 -19.5t35.5 -10
z" />
    <glyph glyph-name="Icircumflex" unicode="&#xce;" horiz-adv-x="285" 
d="M125 882q8 0 4 -8l-98 -122q-2 -2 -4 -2h-21q-7 0 -5 6l58 123q1 3 5 3h61zM259 756q2 -6 -5 -6h-21q-2 0 -4 2l-98 122q-4 8 4 8h61q3 0 5 -3zM252 14q5 0 3 -4q-6 -10 -20 -18.5t-31.5 -11.5t-36.5 0.5t-36 18.5l-3 3l-3 -3q-17 -15 -36 -18.5t-36.5 -0.5t-31.5 11.5
t-20 18.5q-2 4 3 4q22 1 35 10t19 19.5t7.5 20.5t1.5 15v3v515v2q0 5 -1.5 15.5t-7.5 21t-19 19t-35 9.5q-5 0 -3 4q6 10 20 18.5t31.5 11.5t36.5 -0.5t36 -18.5l3 -3l3 3q17 15 36 18.5t36.5 0.5t31.5 -11.5t20 -18.5q2 -4 -3 -4q-23 -1 -35.5 -9.5t-18.5 -19t-7.5 -21
t-1.5 -15.5v-2v-515v-3q0 -5 1.5 -15t7.5 -20.5t18.5 -19.5t35.5 -10z" />
    <glyph glyph-name="Idieresis" unicode="&#xcf;" 
d="M71 862q23 0 39.5 -16.5t16.5 -39.5t-16.5 -39.5t-39.5 -16.5t-39.5 16.5t-16.5 39.5t16.5 39.5t39.5 16.5zM189 862q23 0 39.5 -16.5t16.5 -39.5t-16.5 -39.5t-39.5 -16.5t-39.5 16.5t-16.5 39.5t16.5 39.5t39.5 16.5zM252 14q5 0 3 -4q-6 -10 -20 -18.5t-31.5 -11.5
t-36.5 0.5t-36 18.5l-3 3l-3 -3q-17 -15 -36 -18.5t-36.5 -0.5t-31.5 11.5t-20 18.5q-2 4 3 4q22 1 35 10t19 19.5t7.5 20.5t1.5 15v3v515v2q0 5 -1.5 15.5t-7.5 21t-19 19t-35 9.5q-5 0 -3 4q6 10 20 18.5t31.5 11.5t36.5 -0.5t36 -18.5l3 -3l3 3q17 15 36 18.5t36.5 0.5
t31.5 -11.5t20 -18.5q2 -4 -3 -4q-23 -1 -35.5 -9.5t-18.5 -19t-7.5 -21t-1.5 -15.5v-2v-515v-3q0 -5 1.5 -15t7.5 -20.5t18.5 -19.5t35.5 -10z" />
    <glyph glyph-name="Ntilde" unicode="&#xd1;" horiz-adv-x="1012" 
d="M730 769q-14 0 -27.5 6t-27.5 13l-22 10t-20 5q-5 0 -10 -1.5t-11 -9.5q-10 -12 -22 -4v1q-7 5 -8 13.5t4 15.5q19 25 47 25q15 0 28.5 -5.5t27.5 -13.5q24 -13 37 -15t23 12q4 5 10 7t11 -2h1q7 -5 8.5 -13.5t-3.5 -15.5q-19 -28 -45 -28h-1zM983 14q5 0 3 -4
q-6 -10 -20 -18.5t-31.5 -11.5t-36.5 0.5t-36 18.5l-3 3l-3 -3q-17 -15 -36 -18.5t-36.5 -0.5t-31.5 11.5t-20 18.5q-2 4 3 4q26 2 28.5 16.5t-3.5 31.5q-30 61 -64 131t-69 143t-70 145t-66 137v-628q0 -101 -70 -162q-30 -27 -69.5 -41.5t-83.5 -14.5q-87 0 -145.5 35
t-89 88t-33 114t21 114t73 88t124.5 35q37 0 62 -12t40.5 -31t20.5 -41t2 -42t-14.5 -34.5t-29.5 -18.5q-2 0 -2 1q-1 26 -17.5 43.5t-41.5 25t-53.5 3.5t-52 -22t-39 -50.5t-13.5 -82.5q1 -32 12 -62.5t33.5 -55.5t57.5 -40t84 -15q33 0 65.5 10.5t59 32.5t42.5 55.5
t16 79.5v611v4v6q0 7 -1.5 16t-7 16.5t-16 13.5t-28.5 7q-4 2 -3 4q6 10 20 18.5t31.5 11.5t36.5 -0.5t36 -18.5l3 -3l3 3q17 15 36 18.5t36.5 0.5t31.5 -11.5t20 -18.5q1 -3 -3 -4q-23 -2 -24.5 -16.5t4.5 -30.5l14 -28l250 -518v532q0 11 -1.5 25t-7 26t-16 18.5
t-29.5 2.5q-5 0 -2 3q3 4 11 10t18.5 9.5t22.5 2t24 -11.5q12 10 23.5 11.5t22 -2t18.5 -9.5t12 -10q3 -3 -2 -3q-19 4 -30 -2.5t-16 -18.5t-6.5 -26t-1.5 -25v-525v-5v-5q0 -8 1.5 -16.5t7 -16.5t16 -14t28.5 -7z" />
    <glyph glyph-name="Ograve" unicode="&#xd2;" horiz-adv-x="586" 
d="M282 882q3 0 5 -3l58 -123q2 -6 -5 -6h-21q-2 0 -4 2l-98 122q-4 8 4 8h61zM561 339q0 -75 -18.5 -140.5t-54 -114.5t-87.5 -77.5t-120 -28.5h-1q-68 0 -120 28.5t-87.5 77.5t-54 114.5t-18.5 140.5t18.5 140.5t54 114.5t87.5 77.5t120 28.5h1q68 0 120 -28.5t87.5 -77.5
t54 -114.5t18.5 -140.5zM281 18q32 0 56 15t41 40t28 58t17.5 68.5t9 71.5t2.5 68q-1 45 -6 97t-19 99q-8 -9 -19.5 -12.5t-22.5 -3.5t-21 1.5t-15 2.5q-7 2 -2 5q23 31 25.5 56t-7.5 41.5t-29 25.5t-38 9l-1 -1v1q-48 0 -78.5 -32.5t-47 -80.5t-22.5 -104t-6 -104
q0 -45 5.5 -97t19.5 -99q7 9 18.5 12.5t23 3.5t21.5 -2l15 -3q2 0 3 -1.5t-1 -2.5q-24 -32 -26.5 -56.5t8 -41.5t29 -25.5t38.5 -8.5h1z" />
    <glyph glyph-name="Oacute" unicode="&#xd3;" horiz-adv-x="586" 
d="M340 882q8 0 4 -8l-98 -122q-2 -2 -4 -2h-21q-7 0 -5 6l58 123q1 3 5 3h61zM561 339q0 -75 -18.5 -140.5t-54 -114.5t-87.5 -77.5t-120 -28.5h-1q-68 0 -120 28.5t-87.5 77.5t-54 114.5t-18.5 140.5t18.5 140.5t54 114.5t87.5 77.5t120 28.5h1q68 0 120 -28.5t87.5 -77.5
t54 -114.5t18.5 -140.5zM281 18q32 0 56 15t41 40t28 58t17.5 68.5t9 71.5t2.5 68q-1 45 -6 97t-19 99q-8 -9 -19.5 -12.5t-22.5 -3.5t-21 1.5t-15 2.5q-7 2 -2 5q23 31 25.5 56t-7.5 41.5t-29 25.5t-38 9l-1 -1v1q-48 0 -78.5 -32.5t-47 -80.5t-22.5 -104t-6 -104
q0 -45 5.5 -97t19.5 -99q7 9 18.5 12.5t23 3.5t21.5 -2l15 -3q2 0 3 -1.5t-1 -2.5q-24 -32 -26.5 -56.5t8 -41.5t29 -25.5t38.5 -8.5h1z" />
    <glyph glyph-name="Ocircumflex" unicode="&#xd4;" horiz-adv-x="586" 
d="M276 882q8 0 4 -8l-98 -122q-2 -2 -4 -2h-22q-6 0 -4 6l58 123q0 3 4 3h62zM409 756q2 -6 -4 -6h-22q-2 0 -4 2l-98 122q-4 8 4 8h62q4 0 4 -3zM561 339q0 -75 -18.5 -140.5t-54 -114.5t-87.5 -77.5t-120 -28.5h-1q-68 0 -120 28.5t-87.5 77.5t-54 114.5t-18.5 140.5
t18.5 140.5t54 114.5t87.5 77.5t120 28.5h1q68 0 120 -28.5t87.5 -77.5t54 -114.5t18.5 -140.5zM281 18q32 0 56 15t41 40t28 58t17.5 68.5t9 71.5t2.5 68q-1 45 -6 97t-19 99q-8 -9 -19.5 -12.5t-22.5 -3.5t-21 1.5t-15 2.5q-7 2 -2 5q23 31 25.5 56t-7.5 41.5t-29 25.5
t-38 9l-1 -1v1q-48 0 -78.5 -32.5t-47 -80.5t-22.5 -104t-6 -104q0 -45 5.5 -97t19.5 -99q7 9 18.5 12.5t23 3.5t21.5 -2l15 -3q2 0 3 -1.5t-1 -2.5q-24 -32 -26.5 -56.5t8 -41.5t29 -25.5t38.5 -8.5h1z" />
    <glyph glyph-name="Odieresis" unicode="&#xd6;" horiz-adv-x="586" 
d="M221 862q24 0 40.5 -16.5t16.5 -39.5t-16.5 -39.5t-40.5 -16.5q-23 0 -39.5 16.5t-16.5 39.5t16.5 39.5t39.5 16.5zM339 862q24 0 40.5 -16.5t16.5 -39.5t-16.5 -39.5t-40.5 -16.5q-23 0 -39.5 16.5t-16.5 39.5t16.5 39.5t39.5 16.5zM561 339q0 -75 -18.5 -140.5
t-54 -114.5t-87.5 -77.5t-120 -28.5h-1q-68 0 -120 28.5t-87.5 77.5t-54 114.5t-18.5 140.5t18.5 140.5t54 114.5t87.5 77.5t120 28.5h1q68 0 120 -28.5t87.5 -77.5t54 -114.5t18.5 -140.5zM281 18q32 0 56 15t41 40t28 58t17.5 68.5t9 71.5t2.5 68q-1 45 -6 97t-19 99
q-8 -9 -19.5 -12.5t-22.5 -3.5t-21 1.5t-15 2.5q-7 2 -2 5q23 31 25.5 56t-7.5 41.5t-29 25.5t-38 9l-1 -1v1q-48 0 -78.5 -32.5t-47 -80.5t-22.5 -104t-6 -104q0 -45 5.5 -97t19.5 -99q7 9 18.5 12.5t23 3.5t21.5 -2l15 -3q2 0 3 -1.5t-1 -2.5q-24 -32 -26.5 -56.5t8 -41.5
t29 -25.5t38.5 -8.5h1z" />
    <glyph glyph-name="Otilde" unicode="&#xd5;" horiz-adv-x="586" 
d="M342 769q-14 0 -27.5 6t-26.5 13l-22 10t-20 5q-5 0 -10 -1.5t-12 -9.5q-4 -5 -10 -6.5t-11 2.5v1q-8 5 -8.5 13.5t4.5 15.5q19 25 47 25q15 0 28.5 -5.5t27.5 -13.5q24 -13 37 -15t23 12q4 5 10 7t11 -2h1q7 -5 8.5 -13.5t-3.5 -15.5q-19 -28 -46 -28h-1zM561 339
q0 -75 -18.5 -140.5t-54 -114.5t-87.5 -77.5t-120 -28.5h-1q-68 0 -120 28.5t-87.5 77.5t-54 114.5t-18.5 140.5t18.5 140.5t54 114.5t87.5 77.5t120 28.5h1q68 0 120 -28.5t87.5 -77.5t54 -114.5t18.5 -140.5zM281 18q32 0 56 15t41 40t28 58t17.5 68.5t9 71.5t2.5 68
q-1 45 -6 97t-19 99q-8 -9 -19.5 -12.5t-22.5 -3.5t-21 1.5t-15 2.5q-7 2 -2 5q23 31 25.5 56t-7.5 41.5t-29 25.5t-38 9l-1 -1v1q-48 0 -78.5 -32.5t-47 -80.5t-22.5 -104t-6 -104q0 -45 5.5 -97t19.5 -99q7 9 18.5 12.5t23 3.5t21.5 -2l15 -3q2 0 3 -1.5t-1 -2.5
q-24 -32 -26.5 -56.5t8 -41.5t29 -25.5t38.5 -8.5h1z" />
    <glyph glyph-name="Ucircumflex" unicode="&#xdb;" horiz-adv-x="628" 
d="M297 882q8 0 4 -8l-98 -122q-2 -2 -4 -2h-22q-6 0 -4 6l58 123q0 3 4 3h62zM430 756q2 -6 -4 -6h-22q-2 0 -4 2l-98 122q-4 8 4 8h62q4 0 4 -3zM1 668q6 10 20 18.5t31.5 11.5t36.5 -0.5t36 -18.5l3 -3l3 3q17 15 36 18.5t36.5 0.5t31.5 -11.5t20 -18.5q2 -4 -3 -4
q-23 -1 -35.5 -9.5t-18.5 -19t-7.5 -21t-1.5 -15.5v-354q0 -56 6 -97t20.5 -68.5t38.5 -42.5t59 -19q32 -4 66.5 4t62.5 33t46 71t18 119v358q0 11 -1.5 25t-7 26t-16 18.5t-29.5 2.5q-5 0 -2 3q4 4 12 10t18.5 9.5t22 2t23.5 -11.5q12 10 23.5 11.5t22 -2t18.5 -9.5t12 -10
q3 -3 -2 -3q-19 4 -29.5 -2.5t-16 -18.5t-7 -26t-1.5 -25v-358q0 -75 -17 -126t-48 -82.5t-75 -45t-99 -13.5q-56 0 -100.5 13.5t-75.5 45t-47.5 82.5t-16.5 126v354q0 5 -1.5 15.5t-7.5 21t-19 19t-35 9.5q-5 0 -3 4z" />
    <glyph glyph-name="Udieresis" unicode="&#xdc;" horiz-adv-x="628" 
d="M243 862q23 0 39.5 -16.5t16.5 -39.5t-16.5 -39.5t-39.5 -16.5q-24 0 -40.5 16.5t-16.5 39.5t16.5 39.5t40.5 16.5zM361 862q23 0 39.5 -16.5t16.5 -39.5t-16.5 -39.5t-39.5 -16.5q-24 0 -40.5 16.5t-16.5 39.5t16.5 39.5t40.5 16.5zM1 668q6 10 20 18.5t31.5 11.5
t36.5 -0.5t36 -18.5l3 -3l3 3q17 15 36 18.5t36.5 0.5t31.5 -11.5t20 -18.5q2 -4 -3 -4q-23 -1 -35.5 -9.5t-18.5 -19t-7.5 -21t-1.5 -15.5v-354q0 -56 6 -97t20.5 -68.5t38.5 -42.5t59 -19q32 -4 66.5 4t62.5 33t46 71t18 119v358q0 11 -1.5 25t-7 26t-16 18.5t-29.5 2.5
q-5 0 -2 3q4 4 12 10t18.5 9.5t22 2t23.5 -11.5q12 10 23.5 11.5t22 -2t18.5 -9.5t12 -10q3 -3 -2 -3q-19 4 -29.5 -2.5t-16 -18.5t-7 -26t-1.5 -25v-358q0 -75 -17 -126t-48 -82.5t-75 -45t-99 -13.5q-56 0 -100.5 13.5t-75.5 45t-47.5 82.5t-16.5 126v354q0 5 -1.5 15.5
t-7.5 21t-19 19t-35 9.5q-5 0 -3 4z" />
    <glyph glyph-name="Uacute" unicode="&#xda;" horiz-adv-x="628" 
d="M414 882q8 0 4 -8l-98 -122q-2 -2 -4 -2h-22q-6 0 -4 6l58 123q0 3 4 3h62zM1 668q6 10 20 18.5t31.5 11.5t36.5 -0.5t36 -18.5l3 -3l3 3q17 15 36 18.5t36.5 0.5t31.5 -11.5t20 -18.5q2 -4 -3 -4q-23 -1 -35.5 -9.5t-18.5 -19t-7.5 -21t-1.5 -15.5v-354q0 -56 6 -97
t20.5 -68.5t38.5 -42.5t59 -19q32 -4 66.5 4t62.5 33t46 71t18 119v358q0 11 -1.5 25t-7 26t-16 18.5t-29.5 2.5q-5 0 -2 3q4 4 12 10t18.5 9.5t22 2t23.5 -11.5q12 10 23.5 11.5t22 -2t18.5 -9.5t12 -10q3 -3 -2 -3q-19 4 -29.5 -2.5t-16 -18.5t-7 -26t-1.5 -25v-358
q0 -75 -17 -126t-48 -82.5t-75 -45t-99 -13.5q-56 0 -100.5 13.5t-75.5 45t-47.5 82.5t-16.5 126v354q0 5 -1.5 15.5t-7.5 21t-19 19t-35 9.5q-5 0 -3 4z" />
    <glyph glyph-name="Ugrave" unicode="&#xd9;" horiz-adv-x="628" 
d="M303 882q3 0 5 -3l58 -123q2 -6 -5 -6h-21q-2 0 -4 2l-98 122q-4 8 4 8h61zM1 668q6 10 20 18.5t31.5 11.5t36.5 -0.5t36 -18.5l3 -3l3 3q17 15 36 18.5t36.5 0.5t31.5 -11.5t20 -18.5q2 -4 -3 -4q-23 -1 -35.5 -9.5t-18.5 -19t-7.5 -21t-1.5 -15.5v-354q0 -56 6 -97
t20.5 -68.5t38.5 -42.5t59 -19q32 -4 66.5 4t62.5 33t46 71t18 119v358q0 11 -1.5 25t-7 26t-16 18.5t-29.5 2.5q-5 0 -2 3q4 4 12 10t18.5 9.5t22 2t23.5 -11.5q12 10 23.5 11.5t22 -2t18.5 -9.5t12 -10q3 -3 -2 -3q-19 4 -29.5 -2.5t-16 -18.5t-7 -26t-1.5 -25v-358
q0 -75 -17 -126t-48 -82.5t-75 -45t-99 -13.5q-56 0 -100.5 13.5t-75.5 45t-47.5 82.5t-16.5 126v354q0 5 -1.5 15.5t-7.5 21t-19 19t-35 9.5q-5 0 -3 4z" />
    <glyph glyph-name="Q" unicode="Q" horiz-adv-x="913" 
d="M877 -124q3 3 7 1.5t3 -6.5q-2 -15 -9 -34.5t-23.5 -36t-45 -26.5t-73.5 -8q-42 2 -84 18.5t-83 40t-80.5 50.5t-76.5 50t-70 38t-61 15h-1h-5q-5 0 -13 -1.5t-17.5 -6t-19.5 -13t-19 -23.5q-2 -3 -4.5 -2.5t-3.5 3.5q-3 11 -3.5 26.5t9.5 27.5q-50 14 -88 46.5t-63.5 79
t-39 103.5t-13.5 121q0 75 18.5 140.5t54 114.5t87.5 77.5t120 28.5h1q68 0 120 -28.5t87.5 -77.5t54 -114.5t18.5 -140.5q0 -65 -14 -123.5t-41 -105t-67 -79t-92 -45.5q44 -12 92.5 -34t98.5 -45t100 -41.5t97 -22.5q33 -3 57 -0.5t41 8t27.5 12.5t16.5 13zM281 18
q32 0 56 15t41 40t28 58t17.5 68.5t9 71.5t2.5 68q-1 45 -6 97t-19 99q-8 -9 -19.5 -12.5t-22.5 -3.5t-21 1.5t-15 2.5q-7 2 -2 5q23 31 25.5 56t-7.5 41.5t-29 25.5t-38 9l-1 -1v1q-48 0 -78.5 -32.5t-47 -80.5t-22.5 -104t-6 -104q0 -45 5.5 -97t19.5 -99q7 9 18.5 12.5
t23 3.5t21.5 -2l15 -3q2 0 3 -1.5t-1 -2.5q-24 -32 -26.5 -56.5t8 -41.5t29 -25.5t38.5 -8.5h1z" />
    <glyph glyph-name="q" unicode="q" horiz-adv-x="500" 
d="M675 -147q0 -11 -2.5 -26.5t-12.5 -29t-30 -23t-53 -9.5q-42 0 -76 15.5t-63 39t-54 51t-49.5 51t-48.5 40t-51 17.5h-3h-1q-106 3 -168.5 76t-62.5 207q0 68 17 121t48.5 89t75.5 54.5t99 18.5q54 0 98.5 -18.5t75.5 -54.5t48 -89t17 -121q0 -115 -46 -185t-127 -90
q31 -19 62 -46.5t64.5 -53t69.5 -43.5t77 -18q31 0 51 11t31 22q4 4 9 1.5t5 -7.5zM119 262q0 -54 7.5 -98.5t22.5 -77t37.5 -50t53.5 -17.5q30 0 52.5 17.5t37.5 50t22.5 77t7.5 98.5t-7.5 98.5t-22.5 77t-37.5 50t-52.5 17.5t-52.5 -17.5t-38 -50t-23 -77t-7.5 -98.5z" />
    <glyph glyph-name="zero" unicode="0" horiz-adv-x="556" 
d="M531 340v-1q0 -92 -22.5 -160t-59.5 -112.5t-85 -66.5t-99 -22t-99 22t-84.5 66.5t-59 112.5t-22.5 160v1v2q0 92 22.5 159.5t59 111.5t84.5 65.5t99 21.5t99 -21.5t85 -65.5t59.5 -111.5t22.5 -159.5v-2zM265 18q39 0 66.5 30.5t45 78t25 104t7.5 109.5q0 52 -7.5 109
t-25 103.5t-45 77t-66.5 30.5t-66 -30.5t-44.5 -77t-25 -103.5t-7.5 -109q0 -53 7.5 -109.5t25 -104t44.5 -78t66 -30.5z" />
    <glyph glyph-name="euro" unicode="&#x20ac;" horiz-adv-x="648" 
d="M564 43q24 -3 36 -11t17 -18t5 -19.5t-1 -15.5q-2 -5 -4 -1q-8 9 -27.5 10.5t-36.5 1.5q-9 0 -26.5 -2t-40 -4t-47.5 -4t-49 -2h-6q-61 0 -110.5 20.5t-86.5 57t-61 86t-34 107.5h-72q-8 0 -14 6t-6 14t6 14t14 6h66q-1 13 -1.5 25t-0.5 25q0 17 1 34t3 34h-68
q-8 0 -14 6t-6 14t6 14t14 6h75q12 55 36.5 101.5t61 80t84.5 52.5t107 19h6q24 0 49 -2t47.5 -4t40 -4t26.5 -2q17 0 36.5 1.5t27.5 11.5q2 2 4 -1q1 -6 1 -16t-5 -19.5t-17 -17.5t-36 -11q23 -28 25.5 -60t-11.5 -57.5t-43 -39t-69 -4.5q-5 1 -7.5 3.5t0.5 4.5
q25 19 32.5 49.5t-1.5 58.5t-35.5 48.5t-70.5 20.5q-38 0 -65.5 -18t-46 -48t-29.5 -68.5t-17 -78.5h62q8 0 14 -6t6 -14t-6 -14t-14 -6h-66q-2 -18 -2 -35v-33v-24t1 -26h67q8 0 14 -6t6 -14t-6 -14t-14 -6h-64q4 -42 14.5 -83.5t29.5 -74t47 -53t69 -20.5q44 0 70.5 20.5
t35.5 49t1.5 58.5t-32.5 49q-3 2 -0.5 4.5t7.5 4.5q40 9 69 -5t43 -39.5t11.5 -57t-25.5 -59.5z" />
    <glyph glyph-name="OE" unicode="&#x152;" horiz-adv-x="962" 
d="M875 21q20 -2 34 -9q12 -6 21 -18t5 -33q-11 4 -27 8q-14 3 -34.5 6t-48.5 3h-272q-28 2 -49 21q-2 2 -4 3l-3 -3q-14 -12 -30 -16.5t-31.5 -3.5t-29 6.5t-22.5 13.5q-45 -21 -103 -21h-1q-68 0 -120 28.5t-87.5 77.5t-54 114.5t-18.5 140.5t18.5 140.5t54 114.5
t87.5 77.5t120 28.5h1q29 0 54.5 -5.5t48.5 -15.5q9 8 22.5 13.5t29 7t31.5 -3t30 -17.5l3 -3q2 1 4 3q21 19 49 21h272q28 0 48.5 2.5t34.5 5.5q16 4 27 9q4 -21 -5 -33t-21 -18q-14 -7 -34 -8q25 -32 27 -60t-13 -48t-43.5 -29t-62.5 -2q-5 1 -8.5 3t1.5 4q18 7 24 29
t-3.5 45t-37.5 41.5t-78 18.5h-43q-28 0 -43.5 -5t-23 -13.5t-9 -20t-1.5 -24.5v-198q29 13 56.5 22.5t54.5 12.5q48 6 75 -9t37 -38t6.5 -48t-15.5 -40q-4 -2 -4 0q2 15 -5.5 30.5t-27 26t-50.5 13t-75 -9.5q-11 -3 -24.5 -7t-27.5 -9v-262q0 -13 1.5 -24.5t9 -20t23 -13.5
t43.5 -5h43q50 0 78 18.5t37.5 41.5t3.5 45t-24 29q-5 2 -1.5 4t8.5 3q34 7 62.5 -2t43.5 -29t13 -48t-27 -59zM281 18q44 0 73 27t46 69t24.5 92.5t9.5 97.5q-32 -8 -61 -10.5t-50 5.5q-12 5 -19.5 13.5t-7.5 22.5q22 -27 58 -22t81 25v1q-1 45 -6 97t-19 99
q-8 -9 -19.5 -12.5t-22.5 -3.5t-21 1.5t-15 2.5q-7 2 -2 5q23 31 25.5 56t-7.5 41.5t-29 25.5t-38 9l-1 -1v1q-48 0 -78.5 -32.5t-47 -80.5t-22.5 -104t-6 -104q0 -45 5.5 -97t19.5 -99q7 9 18.5 12.5t23 3.5t21.5 -2l15 -3q2 0 3 -1.5t-1 -2.5q-24 -32 -26.5 -56.5t8 -41.5
t29 -25.5t38.5 -8.5h1z" />
    <glyph glyph-name="oe" unicode="&#x153;" horiz-adv-x="800" 
d="M714 21q20 -2 34 -9q12 -6 21 -18t4 -33q-11 4 -27 8q-14 3 -34 6t-48 3h-194q-27 0 -49 21l-3 3q-2 -1 -4 -3q-23 -21 -50.5 -21t-47.5 11q-38 -11 -76 -11q-55 0 -99 19t-75.5 55t-48.5 88.5t-17 120.5v1q0 68 17 120.5t48.5 88.5t75.5 55t99 19q40 0 76 -11
q20 11 47.5 11t50.5 -21q2 -2 4 -3l3 3q22 21 49 21h194q28 0 48 2.5t34 5.5q16 4 27 9q5 -21 -4 -33t-21 -18q-14 -7 -34 -9q5 -5 8 -10.5t6 -10.5q10 -19 7 -38t-15 -32.5t-31 -19t-39 2.5q7 14 6.5 33t-10 36.5t-30.5 29.5t-54 12h-22q-20 0 -32.5 -5t-19 -13.5t-8.5 -20
t-2 -24.5v-60v-92q1 -4 1 -13q7 7 19.5 18t28 21.5t34 17.5t37.5 7q31 0 45.5 -15t14.5 -34t-13 -36.5t-37 -21.5q-4 0 -2 5q8 18 -2.5 29t-31 11.5t-46 -11t-48.5 -37.5v-90v-60q0 -13 2 -24.5t8.5 -20t19 -13.5t32.5 -5h22q33 0 54 12t30.5 29t10 36.5t-6.5 33.5
q20 8 39 2.5t31 -19t15 -32.5t-7 -38q-3 -5 -6 -10.5t-8 -10.5zM119 262q0 -54 7.5 -98.5t22.5 -77t37.5 -50t53.5 -17.5q51 0 80 48t37 129v130q-8 81 -37 129.5t-80 48.5q-30 0 -52.5 -17.5t-38 -49.5t-23 -76.5t-7.5 -98.5z" />
    <glyph glyph-name="sterling" unicode="&#xa3;" horiz-adv-x="584" 
d="M558 -2q1 -7 0 -16q0 -3 -1 -5v-3l-1 -2q0 -6 -3 -10q-2 -5 -5 -11t-7 -11q-3 -3 -4 -5q-2 -1 -5 -4t-5.5 -5t-5.5 -4q-6 -5 -12 -8t-13 -6q-14 -6 -28 -9q-14 -4 -28.5 -5.5t-29.5 -2.5t-30 -1t-30 2q-30 1 -60 6q-15 2 -29.5 5t-28.5 6t-27.5 6t-27.5 5q-13 3 -25.5 6
t-24.5 5l-22 4t-21 3q-20 3 -34 0q-2 0 -3 -0.5t-3 -0.5q-1 -1 -2 -1h-1q-1 -1 -3 -1q-6 -3 -10 -7q-2 -2 -3 -4l-2 -2q0 -1 -0.5 -1t-0.5 -1q-2 -3 -4 -7q-1 -1 -1 -1.5t-1 -1.5v-2q-1 -1 -1 -2l-1 2v2q-1 1 -1 3q-1 1 -1 4v3v3q-1 3 1 13q1 4 3 8l4 8q5 8 15 16q9 6 21 12
q1 0 5 2q2 1 3 1t3 1q8 2 12 4h2v245h-64q-7 0 -12 5t-5 13v36q0 7 5 12t12 5h64v129q0 75 18.5 126t50.5 82.5t76 45t95 13.5q67 0 112 -22t70.5 -55.5t31.5 -72t-4.5 -72t-37 -55.5t-66.5 -22q-23 0 -38.5 10t-23.5 23.5t-7.5 28.5t8.5 24q1 2 3.5 0.5t4.5 -1.5
q20 0 34 13t20.5 32t5 42t-13.5 42t-35 32t-58 13q-71 0 -98 -52t-27 -153v-151h83q8 0 12.5 -5t4.5 -12v-36q0 -8 -4.5 -13t-12.5 -5h-83v-238q11 -1 21.5 -1.5t21.5 -2.5q14 -2 28.5 -4t29.5 -4q14 -2 28 -4.5t28 -4.5t27 -3.5t26 -3.5q23 -4 48 -4q21 -2 38 3t27 13
q5 5 9 10.5t7 11.5q1 2 1.5 2.5t1.5 2.5q0 3 2 5q0 2 0.5 2.5t0.5 2.5q1 1 1 1.5t1 1.5q0 2 0.5 3t0.5 2t1 2l1 -1v-3q1 0 1 -1t1 -2q0 -2 1 -4q0 -1 0.5 -2t0.5 -2q0 -2 0.5 -3t0.5 -3q0 -1 0.5 -1.5t0.5 -1.5v-2v-2v0z" />
    <glyph glyph-name="tildemod" unicode="&#x2dc;" horiz-adv-x="833" 
 />
    <glyph glyph-name="asciitilde" unicode="~" horiz-adv-x="494" 
d="M3 244l-1 2q0 1 -0.5 2t-0.5 3t-0.5 4t0.5 4q0 6 3 12q1 6 8 13l3 3l3 3q4 4 7 6q8 5 16.5 9t17.5 6q19 6 41 9q11 1 22.5 1.5t22.5 0.5q23 1 47 -1t47 -5l24 -4t23 -4l22 -4l22 -4t21 -4l20 -4t18.5 -3t16.5 -3q8 -1 15.5 -1.5t13.5 0.5q5 0 11 2l9 3l6 6q1 1 1 1.5
t1 1.5t1 1.5t1 1.5q0 2 2 4v1l1 -1q0 -3 1 -5v-9q0 -5 -3 -12q-1 -4 -8 -13l-3 -3l-3 -3q-1 -1 -7 -5q-8 -5 -16.5 -9t-17.5 -7q-10 -3 -20.5 -4.5t-21.5 -3.5q-21 -3 -44 -3q-12 0 -23.5 0.5t-23.5 1.5l-24 2t-24 3q-11 2 -23 3.5t-23 3.5t-22 4.5t-22 4.5t-21 4l-20 4
t-18.5 3t-16.5 2q-8 2 -15.5 2h-13.5q-5 0 -11 -2t-9 -4q-2 -1 -6 -5q-1 -1 -1 -1.5t-1 -1.5t-1 -1.5t-1 -1.5l-2 -4v-2v0z" />
    <glyph glyph-name="bar" unicode="|" horiz-adv-x="188" 
d="M2 664q-2 0 -2 4q4 10 13 18.5t20 11.5t23 -0.5t23 -18.5q1 -1 1 -1.5t1 -1.5q1 1 1 1.5t1 1.5q10 15 22.5 18.5t23.5 0.5t20 -11.5t13 -18.5q2 -4 -2 -4q-14 -1 -22 -9.5t-12 -19t-5 -21t-1 -15.5v-2v-661v-2q0 -5 1 -15.5t5 -21t12 -19.5t22 -10q5 0 2 -3
q-4 -10 -13 -18.5t-20 -12t-23.5 0t-22.5 18.5q-1 1 -1 1.5t-1 1.5q-1 -1 -1 -1.5t-1 -1.5q-11 -15 -23 -18.5t-23 0t-20 12t-13 18.5q0 3 2 3q14 1 22 10t12 19.5t5 21t1 15.5v2v661v2q0 5 -1 15.5t-5 21t-12 19t-22 9.5z" />
    <glyph glyph-name="questiondown" unicode="&#xbf;" horiz-adv-x="523" 
d="M248 -167q-61 0 -107.5 17t-77.5 46t-47 66.5t-16 79.5q0 48 17.5 97.5t45 97t59.5 91.5t61.5 83.5t51.5 71.5t29 56q4 16 20 16q10 0 16.5 -7.5t4.5 -17.5q-5 -31 -22 -63.5t-38.5 -68t-45.5 -75t-43.5 -84t-32.5 -95t-13 -108.5q0 -82 38.5 -124t101.5 -42
q43 0 72.5 21t42.5 51t7 62t-33 53q-5 5 -2 12q14 25 41 33.5t53.5 2.5t46.5 -26t20 -52q0 -48 -22 -84.5t-57 -60.5t-80 -36.5t-90 -12.5h-1zM285 583q-25 0 -42 17t-17 42q0 24 17 41t42 17q24 0 41 -17t17 -41q0 -25 -17 -42t-41 -17z" />
    <glyph glyph-name="exclamdown" unicode="&#xa1;" 
d="M128 583q-24 0 -41 17t-17 41q0 25 17 42t41 17t41.5 -17t17.5 -42q0 -24 -17.5 -41t-41.5 -17zM255 -135q-6 -10 -20 -18.5t-31.5 -12t-36.5 0t-36 18.5l-3 3l-3 -3q-17 -15 -36 -18.5t-36.5 0t-31.5 12t-20 18.5q-1 1 0 2t3 1q22 1 35 10t19 19.5t7.5 21t1.5 15.5
l40 599q0 9 6.5 15t15.5 6t15.5 -6t6.5 -15l38 -599q0 -5 1.5 -15.5t7.5 -21t18.5 -19.5t35.5 -10q2 0 3 -1t0 -2z" />
    <glyph glyph-name="cent" unicode="&#xa2;" horiz-adv-x="460" 
d="M357 198q14 0 29 -5t26 -16t17.5 -28.5t4.5 -42.5q-3 -32 -20.5 -55.5t-43 -39t-55.5 -23.5t-58 -9v-89q0 -13 -13 -13h-15q-5 0 -8.5 4t-3.5 9v90q-49 5 -89 25.5t-68.5 56.5t-44 86t-15.5 114t15.5 114t44 86t68.5 56.5t89 25.5v93q0 5 3.5 8.5t8.5 3.5h15q5 0 9 -3.5
t4 -8.5v-92q28 -2 58 -9.5t55.5 -23t43 -38.5t20.5 -55q2 -25 -4.5 -42.5t-17.5 -29t-26 -16t-29 -4.5q-17 0 -30.5 8t-21.5 15q-2 2 -1 2q18 9 27.5 32.5t6 49t-22.5 46.5t-58 24v-484q39 3 58 24t22.5 46.5t-6 49t-27.5 32.5q-1 0 1 2q8 7 21.5 15t30.5 9zM121 262
q0 -95 24 -159t72 -80v478q-48 -16 -72 -80t-24 -159z" />
    <glyph glyph-name="section" unicode="&#xa7;" horiz-adv-x="466" 
d="M437 290q0 -51 -28.5 -85.5t-73.5 -53.5q42 -26 72 -58t30 -76q0 -39 -18.5 -69t-48.5 -50.5t-68.5 -30.5t-78.5 -10q-70 0 -115.5 17.5t-71 43t-32.5 56t1 56t29 43t52 17.5q22 0 35 -12.5t18 -22.5q0 -1 -1 -2q-23 -7 -33 -26t-10 -42q0 -27 16.5 -46.5t41.5 -30
t54 -12t54 8t41.5 29t16.5 51.5q0 28 -21.5 49.5t-54 41.5t-70 39.5t-70 43t-54 52t-21.5 67.5q0 54 29.5 87t71.5 48q-41 26 -71 59t-30 79q0 39 16 67t42.5 46t59.5 27t66 9q47 0 78.5 -11.5t55 -25t41 -23t37.5 -6.5q5 1 8.5 1.5t6.5 2.5q1 1 1 -2q0 -4 -1.5 -12
t-6.5 -16.5t-13.5 -14t-20.5 -4.5q4 -18 -1 -32.5t-17 -24t-28.5 -13.5t-34.5 0q-2 2 -1 4q10 20 9 43.5t-13.5 44t-37.5 34.5t-62 14q-33 0 -55.5 -14.5t-25.5 -43.5q-3 -30 18.5 -54.5t55.5 -46.5t74.5 -43.5t75.5 -46t58.5 -53.5t23.5 -67zM131 328q-2 -23 9.5 -42
t32.5 -36t48 -33t56 -32q19 11 30.5 28.5t11.5 43.5q0 20 -11.5 37t-30.5 32t-44 29t-51 28q-21 -5 -35 -19t-16 -36z" />
    <glyph glyph-name="Y" unicode="Y" horiz-adv-x="516" 
d="M490 676q3 -5 -3 -7q-10 0 -26.5 -5.5t-27.5 -25.5l-4 -12q-1 0 -1 -1l-117 -292v-65t-0.5 -83t-0.5 -71.5v-31.5v-3q0 -5 1.5 -15t8 -20.5t19 -19.5t35.5 -10q5 0 3 -4q-7 -10 -21 -18.5t-31.5 -11.5t-36.5 0.5t-35 18.5l-3 3q-2 -2 -4 -3q-17 -15 -35.5 -18.5t-36 -0.5
t-31.5 11.5t-20 18.5q-2 4 3 4q22 1 35 10t19 19.5t7.5 20.5t1.5 15v3v247q-7 18 -18.5 46.5t-25 63t-28.5 72.5t-30 75q-2 6 -5 12t-5 11q-4 9 -10 18t-14.5 17t-20.5 13.5t-28 6.5q-5 0 -3 4q6 10 20 18.5t31.5 11.5t36.5 -0.5t36 -18.5l3 -3l3 3q17 15 36 18.5t36.5 0.5
t31.5 -11.5t20 -18.5q2 -4 -3 -4q-20 -1 -30 -7.5t-13.5 -15.5t-2.5 -18.5t3 -16.5q1 -3 3 -7q23 -58 45 -112.5t36 -90.5l96 238l1 3q6 17 -1 32t-24 15q-2 0 -2.5 2.5t1.5 4.5q9 5 24.5 8.5t29.5 -10.5l2 -1q4 4 12 8t18 4t20.5 -5t19.5 -19z" />
    <glyph glyph-name="y" unicode="y" horiz-adv-x="499" 
d="M473 521q2 -6 -3 -6q-11 -1 -31.5 -10t-33.5 -33l-1 -4h-1l-108 -218v-171q0 -5 1.5 -15t7.5 -20.5t18.5 -19.5t35.5 -10q5 0 3 -4q-6 -10 -20 -18.5t-31.5 -11.5t-36.5 0.5t-36 18.5l-3 3l-3 -3q-17 -15 -36 -18.5t-36.5 -0.5t-31.5 11.5t-20 18.5q-2 4 3 4q22 1 35 10
t19 19.5t7.5 20.5t1.5 15v171h1l-100 198v1q-4 7 -10.5 17t-15.5 19.5t-20.5 16.5t-24.5 8q-4 0 -2 4q5 10 16.5 18.5t26 11.5t30 -0.5t29.5 -18.5q2 -2 2 -3l3 3q14 15 29.5 18.5t30 0.5t26 -11.5t16.5 -18.5q2 -4 -2 -4q-13 -3 -14.5 -12t1.5 -20l85 -168l84 169
q3 7 4.5 15t0 15.5t-6 13t-14.5 7.5q-2 0 -2.5 2t1.5 4q9 5 24.5 8.5t29.5 -10.5h2l10 5t18.5 5.5t22 -3t19.5 -20.5z" />
    <glyph glyph-name="ydieresis" unicode="&#xff;" horiz-adv-x="499" 
d="M178 680q23 0 39.5 -16.5t16.5 -39.5t-16.5 -39.5t-39.5 -16.5t-39.5 16.5t-16.5 39.5t16.5 39.5t39.5 16.5zM296 680q23 0 39.5 -16.5t16.5 -39.5t-16.5 -39.5t-39.5 -16.5t-39.5 16.5t-16.5 39.5t16.5 39.5t39.5 16.5zM473 521q2 -6 -3 -6q-11 -1 -31.5 -10t-33.5 -33
l-1 -4h-1l-108 -218v-171q0 -5 1.5 -15t7.5 -20.5t18.5 -19.5t35.5 -10q5 0 3 -4q-6 -10 -20 -18.5t-31.5 -11.5t-36.5 0.5t-36 18.5l-3 3l-3 -3q-17 -15 -36 -18.5t-36.5 -0.5t-31.5 11.5t-20 18.5q-2 4 3 4q22 1 35 10t19 19.5t7.5 20.5t1.5 15v171h1l-100 198v1
q-4 7 -10.5 17t-15.5 19.5t-20.5 16.5t-24.5 8q-4 0 -2 4q5 10 16.5 18.5t26 11.5t30 -0.5t29.5 -18.5q2 -2 2 -3l3 3q14 15 29.5 18.5t30 0.5t26 -11.5t16.5 -18.5q2 -4 -2 -4q-13 -3 -14.5 -12t1.5 -20l85 -168l84 169q3 7 4.5 15t0 15.5t-6 13t-14.5 7.5q-2 0 -2.5 2
t1.5 4q9 5 24.5 8.5t29.5 -10.5h2l10 5t18.5 5.5t22 -3t19.5 -20.5z" />
    <glyph glyph-name="Ydieresis" unicode="&#x178;" horiz-adv-x="516" 
d="M187 862q23 0 39.5 -16.5t16.5 -39.5t-16.5 -39.5t-39.5 -16.5t-39.5 16.5t-16.5 39.5t16.5 39.5t39.5 16.5zM305 862q23 0 39.5 -16.5t16.5 -39.5t-16.5 -39.5t-39.5 -16.5t-39.5 16.5t-16.5 39.5t16.5 39.5t39.5 16.5zM490 676q3 -5 -3 -7q-10 0 -26.5 -5.5
t-27.5 -25.5l-4 -12q-1 0 -1 -1l-117 -292v-65t-0.5 -83t-0.5 -71.5v-31.5v-3q0 -5 1.5 -15t8 -20.5t19 -19.5t35.5 -10q5 0 3 -4q-7 -10 -21 -18.5t-31.5 -11.5t-36.5 0.5t-35 18.5l-3 3q-2 -2 -4 -3q-17 -15 -35.5 -18.5t-36 -0.5t-31.5 11.5t-20 18.5q-2 4 3 4
q22 1 35 10t19 19.5t7.5 20.5t1.5 15v3v247q-7 18 -18.5 46.5t-25 63t-28.5 72.5t-30 75q-2 6 -5 12t-5 11q-4 9 -10 18t-14.5 17t-20.5 13.5t-28 6.5q-5 0 -3 4q6 10 20 18.5t31.5 11.5t36.5 -0.5t36 -18.5l3 -3l3 3q17 15 36 18.5t36.5 0.5t31.5 -11.5t20 -18.5
q2 -4 -3 -4q-20 -1 -30 -7.5t-13.5 -15.5t-2.5 -18.5t3 -16.5q1 -3 3 -7q23 -58 45 -112.5t36 -90.5l96 238l1 3q6 17 -1 32t-24 15q-2 0 -2.5 2.5t1.5 4.5q9 5 24.5 8.5t29.5 -10.5l2 -1q4 4 12 8t18 4t20.5 -5t19.5 -19z" />
    <glyph glyph-name="Yacute" unicode="&#xdd;" horiz-adv-x="516" 
d="M344 882q8 0 4 -8l-98 -122q-2 -2 -4 -2h-22q-6 0 -4 6l58 123q1 3 4 3h62zM490 676q3 -5 -3 -7q-10 0 -26.5 -5.5t-27.5 -25.5l-4 -12q-1 0 -1 -1l-117 -292v-65t-0.5 -83t-0.5 -71.5v-31.5v-3q0 -5 1.5 -15t8 -20.5t19 -19.5t35.5 -10q5 0 3 -4q-7 -10 -21 -18.5
t-31.5 -11.5t-36.5 0.5t-35 18.5l-3 3q-2 -2 -4 -3q-17 -15 -35.5 -18.5t-36 -0.5t-31.5 11.5t-20 18.5q-2 4 3 4q22 1 35 10t19 19.5t7.5 20.5t1.5 15v3v247q-7 18 -18.5 46.5t-25 63t-28.5 72.5t-30 75q-2 6 -5 12t-5 11q-4 9 -10 18t-14.5 17t-20.5 13.5t-28 6.5
q-5 0 -3 4q6 10 20 18.5t31.5 11.5t36.5 -0.5t36 -18.5l3 -3l3 3q17 15 36 18.5t36.5 0.5t31.5 -11.5t20 -18.5q2 -4 -3 -4q-20 -1 -30 -7.5t-13.5 -15.5t-2.5 -18.5t3 -16.5q1 -3 3 -7q23 -58 45 -112.5t36 -90.5l96 238l1 3q6 17 -1 32t-24 15q-2 0 -2.5 2.5t1.5 4.5
q9 5 24.5 8.5t29.5 -10.5l2 -1q4 4 12 8t18 4t20.5 -5t19.5 -19z" />
    <glyph glyph-name="yacute" unicode="&#xfd;" horiz-adv-x="499" 
d="M307 700q2 0 3.5 -2.5t-0.5 -5.5l-97 -122q-2 -2 -4 -2h-22q-2 0 -4 2t0 4l58 123q0 3 4 3h62zM473 521q2 -6 -3 -6q-11 -1 -31.5 -10t-33.5 -33l-1 -4h-1l-108 -218v-171q0 -5 1.5 -15t7.5 -20.5t18.5 -19.5t35.5 -10q5 0 3 -4q-6 -10 -20 -18.5t-31.5 -11.5t-36.5 0.5
t-36 18.5l-3 3l-3 -3q-17 -15 -36 -18.5t-36.5 -0.5t-31.5 11.5t-20 18.5q-2 4 3 4q22 1 35 10t19 19.5t7.5 20.5t1.5 15v171h1l-100 198v1q-4 7 -10.5 17t-15.5 19.5t-20.5 16.5t-24.5 8q-4 0 -2 4q5 10 16.5 18.5t26 11.5t30 -0.5t29.5 -18.5q2 -2 2 -3l3 3
q14 15 29.5 18.5t30 0.5t26 -11.5t16.5 -18.5q2 -4 -2 -4q-13 -3 -14.5 -12t1.5 -20l85 -168l84 169q3 7 4.5 15t0 15.5t-6 13t-14.5 7.5q-2 0 -2.5 2t1.5 4q9 5 24.5 8.5t29.5 -10.5h2l10 5t18.5 5.5t22 -3t19.5 -20.5z" />
    <glyph glyph-name="yen" unicode="&#xa5;" horiz-adv-x="516" 
d="M490 676q3 -5 -3 -7q-10 0 -26.5 -5.5t-27.5 -25.5l-4 -12q-1 0 -1 -1l-117 -292v-48h53q8 0 14 -6t6 -14t-6 -14t-14 -6h-53v-36h53q8 0 14 -6t6 -14t-6 -14t-14 -6h-53q0 -35 -0.5 -60.5t-0.5 -26.5v-3q0 -5 1.5 -15t8 -20.5t19 -19.5t35.5 -10q5 0 3 -4
q-7 -10 -21 -18.5t-31.5 -11.5t-36.5 0.5t-35 18.5l-3 3q-2 -2 -4 -3q-17 -15 -35.5 -18.5t-36 -0.5t-31.5 11.5t-20 18.5q-2 4 3 4q22 1 35 10t19 19.5t7.5 20.5t1.5 15v3v87h-61q-8 0 -14 6t-6 14t6 14t14 6h61v36h-61q-8 0 -14 6t-6 14t6 14t14 6h61v44q-7 18 -18.5 46.5
t-25 63t-28.5 72.5t-30 75q-2 6 -5 12t-5 11q-4 9 -10 18t-14.5 17t-20.5 13.5t-28 6.5q-5 0 -3 4q6 10 20 18.5t31.5 11.5t36.5 -0.5t36 -18.5l3 -3l3 3q17 15 36 18.5t36.5 0.5t31.5 -11.5t20 -18.5q2 -4 -3 -4q-20 -1 -30 -7.5t-13.5 -15.5t-2.5 -18.5t3 -16.5q1 -3 3 -7
q23 -58 45 -112.5t36 -90.5l96 238l1 3q6 17 -1 32t-24 15q-2 0 -2.5 2.5t1.5 4.5q9 5 24.5 8.5t29.5 -10.5l2 -1q4 4 12 8t18 4t20.5 -5t19.5 -19z" />
    <glyph glyph-name="four" unicode="4" horiz-adv-x="529" 
d="M478 14q5 0 3 -4q-6 -10 -20 -18.5t-31.5 -11.5t-36.5 0.5t-35 18.5q-2 1 -4 3l-3 -3q-17 -15 -35.5 -18.5t-36 -0.5t-31.5 11.5t-20 18.5q-2 2 -1 3t3 1q23 1 35.5 10t19 19.5t8 20.5t1.5 15v3v137h-271q-10 0 -16.5 7t-6.5 17v17q0 11 8 17l3 2q13 12 41.5 41t61.5 66
t66.5 78.5t57.5 79t33 67t-5 43.5q-14 9 -36 10q-2 0 -3 1t1 3q6 10 20 18.5t31.5 11.5t36 -0.5t35.5 -18.5l3 -3q2 2 4 3q16 15 35 18.5t36.5 0.5t31.5 -11.5t20 -18.5q2 -4 -3 -4q-23 -1 -35.5 -9.5t-18.5 -19t-7.5 -21t-1.5 -15.5v-2v-318h76q6 0 10 -4.5t2 -10.5
l-10 -35q-2 -10 -12 -10h-66v-137v-3q0 -5 1.5 -15t7.5 -20.5t18.5 -19.5t35.5 -10zM294 279v266q-22 -38 -53 -79.5t-73 -87.5q-27 -29 -52.5 -54t-45.5 -45h224z" />
    <glyph glyph-name="germandbls" unicode="&#xdf;" horiz-adv-x="541" 
d="M391 385q25 -11 48 -27.5t40 -40t27 -54.5t10 -70q0 -64 -23 -105.5t-59.5 -66t-81 -34t-87.5 -9.5h-59q-8 0 -14 6t-6 14v1q0 8 6 14t14 6h53q29 0 50.5 14.5t35.5 38.5t20.5 55.5t6.5 65.5q0 37 -6 68t-20.5 53.5t-37 35.5t-55.5 13h-47q-8 0 -14 6t-6 14t6 14t14 6h58
q38 1 61 36t23 90q0 27 -6 50.5t-17 41.5t-26.5 28.5t-34.5 10.5h-47q-26 0 -40 -11.5t-20 -26.5t-7 -29.5t-1 -20.5v-563q0 -13 -8.5 -22t-21.5 -9h-89q-13 0 -21.5 9t-8.5 22v601q0 37 26 63.5t64 26.5l184 -1q31 0 65.5 -7.5t63 -27t47 -52t18.5 -83.5q0 -57 -22 -91
t-55 -53z" />
    <glyph glyph-name="Oslash" unicode="&#xd8;" horiz-adv-x="586" 
d="M561 339q0 -75 -18.5 -140.5t-54 -114.5t-87.5 -77.5t-120 -28.5h-1q-47 0 -85.5 13.5t-69.5 37.5l-52 -88q-5 -7 -12.5 -9t-15.5 2q-7 5 -9.5 12.5t2.5 15.5l56 95q-46 50 -70 123t-24 159q0 75 18.5 140.5t54 114.5t87.5 77.5t120 28.5h1q48 0 88 -15t72 -41l47 80
q5 7 12.5 9t15.5 -2q7 -5 9 -12.5t-2 -15.5l-52 -87q45 -50 67.5 -121.5t22.5 -155.5zM126 339q0 -44 4.5 -94t18.5 -96l218 370q-11 0 -20.5 1.5t-14.5 2.5q-7 2 -2 5q23 31 25.5 56t-7.5 41.5t-29 25.5t-38 9l-1 -1v1q-48 0 -78.5 -32.5t-47 -80.5t-22.5 -104t-6 -104z
M281 18q32 0 56 15t41 40t28 58t17.5 68.5t9 71.5t2.5 68q0 42 -4.5 89t-16.5 92l-213 -361q20 -2 28 -5q2 0 3 -1.5t-1 -2.5q-24 -32 -26.5 -56.5t8 -41.5t29 -25.5t38.5 -8.5h1z" />
    <glyph glyph-name="oslash" unicode="&#xf8;" horiz-adv-x="504" 
d="M479 261q0 -68 -17 -120.5t-48 -88.5t-75.5 -55t-98.5 -19q-77 2 -131 36l-36 -58q-5 -7 -13 -9t-15 3t-9 12.5t3 15.5l39 61q-38 36 -58 91.5t-20 130.5v1q0 68 17 120.5t48.5 88.5t75.5 55t99 19q78 0 134 -38l35 55q5 7 12.5 9t15.5 -3q7 -5 9 -12.5t-3 -14.5l-38 -60
q35 -36 54.5 -91t19.5 -128v-1zM119 262q0 -79 15 -134l196 309q-31 67 -90 67q-30 0 -52.5 -17.5t-38 -49.5t-23 -76.5t-7.5 -98.5zM240 19q30 0 52.5 17.5t37.5 50t22.5 77t7.5 98.5q0 36 -3.5 68t-9.5 59l-195 -308q14 -29 36.5 -45.5t51.5 -16.5z" />
    <glyph glyph-name="ccedilla" unicode="&#xe7;" horiz-adv-x="460" 
d="M357 198q14 0 29 -5t26 -16t17.5 -28.5t4.5 -42.5q-3 -34 -22 -58t-46.5 -39t-59.5 -22.5t-60 -7.5v-26q10 -1 23.5 -4t27 -8t26 -12.5t20.5 -17.5q18 -23 12 -49q-8 -48 -66 -68q-29 -10 -64 -10q-31 0 -59 8t-46 23q-7 7 -10 11q-6 7 -6 15.5t4 15.5t11.5 10.5
t16.5 2.5q-1 -5 0.5 -11t9.5 -13q10 -8 25.5 -13.5t33.5 -7.5t36.5 -0.5t34.5 7.5q12 5 24.5 13.5t15.5 24.5q2 9 -4 16q-6 8 -18 13.5t-25.5 8.5t-25.5 5t-18 2l-19 1v65q-93 13 -149.5 85t-56.5 196q0 68 17.5 121t50 89t77.5 54.5t100 18.5q28 0 60 -7t59.5 -22t47 -39
t22.5 -58q2 -25 -4.5 -42.5t-17.5 -29t-26 -16t-29 -4.5q-17 0 -30.5 8t-21.5 15q-2 2 -1 2q18 9 27.5 34t5 51.5t-26 47t-65.5 20.5q-31 0 -54 -17.5t-38.5 -50t-23.5 -77t-8 -98.5t8 -98.5t23.5 -77t38.5 -50t54 -17.5q44 0 65.5 20.5t26 47t-5 51.5t-27.5 34q-1 0 1 2
q8 7 21.5 15t30.5 9z" />
    <glyph glyph-name="Ccedilla" unicode="&#xc7;" horiz-adv-x="564" 
d="M480 43q24 -3 36 -11t17 -18t5 -19.5t-1 -15.5q-2 -5 -4 -1q-8 9 -27.5 10.5t-36.5 1.5q-8 0 -23 -1.5t-33.5 -3.5t-40.5 -3.5t-43 -2.5v-26q10 -1 23 -4t26.5 -8t26 -12.5t21.5 -17.5q17 -21 12 -49q-9 -48 -66 -68q-29 -10 -65 -10q-30 0 -58.5 8t-45.5 23q-3 3 -6 5.5
t-5 5.5q-11 15 -1.5 31t28.5 13q-1 -5 0.5 -11t9.5 -13q9 -8 24.5 -13.5t33.5 -7.5t37 -0.5t35 7.5q12 5 24.5 13.5t14.5 24.5q2 7 -3 16q-6 8 -18 13.5t-25.5 8.5t-25.5 5t-18 2l-19 1v63q-70 2 -124 31t-90.5 78t-55.5 113.5t-19 137.5q0 75 19.5 140.5t57.5 114.5
t94 77.5t129 28.5h6q24 0 49 -2t47.5 -4t40 -4t26.5 -2q17 0 36.5 1.5t27.5 11.5q2 2 4 -1q1 -6 1 -16t-5 -19.5t-17 -17.5t-36 -11q23 -28 25.5 -60t-11.5 -57.5t-43 -39t-69 -4.5q-5 1 -7.5 3.5t0.5 4.5q25 19 32.5 49.5t-1.5 58.5t-35.5 48.5t-70.5 20.5q-52 0 -84 -32
t-50 -80.5t-24 -104.5t-6 -104t6 -104t24 -104t50 -80.5t84 -32.5q44 0 70.5 20.5t35.5 49t1.5 58.5t-32.5 49q-3 2 -0.5 4.5t7.5 4.5q40 9 69 -5t43 -39.5t11.5 -57t-25.5 -59.5z" />
    <glyph glyph-name="onesuperior" unicode="&#xb9;" horiz-adv-x="140" 
d="M114 416q1 0 1 -1q-3 -5 -9.5 -8.5t-14 -5t-16.5 0t-16 8.5l-1 1q-1 -1 -2 -1q-8 -7 -16.5 -8.5t-16 0t-14 5t-9.5 8.5l1 1q21 2 25 13.5t4 16.5v1v233v2q0 5 -4 16t-25 13q-1 0 -1 2q6 9 23.5 13.5t32.5 -8.5q1 0 1 -0.5t1 -0.5l1 1q15 13 32.5 8.5t23.5 -13.5
q0 -2 -1 -2q-21 -2 -25 -13t-4 -16v-2v-233v-1q0 -5 4 -16.5t25 -13.5z" />
    <glyph glyph-name="twosuperior" unicode="&#xb2;" horiz-adv-x="252" 
d="M227 633q0 -33 -20 -58t-48 -45t-58 -38t-50 -37h119q5 0 16.5 4.5t13.5 24.5q0 1 0.5 1.5t0.5 -0.5q9 -6 13.5 -23.5t-8.5 -32.5l-1 -1q1 -1 1 -2q13 -15 8.5 -32.5t-13.5 -23.5l-1 1q-2 21 -13.5 25t-16.5 4h-156q-6 0 -10 5t-3 10q4 21 19 40t34.5 36t41 34t39.5 34
t30 35.5t12 40.5q0 38 -17.5 56.5t-46.5 18.5q-20 0 -33 -9.5t-19 -23t-3 -27.5t15 -24q3 -2 1 -6q-6 -11 -18.5 -15t-24.5 -1.5t-21 11.5t-9 24q0 22 10 38.5t26 27.5t36 16.5t41 5.5q56 0 84.5 -28t28.5 -66z" />
    <glyph glyph-name="threesuperior" unicode="&#xb3;" horiz-adv-x="257" 
d="M216 705q0 -4 -4 -10l-75 -87q35 -8 56.5 -26.5t31 -42t6.5 -48t-17 -45t-39 -33.5t-61 -13q-21 0 -41 5.5t-36 16.5t-26 27.5t-10 38.5q0 15 9 24t21 12t24.5 -1t18.5 -16q3 -3 -1 -5q-12 -10 -15 -24.5t3 -28t19 -23t33 -9.5q31 0 49 22t20 51.5t-15 57.5t-56 40
q-11 2 -11 14q0 7 5 12l60 58h-113q-3 0 -7.5 -0.5t-9.5 -3.5t-8.5 -8.5t-4.5 -15.5q0 -3 -2 -1q-5 3 -8.5 9t-5 13.5t0 16t8.5 16.5l2 2q-1 0 -1 0.5t-1 0.5q-14 16 -14.5 29.5t8.5 19.5q2 0 2 -1q1 -9 7 -13.5t12.5 -6.5t12.5 -2h9h145q9 0 15 -6.5t4 -15.5z" />
    <glyph glyph-name="degree" unicode="&#xb0;" horiz-adv-x="266" 
d="M241 564q0 -42 -10.5 -73t-27 -51t-38.5 -30t-45 -10t-45 10t-38.5 30t-26.5 51t-10 73v1q0 42 10 72.5t26.5 50.5t38.5 29.5t45 9.5t45 -9.5t38.5 -29.5t27 -50.5t10.5 -72.5v-1zM120 418q18 0 30.5 14t20 35.5t11 47t3.5 49.5t-3.5 49.5t-11 46.5t-20 35t-30.5 14
t-30 -14t-20 -35t-11.5 -46.5t-3.5 -49.5t3.5 -49.5t11.5 -47t20 -35.5t30 -14z" />
    <glyph glyph-name="ordmasculine" unicode="&#xba;" horiz-adv-x="266" 
d="M241 564q0 -42 -10.5 -73t-27 -51t-38.5 -30t-45 -10t-45 10t-38.5 30t-26.5 51t-10 73v1q0 42 10 72.5t26.5 50.5t38.5 29.5t45 9.5t45 -9.5t38.5 -29.5t27 -50.5t10.5 -72.5v-1zM120 418q18 0 30.5 14t20 35.5t11 47t3.5 49.5t-3.5 49.5t-11 46.5t-20 35t-30.5 14
t-30 -14t-20 -35t-11.5 -46.5t-3.5 -49.5t3.5 -49.5t11.5 -47t20 -35.5t30 -14z" />
    <glyph glyph-name="ordfeminine" unicode="&#xaa;" horiz-adv-x="272" 
d="M245 416q1 0 1.5 -0.5t-0.5 -0.5q-5 -9 -22.5 -14t-33.5 9l-1 1q-1 0 -1 -0.5t-1 -0.5q-8 -7 -16.5 -8.5t-16 0t-14 5t-9.5 8.5l2 1q15 2 18.5 9t3.5 14q-12 15 -26 28q-12 11 -28 22t-33 16l-12 -40l-9 -31q-2 -6 -1 -15.5t11 -11.5q1 0 1.5 -1t-1.5 -1q-4 -3 -11 -4.5
t-13 4.5l-1 1q-1 -1 -5 -3t-9 -2.5t-10 1.5t-8 9q0 3 2 3q6 -2 13.5 1t12.5 18l9 32l13 43q-15 1 -28 -6q-2 0 -2 2q0 8 9 19.5t29 12.5l21 75l3 8q2 7 -1 14t-18 8q-3 0 -1 2q6 9 23.5 13.5t32.5 -8.5q0 -1 1 -1t2 1q15 13 32.5 8.5t23.5 -13.5q0 -2 -1 -2
q-14 -1 -15.5 -8.5t0.5 -14.5l49 -172q1 -3 3 -7.5t5.5 -9.5t10 -8.5t16.5 -4.5zM76 534q15 -6 35.5 -24.5t34.5 -38.5l-44 153z" />
    <glyph glyph-name="copyright" unicode="&#xa9;" horiz-adv-x="519" 
d="M322 318q21 -2 24 -13t2 -16q-2 -2 -2 0q-4 4 -12.5 4.5t-16.5 0.5t-30 -2.5t-44 -2.5h-3q-33 0 -58 13t-42.5 35t-26.5 52t-9 64t9 63.5t26.5 51.5t42.5 35t58 13h3q22 0 44 -2.5t30 -2.5t16.5 0.5t12.5 4.5q0 2 2 0q1 -5 -2 -16t-24 -13q10 -13 11.5 -27.5t-5.5 -26
t-20 -17.5t-31 -2q-2 0 -3.5 1t0.5 3q11 9 14.5 22.5t-0.5 26t-16 22t-32 9.5q-23 0 -37.5 -14.5t-22.5 -36.5t-11 -47.5t-3 -46.5q0 -22 3 -47.5t11 -47.5t22.5 -36.5t37.5 -14.5q20 0 32 9.5t16 22t0.5 26t-14.5 22.5q-2 2 -0.5 3t3.5 1q18 4 31 -2t20 -17.5t5.5 -26
t-11.5 -27.5zM247 206q-50 0 -95 18.5t-80 53.5t-53.5 80t-18.5 95q0 49 18.5 94t53.5 80t80 53.5t95 18.5t94.5 -18.5t79.5 -53.5t54 -80t19 -94q0 -50 -19 -95t-54 -80t-79.5 -53.5t-94.5 -18.5zM247 679q-47 0 -88.5 -17.5t-72 -48.5t-48.5 -72t-18 -88t18 -88.5
t48.5 -72.5t72 -48.5t88.5 -17.5t88.5 17.5t72 48.5t48.5 72.5t18 88.5t-18 88t-48.5 72t-72 48.5t-88.5 17.5z" />
    <glyph glyph-name="registered" unicode="&#xae;" horiz-adv-x="519" 
d="M391 310q1 0 1 -2q-3 -5 -9.5 -8.5t-14 -5t-16.5 0t-16 8.5l-1 1q-1 0 -1 -0.5t-1 -0.5q-8 -7 -16.5 -8.5t-16 0t-14 5t-9.5 8.5q0 2 1 2q10 0 16 4t9 8.5t3.5 9t0.5 7.5q-2 28 -12.5 46t-43.5 11q-8 -2 -15 -4l-14 -4v-49q0 -5 4 -16.5t25 -12.5q1 0 1 -2
q-3 -5 -9.5 -8.5t-14 -5t-16.5 0t-16 8.5q-1 0 -1 0.5t-1 0.5l-1 -1q-8 -7 -16.5 -8.5t-16 0t-14 5t-9.5 8.5q-2 2 1 2q21 1 25 12.5t4 16.5v140q-18 3 -31 16.5t-18.5 31.5t-2.5 38.5t16 37.5t37 28.5t61 11.5q24 0 48.5 -7t44 -21.5t32 -36t12.5 -50.5q0 -42 -25 -72
t-62 -48q24 1 39.5 -5t25 -17t13.5 -25.5t6 -29.5q2 -7 8 -13.5t20 -7.5zM222 405q44 15 67 49t22 80q0 18 -5.5 34t-16.5 29t-27.5 20.5t-38.5 7.5q-29 0 -50 -16t-21 -45q0 -20 12.5 -31.5t27 -12.5t27 9.5t12.5 34.5q0 3 2 1q9 -5 13.5 -16t3.5 -23t-8 -23.5t-20 -17.5
v-42v-13v-15v-7v-3zM247 206q-50 0 -95 18.5t-80 53.5t-53.5 80t-18.5 95q0 49 18.5 94t53.5 80t80 53.5t95 18.5t94.5 -18.5t79.5 -53.5t54 -80t19 -94q0 -50 -19 -95t-54 -80t-79.5 -53.5t-94.5 -18.5zM247 679q-47 0 -88.5 -17.5t-72 -48.5t-48.5 -72t-18 -88t18 -88.5
t48.5 -72.5t72 -48.5t88.5 -17.5t88.5 17.5t72 48.5t48.5 72.5t18 88.5t-18 88t-48.5 72t-72 48.5t-88.5 17.5z" />
    <glyph glyph-name="Scaron" unicode="&#x160;" horiz-adv-x="542" 
d="M295 753q-2 -3 -5 -3h-1h-60h-1q-4 0 -5 3l-58 123q-2 6 5 6h21q2 0 4 -2l64 -80l64 80q0 2 3 2h22q7 0 5 -6zM131 544q4 -30 35 -53t75.5 -45.5t94.5 -47t91.5 -57.5t67.5 -76.5t21 -103.5q-3 -47 -24.5 -81t-54.5 -57t-74.5 -34t-86.5 -11q-89 0 -147 24.5t-89 59.5
t-37 74.5t8 70t46 45t78 -0.5q5 -2 3 -6q-24 -40 -26.5 -80.5t16 -73.5t56.5 -53.5t95 -20.5q29 0 54 8t43.5 24t28.5 39t9 53q-1 37 -30 64t-72 50t-93 46t-92.5 52t-70.5 66t-27 90q1 43 18.5 79t48.5 61.5t74.5 39t96.5 12.5q5 -1 9 -1h8h1q3 0 18 -1t37 -1.5t47.5 -0.5
t48.5 1t40.5 4t23.5 8q0 1 0.5 0.5t0.5 -1.5q0 -5 -2 -16t-8.5 -22.5t-19 -21t-33.5 -10.5q24 -26 32 -56t1.5 -55.5t-25.5 -42t-47 -16.5q-12 0 -27 5.5t-22 15.5q-5 5 2 11q23 14 32 40t0.5 52.5t-37 46.5t-80.5 21q-27 0 -53 -7t-46 -21.5t-30.5 -36.5t-6.5 -52z" />
    <glyph glyph-name="Zcaron" unicode="&#x17d;" horiz-adv-x="590" 
d="M295 753q-2 -3 -5 -3h-1h-60h-1q-4 0 -5 3l-58 123q-2 6 5 6h21q2 0 4 -2l64 -80l64 80q0 2 3 2h22q7 0 5 -6zM3 717q11 -5 27 -9q14 -3 34.5 -5.5t48.5 -2.5h264q14 0 29 -4.5t28 -16.5q2 -1 4 -3l3 3q16 15 35 18.5t36.5 0.5t31.5 -11.5t20 -18.5q2 -4 -2 -4
q-18 -1 -33 -9t-26.5 -19.5t-19.5 -23.5t-12 -21q-2 -3 -3 -5.5t-2 -4.5q-6 -12 -25 -52t-44.5 -93t-54 -112.5t-53 -110.5t-42 -87.5t-20.5 -42.5q-2 -6 -6.5 -16.5t-4 -21.5t9 -19t31.5 -8h70q51 0 74 18.5t27.5 41.5t-6.5 45t-29 29q-4 2 -0.5 4t7.5 3q34 7 62.5 -2
t43.5 -29t13.5 -48t-26.5 -59q20 -2 34 -9q12 -6 21 -18t4 -33q-11 4 -27 8q-14 3 -34 6t-48 3h-253q-14 -1 -29.5 4t-29.5 17l-3 3l-3 -3q-17 -15 -36 -18.5t-36.5 -0.5t-31.5 11.5t-20 18.5q-2 4 3 4q18 1 33 9t26.5 19.5t19 23.5t12.5 21q2 3 2.5 5.5t2.5 5.5q6 12 25 52
t45 93t54 112.5t53 110.5t42 87t20 42l5.5 16.5t2 21.5t-10.5 19t-32 8h-47q-50 0 -78 -18.5t-37.5 -41.5t-3.5 -45t24 -29q5 -2 1.5 -4t-8.5 -3q-35 -7 -63 2t-43 29t-13 48t27 60q-20 1 -34 8q-12 6 -21.5 18t-4.5 33z" />
    <glyph glyph-name="scaron" unicode="&#x161;" horiz-adv-x="466" 
d="M256 571q0 -3 -4 -3h-1h-61q-4 0 -5 3l-58 123q-2 6 5 6h21q2 0 4 -2l64 -80l63 80q2 2 4 2h22q2 0 4 -2t0 -4zM131 450q-3 -30 18.5 -54.5t55.5 -46.5t74.5 -43.5t75.5 -46t58.5 -53.5t23.5 -67q0 -39 -18.5 -69.5t-48.5 -50.5t-68.5 -30.5t-78.5 -10.5
q-70 0 -115.5 17.5t-71 43.5t-32.5 56t1 56t29 43.5t52 17.5q22 0 35 -12.5t18 -22.5q0 -2 -1 -2q-23 -7 -33 -26t-10 -42q0 -27 16.5 -46.5t41.5 -30t54 -12t54 7.5t41.5 29t16.5 51q0 28 -21.5 50t-54 42t-70 39.5t-70 43t-54 52t-21.5 67.5t16 67t42.5 46t59.5 27t66 9
q47 0 78.5 -11.5t55 -25t41 -23t37.5 -6.5q5 1 8.5 1.5t6.5 2.5q1 1 1 -2q0 -4 -1.5 -12t-6.5 -16.5t-13.5 -14t-20.5 -4.5q4 -18 -1 -32.5t-17 -24t-28.5 -13.5t-34.5 0q-2 2 -1 4q10 20 9 43.5t-13.5 44t-37.5 34.5t-62 14q-33 0 -55.5 -14.5t-25.5 -43.5z" />
    <glyph glyph-name="zcaron" unicode="&#x17e;" horiz-adv-x="535" 
d="M282 571q0 -3 -4 -3h-1h-61q-4 0 -5 3l-58 123q-2 6 5 6h21q2 0 4 -2l64 -80l63 80q2 2 4 2h22q2 0 4 -2t0 -4zM449 21q20 -2 34 -9q12 -6 21 -18t4 -33q-11 4 -27 8q-14 3 -34 6t-48 3h-206q-16 -1 -32 3.5t-30 17.5l-3 3l-3 -3q-17 -15 -36 -18.5t-36.5 -0.5
t-31.5 11.5t-20 18.5q-2 4 3 4q22 1 38.5 9.5t28 19t17.5 21t9 15.5l187 378q6 15 0.5 31.5t-35.5 16.5h-36q-33 0 -53.5 -12t-30.5 -29.5t-10.5 -36.5t6.5 -33q-20 -8 -39 -2.5t-31 19.5t-15.5 33t7.5 38q3 5 6.5 10.5t7.5 10.5q-20 2 -34 9q-12 6 -21 17.5t-4 32.5
q11 -5 27 -9q14 -3 34.5 -5.5t48.5 -2.5h205q15 2 31.5 -2.5t30.5 -17.5l3 -3q2 2 4 3q16 15 35 18.5t36.5 0.5t31.5 -11.5t20 -18.5q2 -4 -2 -4q-23 -2 -39.5 -10.5t-28 -19t-17.5 -20.5l-9 -15l-187 -379q-3 -7 -5 -14.5t-0.5 -14.5t7.5 -12.5t21 -6.5h48q33 0 54 12
t30.5 29.5t10 36.5t-6.5 34q20 8 39 2.5t31 -19.5t15 -33t-7 -38q-3 -5 -6 -10.5t-8 -10.5z" />
    <glyph glyph-name="guillemotleft" unicode="&#xab;" horiz-adv-x="613" 
d="M359 545q9 0 12 -8t-3 -14q-46 -45 -111.5 -108.5t-138.5 -134.5q-8 -8 -8 -18t8 -18q73 -71 138.5 -134.5t111.5 -108.5q6 -6 3 -14.5t-12 -8.5h-74q-3 0 -9 4q-21 21 -58 57t-77 75t-77 74.5t-57 55.5q-8 8 -6 20t22 31l253 247q4 3 9 3h74zM575 545q9 0 12 -8t-3 -14
q-46 -45 -111.5 -108.5t-138.5 -134.5q-8 -8 -8 -18t8 -18q73 -71 138.5 -134.5t111.5 -108.5q6 -6 3 -14.5t-12 -8.5h-74q-3 0 -9 4q-21 21 -58 57t-77 75t-77 74.5t-57 55.5q-8 8 -6 20t22 31l253 247q4 3 9 3h74z" />
    <glyph glyph-name="guillemotright" unicode="&#xbb;" horiz-adv-x="613" 
d="M303 545q4 0 9 -3l253 -247q20 -19 22 -31t-6 -20q-20 -20 -57 -55.5t-77 -74.5t-77 -75t-58 -57q-6 -4 -9 -4h-74q-9 0 -12 8.5t3 14.5q46 45 111.5 108.5t138.5 134.5q8 8 8 18t-8 18q-73 71 -138.5 134.5t-111.5 108.5q-6 6 -3 14t12 8h74zM87 545q4 0 9 -3l253 -247
q20 -19 22 -31t-6 -20q-20 -20 -57 -55.5t-77 -74.5t-77 -75t-58 -57q-6 -4 -9 -4h-74q-9 0 -12 8.5t3 14.5q46 45 111.5 108.5t138.5 134.5q8 8 8 18t-8 18q-73 71 -138.5 134.5t-111.5 108.5q-6 6 -3 14t12 8h74z" />
    <glyph glyph-name="asterisk" unicode="*" horiz-adv-x="206" 
d="M176 675q2 0 3.5 -2.5t-0.5 -4.5l-67 -68l67 -69q2 -2 1 -4t-3 -2h-34q-2 0 -2 1l-35 36v-57q0 -5 -6 -5h-20q-5 0 -5 5v57l-35 -36q-1 -1 -3 -1h-33q-3 0 -4 2t1 4l67 69l-66 68q-2 2 -1 4.5t3 2.5h33q2 0 3 -1l35 -36v56q0 6 5 6h20q6 0 6 -6v-56l35 36q0 1 2 1h33v0z
" />
    <glyph glyph-name="percent" unicode="%" horiz-adv-x="509" 
d="M404 700q9 0 14.5 -7t2.5 -16l-248 -832q-5 -12 -17 -12h-75q-9 0 -14.5 7t-2.5 16l249 831q3 13 17 13h74zM372 170q23 0 43.5 -10t35.5 -28t24 -41.5t9 -50.5t-9 -51t-24 -41.5t-35.5 -28t-43.5 -10.5t-43.5 10.5t-35.5 28t-24 41.5t-9 51t9 50.5t24 41.5t35.5 28
t43.5 10zM372 -72q16 0 27 12.5t17 30t8.5 36.5t2.5 33q0 13 -2.5 32t-8.5 36.5t-17 30t-27 12.5t-26.5 -12.5t-17 -30t-9 -36.5t-2.5 -32q0 -14 2.5 -33t9 -36.5t17 -30t26.5 -12.5zM224 515q0 -27 -9 -51t-24 -41.5t-35.5 -28t-43.5 -10.5t-43.5 10.5t-35.5 28t-24 41.5
t-9 51t9 50.5t24 41.5t35.5 28t43.5 10t43.5 -10t35.5 -28t24 -41.5t9 -50.5zM57 515q0 -13 2.5 -32t9 -36.5t17 -30t26.5 -12.5t27 12.5t17 30t8.5 36.5t2.5 32t-2.5 32t-8.5 36.5t-17 30t-27 12.5t-26.5 -12.5t-17 -30t-9 -36.5t-2.5 -32z" />
    <glyph glyph-name="e_alt" horiz-adv-x="500" 
d="M804 -106q24 0 38 -22.5t10 -49.5t-29 -49.5t-78 -22.5q-55 0 -107.5 17t-101.5 42t-95.5 55t-90 55t-84.5 42t-80 17q-31 0 -55 21l-3 3l-3 -3q-17 -15 -36 -18.5t-36.5 -0.5t-31.5 11.5t-20 18.5q-2 4 3 4q22 1 35 10t19 19.5t7.5 20.5t1.5 15v366q0 5 -1.5 15.5
t-7.5 21t-19 18.5t-35 10q-5 0 -3 4q6 10 20 18.5t31.5 11.5t36.5 -0.5t36 -18.5l3 -3l3 3q24 21 50 21h193q28 0 48.5 2.5t34.5 5.5q16 4 27 9q4 -21 -4.5 -33t-20.5 -18q-14 -7 -34 -9q4 -5 7.5 -10.5t6.5 -10.5q10 -19 7 -38t-15 -32.5t-31 -19t-39 2.5q7 14 6.5 33
t-10.5 36.5t-30.5 29.5t-53.5 12h-23q-20 0 -32 -5t-18.5 -13.5t-8.5 -20t-2 -24.5v-168v-4q7 8 19.5 18.5t28 20.5t33 16.5t36.5 6.5q31 0 45.5 -15t14.5 -34t-13 -36.5t-37 -21.5q-4 0 -2 5q8 18 -2 28.5t-29.5 11.5t-45 -9.5t-48.5 -35.5v-147q0 -5 0.5 -15t5 -21t14 -21
t26.5 -15q58 -9 120 -37t124 -58.5t124 -54.5t120 -24q30 0 46 6t23.5 14.5t8 18t-0.5 17.5q-1 5 4 5z" />
    <glyph glyph-name="e_alt2" horiz-adv-x="515" 
d="M803 749q53 0 78 -22.5t28.5 -49.5t-10.5 -49.5t-38 -22.5q-4 0 -4 4q1 8 1 18t-7.5 18.5t-23.5 14.5t-46 6q-42 0 -86.5 -12t-89.5 -30t-90.5 -39t-90 -39t-87.5 -30t-84 -11h-3q-20 0 -32 -5t-18.5 -13.5t-8.5 -20t-2 -24.5v-60v-105q7 7 19.5 18t28 21t34 17.5
t37.5 7.5q31 0 45.5 -15t15 -34t-12.5 -36.5t-37 -21.5q-5 0 -3 5q8 18 -2 29t-30.5 11.5t-46 -11t-48.5 -37.5v-90v-60q0 -13 2 -24.5t8.5 -20t18.5 -13.5t32 -5h23q33 0 53.5 12t30.5 29t10.5 36.5t-6.5 33.5q20 8 39 2.5t31 -19t15 -32.5t-7 -38q-3 -5 -6.5 -10.5
t-7.5 -10.5q20 -2 34 -9q12 -6 20.5 -18t4.5 -33q-11 4 -27 8q-14 3 -34.5 6t-48.5 3h-193q-26 0 -50 21l-3 3l-3 -3q-17 -15 -36 -18.5t-36.5 -0.5t-31.5 11.5t-20 18.5q-2 4 3 4q22 1 35 9.5t19 19t7.5 21t1.5 15.5v365q0 5 -1.5 15t-7.5 20.5t-19 19t-35 10.5q-5 0 -3 4
q6 10 20 18.5t31.5 11.5t36.5 -0.5t36 -18.5l3 -3l3 3q24 21 50 21l69 1q39 2 79.5 17.5t84 38t89 48.5t94 48t100 36.5t106.5 14.5z" />
    <glyph glyph-name="f_alt" horiz-adv-x="406" 
d="M803 749q53 0 78 -22.5t28.5 -49.5t-10.5 -49.5t-38 -22.5q-4 0 -4 4q1 8 1 18t-7.5 18.5t-23.5 14.5t-46 6q-42 0 -86.5 -12t-89.5 -30t-90.5 -39t-90 -39t-87.5 -30t-84 -11h-3q-20 0 -32 -5t-18.5 -13.5t-8.5 -20t-2 -24.5v-60v-105q7 7 19.5 18t28 21t34 17.5
t37.5 7.5q31 0 45.5 -15t15 -34t-12.5 -36.5t-37 -21.5q-5 0 -3 5q8 18 -2 29t-30.5 11.5t-46 -11t-48.5 -37.5v-152q0 -5 1.5 -15.5t7.5 -21t18.5 -19t35.5 -9.5q5 -2 3 -4q-8 -13 -27 -22.5t-42 -9.5q-31 0 -55 20l-3 3l-3 -3q-13 -11 -26.5 -15.5t-27.5 -4.5
q-23 0 -42.5 9.5t-27.5 22.5q-2 2 3 4q22 1 35 9.5t19 19t7.5 21t1.5 15.5v365q0 5 -1.5 15t-7.5 20.5t-19 19t-35 10.5q-5 0 -3 4q6 10 20 18.5t31.5 11.5t36.5 -0.5t36 -18.5l3 -3l3 3q24 21 50 21l69 1q39 2 79.5 17.5t84 38t89 48.5t94 48t100 36.5t106.5 14.5z" />
    <glyph glyph-name="l_alt" horiz-adv-x="406" 
d="M804 -106q24 0 38 -22.5t10 -49.5t-29 -49.5t-78 -22.5q-55 0 -107.5 17t-101.5 42t-95.5 55t-90 55t-84.5 42t-80 17q-31 0 -55 21l-3 3l-3 -3q-17 -15 -36 -18.5t-36.5 -0.5t-31.5 11.5t-20 18.5q-2 4 3 4q22 1 35 10t19 19.5t7.5 20.5t1.5 15v366q0 5 -1.5 15
t-7.5 20.5t-19 19t-35 10.5q-5 0 -3 4q6 10 20 18.5t31.5 11.5t36.5 -0.5t36 -18.5l3 -3l3 3q17 15 36 18.5t36.5 0.5t31.5 -11.5t20 -18.5q2 -4 -3 -4q-23 -2 -35.5 -10.5t-18.5 -19t-7.5 -20.5t-1.5 -15v-366q0 -5 0.5 -15t5 -21t14 -21t26.5 -15q58 -9 120 -37t124 -58.5
t124 -54.5t120 -24q30 0 46 6t23.5 14.5t8 18t-0.5 17.5q-1 5 4 5z" />
    <glyph glyph-name="t_alt" horiz-adv-x="312" 
d="M550 659v-1q0 -1 -0.5 -1t-0.5 -1t-0.5 -1.5t-0.5 -1.5q-2 -2 -2 -4l-3 -6q-2 -2 -2 -3q-2 -2 -2 -3q-6 -8 -12 -14q-8 -8 -19 -15q-1 -1 -5 -3q-2 -2 -6 -4q-3 -2 -6.5 -3t-6.5 -3q-11 -5 -30 -10q-17 -5 -34 -6q-18 -2 -37 -3t-39 1q-20 1 -41 3.5t-42 5.5q-16 3 -31 6
t-31 6v-519q0 -5 1.5 -15t7.5 -20.5t18.5 -19.5t35.5 -10q5 0 3 -4q-6 -10 -20 -18.5t-31.5 -11.5t-36.5 0.5t-36 18.5l-3 3l-3 -3q-17 -15 -36 -18.5t-36.5 -0.5t-31.5 11.5t-20 18.5q-2 4 3 4q22 1 35 10t19 19.5t7.5 20.5t1.5 15v550q-18 5 -36.5 10.5t-36.5 10.5
q-21 6 -41 11.5t-40 10.5q-5 2 -10 2.5t-10 2.5q-5 1 -9.5 2t-9.5 2q-6 2 -9 2q-6 2 -10 2q-5 2 -9 2.5t-9 1.5q-35 6 -66 6t-53 -9q-20 -9 -34 -24l-3 -3l-3 -3q0 -1 -2 -3l-2 -4q-2 -2 -2.5 -3t-1.5 -2q-2 -4 -3 -5q-2 -4 -2 -5q-1 -1 -1 -1.5t-1 -1.5t-1 -2v3v3q0 3 1 5
v6q1 2 1 3.5t1 3.5q0 3 1 4q0 2 0.5 2.5t0.5 2.5q1 1 1 2t1 2q0 1 2 5q3 10 11 21q5 5 9.5 10t11.5 10q13 12 28 17q2 2 4 2q1 1 2 1t2 1q2 1 4 1.5t4 1.5q5 2 9 2.5t9 2.5q18 5 37.5 6.5t40.5 1.5q5 0 10 -0.5t10 -0.5q7 0 10 -1h11q11 -2 21 -2.5t21 -2.5q22 -4 43.5 -8
t43.5 -9t43.5 -10.5t43.5 -11.5q21 -6 42.5 -12t42.5 -12t41 -12t40 -11q20 -6 39 -10.5t37 -9.5q9 -2 17.5 -3t16.5 -3q9 -2 17 -3l16 -2t15 -1.5t15 -0.5q7 0 13.5 0.5t12.5 1.5q6 0 12 2q4 0 6 1q2 0 3 0.5t2 0.5q5 2 10 3.5t9 3.5l4 2q1 0 2 1q1 0 2 1t2 1t2 1q2 2 3 2
q2 2 3 2.5t2 1.5q2 1 5 4q1 1 2 1.5t2 1.5l2 2z" />
    <glyph glyph-name="d" unicode="d" horiz-adv-x="530" 
d="M505 262q-1 -138 -66 -211t-176 -73h-77q-31 0 -55 21l-3 3l-3 -3q-17 -15 -36 -18.5t-36.5 -0.5t-31.5 11.5t-20 18.5q-2 4 3 4q22 1 35 10t19 19.5t7.5 20.5t1.5 15v366q0 5 -1.5 15t-7.5 20.5t-19 19t-35 10.5q-5 0 -3 4q6 10 20 18.5t31.5 11.5t36.5 -0.5t36 -18.5
l3 -3l3 3q14 13 30.5 17.5t32.5 2.5h69q111 0 176 -73t66 -210zM263 19q62 5 92 69.5t30 173.5q0 108 -30.5 173t-91.5 70h-7q-26 0 -39.5 -7.5t-19.5 -17.5t-7 -20t-1 -15v-366q0 -5 1.5 -15t7.5 -20t18.5 -17.5t35.5 -7.5h11z" />
    <glyph glyph-name="a" unicode="a" horiz-adv-x="571" 
d="M542 14q5 0 3 -4q-6 -10 -20 -18.5t-31.5 -11.5t-36.5 0.5t-36 18.5l-3 3l-3 -3q-17 -15 -36 -18.5t-36.5 -0.5t-31.5 11.5t-20 18.5q-2 4 3 4q17 1 27 6t15 12.5t6 15.5t0 15q-27 34 -58 63q-26 25 -61 49t-73 35l-26 -89l-19 -68q-2 -6 -3 -15.5t1 -18.5t7.5 -16
t16.5 -9q2 -1 2.5 -3t-1.5 -3q-9 -6 -25 -9.5t-30 11.5h-2q-2 -2 -10.5 -6t-19 -5.5t-21.5 3t-19 20.5q-1 2 0.5 5t3.5 2q14 -4 30.5 2t26.5 39l21 71l27 96q-31 2 -60 -13q-5 -3 -5 4q0 9 5 21t15 22.5t25.5 18t37.5 8.5l48 166l5 17q1 7 1.5 15t-3.5 15.5t-13 12.5t-26 6
q-4 0 -2 4q6 10 20 18.5t31.5 11.5t36 -0.5t35.5 -18.5q2 -2 4 -3l3 3q16 15 35 18.5t36.5 0.5t31.5 -11.5t20 -18.5q2 -4 -2 -4q-14 -1 -21.5 -6t-10.5 -12.5t-3 -16t2 -15.5l109 -381q2 -6 6 -16.5t12 -20.5t22 -18.5t37 -9.5zM168 273q17 -7 38 -21.5t42 -33.5t40.5 -41
t34.5 -43l-97 339z" />
    <glyph glyph-name="b" unicode="b" horiz-adv-x="512" 
d="M385 298q42 -17 72 -53t30 -98q0 -50 -19 -83t-48.5 -52t-65.5 -26.5t-71 -7.5h-97q-31 0 -55 21l-3 3l-3 -3q-17 -15 -36 -18.5t-36.5 -0.5t-31.5 11.5t-20 18.5q-2 4 3 4q22 1 35 10t19 19.5t7.5 20.5t1.5 15v366q0 5 -1.5 15t-7.5 20.5t-19 19t-35 10.5q-5 0 -3 4
q6 10 20 18.5t31.5 11.5t36.5 -0.5t36 -18.5l3 -3l3 3q14 13 30.5 17.5t32.5 2.5h88h8q26 0 54 -6t51 -21t38 -41t15 -66q0 -45 -18 -72t-45 -41zM189 319h93q31 0 50 24.5t19 67.5t-19 67t-50 25h-26q-26 0 -39.5 -7t-19.5 -17t-7 -19.5t-1 -14.5v-126zM278 19
q24 0 41.5 10t28.5 27.5t16.5 40.5t5.5 50q0 58 -21.5 93.5t-74.5 35.5h-1l-84 1v-198q0 -5 1.5 -15t7.5 -20t18.5 -17.5t35.5 -7.5h26z" />
    <glyph glyph-name="c" unicode="c" horiz-adv-x="460" 
d="M357 198q14 0 29 -5t26 -16t17.5 -28.5t4.5 -42.5q-3 -34 -22.5 -58t-47 -39.5t-59.5 -22.5t-60 -7q-55 0 -100 18.5t-77.5 54.5t-50 89t-17.5 121t17.5 121t50 89t77.5 54.5t100 18.5q28 0 60 -7t59.5 -22t47 -39t22.5 -58q2 -25 -4.5 -42.5t-17.5 -29t-26 -16t-29 -4.5
q-17 0 -30.5 8t-21.5 15q-2 2 -1 2q18 9 27.5 34t5 51.5t-26 47t-65.5 20.5q-31 0 -54 -17.5t-38.5 -50t-23.5 -77t-8 -98.5t8 -98.5t23.5 -77t38.5 -50t54 -17.5q44 0 65.5 20.5t26 47t-5 51.5t-27.5 34q-1 0 1 2q8 7 21.5 15t30.5 9z" />
    </font>
</defs>
</svg>
