<?xml version="1.0" standalone="no"?>
<!DOCTYPE svg PUBLIC "-//W3C//DTD SVG 1.1//EN" "http://www.w3.org/Graphics/SVG/1.1/DTD/svg11.dtd" >
<svg xmlns="http://www.w3.org/2000/svg" xmlns:xlink="http://www.w3.org/1999/xlink" version="1.1">
<metadata>
Created by FontForge 20201107 at Fri Aug  5 06:23:44 2022
 By Unknown
Storytype Studio 2021. All Rights Reserved
</metadata>
<defs>
<font id="Meaglone" horiz-adv-x="195" >
  <font-face 
    font-family="Meaglone"
    font-weight="400"
    font-stretch="normal"
    units-per-em="1000"
    panose-1="2 0 6 0 0 0 0 0 0 0"
    ascent="800"
    descent="-200"
    x-height="359"
    cap-height="656"
    bbox="-333 -730 1171 863"
    underline-thickness="50"
    underline-position="-100"
    unicode-range="U+0020-FB02"
  />
<missing-glyph horiz-adv-x="452" 
d="M402 0h-402v700h402v-700zM378 24v652h-354v-652h354zM184 222h-15c-12 31 -17 55 -17 72c0 25 13 60 39 106c27 47 40 82 40 106c0 37 -22 60 -60 60c-24 0 -40 -9 -61 -27v22c29 26 55 35 83 35c58 0 99 -31 99 -85c0 -33 -14 -62 -53 -112c-21 -26 -37 -47 -49 -64
c-11 -17 -17 -33 -17 -48c0 -13 4 -34 11 -65zM179 104c-4 0 -7 2 -10 5l-30 35c-2 2 -3 5 -3 8c0 4 1 7 5 11l28 28c3 4 7 5 10 5s6 -2 10 -5l28 -29c3 -4 4 -7 4 -10c0 -4 -2 -7 -5 -11l-27 -30c-5 -5 -8 -7 -10 -7z" />
    <glyph glyph-name="i_b" unicode="ib" horiz-adv-x="700" 
d="M137 -181c4 -1 7 -4 7 -9v-1c0 -5 -4 -9 -9 -9h-126c-5 0 -9 4 -9 9v1c0 5 3 8 7 9c27 7 28 53 28 71v354c0 15 -11 27 -26 27c-5 0 -9 4 -9 9c0 3 1 5 3 7l91 69c2 2 4 2 6 2c5 0 9 -3 9 -9v-459c0 -18 2 -64 28 -71zM434 358c138 0 216 -125 216 -279
s-82 -279 -237 -279c-57 0 -104 17 -141 46v-37c0 -5 -4 -9 -9 -9h-91c-5 0 -9 4 -9 9v1c0 5 3 8 7 9c27 7 28 53 28 71v640c-22 -40 -83 -117 -126 -117c-34 0 -56 25 -56 56s25 56 56 56c119 4 172 88 191 129c1 2 3 2 4 2c3 0 5 -1 5 -4v-401c27 65 83 107 162 107z
M413 -182c90 0 163 117 163 261s-69 251 -169 251c-60 0 -135 -63 -135 -155v-226c14 -97 77 -131 141 -131z" />
    <glyph glyph-name="i_l" unicode="il" horiz-adv-x="357" 
d="M137 -181c4 -1 7 -4 7 -9v-1c0 -5 -4 -9 -9 -9h-126c-5 0 -9 4 -9 9v1c0 5 3 8 7 9c28 7 28 53 28 71v354c0 15 -11 27 -26 27c-5 0 -9 4 -9 9c0 3 1 5 4 7l90 69c2 2 4 2 6 2c5 0 9 -3 9 -9v-459c0 -18 2 -64 28 -71zM300 -181c4 -1 7 -4 7 -9v-1c0 -5 -4 -9 -9 -9h-126
c-5 0 -9 4 -9 9v1c0 5 3 8 7 9c27 7 28 53 28 71v640c-22 -40 -83 -117 -126 -117c-34 0 -56 25 -56 56s25 56 56 56c119 4 172 88 191 129c1 2 3 2 4 2c3 0 5 -1 5 -4v-762c0 -18 2 -64 28 -71z" />
    <glyph glyph-name="i_h" unicode="ih" horiz-adv-x="714" 
d="M657 -181c4 -1 7 -4 7 -9v-1c0 -5 -4 -9 -9 -9h-126c-5 0 -9 4 -9 9v1c0 5 3 8 7 9c27 7 28 53 28 71v312c0 68 -39 128 -112 128c-85 0 -170 -100 -171 -192v-248c0 -18 2 -64 28 -71c5 -1 8 -4 8 -9v-1c0 -5 -4 -9 -10 -9h-125c-6 0 -10 4 -10 9v1c0 5 3 8 8 9
c27 7 28 53 28 71v640c-22 -40 -84 -117 -126 -117c-35 0 -57 25 -57 56s25 56 57 56c118 4 172 88 191 129c1 2 2 2 4 2s4 -1 4 -4v-439c27 66 91 145 207 145c86 0 150 -56 150 -148v-320c0 -18 1 -64 28 -71zM137 -181c5 -1 8 -4 8 -9v-1c0 -5 -4 -9 -9 -9h-126
c-5 0 -10 4 -10 9v1c0 5 4 8 8 9c27 7 28 53 28 71v354c0 15 -12 27 -27 27c-4 0 -9 4 -9 9c0 3 2 5 4 7l91 69c2 2 4 2 6 2c5 0 9 -3 9 -9l-1 -459c0 -18 2 -64 28 -71z" />
    <glyph glyph-name="i_k" unicode="ik" horiz-adv-x="698" 
d="M641 -180c4 -2 7 -5 7 -9v-2c0 -5 -4 -9 -10 -9h-135c-6 0 -10 4 -10 10c0 4 2 8 6 9c7 2 10 7 10 15c0 25 -34 73 -39 81l-120 191l-77 -85v-131c0 -18 2 -64 28 -71c4 -1 7 -4 7 -9v-1c0 -5 -4 -9 -9 -9h-126c-5 0 -9 4 -9 9v1c0 5 3 8 7 9c27 7 28 53 28 71v640
c-22 -40 -84 -117 -126 -117c-35 0 -57 25 -57 56s25 56 57 56c118 4 172 88 191 129c1 2 2 2 4 2s4 -1 4 -4l1 -603l270 297c8 9 18 13 28 13c21 0 40 -16 40 -39v-2c0 -16 -12 -31 -27 -36c-69 -23 -115 -46 -164 -100l-18 -20l153 -244c9 -15 55 -88 86 -98zM137 -181
c5 -1 8 -4 8 -9v-1c0 -5 -4 -9 -10 -9h-125c-6 0 -10 4 -10 9v1c0 5 3 8 8 9c27 7 28 53 28 71v354c0 15 -12 27 -27 27c-5 0 -9 4 -9 9c0 3 2 5 4 7l91 69c2 2 4 2 6 2c4 0 8 -3 8 -9v-459c0 -18 2 -64 28 -71z" />
    <glyph glyph-name="t_t" unicode="tt" horiz-adv-x="377" 
d="M323 -165c1 -1 2 -2 2 -3c0 -3 -3 -7 -3 -7c-6 -9 -22 -25 -51 -25c-45 0 -73 24 -73 71v469h-89v-488c0 -23 13 -30 25 -30c7 0 14 3 19 9c0 1 3 5 6 5c0 0 1 0 2 -1s2 -2 2 -3c0 -3 -3 -7 -3 -7c-7 -9 -22 -25 -52 -25c-44 0 -72 24 -72 71v469h-26c-6 0 -10 4 -10 9
c0 6 4 10 10 10h26v114c0 6 3 12 7 16l52 39c2 1 3 2 5 2c5 0 9 -4 9 -9v-162h89v114c0 6 3 12 8 16l51 39c2 1 4 2 5 2c5 0 10 -4 10 -9v-162h40c5 0 9 -4 9 -10c0 -5 -4 -9 -9 -9h-40v-488c0 -23 12 -30 25 -30c6 0 13 3 18 9c0 1 3 5 6 5c0 0 1 0 2 -1z" />
    <glyph glyph-name="f_f" unicode="ff" horiz-adv-x="486" 
d="M425 610c5 -6 8 -13 8 -21c0 -5 -2 -11 -5 -16v-1c-6 -10 -16 -14 -25 -14c-14 0 -28 9 -30 25c-6 31 -19 58 -47 58c-41 0 -54 -48 -54 -94v-188h98c5 0 9 -4 9 -10c0 -5 -4 -9 -9 -9h-98v-450c0 -17 1 -64 28 -71c4 -1 7 -4 7 -9v-1c0 -5 -4 -9 -9 -9h-126
c-5 0 -10 4 -10 9v1c0 5 4 8 8 9c27 7 28 54 28 71v450h-89v-450c0 -17 2 -64 28 -71c4 -1 7 -4 7 -9v-1c0 -5 -4 -9 -9 -9h-126c-5 0 -9 4 -9 9v1c0 5 3 8 7 9c27 7 28 54 28 71v450h-26c-5 0 -9 4 -9 9c0 6 4 10 9 10h26v129c0 36 4 169 128 169c33 0 59 -11 81 -29
c19 17 45 29 82 29c43 0 74 -18 99 -47zM109 359h89v129c0 16 1 54 14 89c-1 2 -2 64 -48 64c-42 0 -55 -48 -55 -94v-188z" />
    <glyph glyph-name="e_a" unicode="ea" horiz-adv-x="999" 
d="M942 -180c4 -1 7 -5 7 -9v-1c0 -5 -4 -10 -9 -10h-91c-5 0 -9 4 -9 10v63c-35 -36 -91 -73 -174 -73c-100 0 -164 65 -164 151c0 170 257 195 325 224c8 3 13 11 13 19c0 40 -29 129 -143 129c-231 0 -180 -523 -471 -523c-142 0 -226 125 -226 279c0 155 81 280 236 280
c152 0 206 -143 214 -215v-2c0 -8 -8 -16 -17 -16h-359v-25c0 -144 63 -252 189 -252h1c241 0 188 510 466 510c82 0 184 -60 184 -163v-305c0 -18 2 -64 28 -71zM233 340c-89 0 -146 -77 -157 -196h301c-7 98 -65 196 -144 196zM840 -107v270c-65 -32 -264 -54 -264 -215
c0 -84 54 -124 124 -124c53 0 106 27 140 69z" />
    <glyph glyph-name="g_l" unicode="gl" horiz-adv-x="686" 
d="M47 -58c-4 -11 -6 -21 -6 -30c0 -166 595 -88 595 -345c0 -163 -234 -231 -445 -231c-164 0 -411 52 -411 189c0 77 98 160 301 160c106 0 192 -21 258 -50c38 -17 56 -40 56 -63c0 -8 -2 -16 -7 -23c-10 -17 -27 -25 -44 -25c-19 0 -37 9 -47 28
c-32 57 -97 109 -214 109c-93 0 -203 -41 -203 -134c0 -125 178 -173 334 -173c163 0 383 61 383 187c0 196 -589 115 -589 334c0 5 0 11 1 17c4 27 20 57 42 94c-34 38 -51 90 -51 147c0 118 75 214 210 214c36 0 67 -6 94 -18c1 2 183 239 242 311c3 3 6 5 10 5
c6 0 12 -5 12 -12v-742c0 -18 2 -64 28 -71c4 -1 7 -5 7 -9v-1c0 -5 -4 -10 -9 -10h-126c-5 0 -9 5 -9 10v1c0 4 3 8 7 9c27 7 28 53 28 71v665s-176 -230 -178 -233c68 -36 104 -107 104 -190c0 -118 -74 -214 -210 -214c-63 0 -113 21 -148 55c-9 -17 -11 -21 -15 -32z
M346 136c0 67 -16 126 -52 160c-64 -78 -149 -187 -202 -270c21 -50 59 -84 118 -84c95 0 136 87 136 194zM210 329c-95 0 -136 -87 -136 -193c0 -34 4 -65 12 -93c62 93 145 196 198 262c-19 15 -44 24 -74 24z" />
    <glyph glyph-name="g_b" unicode="gb" horiz-adv-x="995" 
d="M730 359c137 0 215 -125 215 -280c0 -154 -81 -279 -236 -279c-58 0 -105 17 -141 46v-37c0 -5 -5 -9 -10 -9h-90c-6 0 -10 4 -10 9v2c0 4 4 7 8 9c27 7 28 53 28 71v665s-176 -230 -179 -233c68 -36 105 -107 105 -190c0 -118 -75 -214 -210 -214c-63 0 -113 21 -149 55
c-9 -17 -11 -21 -14 -32c-4 -11 -6 -21 -6 -30c0 -166 595 -88 595 -345c0 -163 -235 -231 -445 -231c-164 0 -411 51 -411 189c0 77 97 160 301 160c106 0 191 -21 257 -50c38 -17 57 -40 57 -63c0 -8 -3 -16 -7 -23c-11 -17 -28 -25 -45 -25c-18 0 -37 9 -47 28
c-32 57 -96 109 -213 109c-93 0 -204 -41 -204 -134c0 -125 179 -173 334 -173c164 0 384 61 384 187c0 196 -589 115 -589 334c0 5 0 11 1 17c3 27 20 57 41 94c-33 38 -50 90 -50 147c0 118 74 214 210 214c35 0 67 -6 93 -18c2 2 183 239 242 311c3 3 6 5 10 5
c6 0 12 -5 12 -12l1 -381c27 65 83 107 162 107zM73 136c0 -34 5 -65 13 -93c61 93 145 196 198 262c-20 15 -44 24 -74 24c-95 0 -137 -87 -137 -193zM346 136c0 67 -16 126 -52 160c-64 -78 -149 -187 -202 -270c21 -50 59 -84 118 -84c94 0 136 87 136 194zM709 -181
c90 0 163 116 163 260c0 145 -70 252 -169 252c-61 0 -135 -63 -135 -156v-225c14 -98 77 -131 141 -131z" />
    <glyph glyph-name="g_h" unicode="gh" horiz-adv-x="1009" 
d="M951 -180c5 -2 8 -5 8 -9v-2c0 -5 -4 -9 -10 -9h-125c-6 0 -10 4 -10 9v2c0 4 3 7 8 9c27 7 28 53 28 71v312c0 68 -39 128 -112 128c-86 0 -170 -100 -171 -192v-248c0 -18 2 -64 28 -71c4 -2 7 -5 7 -9v-2c0 -5 -4 -9 -9 -9h-126c-5 0 -9 4 -9 9v2c0 4 3 7 7 9
c28 7 28 53 28 71l1 665s-176 -230 -179 -233c68 -36 104 -107 104 -190c0 -118 -74 -214 -209 -214c-64 0 -114 21 -149 55c-9 -17 -11 -21 -15 -32s-6 -21 -6 -30c0 -166 596 -88 596 -345c0 -163 -235 -231 -446 -231c-163 0 -411 51 -411 189c0 77 98 160 302 160
c106 0 191 -21 257 -50c38 -17 56 -40 56 -63c0 -8 -2 -16 -7 -23c-10 -17 -27 -25 -44 -25c-18 0 -37 9 -47 28c-32 57 -96 109 -214 109c-92 0 -203 -41 -203 -134c0 -125 178 -173 334 -173c163 0 383 61 383 187c0 196 -588 115 -588 333c0 6 0 12 1 18
c3 27 20 57 41 94c-33 38 -50 90 -50 147c0 118 74 214 210 214c35 0 66 -6 93 -18c2 2 183 239 242 311c3 3 6 5 10 5c6 0 12 -5 12 -12v-420c27 66 91 146 207 146c86 0 149 -57 149 -149v-319c0 -18 2 -64 28 -71zM73 136c0 -34 4 -65 13 -93c61 93 144 196 198 262
c-20 15 -45 24 -74 24c-95 0 -137 -87 -137 -193zM346 136c0 67 -17 126 -52 160c-64 -78 -149 -187 -202 -270c20 -50 59 -84 118 -84c94 0 136 87 136 194z" />
    <glyph glyph-name="g_k" unicode="gk" horiz-adv-x="993" 
d="M936 -180c4 -1 7 -5 7 -9v-2c0 -5 -4 -9 -9 -9h-136c-6 0 -10 5 -10 10c0 4 3 8 6 10c7 2 10 7 10 14c0 25 -34 73 -39 81l-120 191l-77 -85v-130c0 -18 2 -64 28 -71c4 -2 7 -5 7 -9v-2c0 -5 -4 -9 -9 -9h-126c-5 0 -9 4 -9 9v2c0 4 3 7 7 9c27 7 28 53 28 71v665
s-176 -230 -178 -233c68 -36 104 -107 104 -190c0 -118 -75 -214 -210 -214c-63 0 -113 21 -149 55c-8 -17 -10 -21 -14 -32s-6 -21 -6 -30c0 -166 595 -88 595 -345c0 -163 -234 -231 -445 -231c-164 0 -411 51 -411 189c0 77 97 160 301 160c106 0 192 -21 257 -50
c38 -17 57 -40 57 -63c0 -8 -3 -16 -7 -23c-11 -17 -28 -25 -45 -25c-18 0 -37 9 -47 28c-32 57 -96 109 -213 109c-93 0 -203 -41 -203 -134c0 -125 178 -173 333 -173c164 0 384 61 384 187c0 196 -589 115 -589 334c0 5 0 11 1 17c4 27 20 57 41 94
c-33 38 -50 90 -50 147c0 118 74 214 210 214c36 0 67 -6 94 -18c1 2 182 239 242 311c3 3 6 5 10 5c6 0 12 -5 12 -12v-584l270 297c8 9 19 13 29 13c20 0 39 -15 40 -38c0 -18 -11 -33 -28 -39c-69 -22 -115 -46 -164 -100l-18 -20l153 -244c9 -14 55 -88 86 -98zM74 136
c0 -34 4 -65 12 -93c61 93 145 196 198 262c-20 15 -44 24 -74 24c-95 0 -136 -87 -136 -193zM346 136c0 67 -16 126 -52 160c-64 -78 -149 -187 -202 -270c21 -50 59 -84 118 -84c95 0 136 87 136 194z" />
    <glyph glyph-name="g_i" unicode="gi" horiz-adv-x="687" 
d="M47 -58c-4 -11 -6 -21 -6 -30c0 -166 596 -88 596 -345c0 -163 -235 -230 -446 -230c-163 0 -411 51 -411 188c0 77 98 160 301 160c107 0 192 -21 258 -50c38 -17 56 -40 56 -63c0 -8 -2 -16 -7 -23c-10 -17 -27 -25 -44 -25c-18 0 -37 9 -47 28
c-32 57 -97 109 -214 109c-92 0 -203 -41 -203 -134c0 -125 178 -173 334 -173c163 0 383 61 383 187c0 196 -588 115 -588 333c0 6 0 12 1 18c3 27 19 57 41 94c-33 39 -51 90 -51 147c0 119 75 214 210 214c36 0 67 -6 94 -18h1c41 48 136 156 184 198c9 8 20 12 31 12
c13 0 26 -6 35 -17c6 -8 10 -18 10 -27c0 -7 -2 -14 -6 -20c0 -1 -1 -2 -2 -2c-9 -15 -23 -22 -39 -22c-10 0 -20 3 -29 9c-5 3 -12 7 -19 7c-4 0 -7 -1 -11 -3c-36 -22 -101 -92 -143 -141c68 -36 104 -107 104 -190c0 -118 -74 -214 -210 -214c-63 0 -113 21 -148 55
c-9 -17 -11 -21 -15 -32zM347 136c0 67 -17 126 -53 160c-63 -78 -148 -187 -201 -269c20 -51 59 -85 117 -85c95 0 137 87 137 194zM210 329c-94 0 -136 -87 -136 -193c0 -34 4 -65 13 -92c61 92 144 195 198 261c-20 15 -45 24 -75 24zM462 288l91 69c2 1 4 2 6 2
c4 0 9 -4 9 -9v-459c0 -18 2 -64 28 -71c4 -1 7 -5 7 -9v-1c0 -5 -4 -10 -9 -10h-126c-5 0 -9 5 -9 10v1c0 4 3 8 7 9c27 7 28 53 28 71v354c0 15 -12 26 -26 26c-5 0 -9 4 -9 9c0 3 1 6 3 8z" />
    <glyph glyph-name="r_a" unicode="ra" horiz-adv-x="709" 
d="M244 331c-81 0 -134 -119 -135 -211v-229c0 -18 2 -64 28 -71c5 -1 8 -5 8 -9v-1c0 -5 -4 -10 -9 -10h-126c-5 0 -10 5 -10 10v1c0 4 4 8 8 9c27 7 28 53 28 71v354c0 15 -12 27 -27 27c-5 0 -9 3 -9 8c0 3 2 6 4 8l91 69c2 1 4 2 5 2c5 0 9 -4 9 -9v-142
c18 60 73 155 166 155c38 0 74 -12 101 -34c8 -6 12 -16 12 -26c0 -5 -1 -10 -3 -15c-6 -14 -19 -21 -32 -21c-12 0 -23 6 -30 17c-17 28 -42 47 -79 47zM651 -180c5 -1 8 -5 8 -9v-1c0 -5 -4 -10 -9 -10h-91c-5 0 -9 4 -9 10v63c-35 -36 -91 -73 -174 -73
c-100 0 -164 65 -164 151c0 171 256 195 325 224c8 3 13 11 13 19v2c0 43 -1 144 -115 144c-19 0 -33 -3 -41 -4h-2c-2 0 -4 1 -5 2c-2 2 -3 4 -3 6c0 4 3 8 7 9c13 3 32 6 46 6c120 0 186 -60 186 -163v-305c0 -18 2 -64 28 -71zM550 -107v270c-66 -32 -265 -54 -265 -215
c0 -84 54 -124 124 -124c54 0 107 27 141 69z" />
    <glyph glyph-name=".notdef" horiz-adv-x="452" 
d="M402 0h-402v700h402v-700zM378 24v652h-354v-652h354zM184 222h-15c-12 31 -17 55 -17 72c0 25 13 60 39 106c27 47 40 82 40 106c0 37 -22 60 -60 60c-24 0 -40 -9 -61 -27v22c29 26 55 35 83 35c58 0 99 -31 99 -85c0 -33 -14 -62 -53 -112c-21 -26 -37 -47 -49 -64
c-11 -17 -17 -33 -17 -48c0 -13 4 -34 11 -65zM179 104c-4 0 -7 2 -10 5l-30 35c-2 2 -3 5 -3 8c0 4 1 7 5 11l28 28c3 4 7 5 10 5s6 -2 10 -5l28 -29c3 -4 4 -7 4 -10c0 -4 -2 -7 -5 -11l-27 -30c-5 -5 -8 -7 -10 -7z" />
    <glyph glyph-name="space" unicode=" " horiz-adv-x="250" 
 />
    <glyph glyph-name="space" unicode="&#xa0;" horiz-adv-x="250" 
 />
    <glyph glyph-name="exclam" unicode="!" horiz-adv-x="157" 
d="M53 -104c27 0 48 -21 48 -48c0 -26 -21 -48 -48 -48c-26 0 -48 22 -48 48c0 27 22 48 48 48zM53 657c28 0 51 -22 51 -50v-5l-43 -613c0 -5 -4 -7 -8 -7s-7 2 -8 7l-42 611v5c0 27 22 52 50 52z" />
    <glyph glyph-name="quotedbl" unicode="&#x22;" horiz-adv-x="268" 
d="M51 656h6c22 -2 43 -20 43 -53v-9c-4 -34 -28 -66 -49 -87c-1 -1 -2 -1 -2 -1c-2 0 -4 2 -4 4v2c6 11 10 24 10 40v9h-2c-15 0 -49 8 -49 45v6c3 26 23 44 47 44zM165 656h6c22 -2 43 -20 43 -53v-9c-4 -34 -28 -66 -49 -87c-1 -1 -2 -1 -2 -1c-2 0 -4 2 -4 4v2
c6 11 10 24 10 40v9h-2c-15 0 -49 8 -49 45v6c3 26 23 44 47 44z" />
    <glyph glyph-name="numbersign" unicode="#" horiz-adv-x="962" 
d="M909 318h-326l-34 -180h325l-3 -18h-326l-61 -320h-19l62 320h-183l-61 -320h-19l61 320l-325 -1l3 19h326l34 180l-325 -1l3 19h326l61 320h18l-61 -320h183l61 320h19l-61 -320h325zM530 138l35 180h-183l-35 -180h183z" />
    <glyph glyph-name="dollar" unicode="$" horiz-adv-x="574" 
d="M524 6c0 -145 -148 -205 -251 -209v-104c0 -5 -4 -9 -8 -9h-2c-5 0 -8 4 -8 9v104c-102 2 -184 46 -242 119c-6 7 -9 16 -9 25c0 10 4 21 13 29c9 7 18 11 27 11c16 0 30 -10 37 -28c27 -71 74 -130 174 -138v393c-115 75 -237 145 -237 264c0 132 131 186 237 188v105
c0 4 3 8 8 8h2c4 0 8 -4 8 -8v-105c101 -4 169 -53 221 -123c5 -7 8 -16 8 -25c0 -4 0 -8 -2 -12c-6 -14 -17 -21 -30 -21c-17 0 -35 12 -41 35c-21 72 -65 126 -156 132v-369c119 -78 251 -155 251 -271zM88 491c0 -81 77 -142 167 -202v358c-76 -2 -167 -55 -167 -156z
M273 -186h9c90 1 173 58 173 151c0 101 -86 169 -182 231v-382z" />
    <glyph glyph-name="percent" unicode="%" horiz-adv-x="635" 
d="M485 656h21l-407 -856h-21zM251 443c0 -119 -56 -214 -126 -214c-69 0 -125 95 -125 214c0 118 56 213 125 213c70 0 126 -95 126 -213zM38 443c0 -114 39 -205 87 -205c49 0 88 91 88 205c0 113 -39 204 -88 204c-48 0 -87 -91 -87 -204zM460 228c69 0 125 -96 125 -214
s-56 -214 -125 -214c-70 0 -126 96 -126 214s56 214 126 214zM460 -190c48 0 87 91 87 204s-39 205 -87 205c-49 0 -88 -92 -88 -205s39 -204 88 -204z" />
    <glyph glyph-name="ampersand" unicode="&#x26;" horiz-adv-x="653" 
d="M591 321v-1c5 -6 7 -13 7 -20c0 -11 -6 -21 -16 -27c-51 -29 -94 -38 -135 -53c40 -57 56 -122 56 -175c0 -136 -113 -246 -252 -246s-251 110 -251 246c0 114 79 209 186 237c-80 26 -138 97 -138 182c0 106 91 192 203 192c94 0 145 -51 168 -84c4 -5 6 -11 6 -18
c0 -9 -4 -18 -12 -24c-6 -4 -12 -6 -18 -6c-13 0 -24 7 -29 20c-22 56 -65 94 -115 94c-71 0 -129 -78 -129 -174c0 -93 54 -169 122 -174h17c5 0 9 -4 9 -9s-4 -9 -9 -9h-10c-98 0 -178 -102 -178 -227c0 -126 80 -227 178 -227c99 0 178 101 178 227c0 41 -9 104 -35 150
c-32 -19 -64 -49 -99 -101c-8 -11 -21 -17 -33 -17c-8 0 -16 2 -23 7c-11 8 -16 20 -16 32c0 13 5 25 17 33c114 72 245 83 297 170c6 10 16 16 27 16c10 0 20 -5 27 -14z" />
    <glyph glyph-name="quotesingle" unicode="'" horiz-adv-x="154" 
d="M51 656h6c22 -2 43 -20 43 -53v-9c-4 -34 -28 -66 -49 -87c-1 -1 -2 -1 -2 -1c-2 0 -4 2 -4 4v2c6 11 10 24 10 40v9h-2c-15 0 -49 8 -49 45v6c3 26 23 44 47 44z" />
    <glyph glyph-name="parenleft" unicode="(" horiz-adv-x="294" 
d="M85 231c0 -189 55 -383 159 -451v-21c-104 48 -244 195 -244 472s140 424 244 471v-18c-118 -89 -159 -267 -159 -453z" />
    <glyph glyph-name="parenright" unicode=")" horiz-adv-x="294" 
d="M160 231c0 186 -42 364 -160 453v18c105 -47 244 -194 244 -471s-139 -424 -244 -472v21c104 68 160 262 160 451z" />
    <glyph glyph-name="asterisk" unicode="*" horiz-adv-x="360" 
d="M155 803c9 0 17 -8 17 -16v-2l-17 -142l-16 142v2c0 8 7 16 16 16zM3 692c2 7 8 12 15 12c2 0 5 -1 7 -2l130 -59l-140 28c-7 2 -13 9 -13 16c0 2 0 3 1 5zM61 513c-4 3 -7 8 -7 14c0 4 2 8 5 11l96 105l-70 -124c-3 -6 -9 -9 -15 -9c-3 0 -6 1 -9 3zM249 513
c-3 -2 -6 -3 -9 -3c-6 0 -12 3 -15 9l-70 124l97 -105c3 -3 4 -7 4 -11c0 -5 -2 -11 -7 -14zM307 692c1 -2 1 -4 1 -5c0 -8 -5 -14 -13 -16l-140 -28l130 59c2 1 5 2 7 2c7 0 13 -5 15 -12z" />
    <glyph glyph-name="plus" unicode="+" horiz-adv-x="491" 
d="M230 87h211v-19h-211v-211h-18v211h-212v19h212v211h18v-211z" />
    <glyph glyph-name="comma" unicode="," horiz-adv-x="154" 
d="M51 -105h6c22 -2 43 -20 43 -53v-9c-4 -34 -28 -66 -49 -87c-1 -1 -2 -1 -2 -1c-2 0 -4 2 -4 4v2c6 11 10 24 10 40v9h-2c-15 0 -49 8 -49 45v6c3 26 23 44 47 44z" />
    <glyph glyph-name="hyphenminus" unicode="-" horiz-adv-x="491" 
d="M441 87v-19h-441v19h441z" />
    <glyph glyph-name="hyphenminus" unicode="&#xad;" horiz-adv-x="491" 
d="M441 87v-19h-441v19h441z" />
    <glyph glyph-name="period" unicode="." horiz-adv-x="146" 
d="M96 -152c0 -27 -21 -48 -48 -48c-26 0 -48 21 -48 48c0 26 22 48 48 48c27 0 48 -22 48 -48z" />
    <glyph glyph-name="slash" unicode="/" horiz-adv-x="233" 
d="M183 656l-164 -856h-19l165 856h18z" />
    <glyph glyph-name="zero" unicode="0" horiz-adv-x="553" 
d="M251 656c139 0 252 -192 252 -428s-113 -428 -252 -428s-251 192 -251 428s112 428 251 428zM251 -181c97 0 176 183 176 409s-79 409 -176 409c-96 0 -175 -183 -175 -409s79 -409 175 -409z" />
    <glyph glyph-name="one" unicode="1" horiz-adv-x="196" 
d="M146 -190c0 -5 -4 -10 -9 -10h-126c-5 0 -9 5 -9 10v1c0 4 3 8 7 9c27 7 28 53 28 71v644c0 15 -13 21 -26 23c-5 1 -8 5 -8 9c0 3 1 5 3 7l83 79c3 2 6 3 9 3c6 0 13 -4 13 -12v-753c0 -18 1 -64 28 -71c4 -1 7 -5 7 -9v-1z" />
    <glyph glyph-name="two" unicode="2" horiz-adv-x="522" 
d="M472 419v-3c0 -241 -357 -336 -443 -542h364c20 0 37 12 43 30c1 4 5 7 9 7c5 0 9 -4 9 -9v-2l-15 -92c-1 -4 -5 -8 -9 -8h-430c0 271 399 388 399 645c0 117 -59 192 -156 192c-74 0 -142 -61 -162 -145c-4 -16 -19 -26 -34 -26c-8 0 -16 3 -23 9c-8 7 -12 17 -12 26
c0 7 2 13 6 19c45 68 103 136 225 136c119 0 229 -93 229 -237z" />
    <glyph glyph-name="three" unicode="3" horiz-adv-x="534" 
d="M297 282c108 -27 187 -123 187 -236c0 -156 -136 -246 -255 -246c-93 0 -173 39 -219 98c-4 6 -6 12 -6 18c0 9 4 17 11 23c5 4 11 6 17 6c11 0 21 -6 26 -17c31 -65 94 -109 171 -109c106 0 181 86 181 227c0 125 -79 226 -178 226h-25c-5 0 -9 4 -9 9c0 6 4 10 9 10h35
c67 6 120 81 120 173c0 96 -57 173 -137 173c-75 0 -108 -54 -123 -94c-4 -12 -15 -18 -26 -18c-6 0 -13 2 -18 6c-1 1 -2 2 -3 2c-7 6 -11 15 -11 23c0 6 2 11 5 16c22 32 78 84 175 84c126 0 211 -86 211 -192c0 -84 -57 -156 -138 -182z" />
    <glyph glyph-name="four" unicode="4" horiz-adv-x="501" 
d="M451 78c0 -6 -4 -10 -9 -10h-26v-177c0 -18 2 -64 28 -71c4 -1 7 -5 7 -9v-1c0 -5 -4 -10 -9 -10h-125c-6 0 -10 5 -10 10v1c0 4 3 8 8 9c27 7 28 53 28 71v177h-331c-5 0 -9 5 -9 9c0 2 0 4 1 5c33 56 152 273 183 581c3 25 23 44 48 44h5c26 -3 43 -24 43 -49
c0 -4 -1 -9 -2 -14c-35 -127 -104 -333 -256 -557h318v461c0 4 2 7 5 8l55 25c1 1 3 1 4 1c5 0 9 -4 9 -9v-486h26c5 0 9 -4 9 -9z" />
    <glyph glyph-name="five" unicode="5" horiz-adv-x="547" 
d="M241 364c186 0 256 -156 256 -270c0 -170 -122 -294 -268 -294c-100 0 -177 46 -223 106c-4 5 -6 11 -6 18c0 8 4 17 11 23c5 4 11 6 17 6c11 0 21 -7 26 -17c32 -66 95 -117 179 -117c106 0 190 113 190 253c0 125 -85 253 -216 253c-78 0 -127 -41 -156 -68
c-2 -2 -3 -2 -6 -2c-4 0 -9 3 -9 9l14 383c0 5 4 9 9 9h352c17 0 32 10 38 26c1 4 5 6 9 6c5 0 9 -4 9 -9v-2l-15 -87c-1 -5 -4 -8 -9 -8h-377l-10 -292c41 38 108 74 185 74z" />
    <glyph glyph-name="six" unicode="6" horiz-adv-x="553" 
d="M271 338c139 0 232 -127 232 -273s-108 -265 -247 -265c-104 0 -256 94 -256 395c0 243 129 461 270 461c51 0 96 -25 132 -59c6 -6 8 -13 8 -20c0 -5 -1 -10 -3 -14c-6 -9 -15 -14 -24 -14c-11 0 -22 6 -27 18c-16 44 -47 70 -86 70c-101 0 -193 -209 -193 -430v-4
c42 102 132 135 194 135zM266 -181c94 0 164 110 164 246s-74 245 -190 245c-50 0 -157 -52 -161 -183v-14c0 -126 66 -294 187 -294z" />
    <glyph glyph-name="seven" unicode="7" horiz-adv-x="474" 
d="M1 561l15 87c1 5 5 8 9 8h388c6 0 10 -5 10 -10c0 -1 -1 -2 -1 -3c-26 -67 -138 -402 -210 -799c-2 -12 -9 -23 -18 -31s-21 -13 -34 -13c-30 0 -54 26 -54 54c0 5 1 11 3 16c102 327 232 630 269 712h-321c-27 0 -33 -10 -38 -26c-1 -4 -5 -6 -9 -6c-5 0 -9 4 -9 9v2z
" />
    <glyph glyph-name="eight" unicode="8" horiz-adv-x="552" 
d="M316 282c107 -27 186 -123 186 -236c0 -136 -112 -246 -251 -246s-251 110 -251 246c0 113 79 209 186 236c-80 26 -138 98 -138 182c0 106 91 192 203 192s203 -86 203 -192c0 -84 -58 -156 -138 -182zM122 464c0 -93 54 -169 122 -173h14c68 4 122 80 122 173
c0 96 -58 173 -129 173s-129 -77 -129 -173zM251 -181c98 0 178 101 178 227c0 125 -80 226 -178 226s-178 -101 -178 -226c0 -126 80 -227 178 -227z" />
    <glyph glyph-name="nine" unicode="9" horiz-adv-x="553" 
d="M232 118c-139 0 -232 127 -232 273s108 265 247 265c105 0 256 -93 256 -395c0 -243 -116 -461 -278 -461c-64 0 -122 29 -153 64c-6 6 -8 13 -8 21c0 4 1 9 3 13c6 10 15 15 25 15c11 0 22 -7 26 -19c16 -52 49 -75 107 -75c141 0 202 208 202 430v5
c-42 -103 -132 -136 -195 -136zM238 637c-94 0 -164 -110 -164 -246c0 -135 74 -245 190 -245c49 0 156 53 161 183v14c0 126 -66 294 -187 294z" />
    <glyph glyph-name="colon" unicode=":" horiz-adv-x="146" 
d="M48 -92c26 0 48 -22 48 -48c0 -27 -22 -48 -48 -48s-48 21 -48 48c0 26 22 48 48 48zM48 246c-26 0 -48 21 -48 48c0 26 22 47 48 47s48 -21 48 -47c0 -27 -22 -48 -48 -48z" />
    <glyph glyph-name="semicolon" unicode=";" horiz-adv-x="155" 
d="M53 246c-26 0 -48 21 -48 48c0 26 22 47 48 47s48 -21 48 -47c0 -27 -22 -48 -48 -48zM52 -93h6c22 -2 43 -20 43 -53v-9c-4 -34 -28 -66 -49 -87c-1 -1 -2 -1 -3 -1c-2 0 -4 2 -4 4c0 0 0 1 1 2c5 12 10 26 10 44v5h-2c-15 0 -49 8 -49 44v7c3 26 22 44 47 44z" />
    <glyph glyph-name="less" unicode="&#x3c;" horiz-adv-x="327" 
d="M277 208l-238 -129l238 -128l-9 -17l-268 145l268 145z" />
    <glyph glyph-name="equal" unicode="=" horiz-adv-x="491" 
d="M0 184h441v-19h-441v19zM0 -25v18h441v-18h-441z" />
    <glyph glyph-name="greater" unicode="&#x3e;" horiz-adv-x="327" 
d="M0 208l9 16l268 -145l-268 -145l-9 17l238 128z" />
    <glyph glyph-name="question" unicode="?" horiz-adv-x="514" 
d="M239 657c120 0 225 -83 225 -193v-3c0 -191 -256 -213 -260 -472c0 -4 -3 -7 -7 -7s-7 3 -7 7c3 276 189 282 189 480c0 80 -47 170 -145 170c-74 0 -141 -62 -162 -146c-4 -16 -18 -26 -33 -26c-8 0 -17 3 -23 9c-8 7 -12 17 -12 26c0 7 2 13 6 19
c45 68 108 136 229 136zM202 -104c26 0 48 -21 48 -48c0 -26 -22 -48 -48 -48s-48 22 -48 48c0 27 22 48 48 48z" />
    <glyph glyph-name="at" unicode="@" horiz-adv-x="906" 
d="M494 311c5 2 9 7 9 13c0 26 0 95 -76 95c-49 0 -73 -32 -83 -56c-4 -9 -12 -14 -21 -14c-4 0 -8 1 -11 3c-7 4 -11 12 -11 21c0 6 2 12 7 17c21 20 57 41 121 41c78 0 122 -39 122 -106v-179c0 -37 12 -108 123 -108c156 0 163 170 163 190c0 226 -183 410 -409 410
s-410 -184 -410 -410s184 -410 410 -410c104 0 200 40 273 105l12 -14c-76 -68 -176 -109 -285 -109c-236 0 -428 192 -428 428s192 428 428 428s428 -192 428 -428c0 -35 -14 -213 -204 -213c-101 0 -148 67 -148 100c-23 -23 -63 -49 -115 -49c-66 0 -107 42 -107 98
c0 112 167 128 212 147zM503 127v176c-43 -21 -173 -35 -173 -140c0 -55 35 -81 81 -81c35 0 69 17 92 45z" />
    <glyph glyph-name="A" unicode="A" horiz-adv-x="651" 
d="M593 -181c5 -1 8 -5 8 -9v-1c0 -5 -5 -9 -11 -9h-124c-5 0 -10 4 -10 9c0 4 3 9 7 10c10 3 13 15 13 28c0 22 -9 50 -11 60l-46 159h-287l-52 -167c-2 -9 -10 -33 -10 -52c0 -13 3 -24 13 -28c4 -2 6 -6 6 -10s-2 -9 -11 -9h-68c-6 0 -10 4 -10 9s3 9 8 10
c30 8 48 63 54 82l228 741c3 10 11 15 19 15c9 0 17 -5 20 -15l209 -722c5 -18 26 -90 55 -101zM137 84h277l-134 462z" />
    <glyph glyph-name="B" unicode="B" horiz-adv-x="604" 
d="M323 282c165 -23 231 -129 231 -237c0 -136 -104 -245 -260 -245h-284c-5 0 -10 4 -10 9v1c0 4 4 8 8 9c27 7 28 53 28 71v680c0 20 -1 60 -28 67c-4 1 -8 5 -8 9v1c0 5 5 9 10 9h265c130 0 228 -80 228 -192c0 -85 -60 -162 -180 -182zM163 -182h89
c125 0 228 100 228 225c0 212 -226 225 -298 225h-12c-6 0 -10 4 -10 10c0 5 4 9 9 9c47 0 261 3 261 177c0 96 -80 174 -190 174h-76c-52 0 -55 -42 -55 -64v-684c0 -18 2 -72 54 -72z" />
    <glyph glyph-name="C" unicode="C" horiz-adv-x="693" 
d="M638 -32c3 -1 4 -4 4 -7c0 -1 0 -3 -1 -4c-62 -96 -160 -157 -287 -157c-215 0 -354 193 -354 430s130 432 346 432c108 0 201 -36 263 -122c13 -18 20 -36 20 -52c0 -13 -5 -25 -15 -32c-9 -6 -18 -9 -28 -9c-20 0 -40 13 -45 36c-23 90 -96 161 -204 161
c-140 0 -253 -166 -253 -370c0 -251 114 -423 311 -423c114 0 188 60 232 116c2 2 4 3 6 3s4 -1 5 -2z" />
    <glyph glyph-name="D" unicode="D" horiz-adv-x="662" 
d="M9 656h198c220 0 405 -160 405 -428c0 -276 -182 -428 -419 -428h-184c-5 0 -9 4 -9 9v1c0 4 3 8 7 9c27 7 28 53 28 71v680c0 20 -1 60 -28 67c-4 1 -7 5 -7 9v1c0 5 4 9 9 9zM528 228c0 226 -127 410 -332 410h-43c-42 0 -44 -42 -44 -65v-683c0 -69 26 -72 55 -72h29
c211 0 335 184 335 410z" />
    <glyph glyph-name="E" unicode="E" horiz-adv-x="574" 
d="M514 -56c5 0 9 -4 9 -9v-1l-8 -126c0 -5 -4 -8 -9 -8h-497c-5 0 -9 4 -9 9v1c0 4 3 8 7 9c28 7 28 53 28 71v680c0 20 -1 60 -28 67c-4 1 -7 5 -7 9v1c0 5 4 9 9 9h488c5 0 9 -4 9 -8l8 -126c0 -6 -4 -10 -9 -10s-9 3 -10 8c-9 67 -66 118 -134 118h-201
c-48 0 -51 -39 -51 -62v-285h199c32 0 58 24 62 55c1 4 5 8 9 8h1c5 0 9 -5 9 -10v-126c0 -5 -4 -9 -9 -9h-1c-4 0 -8 4 -9 8c-4 31 -30 55 -62 55h-199v-384c0 -20 1 -70 53 -70h208c68 0 126 51 135 118c0 4 4 8 9 8z" />
    <glyph glyph-name="F" unicode="F" horiz-adv-x="564" 
d="M506 648l8 -126c0 -6 -4 -10 -9 -10s-9 3 -9 8c-10 67 -67 118 -135 118h-201c-48 0 -51 -39 -51 -62v-285h199c32 0 58 24 62 54c1 5 5 9 9 9h1c5 0 9 -5 9 -10v-126c0 -5 -4 -9 -9 -9h-1c-4 0 -8 4 -9 8c-4 31 -30 55 -62 55h-199v-382c0 -18 2 -64 28 -71
c4 -1 7 -5 7 -9v-1c0 -5 -4 -9 -9 -9h-126c-5 0 -9 4 -9 9v1c0 4 3 8 8 9c27 7 27 53 27 71v680c0 20 -1 60 -27 67c-5 1 -8 5 -8 9v1c0 5 4 9 9 9h488c5 0 9 -4 9 -8z" />
    <glyph glyph-name="G" unicode="G" horiz-adv-x="714" 
d="M529 291h125c5 0 10 -4 10 -9v-1c0 -4 -4 -8 -8 -9c-26 -6 -28 -43 -28 -64v-394c0 -8 -6 -14 -13 -14c-4 0 -8 2 -11 5l-40 46c-3 4 -7 5 -12 5c-3 0 -6 0 -9 -2c-52 -36 -116 -56 -189 -56c-216 0 -354 193 -354 430s130 432 345 432c109 0 202 -36 264 -122
c13 -18 20 -36 20 -52c0 -14 -5 -25 -15 -32c-9 -6 -18 -9 -28 -9c-20 0 -40 13 -45 36c-23 90 -96 161 -204 161c-140 0 -253 -166 -253 -370c0 -251 113 -423 311 -423c55 0 101 14 138 35c13 7 22 21 22 36v285c0 20 -1 60 -28 67c-5 1 -8 5 -8 9v1c0 5 4 9 10 9z" />
    <glyph glyph-name="H" unicode="H" horiz-adv-x="661" 
d="M603 637c-27 -7 -28 -47 -28 -67v-680c0 -18 2 -64 28 -71c5 -1 8 -5 8 -9v-1c0 -5 -4 -9 -10 -9h-125c-6 0 -10 4 -10 9v1c0 4 3 8 8 9c27 7 28 53 28 71v382h-393v-382c0 -18 1 -64 28 -71c4 -1 7 -5 7 -9v-1c0 -5 -4 -9 -9 -9h-126c-5 0 -9 4 -9 9v1c0 4 3 8 7 9
c27 7 28 53 28 71v680c0 20 -1 60 -28 67c-4 1 -7 5 -7 9v1c0 5 4 9 9 9h126c5 0 9 -4 9 -9v-1c0 -4 -3 -8 -8 -9c-25 -6 -27 -42 -27 -63v-283h393v279c0 20 -1 60 -28 67c-4 1 -8 5 -8 9v1c0 5 4 9 10 9h125c6 0 10 -4 10 -9v-1c0 -4 -4 -8 -8 -9z" />
    <glyph glyph-name="I" unicode="I" 
d="M145 647v-1c0 -4 -4 -8 -8 -9c-27 -7 -28 -47 -28 -67v-680c0 -18 2 -64 28 -71c5 -1 8 -5 8 -9v-1c0 -5 -4 -9 -10 -9h-125c-5 0 -10 4 -10 9v1c0 4 4 8 8 9c27 7 28 53 28 71v680c0 20 -1 60 -28 67c-4 1 -8 5 -8 9v1c0 5 5 9 10 9h125c6 0 10 -4 10 -9z" />
    <glyph glyph-name="J" unicode="J" horiz-adv-x="524" 
d="M339 656h125c6 0 10 -4 10 -10v-1c0 -4 -4 -8 -8 -9c-27 -6 -28 -47 -28 -67v-559c0 -15 -4 -211 -222 -211c-120 0 -181 60 -207 100c-4 6 -6 14 -6 21c0 10 4 19 11 26v1c8 8 18 12 28 12c16 0 32 -10 36 -28c14 -52 50 -114 144 -114c133 0 143 136 143 197v555
c0 20 -1 61 -28 67c-4 1 -8 5 -8 9v1c0 6 4 10 10 10z" />
    <glyph glyph-name="K" unicode="K" horiz-adv-x="652" 
d="M591 -177c4 -3 6 -6 6 -10c0 -7 -5 -13 -13 -13h-30c-45 0 -84 21 -110 57l-267 374l-68 -74v-267c0 -18 2 -64 28 -71c4 -1 7 -4 7 -9v-1c0 -5 -4 -9 -9 -9h-126c-5 0 -9 4 -9 9v1c0 4 3 8 7 9c27 7 28 53 28 71v679c0 20 -1 61 -28 67c-4 1 -7 5 -7 9v1c0 6 4 10 9 10
h126c5 0 9 -4 9 -10v-1c0 -4 -3 -8 -7 -9c-26 -5 -28 -43 -28 -64v-382l317 351c10 10 45 49 45 74c0 12 -7 20 -27 22c-4 0 -8 4 -8 9s4 10 9 10h126c5 0 10 -5 10 -10s-4 -9 -8 -10c-43 -9 -106 -85 -120 -101l-223 -246l251 -357c30 -43 55 -76 110 -109z" />
    <glyph glyph-name="L" unicode="L" horiz-adv-x="564" 
d="M506 -192c-1 -4 -5 -8 -9 -8h-488c-5 0 -9 4 -9 9v1c0 5 3 8 8 9c26 7 27 47 27 67v679c0 18 0 64 -27 71c-5 1 -8 5 -8 9v1c0 6 4 10 9 10h126c5 0 9 -4 9 -10v-1c0 -4 -3 -7 -7 -9c-26 -7 -28 -53 -28 -71v-685c0 -23 3 -62 51 -62h201c68 0 125 51 134 118
c1 5 5 8 9 8h1c5 0 9 -4 9 -10z" />
    <glyph glyph-name="M" unicode="M" horiz-adv-x="712" 
d="M655 637c-26 -6 -28 -43 -28 -65v-682c0 -18 2 -64 28 -71c4 -1 7 -5 7 -9v-1c0 -5 -4 -9 -9 -9h-126c-5 0 -9 4 -9 9v1c0 4 3 8 8 9c27 7 27 53 27 71v704l-241 -743c-1 -4 -5 -7 -9 -7c-3 0 -7 3 -8 7l-241 748v-709c0 -57 17 -70 28 -72c4 -1 7 -4 7 -9s-4 -9 -9 -9
h-71c-5 0 -9 4 -9 9v1c0 4 3 8 8 9c28 7 28 53 28 71v679c0 20 -1 61 -28 67c-5 1 -8 5 -8 9v2c0 5 4 9 9 9h97c4 0 8 -3 9 -7l218 -676l219 676c1 4 4 7 8 7h93c5 0 9 -4 9 -10v-1c0 -4 -3 -8 -7 -8z" />
    <glyph glyph-name="N" unicode="N" horiz-adv-x="606" 
d="M476 656h71c5 0 9 -4 9 -9v-1c0 -4 -3 -8 -7 -9c-11 -3 -29 -16 -29 -72v-755c0 -7 -3 -11 -7 -11c-3 0 -7 3 -10 8l-449 812v-729c0 -57 17 -69 27 -72c5 -1 8 -4 8 -9s-4 -9 -9 -9h-71c-5 0 -9 4 -9 9v1c0 5 3 8 7 9c27 7 28 47 28 67v686c0 21 -1 59 -28 65
c-4 1 -7 4 -7 9v1c0 5 4 9 9 9h110l383 -699v616c0 21 -2 58 -28 64c-4 1 -7 4 -7 9v1c0 5 4 9 9 9z" />
    <glyph glyph-name="O" unicode="O" horiz-adv-x="742" 
d="M346 663c216 0 346 -196 346 -432c0 -237 -141 -431 -346 -431c-215 0 -346 194 -346 431c0 236 131 432 346 432zM346 -182c174 0 259 186 259 413c0 226 -85 413 -259 413c-173 0 -262 -187 -262 -413c0 -227 89 -413 262 -413z" />
    <glyph glyph-name="P" unicode="P" horiz-adv-x="573" 
d="M10 656h242c153 0 271 -110 271 -246c0 -135 -100 -245 -280 -245h-134v-275c0 -18 2 -64 28 -71c5 -1 8 -5 8 -9v-1c0 -5 -4 -9 -10 -9h-125c-5 0 -10 4 -10 9v1c0 4 4 8 8 9c27 7 28 53 28 71v679c0 20 -1 61 -28 67c-4 1 -8 5 -8 9v1c0 6 5 10 10 10zM109 184h100
c147 0 240 101 240 226c0 126 -87 227 -232 227h-58c-49 0 -50 -50 -50 -70v-383z" />
    <glyph glyph-name="Q" unicode="Q" horiz-adv-x="742" 
d="M386 -179c40 7 75 25 104 53c38 37 67 87 86 150c19 62 28 131 28 207c0 75 -9 144 -28 207s-48 113 -86 150c-39 37 -87 56 -145 56c-57 0 -105 -19 -144 -56s-69 -87 -88 -150c-20 -63 -30 -132 -30 -207c0 -76 10 -145 30 -207c19 -63 49 -113 88 -150s87 -56 144 -56
c5 0 11 0 16 1c-17 35 -28 60 -31 75v3c0 4 1 7 4 9c2 1 3 2 5 2c1 0 3 -1 5 -2s4 -3 5 -6c10 -31 22 -57 37 -79zM371 -199c-9 -1 -17 -1 -26 -1c-71 0 -133 20 -184 59c-52 39 -92 91 -119 156c-28 65 -42 137 -42 216s14 151 42 216c27 65 67 118 119 157
c51 39 113 59 184 59c72 0 134 -20 186 -59c51 -39 91 -92 119 -157s42 -137 42 -216s-15 -151 -44 -216s-70 -117 -122 -156c-38 -29 -80 -47 -127 -55c18 -21 39 -37 62 -47c36 -15 71 -22 106 -22c13 0 27 1 40 3h10c20 0 34 -5 43 -15c7 -8 10 -17 10 -27
c0 -5 -1 -10 -3 -16v-1c-1 0 -1 0 -1 -1c-8 -19 -25 -28 -52 -28h-5c-69 10 -124 32 -163 66c-33 27 -58 56 -75 85z" />
    <glyph glyph-name="R" unicode="R" horiz-adv-x="636" 
d="M270 166c154 -55 189 -335 307 -347c5 -1 9 -5 9 -10s-5 -9 -10 -9h-33c-216 0 -158 367 -373 367h-11c-4 0 -8 4 -8 9c0 4 4 8 8 8h50c147 0 240 101 240 226c0 126 -87 227 -232 227h-58c-49 0 -50 -50 -50 -70v-677c0 -17 2 -64 28 -71c4 -1 7 -4 7 -9v-1
c0 -5 -4 -9 -9 -9h-126c-5 0 -9 4 -9 9v1c0 5 3 8 7 9c27 7 28 54 28 71v679c0 20 -1 61 -27 67c-5 1 -8 5 -8 9v1c0 6 4 10 9 10h243c153 0 271 -107 271 -246c0 -134 -92 -220 -253 -244z" />
    <glyph glyph-name="S" unicode="S" horiz-adv-x="573" 
d="M92 488c0 -192 431 -271 431 -483c0 -150 -158 -208 -261 -208c-105 0 -191 44 -250 118c-6 7 -9 16 -9 24c0 10 4 19 10 26c8 10 19 14 30 14c15 0 30 -9 36 -25c30 -78 83 -141 199 -141h3c90 1 174 58 174 151c0 229 -433 280 -433 505c0 135 132 190 240 190
c107 0 178 -51 233 -124c5 -6 7 -14 7 -22s-2 -16 -8 -23c-6 -8 -15 -11 -25 -11c-17 0 -35 11 -41 34c-21 76 -70 133 -171 133h-2c-76 -1 -163 -56 -163 -158z" />
    <glyph glyph-name="T" unicode="T" horiz-adv-x="628" 
d="M569 648l8 -126v-2c0 -5 -4 -8 -9 -8s-9 3 -9 8c-9 67 -67 118 -135 118h-48c-48 0 -51 -39 -51 -62v-686c0 -18 2 -64 28 -71c4 -1 7 -5 7 -9v-1c0 -5 -4 -9 -9 -9h-126c-5 0 -9 4 -9 9v1c0 4 3 8 7 9c27 7 28 53 28 71v680c0 21 -2 68 -50 68h-48
c-68 0 -125 -51 -134 -118c-1 -5 -5 -8 -9 -8h-1c-5 0 -9 4 -9 10l8 126c0 4 4 8 9 8h543c5 0 9 -4 9 -8z" />
    <glyph glyph-name="U" unicode="U" horiz-adv-x="661" 
d="M531 656h71c5 0 9 -4 9 -9v-1c0 -4 -2 -8 -6 -9c-11 -3 -29 -14 -29 -67v-488c0 -159 -108 -282 -264 -282h-9c-150 0 -267 104 -267 280v490c0 20 -1 60 -28 67c-4 1 -8 5 -8 9v1c0 5 4 9 10 9h125c6 0 10 -4 10 -9v-1c0 -4 -4 -8 -8 -9c-27 -7 -28 -47 -28 -67v-521
c0 -136 92 -234 215 -234c133 0 234 122 234 254v501c0 20 -1 60 -28 67c-5 1 -8 5 -8 9v1c0 5 4 9 9 9z" />
    <glyph glyph-name="V" unicode="V" horiz-adv-x="649" 
d="M271 -186l-209 721c-5 18 -25 91 -55 101c-4 1 -7 5 -7 9v1c0 5 5 10 10 10h124c6 0 10 -5 10 -10c0 -4 -3 -8 -7 -10c-10 -3 -13 -15 -13 -28c0 -22 9 -50 11 -59l185 -639l199 646c3 9 11 33 11 52c0 13 -3 24 -13 28c-5 2 -6 6 -6 10c0 5 2 10 10 10h69
c5 0 9 -5 9 -10s-3 -9 -7 -10c-30 -8 -48 -63 -54 -82l-228 -740c-3 -9 -11 -14 -19 -14c-9 0 -17 5 -20 14z" />
    <glyph glyph-name="W" unicode="W" horiz-adv-x="940" 
d="M812 656h68c6 0 10 -5 10 -10s-3 -9 -7 -10c-31 -8 -49 -63 -54 -82l-228 -740c-3 -9 -11 -14 -20 -14c-8 0 -16 5 -19 14l-122 422l-130 -422c-3 -9 -11 -14 -19 -14c-9 0 -17 5 -20 14l-209 721c-5 18 -25 91 -55 101c-4 1 -7 5 -7 9v1c0 5 5 10 10 10h124
c5 0 10 -5 10 -10c0 -4 -3 -8 -7 -10c-10 -3 -13 -15 -13 -28c0 -22 9 -50 11 -59l185 -639l110 358l-77 267c-5 18 -26 91 -55 101c-4 1 -7 5 -7 9v1c0 5 5 10 10 10h124c5 0 10 -5 10 -10c0 -4 -3 -8 -7 -10c-10 -3 -13 -15 -13 -29c0 -22 8 -49 11 -58l185 -639l199 646
c3 9 11 33 11 52c0 13 -3 24 -13 28c-5 2 -7 6 -7 10c0 5 3 10 11 10z" />
    <glyph glyph-name="X" unicode="X" horiz-adv-x="639" 
d="M589 646c0 -4 -3 -8 -8 -9c-39 -7 -67 -64 -78 -83l-179 -306l169 -317c9 -18 57 -100 89 -112c4 -1 7 -5 7 -9v-1c0 -5 -4 -9 -10 -9h-145c-4 0 -8 4 -8 9s3 9 7 10c9 2 12 10 12 20c0 23 -17 56 -20 63l-153 287l-180 -308c-5 -7 -16 -27 -16 -43c0 -9 4 -17 16 -19
c4 -1 8 -5 8 -10s-4 -9 -10 -9h-80c-5 0 -10 4 -10 9s4 9 8 10c30 7 57 53 67 70l186 319l-176 332c-9 16 -42 87 -77 97c-4 1 -8 5 -8 9c0 6 5 10 10 10h140c5 0 10 -4 10 -9v-1c0 -4 -4 -8 -8 -9c-11 -2 -15 -10 -15 -20c0 -23 20 -56 24 -63l153 -287l168 288
c4 8 25 41 25 63c0 9 -4 17 -15 19c-5 1 -9 5 -9 9c0 6 5 10 10 10h86c6 0 10 -4 10 -10z" />
    <glyph glyph-name="Y" unicode="Y" horiz-adv-x="641" 
d="M502 646c0 6 5 10 10 10h69c6 0 10 -4 10 -9s-3 -9 -8 -10c-18 -3 -43 -31 -63 -73l-189 -375v-299c0 -18 2 -64 28 -71c4 -1 7 -5 7 -9v-1c0 -5 -4 -9 -9 -9h-126c-5 0 -9 4 -9 9v1c0 4 3 8 7 9c27 7 28 53 28 71v282l-181 376c-8 15 -40 86 -68 89c-4 1 -8 5 -8 10
s4 9 10 9h126c4 0 8 -4 8 -9v-2c0 -4 -3 -6 -6 -8c-6 -3 -8 -9 -8 -16c0 -17 12 -41 16 -49l174 -362l181 358c9 21 14 39 14 52c0 9 -2 15 -7 17c-4 1 -6 5 -6 9z" />
    <glyph glyph-name="Z" unicode="Z" horiz-adv-x="584" 
d="M519 -56c5 0 9 -4 9 -9v-1l-8 -126c0 -5 -4 -8 -9 -8h-499c-6 0 -10 4 -10 9c0 2 0 3 1 4l442 825h-285c-69 0 -126 -51 -135 -118c-1 -5 -4 -8 -9 -8c-6 0 -10 4 -10 10l8 125c1 5 5 9 10 9h499c5 0 9 -4 9 -9c0 -1 0 -3 -1 -4l-441 -825h285c68 0 126 51 135 118
c0 4 4 8 9 8z" />
    <glyph glyph-name="bracketleft" unicode="[" horiz-adv-x="169" 
d="M119 684h-45v-906h45v-19h-119v943h119v-18z" />
    <glyph glyph-name="backslash" unicode="\" horiz-adv-x="233" 
d="M0 656h19l164 -856h-19z" />
    <glyph glyph-name="bracketright" unicode="]" horiz-adv-x="169" 
d="M0 684v18h119v-943h-119v19h45v906h-45z" />
    <glyph glyph-name="asciicircum" unicode="^" horiz-adv-x="249" 
d="M199 598h-19l-80 81l-81 -81h-19l100 115z" />
    <glyph glyph-name="underscore" unicode="_" horiz-adv-x="625" 
d="M575 -182v-18h-575v18h575z" />
    <glyph glyph-name="grave" unicode="`" 
d="M20 733l125 -145l-9 -9l-136 135z" />
    <glyph glyph-name="a" unicode="a" horiz-adv-x="496" 
d="M439 -181c4 -1 7 -4 7 -9v-1c0 -5 -4 -9 -9 -9h-90c-5 0 -10 4 -10 9v64c-34 -36 -90 -73 -173 -73c-101 0 -164 64 -164 150c0 171 256 196 325 225c8 3 12 10 12 19v4c0 43 -2 142 -115 142c-74 0 -111 -49 -127 -85c-6 -13 -19 -21 -32 -21c-6 0 -12 1 -17 4
c-12 6 -17 18 -17 30c0 9 3 19 11 27c32 32 86 64 185 64c119 0 186 -60 186 -163v-305c0 -18 2 -64 28 -72zM337 -107v269c-65 -31 -264 -54 -264 -214c0 -85 54 -124 124 -124c53 0 106 27 140 69z" />
    <glyph glyph-name="b" unicode="b" horiz-adv-x="536" 
d="M271 359c138 0 215 -125 215 -280c0 -154 -81 -279 -236 -279c-57 0 -105 17 -141 46v-37c0 -5 -4 -9 -9 -9h-91c-5 0 -9 4 -9 9v1c0 5 3 8 7 9c27 7 28 54 28 72v652c0 14 -12 26 -26 26c-5 0 -9 4 -9 9c0 3 1 6 3 7l91 70c2 1 3 2 5 2c5 0 10 -4 10 -10v-396
c27 65 83 108 162 108zM250 -182c90 0 163 117 163 261s-69 251 -169 251c-60 0 -135 -62 -135 -155v-226c14 -97 77 -131 141 -131z" />
    <glyph glyph-name="c" unicode="c" horiz-adv-x="470" 
d="M270 -160c52 0 96 12 136 55c2 2 3 2 5 2s4 0 5 -2c2 -1 3 -3 3 -6c0 -1 -1 -3 -2 -4c-36 -46 -100 -85 -177 -85c-152 0 -240 125 -240 279c0 155 81 280 236 280c67 0 133 -34 172 -78c5 -6 8 -14 8 -22s-2 -15 -7 -21c-7 -9 -16 -13 -26 -13c-12 0 -23 7 -29 19
c-25 53 -57 96 -122 96c-99 0 -159 -96 -159 -239c0 -144 68 -261 197 -261z" />
    <glyph glyph-name="d" unicode="d" horiz-adv-x="537" 
d="M480 -181c4 -1 7 -4 7 -9v-1c0 -5 -4 -9 -9 -9h-91c-5 0 -9 4 -9 9v98c-27 -65 -83 -107 -162 -107c-138 0 -216 125 -216 279c0 155 82 280 237 280c57 0 104 -18 141 -47v231c0 14 -12 26 -26 26c-5 0 -9 4 -9 9c0 3 1 6 3 7l91 70c2 1 3 2 5 2c5 0 10 -4 10 -10v-756
c0 -18 2 -64 28 -72zM378 -17v226c-14 98 -77 131 -141 131c-90 0 -163 -117 -163 -261s69 -251 169 -251c60 0 135 63 135 155z" />
    <glyph glyph-name="e" unicode="e" horiz-adv-x="501" 
d="M411 -103c2 0 4 0 5 -2c2 -1 3 -3 3 -6c0 -1 -1 -3 -2 -4c-36 -46 -100 -85 -177 -85c-152 0 -240 125 -240 279c0 155 81 280 236 280c151 0 205 -143 214 -215v-2c0 -8 -8 -16 -17 -16h-359c0 -8 -1 -17 -1 -25c0 -144 69 -261 197 -261c52 0 96 12 136 55c1 1 3 2 5 2
zM232 340c-89 0 -146 -77 -157 -196h301c-6 98 -65 196 -144 196z" />
    <glyph glyph-name="f" unicode="f" horiz-adv-x="273" 
d="M263 609c5 -6 8 -13 8 -20c0 -5 -2 -11 -5 -16l-1 -1c-6 -10 -16 -14 -25 -14c-14 0 -27 9 -30 25c-5 31 -18 58 -46 58c-41 0 -54 -48 -55 -94v-188h98c6 0 10 -5 10 -10s-4 -9 -10 -9h-98v-449c0 -18 2 -64 28 -72c4 -1 7 -4 7 -9v-1c0 -5 -4 -9 -9 -9h-126
c-5 0 -9 4 -9 9v1c0 5 3 8 8 9c27 7 28 54 28 72v449h-27c-5 0 -9 4 -9 9s4 10 9 10h27v129c0 36 3 169 128 169c42 0 73 -19 99 -48z" />
    <glyph glyph-name="g" unicode="g" horiz-adv-x="490" 
d="M92 38c9 -24 23 -43 40 -58c20 -18 46 -27 78 -27c31 0 57 9 77 27c20 17 35 41 45 70c9 29 14 61 14 97c0 35 -5 68 -14 97c-9 26 -22 48 -39 64c-43 -53 -89 -112 -138 -179c-25 -34 -46 -64 -63 -91zM284 316c-20 16 -44 24 -74 24c-32 0 -58 -9 -78 -26
s-35 -41 -44 -70c-10 -29 -15 -62 -15 -97c0 -34 4 -64 13 -91c12 19 27 39 43 61c59 79 110 146 155 199zM304 341c2 2 4 4 5 6c3 5 7 9 11 13c16 25 37 44 63 57c5 2 10 3 15 3c6 0 12 -2 19 -6s11 -11 13 -21v-7c0 -9 -3 -16 -9 -22c-5 -4 -11 -7 -18 -7c-4 0 -7 1 -11 2
c-9 3 -17 4 -25 4c-17 0 -32 -6 -45 -20c-2 -3 -4 -5 -7 -8c3 -1 6 -3 9 -5c31 -19 55 -45 72 -77c16 -33 24 -69 24 -109c0 -39 -8 -75 -24 -107c-17 -33 -41 -59 -72 -78s-69 -29 -114 -29s-84 10 -115 29c-12 7 -23 16 -33 26c-8 -16 -14 -30 -18 -43
c-1 -5 -1 -11 -1 -16c0 -26 14 -44 43 -54c29 -11 68 -18 116 -22c38 -3 75 -9 111 -17s66 -22 91 -42c24 -21 36 -52 36 -94c0 -58 -25 -104 -74 -138c-49 -35 -108 -52 -176 -52c-53 0 -96 7 -127 20c-32 13 -55 28 -69 46c-14 17 -21 33 -21 47c0 29 14 53 41 72
s63 28 108 28c15 0 35 -2 58 -7s44 -14 65 -29c10 -8 16 -17 17 -27v-5c0 -9 -2 -16 -8 -22c-1 0 -1 0 -1 -1c-7 -6 -15 -9 -23 -9c-3 0 -8 1 -16 2c-7 2 -13 9 -17 21c-5 19 -14 34 -26 47c-12 12 -28 18 -49 18c-53 0 -81 -25 -82 -76c0 -26 9 -47 26 -62
c17 -16 39 -27 65 -34c25 -7 50 -11 75 -11c30 0 61 6 93 18c32 11 59 28 81 51c22 22 33 49 33 81c0 23 -9 40 -27 52c-19 11 -42 20 -71 26c-29 5 -60 10 -93 14c-60 5 -112 16 -157 33c-38 14 -58 42 -58 82c0 7 1 14 2 21c7 27 21 59 41 94c-10 12 -19 25 -26 40
c-16 32 -24 68 -24 107c0 40 8 76 24 109c16 32 40 58 71 77s70 29 115 29c35 0 67 -6 94 -18z" />
    <glyph glyph-name="h" unicode="h" horiz-adv-x="550" 
d="M493 -181c4 -1 7 -4 7 -9v-1c0 -5 -4 -9 -9 -9h-126c-5 0 -9 4 -9 9v1c0 5 3 8 7 9c27 7 28 54 28 72v312c0 67 -39 127 -112 127c-85 0 -169 -100 -170 -192v-247c0 -18 1 -64 28 -72c4 -1 7 -4 7 -9v-1c0 -5 -4 -9 -9 -9h-126c-5 0 -9 4 -9 9v1c0 5 3 8 7 9
c27 7 28 54 28 72v652c0 14 -12 26 -26 26c-5 0 -9 4 -9 9c0 3 1 6 3 7l91 70c2 1 3 2 5 2c5 0 10 -4 10 -10v-434c27 66 90 146 207 146c85 0 149 -57 149 -149v-319c0 -18 2 -64 28 -72z" />
    <glyph glyph-name="i" unicode="i" horiz-adv-x="194" 
d="M137 -181c4 -1 7 -4 7 -9v-1c0 -5 -4 -9 -9 -9h-126c-5 0 -9 4 -9 9v1c0 5 3 8 7 9c27 7 28 54 28 72v354c0 14 -12 26 -26 26c-5 0 -9 4 -9 9c0 3 1 5 3 7l91 70c2 1 3 2 5 2c5 0 10 -4 10 -10v-458c0 -18 2 -64 28 -72zM72 479c-31 0 -56 26 -56 57s25 56 56 56
s56 -25 56 -56s-25 -57 -56 -57z" />
    <glyph glyph-name="j" unicode="j" horiz-adv-x="178" 
d="M72 592c31 0 56 -25 56 -57c0 -31 -25 -56 -56 -56s-56 25 -56 56c0 32 25 57 56 57zM109 349v-535c0 -128 -60 -191 -115 -213c-1 -1 -3 -1 -4 -1c-6 0 -10 5 -10 10c0 2 1 5 3 7c50 53 52 142 52 183v444c0 15 -12 27 -26 27c-5 0 -9 4 -9 9c0 2 1 5 3 7l91 69
c2 1 4 2 6 2c4 0 9 -4 9 -9z" />
    <glyph glyph-name="k" unicode="k" horiz-adv-x="534" 
d="M477 -181c4 -1 7 -4 7 -9v-1c0 -5 -4 -9 -9 -9h-136c-5 0 -10 4 -10 9s3 9 7 10c7 2 10 7 10 14c0 25 -34 74 -39 81l-120 191l-78 -84v-131c0 -18 2 -64 28 -71c5 -1 8 -5 8 -9v-1c0 -5 -4 -9 -10 -9h-125c-6 0 -10 4 -10 9v1c0 4 3 8 8 9c27 7 28 53 28 71l-1 652
c0 15 -11 27 -26 27c-5 0 -9 4 -9 9c0 2 1 5 4 7l90 69c2 2 4 2 6 2c5 0 9 -3 9 -9v-599l271 297c8 9 19 13 29 13c19 0 38 -15 39 -38c0 -18 -11 -33 -28 -39c-68 -22 -115 -46 -164 -99l-18 -20l153 -244c10 -15 56 -88 86 -99z" />
    <glyph glyph-name="l" unicode="l" 
d="M145 -191c0 -5 -4 -9 -9 -9h-126c-5 0 -10 4 -10 9v1c0 4 4 8 8 9c27 7 28 53 28 71v652c0 15 -12 27 -27 27c-5 0 -9 4 -9 9c0 2 2 5 4 7l91 69c2 2 4 2 6 2c5 0 9 -3 9 -9v-757c0 -18 1 -64 28 -71c4 -1 7 -5 7 -9v-1z" />
    <glyph glyph-name="m" unicode="m" horiz-adv-x="906" 
d="M849 -181c4 -1 7 -5 7 -9v-1c0 -5 -4 -9 -9 -9h-126c-5 0 -9 4 -9 9v1c0 4 3 8 7 9c27 7 28 53 28 71v312c0 68 -39 128 -111 128c-85 0 -171 -97 -171 -187v-253c0 -18 2 -64 28 -71c4 -1 7 -5 7 -9v-1c0 -5 -4 -9 -9 -9h-126c-5 0 -9 4 -9 9v1c0 4 3 8 7 9
c27 7 28 53 28 71v312c0 68 -39 128 -111 128c-86 0 -170 -100 -171 -192v-248c0 -18 2 -64 28 -71c4 -1 7 -5 7 -9v-1c0 -5 -4 -9 -9 -9h-126c-5 0 -9 4 -9 9v1c0 4 3 8 7 9c27 7 28 53 28 71v354c0 15 -12 27 -26 27c-5 0 -9 4 -9 9c0 2 1 5 3 7l91 69c2 1 4 2 6 2
c4 0 9 -4 9 -9v-136c27 65 90 145 207 145c84 0 147 -55 149 -145c27 65 90 145 207 145c85 0 149 -56 149 -148v-320c0 -18 2 -64 28 -71z" />
    <glyph glyph-name="n" unicode="n" horiz-adv-x="550" 
d="M493 -181c4 -1 7 -5 7 -9v-1c0 -5 -4 -9 -9 -9h-126c-5 0 -9 4 -9 9v1c0 4 3 8 8 9c27 7 28 53 28 71v312c0 68 -40 128 -112 128c-86 0 -170 -100 -171 -192v-248c0 -18 2 -64 28 -71c4 -1 7 -5 7 -9v-1c0 -5 -4 -9 -9 -9h-126c-5 0 -9 4 -9 9v1c0 4 3 8 7 9
c28 7 28 53 28 71v354c0 15 -11 27 -26 27c-5 0 -9 4 -9 9c0 2 1 5 4 7l90 69c2 1 4 2 6 2c4 0 9 -4 9 -9v-136c27 65 91 145 207 145c86 0 149 -56 149 -148v-320c0 -18 2 -64 28 -71z" />
    <glyph glyph-name="o" unicode="o" horiz-adv-x="524" 
d="M237 359c155 0 237 -125 237 -280c0 -154 -82 -279 -237 -279c-156 0 -237 125 -237 279c0 155 81 280 237 280zM237 -182c90 0 163 117 163 261c0 145 -73 262 -163 262s-163 -117 -163 -262c0 -144 73 -261 163 -261z" />
    <glyph glyph-name="p" unicode="p" horiz-adv-x="537" 
d="M272 359c137 0 215 -125 215 -279s-82 -279 -237 -279c-57 0 -104 16 -141 46v-254c0 -18 2 -64 28 -71c4 -1 8 -5 8 -9v-1c0 -6 -5 -10 -10 -10h-126c-5 0 -9 4 -9 10v1c0 4 3 8 8 9c27 7 28 53 28 71v652c0 15 -12 26 -27 26c-5 0 -9 4 -9 9c0 3 2 6 4 8l91 69
c2 1 4 2 5 2c5 0 9 -4 9 -9v-98c27 65 84 107 163 107zM250 -181c90 0 163 117 163 261s-69 251 -169 251c-59 0 -133 -61 -135 -152v-230c15 -97 78 -130 141 -130z" />
    <glyph glyph-name="q" unicode="q" horiz-adv-x="536" 
d="M479 -478c4 -2 7 -5 7 -10v-1c0 -5 -4 -9 -9 -9h-126c-5 0 -9 4 -9 9v2c0 4 3 7 7 9c26 7 28 53 28 71v315c-27 -66 -83 -108 -162 -108c-138 0 -215 125 -215 280c0 154 81 279 236 279c45 0 84 -11 116 -30c6 -4 13 -5 21 -5c10 0 22 4 30 11l25 21c3 2 6 3 9 3
c7 0 14 -6 14 -14v-752c0 -18 1 -64 28 -71zM377 -17v227c-14 97 -77 130 -141 130c-90 0 -163 -116 -163 -260c0 -145 69 -252 169 -252c60 0 135 63 135 155z" />
    <glyph glyph-name="r" unicode="r" horiz-adv-x="441" 
d="M385 287c-6 -14 -19 -21 -32 -21c-12 0 -23 6 -30 17c-17 28 -42 47 -80 47c-80 0 -133 -119 -134 -211v-229c0 -18 2 -64 28 -71c4 -1 8 -5 8 -9v-1c0 -5 -5 -9 -10 -9h-126c-5 0 -9 4 -9 9v1c0 4 3 8 8 9c27 7 28 53 28 71v354c0 15 -12 27 -27 27c-5 0 -9 4 -9 9
c0 2 1 5 4 7l90 69c2 1 4 2 6 2c4 0 9 -4 9 -9v-141c18 59 73 154 166 154c38 0 74 -12 100 -34c9 -6 13 -16 13 -26c0 -5 -1 -10 -3 -15z" />
    <glyph glyph-name="s" unicode="s" horiz-adv-x="439" 
d="M75 247c0 -111 314 -147 314 -298c0 -101 -93 -148 -191 -148c-52 0 -140 19 -183 67c-7 8 -11 18 -11 28c0 9 4 19 11 26l1 1c7 7 16 10 25 10c15 0 29 -9 35 -24c19 -51 57 -90 122 -90h2c18 0 125 3 125 103c0 130 -316 158 -316 304c0 85 92 133 181 133
c78 0 151 -39 177 -80c5 -9 8 -17 8 -24c0 -9 -4 -17 -11 -24c-7 -6 -15 -9 -23 -9c-14 0 -28 8 -33 24c-16 47 -54 95 -123 95c-25 0 -110 -14 -110 -94z" />
    <glyph glyph-name="t" unicode="t" horiz-adv-x="215" 
d="M160 -165c1 -1 2 -2 2 -3c0 -3 -3 -6 -3 -6c-6 -10 -22 -26 -51 -26c-45 0 -73 24 -73 71v470h-26c-5 0 -9 4 -9 9s4 9 9 9h26v115c0 6 3 12 8 15l51 39c2 2 4 2 6 2c5 0 9 -3 9 -9v-162h40c5 0 9 -4 9 -9s-4 -9 -9 -9h-40v-489c0 -22 13 -29 25 -29c6 0 13 3 18 8
c1 1 4 5 6 5c1 0 1 0 2 -1z" />
    <glyph glyph-name="u" unicode="u" horiz-adv-x="551" 
d="M493 -181c4 -1 8 -4 8 -9v-1c0 -5 -5 -9 -10 -9h-99v145c-2 -3 -3 -6 -4 -9c-29 -64 -92 -136 -203 -136c-86 0 -149 56 -149 148l-1 297c0 14 -11 26 -26 26c-5 0 -9 4 -9 9c0 3 1 6 4 7l90 70c2 1 3 2 5 2c5 0 10 -4 10 -10v-393c0 -68 39 -128 112 -128
c85 0 170 100 171 192v225c0 14 -12 26 -27 26c-5 0 -9 4 -9 9c0 3 2 6 4 7l90 70c2 1 4 2 6 2c5 0 9 -4 9 -10v-458c0 -18 2 -64 28 -72z" />
    <glyph glyph-name="v" unicode="v" horiz-adv-x="535" 
d="M396 348v2c0 5 3 9 8 9h71c5 0 10 -5 10 -10s-4 -9 -8 -10c-32 -7 -48 -57 -54 -74l-170 -458c-2 -4 -6 -7 -10 -7s-8 3 -10 7l-159 428c-7 18 -35 93 -66 104c-5 1 -8 5 -8 9v1c0 5 5 10 10 10h126c5 0 9 -4 9 -9v-3c0 -3 -3 -7 -7 -8c-8 -3 -10 -10 -10 -20
c0 -20 12 -49 15 -58l130 -348l131 355c4 9 12 31 12 48c0 11 -3 20 -14 23c-3 1 -6 5 -6 9z" />
    <glyph glyph-name="w" unicode="w" horiz-adv-x="782" 
d="M652 359h71c5 0 9 -5 9 -10s-3 -9 -8 -10c-31 -7 -47 -57 -54 -74l-170 -458c-1 -4 -5 -7 -9 -7s-8 3 -10 7l-115 308l-114 -308c-1 -4 -5 -7 -9 -7s-8 3 -10 7l-160 428c-6 18 -35 93 -66 104c-4 1 -7 5 -7 9v1c0 5 4 10 9 10h127c4 0 8 -4 8 -9v-3c0 -3 -3 -7 -6 -8
c-8 -3 -11 -11 -11 -21c0 -20 12 -48 15 -57l130 -348l85 228l-35 94c-7 18 -35 93 -67 104c-4 1 -7 5 -7 9v1c0 5 4 10 10 10h126c5 0 8 -4 8 -9v-3c0 -3 -2 -7 -6 -8c-8 -3 -10 -10 -10 -20c0 -20 12 -49 15 -58l129 -348l132 355c4 9 12 31 12 48c0 11 -4 20 -14 23
c-4 1 -7 5 -7 9v2c0 5 4 9 9 9z" />
    <glyph glyph-name="x" unicode="x" horiz-adv-x="516" 
d="M466 349c0 -5 -4 -9 -8 -10c-32 -8 -61 -59 -71 -74l-115 -180l114 -186c9 -14 44 -70 72 -79c5 -2 8 -5 8 -10c0 -6 -5 -10 -10 -10h-124c-6 0 -11 5 -11 10c0 4 2 8 6 9c4 2 6 6 6 11c0 17 -21 49 -26 57l-104 170l-113 -177c-5 -9 -19 -31 -19 -46c0 -8 3 -13 11 -15
c4 -1 7 -5 7 -9c0 -6 -5 -10 -10 -10h-69c-6 0 -10 4 -10 10c0 5 3 8 7 10c29 8 61 60 70 74l115 180l-117 191c-9 14 -37 66 -68 74c-4 1 -7 5 -7 10s4 10 9 10h125c5 0 10 -5 10 -11c0 -4 -2 -7 -6 -9s-6 -6 -6 -11c0 -16 19 -46 24 -53l106 -173l109 171c6 9 24 36 24 52
c0 7 -3 12 -11 14c-4 1 -7 5 -7 9v1c0 5 4 10 9 10h70c5 0 10 -5 10 -10z" />
    <glyph glyph-name="y" unicode="y" horiz-adv-x="535" 
d="M404 359h71c6 0 10 -5 10 -10s-3 -9 -8 -10c-31 -7 -47 -57 -54 -74l-155 -417c-10 -30 -117 -346 -217 -346c-20 0 -34 8 -42 19c-4 7 -7 15 -7 23c0 7 2 14 5 20c0 1 1 2 1 3c8 18 25 27 42 27c7 0 15 -2 22 -5c5 -3 11 -4 18 -4c56 0 102 107 144 221v1l-160 428
c-6 18 -35 93 -66 104c-4 1 -7 5 -7 9v1c0 5 4 10 9 10h127c4 0 8 -4 8 -9v-3c0 -4 -3 -7 -6 -8c-8 -3 -11 -11 -11 -21c0 -20 12 -48 15 -57l130 -348l132 355c3 9 11 31 11 48c0 11 -3 20 -13 23c-4 1 -7 5 -7 9v2c0 5 4 9 8 9z" />
    <glyph glyph-name="z" unicode="z" horiz-adv-x="469" 
d="M394 -111h1c5 0 9 -4 9 -9v-2l-17 -78h-376c-5 0 -9 5 -9 10c0 1 0 3 1 4l323 526h-208c-40 0 -74 -26 -85 -64c-1 -4 -5 -7 -9 -7c-5 0 -9 5 -9 9v2l16 78v1l377 -1c5 0 9 -4 9 -8c0 -2 -1 -4 -2 -6l-323 -526h207c40 0 75 27 87 64c1 4 4 7 8 7z" />
    <glyph glyph-name="braceleft" unicode="{" horiz-adv-x="229" 
d="M179 702v-18c-23 0 -43 -20 -43 -43v-2l11 -254v-12c0 -74 -26 -134 -100 -142c74 -9 100 -69 100 -142v-12l-11 -254v-2c0 -24 20 -43 43 -43v-19c-64 0 -114 52 -114 115v4l9 204v16c0 60 -12 111 -69 128c-2 1 -4 3 -4 5s2 4 4 4c57 17 69 68 69 128v16l-9 204v4
c0 63 50 115 114 115z" />
    <glyph glyph-name="bar" unicode="|" horiz-adv-x="68" 
d="M18 -200h-18v856h18v-856z" />
    <glyph glyph-name="braceright" unicode="}" horiz-adv-x="229" 
d="M0 -241v19c24 0 43 19 43 43v2l-10 254v16c0 71 26 130 99 138c-73 7 -99 66 -99 138v16l10 254v2c0 23 -19 43 -43 43v18c63 0 114 -51 114 -114v-5l-8 -204v-20c0 -58 13 -107 69 -124c2 0 3 -2 3 -4s-1 -4 -3 -5c-56 -17 -69 -66 -69 -124v-20l8 -204v-5
c0 -63 -51 -114 -114 -114z" />
    <glyph glyph-name="asciitilde" unicode="~" horiz-adv-x="262" 
d="M190 61c9 5 17 13 22 23c-1 -11 -7 -22 -16 -30c-10 -8 -22 -12 -35 -12h-4c-11 0 -22 4 -32 9c-10 7 -18 15 -26 23c-8 7 -16 15 -24 19c-8 5 -17 6 -27 6c-20 -2 -37 -17 -48 -36c2 11 7 22 14 31c8 9 19 16 31 19c4 1 8 1 12 1c9 0 18 -2 26 -5c11 -6 20 -14 28 -22
c16 -16 31 -30 51 -31h7c7 0 15 1 21 5z" />
    <glyph glyph-name="exclamdown" unicode="&#xa1;" horiz-adv-x="156" 
d="M53 31c-26 0 -47 22 -47 48c0 27 21 48 47 48c27 0 48 -21 48 -48c0 -26 -21 -48 -48 -48zM54 -730c-28 0 -51 23 -51 50v5l42 613c1 5 5 8 8 8c4 0 8 -3 8 -8l43 -610v-4c0 -28 -21 -53 -50 -54z" />
    <glyph glyph-name="cent" unicode="&#xa2;" horiz-adv-x="693" 
d="M639 -32c2 -2 3 -5 3 -7s0 -3 -1 -4c-61 -96 -160 -158 -286 -158h-3v-104c0 -5 -4 -9 -8 -9h-2c-5 0 -8 4 -8 9v105c-204 12 -334 201 -334 430c0 232 126 424 334 432v105c0 4 3 8 8 8h2c4 0 8 -4 8 -8v-105c106 -1 197 -38 258 -122c13 -18 20 -37 20 -53
c0 -17 -8 -31 -26 -38c-5 -2 -11 -3 -16 -3c-22 0 -41 16 -47 38c-23 86 -90 153 -189 159v-789c14 -2 29 -4 44 -4c113 0 187 60 231 116c2 2 4 4 7 4c2 0 3 -1 5 -2zM84 273c0 -223 91 -384 250 -416v786c-138 -3 -250 -168 -250 -370z" />
    <glyph glyph-name="sterling" unicode="&#xa3;" horiz-adv-x="639" 
d="M579 -55h1c5 0 9 -5 9 -10l-8 -126c0 -5 -4 -9 -9 -9h-502c-7 0 -11 5 -11 11c0 2 0 3 1 5c50 92 50 244 50 266v137h-101c-5 0 -9 5 -9 10s4 9 9 9h101v233c0 8 2 186 187 186c74 0 118 -53 137 -82c2 -4 4 -9 4 -14c0 -7 -3 -14 -8 -19v-1c-6 -6 -13 -8 -19 -8
c-12 0 -24 7 -27 20c-11 43 -36 95 -88 95c-93 0 -111 -89 -112 -145v-265h202c5 0 9 -4 9 -9s-4 -10 -9 -10h-202v-172c0 -92 -27 -201 -45 -228h297c68 0 125 50 134 117c1 5 5 9 9 9z" />
    <glyph glyph-name="currency" unicode="&#xa4;" horiz-adv-x="393" 
d="M343 78c0 -44 -17 -84 -44 -114l35 -35l-13 -13l-35 35c-30 -27 -71 -44 -115 -44s-84 17 -114 44l-35 -35l-13 13l35 35c-28 30 -44 70 -44 114s16 85 44 115l-35 35l13 13l35 -35c30 27 70 44 114 44s85 -17 115 -44l35 35l13 -13l-35 -35c27 -30 44 -71 44 -115z
M286 -23c24 27 39 63 39 101c0 39 -15 75 -39 102c-4 5 -8 9 -13 13c-27 24 -63 39 -102 39c-38 0 -74 -15 -101 -39c-5 -4 -9 -8 -13 -13c-24 -27 -39 -63 -39 -102c0 -38 15 -74 39 -101c4 -5 8 -9 13 -13c27 -24 63 -39 101 -39c39 0 75 15 102 39c5 4 9 8 13 13z" />
    <glyph glyph-name="yen" unicode="&#xa5;" horiz-adv-x="641" 
d="M512 656h69c5 0 10 -4 10 -9s-4 -9 -9 -10c-17 -2 -43 -31 -63 -73l-188 -374v-33h148c5 0 9 -4 9 -9c0 -6 -4 -10 -9 -10h-148v-41h148c5 0 9 -4 9 -9s-4 -9 -9 -9h-148v-188c0 -18 1 -64 27 -71c5 -1 8 -5 8 -9v-1c0 -6 -4 -10 -9 -10h-126c-5 0 -9 4 -9 10v1
c0 4 3 8 7 9c27 7 28 53 28 71v188h-155c-5 0 -9 4 -9 9s4 9 9 9h155v41h-155c-5 0 -9 4 -9 10c0 5 4 9 9 9h155v15l-181 376c-8 15 -40 86 -68 89c-4 1 -8 5 -8 10s4 9 10 9h126c4 0 8 -4 8 -9v-2c0 -4 -3 -6 -6 -8c-6 -3 -8 -9 -8 -16c0 -17 12 -41 16 -48l174 -363
l181 358c9 21 14 39 14 52c0 9 -2 15 -7 17c-4 1 -6 5 -6 9c0 6 4 10 10 10z" />
    <glyph glyph-name="brokenbar" unicode="&#xa6;" horiz-adv-x="68" 
d="M18 656v-326h-18v326h18zM0 124h18v-324h-18v324z" />
    <glyph glyph-name="section" unicode="&#xa7;" horiz-adv-x="459" 
d="M409 144c0 -38 -13 -69 -34 -93c21 -26 34 -54 34 -87c0 -118 -124 -164 -206 -164c-83 0 -150 35 -197 94c-4 5 -6 12 -6 19s2 14 7 20c6 7 15 11 23 11c13 0 25 -7 30 -20c23 -61 64 -111 156 -111h3c70 1 136 46 136 119c0 31 -10 57 -26 81l-12 15
c-90 107 -308 162 -308 302c0 37 13 67 34 90c-21 26 -34 55 -34 90c0 106 110 150 194 150c85 0 141 -40 184 -98c4 -5 6 -12 6 -18s-2 -12 -7 -17c-5 -6 -12 -9 -19 -9c-13 0 -28 9 -33 27c-16 60 -55 104 -134 104h-2c-60 0 -134 -44 -134 -124c0 -26 10 -49 27 -71
c5 -6 10 -12 16 -18c92 -95 302 -162 302 -292zM64 345c0 -111 187 -175 286 -267c3 11 5 22 5 34c0 131 -183 188 -283 278c-5 -14 -8 -28 -8 -45z" />
    <glyph glyph-name="dieresis" unicode="&#xa8;" horiz-adv-x="248" 
d="M46 702c25 0 46 -20 46 -45c0 -26 -21 -46 -46 -46s-46 20 -46 46c0 25 21 45 46 45zM152 702c25 0 46 -20 46 -45c0 -26 -21 -46 -46 -46s-46 20 -46 46c0 25 21 45 46 45z" />
    <glyph glyph-name="copyright" unicode="&#xa9;" horiz-adv-x="907" 
d="M612 62c1 1 3 2 5 2c1 0 2 0 3 -1s2 -3 2 -4s0 -2 -1 -3c-39 -61 -101 -99 -181 -99c-136 0 -223 122 -223 271s82 273 218 273c68 0 127 -23 166 -77c8 -12 13 -24 13 -34c0 -8 -3 -15 -9 -20c-6 -4 -12 -5 -18 -5c-13 0 -26 8 -29 22c-14 58 -60 102 -128 102
c-89 0 -160 -105 -160 -233c0 -159 72 -267 196 -267c72 0 119 38 146 73zM429 657c236 0 428 -192 428 -428c0 -237 -192 -429 -428 -429c-237 0 -429 192 -429 429c0 236 192 428 429 428zM429 -181c226 0 410 184 410 410s-184 410 -410 410c-227 0 -410 -184 -410 -410
s183 -410 410 -410z" />
    <glyph glyph-name="ordfeminine" unicode="&#xaa;" horiz-adv-x="288" 
d="M234 369c3 0 4 -2 4 -4v-1c0 -3 -2 -5 -5 -5h-48c-2 0 -5 2 -5 5v34c-18 -19 -48 -39 -92 -39c-54 0 -88 34 -88 80c0 91 137 104 174 119c4 2 6 6 6 11v2c0 23 -1 76 -61 76c-40 0 -59 -27 -68 -46c-3 -7 -10 -11 -17 -11c-3 0 -6 1 -9 2c-6 3 -9 10 -9 16
c0 5 2 11 6 15c17 16 46 33 98 33c64 0 100 -31 100 -86v-163c0 -9 1 -34 14 -38zM180 408v144c-35 -17 -140 -29 -140 -114c0 -45 28 -66 66 -66c28 0 56 14 74 36z" />
    <glyph glyph-name="guillemotleft" unicode="&#xab;" horiz-adv-x="308" 
d="M45 79l118 -134h-28l-135 134l135 135h28zM140 79l118 -134h-28l-134 134l134 135h28z" />
    <glyph glyph-name="logicalnot" unicode="&#xac;" horiz-adv-x="491" 
d="M441 130v-103h-19v85h-422v18h441z" />
    <glyph glyph-name="registered" unicode="&#xae;" horiz-adv-x="628" 
d="M425 193c2 0 4 -2 4 -4s-2 -4 -5 -4h-14c-91 0 -67 156 -159 156h-4c-2 0 -4 2 -4 4s2 3 4 3h21c63 0 102 43 102 97c0 53 -37 96 -99 96h-24c-22 0 -22 -23 -22 -30v-288c0 -7 1 -27 12 -30c2 -1 3 -2 3 -4c0 -3 -1 -4 -3 -4h-54c-2 0 -4 1 -4 4c0 2 1 3 3 4
c12 3 12 23 12 30v288c0 7 0 27 -12 30c-2 0 -3 2 -3 4c0 3 2 4 4 4h103c66 0 116 -45 116 -104c0 -57 -39 -94 -108 -104c66 -24 80 -143 131 -148zM289 656c159 0 289 -130 289 -289s-130 -289 -289 -289c-160 0 -289 130 -289 289s129 289 289 289zM289 90
c152 0 276 124 276 277s-124 277 -276 277c-153 0 -277 -124 -277 -277s124 -277 277 -277z" />
    <glyph glyph-name="macron" unicode="&#xaf;" horiz-adv-x="241" 
d="M191 665v-18h-191v18h191z" />
    <glyph glyph-name="degree" unicode="&#xb0;" horiz-adv-x="212" 
d="M81 575c-45 0 -81 37 -81 82c0 44 36 81 81 81s81 -37 81 -81c0 -45 -36 -82 -81 -82zM81 719c-35 0 -63 -28 -63 -62c0 -35 28 -63 63 -63s63 28 63 63c0 34 -28 62 -63 62z" />
    <glyph glyph-name="plusminus" unicode="&#xb1;" horiz-adv-x="491" 
d="M230 112h211v-19h-211v-211h-18v211h-212v19h212v211h18v-211zM0 -146h441v-19h-441v19z" />
    <glyph glyph-name="twosuperior" unicode="&#xb2;" horiz-adv-x="215" 
d="M165 574v-1c0 -84 -125 -117 -155 -188h127c7 0 13 4 15 10c0 2 2 2 3 2c2 0 3 -1 3 -2v-1l-5 -32c0 -2 -2 -3 -3 -3h-150c0 94 139 135 139 224c0 41 -20 67 -54 67c-26 0 -49 -22 -57 -51c-1 -5 -6 -9 -11 -9c-3 0 -6 1 -8 4c-3 2 -4 5 -4 8c0 2 1 5 2 7
c15 24 36 47 78 47c41 0 80 -32 80 -82z" />
    <glyph glyph-name="threesuperior" unicode="&#xb3;" horiz-adv-x="218" 
d="M103 527c38 -10 65 -43 65 -83c0 -54 -47 -85 -88 -85c-33 0 -61 13 -77 34c-1 2 -2 4 -2 6c0 3 2 6 4 8c2 1 4 2 6 2c4 0 8 -2 9 -6c11 -22 33 -38 60 -38c36 0 63 31 63 79c0 44 -28 79 -62 79h-9c-2 0 -3 1 -3 3s1 3 3 3h12c23 3 42 29 42 61c0 33 -20 60 -48 60
c-26 0 -37 -19 -42 -33c-2 -4 -6 -6 -10 -6c-2 0 -4 1 -6 2c0 0 0 1 -1 1c-2 2 -4 5 -4 8c0 2 1 3 2 5c8 11 27 29 61 29c44 0 73 -29 73 -66c0 -30 -20 -55 -48 -63z" />
    <glyph glyph-name="acute" unicode="&#xb4;" 
d="M126 733l19 -19l-135 -135l-10 9z" />
    <glyph glyph-name="mu" unicode="&#xb5;" horiz-adv-x="551" 
d="M109 -45c0 -34 10 -63 29 -88c19 -26 46 -39 83 -39c43 0 81 20 116 60c34 40 52 84 55 132v225c0 7 -3 14 -8 19s-12 7 -19 7c-2 0 -4 1 -6 3c-2 1 -3 3 -3 6s1 5 4 7l90 70c2 1 4 2 6 2c1 0 3 -1 6 -2c2 -1 3 -4 3 -8v-458c0 -6 1 -14 2 -25s3 -20 7 -29s10 -15 19 -18
c5 -1 8 -4 8 -9v-1c0 -3 -1 -5 -3 -6c-2 -2 -4 -3 -7 -3h-99v145c-1 -3 -3 -6 -4 -9c-10 -21 -24 -42 -41 -63c-18 -21 -40 -39 -67 -52c-27 -14 -58 -21 -95 -21c-29 0 -54 6 -76 18v-41c0 -6 1 -14 2 -25s3 -20 7 -29s10 -15 19 -18c5 -1 7 -4 7 -9v-1c0 -3 -1 -5 -2 -6
c-2 -2 -4 -3 -7 -3h-126c-3 0 -5 1 -6 3c-2 1 -3 3 -3 6v1c0 5 2 8 7 9c9 3 16 9 20 18s6 18 7 29s1 19 1 25v468c0 7 -2 14 -7 19s-12 7 -19 7c-3 0 -5 1 -6 3c-2 1 -3 3 -3 6s1 5 4 7l90 70c2 1 4 2 6 2c1 0 3 -1 6 -2c2 -1 3 -4 3 -8v-394z" />
    <glyph glyph-name="paragraph" unicode="&#xb6;" horiz-adv-x="442" 
d="M392 656v-18h-40v-838h-19v838h-35v-838h-18v576h-140c-78 0 -140 62 -140 140c0 77 62 140 140 140h252z" />
    <glyph glyph-name="periodcentered" unicode="&#xb7;" horiz-adv-x="146" 
d="M96 231c0 -27 -21 -48 -48 -48c-26 0 -48 21 -48 48c0 26 22 48 48 48c27 0 48 -22 48 -48z" />
    <glyph glyph-name="periodcentered" unicode="&#x2219;" horiz-adv-x="146" 
d="M96 231c0 -27 -21 -48 -48 -48c-26 0 -48 21 -48 48c0 26 22 48 48 48c27 0 48 -22 48 -48z" />
    <glyph glyph-name="cedilla" unicode="&#xb8;" horiz-adv-x="203" 
d="M153 -294c0 -33 -39 -59 -88 -59c-24 0 -49 8 -65 18l13 22c8 -12 31 -25 55 -25c38 0 54 18 54 42c0 44 -60 46 -71 46h-2l11 63h33l-24 -48c51 0 84 -27 84 -59z" />
    <glyph glyph-name="onesuperior" unicode="&#xb9;" horiz-adv-x="100" 
d="M50 362c0 -2 -1 -3 -3 -3h-43c-2 0 -4 1 -4 3v1c0 1 1 2 3 3c9 2 10 18 10 24v224c0 6 -5 8 -9 8c-2 1 -3 2 -3 4c0 0 0 1 1 2l29 27c1 1 2 1 3 1c2 0 4 -1 4 -4v-262c0 -6 1 -22 10 -24c1 -1 2 -2 2 -3v-1z" />
    <glyph glyph-name="ordmasculine" unicode="&#xba;" horiz-adv-x="225" 
d="M88 656c48 0 87 -66 87 -148s-39 -149 -87 -149c-49 0 -88 67 -88 149s39 148 88 148zM88 365c33 0 61 64 61 143c0 78 -28 142 -61 142c-34 0 -61 -64 -61 -142c0 -79 27 -143 61 -143z" />
    <glyph glyph-name="guillemotright" unicode="&#xbb;" horiz-adv-x="308" 
d="M214 79l-118 135h28l134 -135l-134 -134h-28zM118 79l-118 135h28l135 -135l-135 -134h-28z" />
    <glyph glyph-name="onequarter" unicode="&#xbc;" horiz-adv-x="528" 
d="M407 656h20l-407 -856h-20zM74 229h-63c-3 0 -5 2 -5 4v1c0 2 2 4 4 4c13 4 14 27 14 36v322c0 7 -7 10 -13 11c-3 1 -4 3 -4 6c0 1 0 2 1 3l42 39c1 1 3 2 4 2c4 0 7 -3 7 -7v-376c0 -9 1 -32 14 -36c2 0 3 -2 3 -4v-1c0 -2 -2 -4 -4 -4zM474 -190c2 -1 4 -2 4 -4v-1
c0 -3 -2 -5 -5 -5h-63c-2 0 -4 2 -4 5s1 4 3 5c14 3 14 27 14 36v88h-157c-5 0 -9 5 -9 9c0 2 0 4 1 5c21 36 73 140 88 284c1 13 11 22 24 22h4c12 -3 20 -14 20 -26c0 -2 -1 -4 -1 -6c-18 -64 -52 -167 -128 -278h158v230c0 2 1 4 3 4l28 13h2c2 0 4 -2 4 -5v-242h13
c3 0 5 -3 5 -5c0 -3 -2 -5 -5 -5h-13v-88c0 -9 1 -32 14 -36z" />
    <glyph glyph-name="onehalf" unicode="&#xbd;" horiz-adv-x="551" 
d="M407 656h21l-407 -856h-21zM74 229h-63c-2 0 -4 2 -4 4v1c0 2 1 4 3 4c14 4 14 27 14 36v322c0 7 -6 10 -13 11c-2 1 -4 3 -4 5c0 1 1 3 2 4l42 39c1 1 3 2 4 2c3 0 6 -3 6 -7v-376c0 -9 1 -32 14 -36c2 0 4 -2 4 -4v-1c0 -2 -2 -4 -5 -4zM501 109v-1
c0 -120 -179 -168 -222 -271h183c9 0 18 6 21 15c0 2 2 4 4 4c3 0 5 -3 5 -6l-8 -46c0 -2 -2 -4 -4 -4h-215c0 136 199 194 199 322c0 59 -29 97 -78 97c-37 0 -71 -31 -81 -73c-2 -8 -9 -13 -17 -13c-4 0 -8 2 -11 5c-4 4 -6 8 -6 13c0 3 1 6 3 9c22 34 51 68 112 68
c60 0 115 -47 115 -119z" />
    <glyph glyph-name="threequarters" unicode="&#xbe;" horiz-adv-x="614" 
d="M242 351c0 -78 -67 -122 -127 -122c-47 0 -87 19 -110 48c-2 3 -3 6 -3 9c0 4 2 9 6 12c3 2 6 3 9 3c5 0 10 -3 13 -8c15 -33 47 -55 85 -55c53 0 91 43 91 113c0 63 -40 114 -89 114h-13c-3 0 -5 2 -5 4c0 3 2 5 5 5h17c34 3 60 41 60 86c0 48 -28 87 -68 87
c-37 0 -54 -27 -61 -47c-3 -6 -8 -9 -14 -9c-3 0 -6 1 -9 3c0 1 -1 1 -1 1c-4 3 -5 7 -5 11c0 3 0 6 2 9c11 15 39 41 88 41c62 0 105 -42 105 -95c0 -43 -29 -79 -69 -91c54 -14 93 -62 93 -119zM493 656h21l-407 -856h-21zM561 -190c2 -1 3 -2 3 -4v-1c0 -3 -2 -5 -4 -5
h-63c-3 0 -5 2 -5 5s2 4 4 5c13 3 14 27 14 36v88h-158c-5 0 -9 5 -9 10c0 1 0 3 1 4c21 36 74 140 88 284c1 13 12 22 24 22h4c12 -3 20 -13 20 -25c0 -2 0 -5 -1 -7c-18 -64 -52 -167 -128 -278h159v230c0 2 1 4 2 4l28 13h2c2 0 5 -2 5 -5v-242h13c2 0 4 -3 4 -5
c0 -3 -2 -5 -4 -5h-13v-88c0 -9 0 -32 14 -36z" />
    <glyph glyph-name="questiondown" unicode="&#xbf;" horiz-adv-x="513" 
d="M224 -730c-119 0 -224 83 -224 193v3c0 191 256 213 260 473c0 3 3 6 7 6s7 -3 7 -7c-3 -276 -189 -282 -189 -480c0 -80 47 -169 145 -169c74 0 141 62 162 145c4 17 18 26 33 26c8 0 16 -3 23 -9c8 -6 12 -16 12 -25c0 -7 -2 -14 -6 -20c-45 -67 -108 -136 -230 -136z
M262 31c-27 0 -48 22 -48 48c0 27 21 48 48 48c26 0 48 -21 48 -48c0 -26 -22 -48 -48 -48z" />
    <glyph glyph-name="Agrave" unicode="&#xc0;" horiz-adv-x="651" 
d="M593 -181c5 -1 8 -5 8 -9v-1c0 -5 -5 -9 -11 -9h-124c-5 0 -10 4 -10 9c0 4 3 9 7 10c10 3 13 15 13 28c0 22 -9 50 -11 60l-46 159h-287l-52 -167c-2 -9 -10 -33 -10 -52c0 -13 3 -24 13 -28c4 -2 6 -6 6 -10s-2 -9 -11 -9h-68c-6 0 -10 4 -10 9s3 9 8 10
c30 8 48 63 54 82l228 741c3 10 11 15 19 15c9 0 17 -5 20 -15l209 -722c5 -18 26 -90 55 -101zM137 84h277l-134 462zM248 852l125 -145l-9 -9l-136 135z" />
    <glyph glyph-name="Aacute" unicode="&#xc1;" horiz-adv-x="651" 
d="M593 -181c5 -1 8 -5 8 -9v-1c0 -5 -5 -9 -11 -9h-124c-5 0 -10 4 -10 9c0 4 3 9 7 10c10 3 13 15 13 28c0 22 -9 50 -11 60l-46 159h-287l-52 -167c-2 -9 -10 -33 -10 -52c0 -13 3 -24 13 -28c4 -2 6 -6 6 -10s-2 -9 -11 -9h-68c-6 0 -10 4 -10 9s3 9 8 10
c30 8 48 63 54 82l228 741c3 10 11 15 19 15c9 0 17 -5 20 -15l209 -722c5 -18 26 -90 55 -101zM137 84h277l-134 462zM355 852l19 -19l-135 -135l-10 9z" />
    <glyph glyph-name="Acircumflex" unicode="&#xc2;" horiz-adv-x="651" 
d="M593 -181c5 -1 8 -5 8 -9v-1c0 -5 -5 -9 -11 -9h-124c-5 0 -10 4 -10 9c0 4 3 9 7 10c10 3 13 15 13 28c0 22 -9 50 -11 60l-46 159h-287l-52 -167c-2 -9 -10 -33 -10 -52c0 -13 3 -24 13 -28c4 -2 6 -6 6 -10s-2 -9 -11 -9h-68c-6 0 -10 4 -10 9s3 9 8 10
c30 8 48 63 54 82l228 741c3 10 11 15 19 15c9 0 17 -5 20 -15l209 -722c5 -18 26 -90 55 -101zM137 84h277l-134 462zM408 694h-19l-80 81l-81 -81h-19l100 115z" />
    <glyph glyph-name="Atilde" unicode="&#xc3;" horiz-adv-x="651" 
d="M593 -181c5 -1 8 -5 8 -9v-1c0 -5 -5 -9 -11 -9h-124c-5 0 -10 4 -10 9c0 4 3 9 7 10c10 3 13 15 13 28c0 22 -9 50 -11 60l-46 159h-287l-52 -167c-2 -9 -10 -33 -10 -52c0 -13 3 -24 13 -28c4 -2 6 -6 6 -10s-2 -9 -11 -9h-68c-6 0 -10 4 -10 9s3 9 8 10
c30 8 48 63 54 82l228 741c3 10 11 15 19 15c9 0 17 -5 20 -15l209 -722c5 -18 26 -90 55 -101zM137 84h277l-134 462zM382 711c9 5 17 13 22 23c-1 -11 -7 -22 -16 -30c-10 -8 -22 -13 -35 -13c-12 0 -25 4 -36 10c-10 7 -18 15 -26 23c-8 7 -16 14 -24 19s-17 6 -27 6
c-20 -2 -37 -17 -48 -36c2 11 7 22 14 31c8 9 19 16 31 19c4 1 8 1 12 1c9 0 18 -2 26 -5c11 -6 20 -15 28 -22c16 -16 31 -30 51 -31h7c7 0 15 1 21 5z" />
    <glyph glyph-name="Adieresis" unicode="&#xc4;" horiz-adv-x="651" 
d="M593 -181c5 -1 8 -5 8 -9v-1c0 -5 -5 -9 -11 -9h-124c-5 0 -10 4 -10 9c0 4 3 9 7 10c10 3 13 15 13 28c0 22 -9 50 -11 60l-46 159h-287l-52 -167c-2 -9 -10 -33 -10 -52c0 -13 3 -24 13 -28c4 -2 6 -6 6 -10s-2 -9 -11 -9h-68c-6 0 -10 4 -10 9s3 9 8 10
c30 8 48 63 54 82l228 741c3 10 11 15 19 15c9 0 17 -5 20 -15l209 -722c5 -18 26 -90 55 -101zM137 84h277l-134 462zM252 789c25 0 46 -20 46 -45c0 -26 -21 -46 -46 -46s-46 20 -46 46c0 25 21 45 46 45zM358 789c25 0 46 -20 46 -45c0 -26 -21 -46 -46 -46
s-46 20 -46 46c0 25 21 45 46 45z" />
    <glyph glyph-name="Aring" unicode="&#xc5;" horiz-adv-x="651" 
d="M593 -181c5 -1 8 -5 8 -9v-1c0 -5 -5 -9 -11 -9h-124c-5 0 -10 4 -10 9c0 4 3 9 7 10c10 3 13 15 13 28c0 22 -9 50 -11 60l-46 159h-287l-52 -167c-2 -9 -10 -33 -10 -52c0 -13 3 -24 13 -28c4 -2 6 -6 6 -10s-2 -9 -11 -9h-68c-6 0 -10 4 -10 9s3 9 8 10
c30 8 48 63 54 82l228 741c3 10 11 15 19 15c9 0 17 -5 20 -15l209 -722c5 -18 26 -90 55 -101zM137 84h277l-134 462zM307 691c-45 0 -81 37 -81 82c0 44 36 81 81 81s81 -37 81 -81c0 -45 -36 -82 -81 -82zM307 835c-35 0 -63 -28 -63 -62c0 -35 28 -63 63 -63
s63 28 63 63c0 34 -28 62 -63 62z" />
    <glyph glyph-name="AE" unicode="&#xc6;" horiz-adv-x="1031" 
d="M137 84h277l-134 462zM466 -200c-3 0 -5 1 -7 3c-2 1 -3 3 -3 6c0 2 1 4 2 6s3 3 5 4c8 3 12 11 13 22v7c0 9 -1 19 -3 30c-3 11 -5 20 -7 27c-1 1 -1 1 -1 2l-46 159h-287l-52 -167v-2c-2 -6 -4 -14 -7 -25c-2 -9 -3 -17 -3 -25v-12c1 -7 5 -12 13 -16c4 -3 6 -6 6 -10
c0 -2 -1 -4 -2 -6s-4 -3 -9 -3h-68c-3 0 -5 1 -7 3c-2 1 -3 3 -3 6c0 5 3 8 8 10c10 3 19 10 26 21s13 22 18 34c5 11 8 20 10 27l228 741c4 10 11 15 20 15s15 -5 19 -15l164 -567v492c0 7 0 15 -1 25s-3 19 -7 28s-11 14 -20 17c-5 1 -7 4 -7 9v1c0 3 1 5 3 7c1 1 3 2 6 2
h488c2 0 4 -1 6 -2c2 -2 3 -4 3 -6l8 -126c0 -3 -1 -5 -2 -7c-2 -2 -4 -3 -7 -3h-1c-2 0 -4 1 -5 3c-2 1 -3 3 -4 5c-5 34 -20 62 -45 85c-25 22 -55 33 -89 33h-201c-17 0 -29 -4 -36 -13s-12 -18 -13 -28c-1 -8 -2 -15 -2 -21v-285h199c16 0 30 5 42 16c11 10 18 23 20 39
c1 2 2 4 4 6c1 1 3 2 5 2h1c3 0 5 -1 7 -3c1 -2 2 -4 2 -7v-126c0 -2 -1 -4 -2 -6c-2 -2 -4 -3 -7 -3h-1c-2 0 -4 1 -5 3c-2 1 -3 3 -4 5c-2 16 -9 29 -20 40c-12 10 -26 15 -42 15h-199v-388c0 -6 0 -14 2 -23c1 -10 6 -20 13 -29s20 -14 37 -14h209c34 0 64 11 89 33
s41 50 46 85c0 2 1 4 3 6c1 1 3 2 6 2s5 -1 7 -3c1 -2 2 -4 2 -7l-8 -126c0 -3 -1 -5 -2 -6c-2 -1 -4 -2 -7 -2h-498z" />
    <glyph glyph-name="Ccedilla" unicode="&#xc7;" horiz-adv-x="693" 
d="M336 -200c-65 3 -121 23 -169 58c-53 39 -94 91 -123 156s-44 137 -44 216s14 151 42 217c27 65 67 118 119 157c51 39 113 58 185 58c54 0 104 -10 149 -29s83 -50 114 -93c12 -17 19 -33 20 -48v-5c0 -13 -5 -23 -15 -31c-9 -6 -18 -9 -27 -9c-5 0 -13 2 -23 5
c-10 4 -18 14 -23 31c-12 46 -35 84 -70 115s-80 46 -134 46c-47 0 -89 -17 -127 -50c-39 -33 -69 -78 -92 -134s-34 -118 -34 -186c0 -84 12 -158 37 -221c24 -63 59 -113 106 -148c47 -36 103 -54 168 -54c38 0 72 6 101 17s55 26 77 44c21 17 39 36 54 55c1 1 3 2 5 3
c2 0 4 -1 6 -2s3 -3 4 -5c0 -2 0 -4 -1 -6c-31 -49 -71 -87 -119 -115c-47 -27 -100 -41 -159 -42l-15 -30c25 0 46 -6 61 -17c15 -12 23 -26 23 -42c0 -17 -8 -31 -25 -42s-38 -17 -63 -17c-24 0 -46 6 -65 18l13 22c5 -6 12 -12 22 -17s21 -8 33 -8c19 0 32 4 41 12
s13 18 13 30s-4 21 -11 28c-7 6 -16 10 -25 13s-17 4 -24 5h-13z" />
    <glyph glyph-name="Egrave" unicode="&#xc8;" horiz-adv-x="574" 
d="M514 -56c5 0 9 -4 9 -9v-1l-8 -126c0 -5 -4 -8 -9 -8h-497c-5 0 -9 4 -9 9v1c0 4 3 8 7 9c28 7 28 53 28 71v680c0 20 -1 60 -28 67c-4 1 -7 5 -7 9v1c0 5 4 9 9 9h488c5 0 9 -4 9 -8l8 -126c0 -6 -4 -10 -9 -10s-9 3 -10 8c-9 67 -66 118 -134 118h-201
c-48 0 -51 -39 -51 -62v-285h199c32 0 58 24 62 55c1 4 5 8 9 8h1c5 0 9 -5 9 -10v-126c0 -5 -4 -9 -9 -9h-1c-4 0 -8 4 -9 8c-4 31 -30 55 -62 55h-199v-384c0 -20 1 -70 53 -70h208c68 0 126 51 135 118c0 4 4 8 9 8zM215 863l125 -145l-9 -9l-136 135z" />
    <glyph glyph-name="Eacute" unicode="&#xc9;" horiz-adv-x="574" 
d="M514 -56c5 0 9 -4 9 -9v-1l-8 -126c0 -5 -4 -8 -9 -8h-497c-5 0 -9 4 -9 9v1c0 4 3 8 7 9c28 7 28 53 28 71v680c0 20 -1 60 -28 67c-4 1 -7 5 -7 9v1c0 5 4 9 9 9h488c5 0 9 -4 9 -8l8 -126c0 -6 -4 -10 -9 -10s-9 3 -10 8c-9 67 -66 118 -134 118h-201
c-48 0 -51 -39 -51 -62v-285h199c32 0 58 24 62 55c1 4 5 8 9 8h1c5 0 9 -5 9 -10v-126c0 -5 -4 -9 -9 -9h-1c-4 0 -8 4 -9 8c-4 31 -30 55 -62 55h-199v-384c0 -20 1 -70 53 -70h208c68 0 126 51 135 118c0 4 4 8 9 8zM319 863l19 -19l-135 -135l-10 9z" />
    <glyph glyph-name="Ecircumflex" unicode="&#xca;" horiz-adv-x="574" 
d="M514 -56c5 0 9 -4 9 -9v-1l-8 -126c0 -5 -4 -8 -9 -8h-497c-5 0 -9 4 -9 9v1c0 4 3 8 7 9c28 7 28 53 28 71v680c0 20 -1 60 -28 67c-4 1 -7 5 -7 9v1c0 5 4 9 9 9h488c5 0 9 -4 9 -8l8 -126c0 -6 -4 -10 -9 -10s-9 3 -10 8c-9 67 -66 118 -134 118h-201
c-48 0 -51 -39 -51 -62v-285h199c32 0 58 24 62 55c1 4 5 8 9 8h1c5 0 9 -5 9 -10v-126c0 -5 -4 -9 -9 -9h-1c-4 0 -8 4 -9 8c-4 31 -30 55 -62 55h-199v-384c0 -20 1 -70 53 -70h208c68 0 126 51 135 118c0 4 4 8 9 8zM371 718h-19l-80 81l-81 -81h-19l100 115z" />
    <glyph glyph-name="Edieresis" unicode="&#xcb;" horiz-adv-x="574" 
d="M514 -56c5 0 9 -4 9 -9v-1l-8 -126c0 -5 -4 -8 -9 -8h-497c-5 0 -9 4 -9 9v1c0 4 3 8 7 9c28 7 28 53 28 71v680c0 20 -1 60 -28 67c-4 1 -7 5 -7 9v1c0 5 4 9 9 9h488c5 0 9 -4 9 -8l8 -126c0 -6 -4 -10 -9 -10s-9 3 -10 8c-9 67 -66 118 -134 118h-201
c-48 0 -51 -39 -51 -62v-285h199c32 0 58 24 62 55c1 4 5 8 9 8h1c5 0 9 -5 9 -10v-126c0 -5 -4 -9 -9 -9h-1c-4 0 -8 4 -9 8c-4 31 -30 55 -62 55h-199v-384c0 -20 1 -70 53 -70h208c68 0 126 51 135 118c0 4 4 8 9 8zM219 802c25 0 46 -20 46 -45c0 -26 -21 -46 -46 -46
s-46 20 -46 46c0 25 21 45 46 45zM325 802c25 0 46 -20 46 -45c0 -26 -21 -46 -46 -46s-46 20 -46 46c0 25 21 45 46 45z" />
    <glyph glyph-name="Igrave" unicode="&#xcc;" 
d="M145 647v-1c0 -4 -4 -8 -8 -9c-27 -7 -28 -47 -28 -67v-680c0 -18 2 -64 28 -71c5 -1 8 -5 8 -9v-1c0 -5 -4 -9 -10 -9h-125c-5 0 -10 4 -10 9v1c0 4 4 8 8 9c27 7 28 53 28 71v680c0 20 -1 60 -28 67c-4 1 -8 5 -8 9v1c0 5 5 9 10 9h125c6 0 10 -4 10 -9zM16 843
l125 -145l-9 -9l-136 135z" />
    <glyph glyph-name="Iacute" unicode="&#xcd;" 
d="M145 647v-1c0 -4 -4 -8 -8 -9c-27 -7 -28 -47 -28 -67v-680c0 -18 2 -64 28 -71c5 -1 8 -5 8 -9v-1c0 -5 -4 -9 -10 -9h-125c-5 0 -10 4 -10 9v1c0 4 4 8 8 9c27 7 28 53 28 71v680c0 20 -1 60 -28 67c-4 1 -8 5 -8 9v1c0 5 5 9 10 9h125c6 0 10 -4 10 -9zM120 853
l19 -19l-135 -135l-10 9z" />
    <glyph glyph-name="Icircumflex" unicode="&#xce;" 
d="M145 647v-1c0 -4 -4 -8 -8 -9c-27 -7 -28 -47 -28 -67v-680c0 -18 2 -64 28 -71c5 -1 8 -5 8 -9v-1c0 -5 -4 -9 -10 -9h-125c-5 0 -10 4 -10 9v1c0 4 4 8 8 9c27 7 28 53 28 71v680c0 20 -1 60 -28 67c-4 1 -8 5 -8 9v1c0 5 5 9 10 9h125c6 0 10 -4 10 -9zM172 698h-19
l-80 81l-81 -81h-19l100 115z" />
    <glyph glyph-name="Idieresis" unicode="&#xcf;" 
d="M145 647v-1c0 -4 -4 -8 -8 -9c-27 -7 -28 -47 -28 -67v-680c0 -18 2 -64 28 -71c5 -1 8 -5 8 -9v-1c0 -5 -4 -9 -10 -9h-125c-5 0 -10 4 -10 9v1c0 4 4 8 8 9c27 7 28 53 28 71v680c0 20 -1 60 -28 67c-4 1 -8 5 -8 9v1c0 5 5 9 10 9h125c6 0 10 -4 10 -9zM20 792
c25 0 46 -20 46 -45c0 -26 -21 -46 -46 -46s-46 20 -46 46c0 25 21 45 46 45zM126 792c25 0 46 -20 46 -45c0 -26 -21 -46 -46 -46s-46 20 -46 46c0 25 21 45 46 45z" />
    <glyph glyph-name="Eth" unicode="&#xd0;" horiz-adv-x="662" 
d="M109 217v-327c0 -23 3 -39 8 -49c5 -11 11 -17 20 -19c9 -3 18 -4 27 -4h29c70 0 130 19 181 56c50 37 88 86 115 148c26 62 39 131 39 206s-13 144 -40 206s-66 112 -115 149c-50 37 -109 55 -177 55h-43c-15 0 -25 -4 -31 -13c-7 -9 -11 -18 -12 -29
c-1 -7 -1 -13 -1 -19v-341h184v-19h-184zM35 236v331c0 7 0 15 -1 25s-3 19 -7 28s-11 14 -20 17c-5 1 -7 4 -7 9v1c0 3 1 5 3 7c1 1 3 2 6 2h198c73 0 141 -17 202 -51s111 -83 148 -147s55 -141 55 -230c0 -92 -18 -170 -55 -233c-37 -64 -88 -112 -151 -145
s-134 -50 -213 -50h-184c-3 0 -5 1 -6 3c-2 1 -3 3 -3 6v1c0 4 2 7 7 9c9 3 15 9 19 18s7 18 8 29c1 10 1 18 1 24v327h-183v19h183z" />
    <glyph glyph-name="Ntilde" unicode="&#xd1;" horiz-adv-x="606" 
d="M476 656h71c5 0 9 -4 9 -9v-1c0 -4 -3 -8 -7 -9c-11 -3 -29 -16 -29 -72v-755c0 -7 -3 -11 -7 -11c-3 0 -7 3 -10 8l-449 812v-729c0 -57 17 -69 27 -72c5 -1 8 -4 8 -9s-4 -9 -9 -9h-71c-5 0 -9 4 -9 9v1c0 5 3 8 7 9c27 7 28 47 28 67v686c0 21 -1 59 -28 65
c-4 1 -7 4 -7 9v1c0 5 4 9 9 9h110l383 -699v616c0 21 -2 58 -28 64c-4 1 -7 4 -7 9v1c0 5 4 9 9 9zM372 719c9 5 17 13 22 23c-1 -11 -7 -22 -16 -30c-10 -8 -22 -13 -35 -13c-12 0 -25 4 -36 10c-10 7 -18 15 -26 23c-8 7 -16 14 -24 19s-17 6 -27 6
c-20 -2 -37 -17 -48 -36c2 11 7 22 14 31c8 9 19 16 31 19c4 1 8 1 12 1c9 0 18 -2 26 -5c11 -6 20 -15 28 -22c16 -16 31 -30 51 -31h7c7 0 15 1 21 5z" />
    <glyph glyph-name="Ograve" unicode="&#xd2;" horiz-adv-x="742" 
d="M346 663c216 0 346 -196 346 -432c0 -237 -141 -431 -346 -431c-215 0 -346 194 -346 431c0 236 131 432 346 432zM346 -182c174 0 259 186 259 413c0 226 -85 413 -259 413c-173 0 -262 -187 -262 -413c0 -227 89 -413 262 -413zM269 863l125 -145l-9 -9l-136 135z" />
    <glyph glyph-name="Oacute" unicode="&#xd3;" horiz-adv-x="742" 
d="M346 663c216 0 346 -196 346 -432c0 -237 -141 -431 -346 -431c-215 0 -346 194 -346 431c0 236 131 432 346 432zM346 -182c174 0 259 186 259 413c0 226 -85 413 -259 413c-173 0 -262 -187 -262 -413c0 -227 89 -413 262 -413zM383 853l19 -19l-135 -135l-10 9z" />
    <glyph glyph-name="Ocircumflex" unicode="&#xd4;" horiz-adv-x="742" 
d="M346 663c216 0 346 -196 346 -432c0 -237 -141 -431 -346 -431c-215 0 -346 194 -346 431c0 236 131 432 346 432zM346 -182c174 0 259 186 259 413c0 226 -85 413 -259 413c-173 0 -262 -187 -262 -413c0 -227 89 -413 262 -413zM445 698h-19l-80 81l-81 -81h-19
l100 115z" />
    <glyph glyph-name="Otilde" unicode="&#xd5;" horiz-adv-x="742" 
d="M346 663c216 0 346 -196 346 -432c0 -237 -141 -431 -346 -431c-215 0 -346 194 -346 431c0 236 131 432 346 432zM346 -182c174 0 259 186 259 413c0 226 -85 413 -259 413c-173 0 -262 -187 -262 -413c0 -227 89 -413 262 -413zM430 739c9 5 17 13 22 23
c-1 -11 -7 -22 -16 -30c-10 -8 -22 -13 -35 -13c-12 0 -25 4 -36 10c-10 7 -18 15 -26 23c-8 7 -16 14 -24 19s-17 6 -27 6c-20 -2 -37 -17 -48 -36c2 11 7 22 14 31c8 9 19 16 31 19c4 1 8 1 12 1c9 0 18 -2 26 -5c11 -6 20 -15 28 -22c16 -16 31 -30 51 -31h7
c7 0 15 1 21 5z" />
    <glyph glyph-name="Odieresis" unicode="&#xd6;" horiz-adv-x="742" 
d="M346 663c216 0 346 -196 346 -432c0 -237 -141 -431 -346 -431c-215 0 -346 194 -346 431c0 236 131 432 346 432zM346 -182c174 0 259 186 259 413c0 226 -85 413 -259 413c-173 0 -262 -187 -262 -413c0 -227 89 -413 262 -413zM293 802c25 0 46 -20 46 -45
c0 -26 -21 -46 -46 -46s-46 20 -46 46c0 25 21 45 46 45zM399 802c25 0 46 -20 46 -45c0 -26 -21 -46 -46 -46s-46 20 -46 46c0 25 21 45 46 45z" />
    <glyph glyph-name="multiply" unicode="&#xd7;" horiz-adv-x="375" 
d="M325 228l-149 -150l149 -149l-13 -13l-149 149l-150 -149l-13 13l150 149l-150 150l13 13l150 -150l149 150z" />
    <glyph glyph-name="Oslash" unicode="&#xd8;" horiz-adv-x="742" 
d="M692 231c0 -233 -137 -425 -337 -431v-104c0 -5 -3 -9 -8 -9h-2c-4 0 -8 4 -8 9v104c-210 6 -337 197 -337 431c0 233 127 426 337 432v105c0 4 4 8 8 8h2c5 0 8 -4 8 -8v-105c210 -6 337 -199 337 -432zM84 231c0 -223 86 -406 253 -412v825
c-167 -6 -253 -191 -253 -413zM355 644v-825c168 6 250 189 250 412c0 222 -82 407 -250 413z" />
    <glyph glyph-name="Ugrave" unicode="&#xd9;" horiz-adv-x="661" 
d="M531 656h71c5 0 9 -4 9 -9v-1c0 -4 -2 -8 -6 -9c-11 -3 -29 -14 -29 -67v-488c0 -159 -108 -282 -264 -282h-9c-150 0 -267 104 -267 280v490c0 20 -1 60 -28 67c-4 1 -8 5 -8 9v1c0 5 4 9 10 9h125c6 0 10 -4 10 -9v-1c0 -4 -4 -8 -8 -9c-27 -7 -28 -47 -28 -67v-521
c0 -136 92 -234 215 -234c133 0 234 122 234 254v501c0 20 -1 60 -28 67c-5 1 -8 5 -8 9v1c0 5 4 9 9 9zM279 853l125 -145l-9 -9l-136 135z" />
    <glyph glyph-name="Uacute" unicode="&#xda;" horiz-adv-x="661" 
d="M531 656h71c5 0 9 -4 9 -9v-1c0 -4 -2 -8 -6 -9c-11 -3 -29 -14 -29 -67v-488c0 -159 -108 -282 -264 -282h-9c-150 0 -267 104 -267 280v490c0 20 -1 60 -28 67c-4 1 -8 5 -8 9v1c0 5 4 9 10 9h125c6 0 10 -4 10 -9v-1c0 -4 -4 -8 -8 -9c-27 -7 -28 -47 -28 -67v-521
c0 -136 92 -234 215 -234c133 0 234 122 234 254v501c0 20 -1 60 -28 67c-5 1 -8 5 -8 9v1c0 5 4 9 9 9zM373 863l19 -19l-135 -135l-10 9z" />
    <glyph glyph-name="Ucircumflex" unicode="&#xdb;" horiz-adv-x="661" 
d="M531 656h71c5 0 9 -4 9 -9v-1c0 -4 -2 -8 -6 -9c-11 -3 -29 -14 -29 -67v-488c0 -159 -108 -282 -264 -282h-9c-150 0 -267 104 -267 280v490c0 20 -1 60 -28 67c-4 1 -8 5 -8 9v1c0 5 4 9 10 9h125c6 0 10 -4 10 -9v-1c0 -4 -4 -8 -8 -9c-27 -7 -28 -47 -28 -67v-521
c0 -136 92 -234 215 -234c133 0 234 122 234 254v501c0 20 -1 60 -28 67c-5 1 -8 5 -8 9v1c0 5 4 9 9 9zM445 708h-19l-80 81l-81 -81h-19l100 115z" />
    <glyph glyph-name="Udieresis" unicode="&#xdc;" horiz-adv-x="661" 
d="M531 656h71c5 0 9 -4 9 -9v-1c0 -4 -2 -8 -6 -9c-11 -3 -29 -14 -29 -67v-488c0 -159 -108 -282 -264 -282h-9c-150 0 -267 104 -267 280v490c0 20 -1 60 -28 67c-4 1 -8 5 -8 9v1c0 5 4 9 10 9h125c6 0 10 -4 10 -9v-1c0 -4 -4 -8 -8 -9c-27 -7 -28 -47 -28 -67v-521
c0 -136 92 -234 215 -234c133 0 234 122 234 254v501c0 20 -1 60 -28 67c-5 1 -8 5 -8 9v1c0 5 4 9 9 9zM293 792c25 0 46 -20 46 -45c0 -26 -21 -46 -46 -46s-46 20 -46 46c0 25 21 45 46 45zM399 792c25 0 46 -20 46 -45c0 -26 -21 -46 -46 -46s-46 20 -46 46
c0 25 21 45 46 45z" />
    <glyph glyph-name="Yacute" unicode="&#xdd;" horiz-adv-x="641" 
d="M502 646c0 6 5 10 10 10h69c6 0 10 -4 10 -9s-3 -9 -8 -10c-18 -3 -43 -31 -63 -73l-189 -375v-299c0 -18 2 -64 28 -71c4 -1 7 -5 7 -9v-1c0 -5 -4 -9 -9 -9h-126c-5 0 -9 4 -9 9v1c0 4 3 8 7 9c27 7 28 53 28 71v282l-181 376c-8 15 -40 86 -68 89c-4 1 -8 5 -8 10
s4 9 10 9h126c4 0 8 -4 8 -9v-2c0 -4 -3 -6 -6 -8c-6 -3 -8 -9 -8 -16c0 -17 12 -41 16 -49l174 -362l181 358c9 21 14 39 14 52c0 9 -2 15 -7 17c-4 1 -6 5 -6 9zM383 843l19 -19l-135 -135l-10 9z" />
    <glyph glyph-name="Thorn" unicode="&#xde;" horiz-adv-x="573" 
d="M109 184h100c147 0 240 101 240 226c0 126 -87 227 -232 227h-58c-49 0 -50 -50 -50 -70v-383zM109 656h143c77 0 141 -24 193 -72s78 -106 78 -174c0 -45 -11 -86 -32 -123c-22 -37 -54 -67 -95 -89c-42 -22 -93 -33 -153 -33h-134v-275c0 -6 1 -14 2 -24
c1 -11 3 -20 7 -29s10 -15 19 -18c5 -1 8 -4 8 -9v-1c0 -3 -1 -5 -3 -6c-2 -2 -4 -3 -7 -3h-125c-3 0 -5 1 -7 3c-2 1 -3 3 -3 6v1c0 5 3 8 8 9c9 3 15 9 19 18s7 18 8 29c1 10 1 18 1 24v821c0 7 0 15 -1 25s-4 19 -7 28c-4 9 -11 14 -20 17c-5 1 -8 4 -8 9v1c0 3 1 5 3 7
c2 1 4 2 7 2h125c3 0 5 -1 7 -2c2 -2 3 -4 3 -7v-1c0 -2 -1 -4 -2 -5c-2 -2 -4 -3 -6 -4c-9 -3 -16 -8 -19 -16c-4 -9 -6 -18 -7 -27c-1 -10 -2 -18 -2 -25v-57z" />
    <glyph glyph-name="germandbls" unicode="&#xdf;" horiz-adv-x="603" 
d="M323 283c165 -23 230 -129 230 -237c0 -136 -104 -246 -260 -246h-120c-5 0 -9 4 -9 10c0 5 4 9 9 9h79c124 0 228 100 228 225c0 224 -255 225 -311 225c-6 0 -10 4 -10 9s4 9 9 9c47 0 261 4 261 178c0 96 -80 174 -189 174h-77c-50 0 -54 -39 -54 -63v-766
c0 -6 -4 -10 -10 -10h-90c-5 0 -9 4 -9 10v1c0 4 3 8 7 9c27 7 28 53 28 71v640c0 69 57 126 126 126h113c130 0 229 -81 229 -192c0 -85 -61 -162 -180 -182z" />
    <glyph glyph-name="agrave" unicode="&#xe0;" horiz-adv-x="496" 
d="M439 -181c4 -1 7 -4 7 -9v-1c0 -5 -4 -9 -9 -9h-90c-5 0 -10 4 -10 9v64c-34 -36 -90 -73 -173 -73c-101 0 -164 64 -164 150c0 171 256 196 325 225c8 3 12 10 12 19v4c0 43 -2 142 -115 142c-74 0 -111 -49 -127 -85c-6 -13 -19 -21 -32 -21c-6 0 -12 1 -17 4
c-12 6 -17 18 -17 30c0 9 3 19 11 27c32 32 86 64 185 64c119 0 186 -60 186 -163v-305c0 -18 2 -64 28 -72zM337 -107v269c-65 -31 -264 -54 -264 -214c0 -85 54 -124 124 -124c53 0 106 27 140 69zM173 542l125 -145l-9 -9l-136 135z" />
    <glyph glyph-name="aacute" unicode="&#xe1;" horiz-adv-x="496" 
d="M439 -181c4 -1 7 -4 7 -9v-1c0 -5 -4 -9 -9 -9h-90c-5 0 -10 4 -10 9v64c-34 -36 -90 -73 -173 -73c-101 0 -164 64 -164 150c0 171 256 196 325 225c8 3 12 10 12 19v4c0 43 -2 142 -115 142c-74 0 -111 -49 -127 -85c-6 -13 -19 -21 -32 -21c-6 0 -12 1 -17 4
c-12 6 -17 18 -17 30c0 9 3 19 11 27c32 32 86 64 185 64c119 0 186 -60 186 -163v-305c0 -18 2 -64 28 -72zM337 -107v269c-65 -31 -264 -54 -264 -214c0 -85 54 -124 124 -124c53 0 106 27 140 69zM257 542l19 -19l-135 -135l-10 9z" />
    <glyph glyph-name="acircumflex" unicode="&#xe2;" horiz-adv-x="496" 
d="M439 -181c4 -1 7 -4 7 -9v-1c0 -5 -4 -9 -9 -9h-90c-5 0 -10 4 -10 9v64c-34 -36 -90 -73 -173 -73c-101 0 -164 64 -164 150c0 171 256 196 325 225c8 3 12 10 12 19v4c0 43 -2 142 -115 142c-74 0 -111 -49 -127 -85c-6 -13 -19 -21 -32 -21c-6 0 -12 1 -17 4
c-12 6 -17 18 -17 30c0 9 3 19 11 27c32 32 86 64 185 64c119 0 186 -60 186 -163v-305c0 -18 2 -64 28 -72zM337 -107v269c-65 -31 -264 -54 -264 -214c0 -85 54 -124 124 -124c53 0 106 27 140 69zM309 397h-19l-80 81l-81 -81h-19l100 115z" />
    <glyph glyph-name="atilde" unicode="&#xe3;" horiz-adv-x="496" 
d="M439 -181c4 -1 7 -4 7 -9v-1c0 -5 -4 -9 -9 -9h-90c-5 0 -10 4 -10 9v64c-34 -36 -90 -73 -173 -73c-101 0 -164 64 -164 150c0 171 256 196 325 225c8 3 12 10 12 19v4c0 43 -2 142 -115 142c-74 0 -111 -49 -127 -85c-6 -13 -19 -21 -32 -21c-6 0 -12 1 -17 4
c-12 6 -17 18 -17 30c0 9 3 19 11 27c32 32 86 64 185 64c119 0 186 -60 186 -163v-305c0 -18 2 -64 28 -72zM337 -107v269c-65 -31 -264 -54 -264 -214c0 -85 54 -124 124 -124c53 0 106 27 140 69zM294 418c9 5 17 13 22 23c-1 -11 -7 -22 -16 -30c-10 -8 -22 -13 -35 -13
c-12 0 -25 4 -36 10c-10 7 -18 15 -26 23c-8 7 -16 14 -24 19s-17 6 -27 6c-20 -2 -37 -17 -48 -36c2 11 7 22 14 31c8 9 19 16 31 19c4 1 8 1 12 1c9 0 18 -2 26 -5c11 -6 20 -15 28 -22c16 -16 31 -30 51 -31h7c7 0 15 1 21 5z" />
    <glyph glyph-name="adieresis" unicode="&#xe4;" horiz-adv-x="496" 
d="M439 -181c4 -1 7 -4 7 -9v-1c0 -5 -4 -9 -9 -9h-90c-5 0 -10 4 -10 9v64c-34 -36 -90 -73 -173 -73c-101 0 -164 64 -164 150c0 171 256 196 325 225c8 3 12 10 12 19v4c0 43 -2 142 -115 142c-74 0 -111 -49 -127 -85c-6 -13 -19 -21 -32 -21c-6 0 -12 1 -17 4
c-12 6 -17 18 -17 30c0 9 3 19 11 27c32 32 86 64 185 64c119 0 186 -60 186 -163v-305c0 -18 2 -64 28 -72zM337 -107v269c-65 -31 -264 -54 -264 -214c0 -85 54 -124 124 -124c53 0 106 27 140 69zM167 491c25 0 46 -20 46 -45c0 -26 -21 -46 -46 -46s-46 20 -46 46
c0 25 21 45 46 45zM273 491c25 0 46 -20 46 -45c0 -26 -21 -46 -46 -46s-46 20 -46 46c0 25 21 45 46 45z" />
    <glyph glyph-name="aring" unicode="&#xe5;" horiz-adv-x="496" 
d="M439 -181c4 -1 7 -4 7 -9v-1c0 -5 -4 -9 -9 -9h-90c-5 0 -10 4 -10 9v64c-34 -36 -90 -73 -173 -73c-101 0 -164 64 -164 150c0 171 256 196 325 225c8 3 12 10 12 19v4c0 43 -2 142 -115 142c-74 0 -111 -49 -127 -85c-6 -13 -19 -21 -32 -21c-6 0 -12 1 -17 4
c-12 6 -17 18 -17 30c0 9 3 19 11 27c32 32 86 64 185 64c119 0 186 -60 186 -163v-305c0 -18 2 -64 28 -72zM337 -107v269c-65 -31 -264 -54 -264 -214c0 -85 54 -124 124 -124c53 0 106 27 140 69zM220 394c-45 0 -81 37 -81 82c0 44 36 81 81 81s81 -37 81 -81
c0 -45 -36 -82 -81 -82zM220 538c-35 0 -63 -28 -63 -62c0 -35 28 -63 63 -63s63 28 63 63c0 34 -28 62 -63 62z" />
    <glyph glyph-name="ae" unicode="&#xe6;" horiz-adv-x="839" 
d="M337 -107v269c-13 -6 -31 -12 -53 -19c-29 -9 -60 -20 -92 -34c-33 -15 -61 -35 -84 -60s-35 -59 -35 -101s12 -73 36 -93c24 -21 53 -31 88 -31c53 0 100 23 140 69zM572 340c-45 0 -81 -17 -108 -52s-44 -83 -49 -144h301c-3 33 -10 65 -23 95c-13 29 -29 54 -50 73
s-45 28 -71 28zM412 -130c0 -1 0 -3 1 -4c1 -11 3 -20 7 -29s10 -15 19 -18c5 -1 7 -4 7 -9v-1c0 -3 -1 -5 -2 -6c-2 -2 -4 -3 -7 -3h-90c-3 0 -5 1 -7 3c-2 1 -3 3 -3 6v64c-17 -19 -39 -35 -68 -50s-64 -23 -105 -23c-51 0 -91 14 -120 43s-44 64 -44 107c0 35 9 64 27 87
c17 23 40 43 68 58c27 15 56 28 86 38c30 9 58 17 84 24c25 6 45 12 60 18c8 4 12 10 12 19c0 10 0 23 -1 40c-1 16 -5 32 -12 48s-19 30 -34 41c-16 11 -39 17 -68 17c-25 0 -45 -4 -62 -13s-31 -21 -41 -34c-11 -13 -19 -26 -24 -38c-4 -10 -11 -16 -20 -19
c-4 -1 -8 -2 -12 -2c-6 0 -12 1 -17 4c-10 6 -16 15 -17 27v4c0 10 3 18 11 26c16 17 39 32 68 45s68 19 117 19c60 0 106 -14 138 -43c14 -13 25 -27 33 -44c14 19 31 35 50 49c35 25 78 38 129 38c38 0 70 -8 97 -23c26 -15 47 -34 64 -57s29 -47 38 -71
c8 -24 13 -45 15 -64c0 -5 -1 -9 -4 -12c-3 -4 -8 -6 -13 -6h-359v-25c0 -48 7 -92 22 -131c15 -40 37 -72 66 -95s65 -35 108 -35c26 0 50 4 73 12c22 7 43 22 63 43c2 1 4 2 6 2c1 0 3 -1 5 -2c1 -1 2 -3 2 -4c0 -2 -1 -4 -2 -6c-18 -23 -42 -43 -73 -60s-65 -25 -104 -25
c-51 0 -94 13 -129 38c-14 9 -27 20 -38 32z" />
    <glyph glyph-name="ccedilla" unicode="&#xe7;" horiz-adv-x="470" 
d="M219 -199c-42 3 -78 15 -109 37c-36 25 -63 58 -82 101c-19 42 -28 89 -28 140s9 98 27 141c17 42 44 76 79 101s78 38 130 38c33 0 65 -7 96 -22s56 -33 76 -56c5 -6 8 -13 8 -21s-2 -15 -7 -22c-7 -9 -15 -13 -25 -13c-1 0 -5 0 -11 1c-7 1 -13 7 -19 18
c-12 27 -27 50 -45 69c-19 18 -44 27 -77 27c-49 0 -88 -22 -116 -66c-29 -44 -43 -102 -43 -173c0 -48 8 -92 23 -131c15 -40 37 -72 66 -95s65 -35 108 -35c26 0 50 4 73 12c22 7 43 22 63 43c1 1 3 2 5 2s4 -1 5 -2s2 -3 3 -4c0 -2 -1 -4 -2 -6c-19 -23 -43 -43 -73 -60
c-29 -15 -61 -24 -96 -25l-18 -35c25 0 46 -6 61 -17c15 -12 23 -26 23 -42c0 -17 -8 -31 -25 -42s-38 -17 -63 -17c-24 0 -46 6 -65 18l13 22c5 -6 12 -12 22 -17s21 -8 33 -8c19 0 32 4 41 12s13 18 13 30s-4 21 -11 28c-7 6 -16 10 -25 13s-17 4 -24 5h-13z" />
    <glyph glyph-name="egrave" unicode="&#xe8;" horiz-adv-x="501" 
d="M411 -103c2 0 4 0 5 -2c2 -1 3 -3 3 -6c0 -1 -1 -3 -2 -4c-36 -46 -100 -85 -177 -85c-152 0 -240 125 -240 279c0 155 81 280 236 280c151 0 205 -143 214 -215v-2c0 -8 -8 -16 -17 -16h-359c0 -8 -1 -17 -1 -25c0 -144 69 -261 197 -261c52 0 96 12 136 55c1 1 3 2 5 2
zM232 340c-89 0 -146 -77 -157 -196h301c-6 98 -65 196 -144 196zM166 552l125 -145l-9 -9l-136 135z" />
    <glyph glyph-name="eacute" unicode="&#xe9;" horiz-adv-x="501" 
d="M411 -103c2 0 4 0 5 -2c2 -1 3 -3 3 -6c0 -1 -1 -3 -2 -4c-36 -46 -100 -85 -177 -85c-152 0 -240 125 -240 279c0 155 81 280 236 280c151 0 205 -143 214 -215v-2c0 -8 -8 -16 -17 -16h-359c0 -8 -1 -17 -1 -25c0 -144 69 -261 197 -261c52 0 96 12 136 55c1 1 3 2 5 2
zM232 340c-89 0 -146 -77 -157 -196h301c-6 98 -65 196 -144 196zM270 542l19 -19l-135 -135l-10 9z" />
    <glyph glyph-name="ecircumflex" unicode="&#xea;" horiz-adv-x="501" 
d="M411 -103c2 0 4 0 5 -2c2 -1 3 -3 3 -6c0 -1 -1 -3 -2 -4c-36 -46 -100 -85 -177 -85c-152 0 -240 125 -240 279c0 155 81 280 236 280c151 0 205 -143 214 -215v-2c0 -8 -8 -16 -17 -16h-359c0 -8 -1 -17 -1 -25c0 -144 69 -261 197 -261c52 0 96 12 136 55c1 1 3 2 5 2
zM232 340c-89 0 -146 -77 -157 -196h301c-6 98 -65 196 -144 196zM332 397h-19l-80 81l-81 -81h-19l100 115z" />
    <glyph glyph-name="edieresis" unicode="&#xeb;" horiz-adv-x="501" 
d="M411 -103c2 0 4 0 5 -2c2 -1 3 -3 3 -6c0 -1 -1 -3 -2 -4c-36 -46 -100 -85 -177 -85c-152 0 -240 125 -240 279c0 155 81 280 236 280c151 0 205 -143 214 -215v-2c0 -8 -8 -16 -17 -16h-359c0 -8 -1 -17 -1 -25c0 -144 69 -261 197 -261c52 0 96 12 136 55c1 1 3 2 5 2
zM232 340c-89 0 -146 -77 -157 -196h301c-6 98 -65 196 -144 196zM180 491c25 0 46 -20 46 -45c0 -26 -21 -46 -46 -46s-46 20 -46 46c0 25 21 45 46 45zM286 491c25 0 46 -20 46 -45c0 -26 -21 -46 -46 -46s-46 20 -46 46c0 25 21 45 46 45z" />
    <glyph glyph-name="igrave" unicode="&#xec;" horiz-adv-x="194" 
d="M137 -181c4 -1 7 -4 7 -9v-1c0 -5 -4 -9 -9 -9h-126c-5 0 -9 4 -9 9v1c0 5 3 8 7 9c27 7 28 54 28 72v354c0 14 -12 26 -26 26c-5 0 -9 4 -9 9c0 3 1 5 3 7l91 70c2 1 3 2 5 2c5 0 10 -4 10 -10v-458c0 -18 2 -64 28 -72zM7 542l125 -145l-9 -9l-136 135z" />
    <glyph glyph-name="iacute" unicode="&#xed;" horiz-adv-x="194" 
d="M137 -181c4 -1 7 -4 7 -9v-1c0 -5 -4 -9 -9 -9h-126c-5 0 -9 4 -9 9v1c0 5 3 8 7 9c27 7 28 54 28 72v354c0 14 -12 26 -26 26c-5 0 -9 4 -9 9c0 3 1 5 3 7l91 70c2 1 3 2 5 2c5 0 10 -4 10 -10v-458c0 -18 2 -64 28 -72zM95 527l19 -19l-135 -135l-10 9z" />
    <glyph glyph-name="icircumflex" unicode="&#xee;" horiz-adv-x="194" 
d="M137 -181c4 -1 7 -4 7 -9v-1c0 -5 -4 -9 -9 -9h-126c-5 0 -9 4 -9 9v1c0 5 3 8 7 9c27 7 28 54 28 72v354c0 14 -12 26 -26 26c-5 0 -9 4 -9 9c0 3 1 5 3 7l91 70c2 1 3 2 5 2c5 0 10 -4 10 -10v-458c0 -18 2 -64 28 -72zM162 388h-19l-80 81l-81 -81h-19l100 115z" />
    <glyph glyph-name="idieresis" unicode="&#xef;" horiz-adv-x="194" 
d="M137 -181c4 -1 7 -4 7 -9v-1c0 -5 -4 -9 -9 -9h-126c-5 0 -9 4 -9 9v1c0 5 3 8 7 9c27 7 28 54 28 72v354c0 14 -12 26 -26 26c-5 0 -9 4 -9 9c0 3 1 5 3 7l91 70c2 1 3 2 5 2c5 0 10 -4 10 -10v-458c0 -18 2 -64 28 -72zM15 489c25 0 46 -20 46 -45
c0 -26 -21 -46 -46 -46s-46 20 -46 46c0 25 21 45 46 45zM121 489c25 0 46 -20 46 -45c0 -26 -21 -46 -46 -46s-46 20 -46 46c0 25 21 45 46 45z" />
    <glyph glyph-name="eth" unicode="&#xf0;" horiz-adv-x="537" 
d="M378 -17v226c-14 98 -77 131 -141 131c-90 0 -163 -117 -163 -261s69 -251 169 -251c60 0 135 63 135 155zM452 441v-550c0 -6 1 -14 2 -25s3 -20 7 -29s10 -15 19 -18c5 -1 7 -4 7 -9v-1c0 -3 -1 -5 -2 -6c-2 -2 -4 -3 -7 -3h-91c-3 0 -5 1 -6 3c-2 1 -3 3 -3 6v98
c-13 -33 -34 -59 -61 -78c-28 -19 -62 -29 -101 -29c-46 0 -85 13 -117 38s-56 58 -73 101c-17 42 -26 89 -26 140s9 98 27 141c18 42 45 76 80 101s78 38 130 38c57 0 104 -16 141 -47v129h-191v19h191v83c0 7 -2 14 -7 19s-12 7 -19 7c-3 0 -5 1 -6 3c-2 1 -3 3 -3 6
s1 5 3 7l91 70c2 1 4 2 6 2c1 0 3 -1 6 -2c2 -1 3 -4 3 -8v-187h176v-19h-176z" />
    <glyph glyph-name="ntilde" unicode="&#xf1;" horiz-adv-x="550" 
d="M493 -181c4 -1 7 -5 7 -9v-1c0 -5 -4 -9 -9 -9h-126c-5 0 -9 4 -9 9v1c0 4 3 8 8 9c27 7 28 53 28 71v312c0 68 -40 128 -112 128c-86 0 -170 -100 -171 -192v-248c0 -18 2 -64 28 -71c4 -1 7 -5 7 -9v-1c0 -5 -4 -9 -9 -9h-126c-5 0 -9 4 -9 9v1c0 4 3 8 7 9
c28 7 28 53 28 71v354c0 15 -11 27 -26 27c-5 0 -9 4 -9 9c0 2 1 5 4 7l90 69c2 1 4 2 6 2c4 0 9 -4 9 -9v-136c27 65 91 145 207 145c86 0 149 -56 149 -148v-320c0 -18 2 -64 28 -71zM346 435c9 5 17 13 22 23c-1 -11 -7 -22 -16 -30c-10 -8 -22 -13 -35 -13
c-12 0 -25 4 -36 10c-10 7 -18 15 -26 23c-8 7 -16 14 -24 19s-17 6 -27 6c-20 -2 -37 -17 -48 -36c2 11 7 22 14 31c8 9 19 16 31 19c4 1 8 1 12 1c9 0 18 -2 26 -5c11 -6 20 -15 28 -22c16 -16 31 -30 51 -31h7c7 0 15 1 21 5z" />
    <glyph glyph-name="ograve" unicode="&#xf2;" horiz-adv-x="524" 
d="M237 359c155 0 237 -125 237 -280c0 -154 -82 -279 -237 -279c-156 0 -237 125 -237 279c0 155 81 280 237 280zM237 -182c90 0 163 117 163 261c0 145 -73 262 -163 262s-163 -117 -163 -262c0 -144 73 -261 163 -261zM186 546l125 -145l-9 -9l-136 135z" />
    <glyph glyph-name="oacute" unicode="&#xf3;" horiz-adv-x="524" 
d="M237 359c155 0 237 -125 237 -280c0 -154 -82 -279 -237 -279c-156 0 -237 125 -237 279c0 155 81 280 237 280zM237 -182c90 0 163 117 163 261c0 145 -73 262 -163 262s-163 -117 -163 -262c0 -144 73 -261 163 -261zM282 546l19 -19l-135 -135l-10 9z" />
    <glyph glyph-name="ocircumflex" unicode="&#xf4;" horiz-adv-x="524" 
d="M237 359c155 0 237 -125 237 -280c0 -154 -82 -279 -237 -279c-156 0 -237 125 -237 279c0 155 81 280 237 280zM237 -182c90 0 163 117 163 261c0 145 -73 262 -163 262s-163 -117 -163 -262c0 -144 73 -261 163 -261zM326 397h-19l-80 81l-81 -81h-19l100 115z" />
    <glyph glyph-name="otilde" unicode="&#xf5;" horiz-adv-x="524" 
d="M237 359c155 0 237 -125 237 -280c0 -154 -82 -279 -237 -279c-156 0 -237 125 -237 279c0 155 81 280 237 280zM237 -182c90 0 163 117 163 261c0 145 -73 262 -163 262s-163 -117 -163 -262c0 -144 73 -261 163 -261zM314 418c9 5 17 13 22 23c-1 -11 -7 -22 -16 -30
c-10 -8 -22 -13 -35 -13c-12 0 -25 4 -36 10c-10 7 -18 15 -26 23c-8 7 -16 14 -24 19s-17 6 -27 6c-20 -2 -37 -17 -48 -36c2 11 7 22 14 31c8 9 19 16 31 19c4 1 8 1 12 1c9 0 18 -2 26 -5c11 -6 20 -15 28 -22c16 -16 31 -30 51 -31h7c7 0 15 1 21 5z" />
    <glyph glyph-name="odieresis" unicode="&#xf6;" horiz-adv-x="524" 
d="M237 359c155 0 237 -125 237 -280c0 -154 -82 -279 -237 -279c-156 0 -237 125 -237 279c0 155 81 280 237 280zM237 -182c90 0 163 117 163 261c0 145 -73 262 -163 262s-163 -117 -163 -262c0 -144 73 -261 163 -261zM179 484c25 0 46 -20 46 -45
c0 -26 -21 -46 -46 -46s-46 20 -46 46c0 25 21 45 46 45zM285 484c25 0 46 -20 46 -45c0 -26 -21 -46 -46 -46s-46 20 -46 46c0 25 21 45 46 45z" />
    <glyph glyph-name="divide" unicode="&#xf7;" horiz-adv-x="491" 
d="M441 87v-19h-441v19h441zM220 -92c27 0 48 -21 48 -47c0 -27 -21 -48 -48 -48c-26 0 -48 21 -48 48c0 26 22 47 48 47zM220 247c-26 0 -48 21 -48 47c0 27 22 48 48 48c27 0 48 -21 48 -48c0 -26 -21 -47 -48 -47z" />
    <glyph glyph-name="oslash" unicode="&#xf8;" horiz-adv-x="524" 
d="M197 -175c13 -5 26 -7 40 -7c45 0 83 26 115 77s48 112 48 184s-16 134 -48 185c-18 28 -37 49 -59 62zM277 334c-13 5 -26 7 -40 7c-45 0 -84 -26 -115 -77c-32 -51 -48 -113 -48 -185s16 -133 48 -184c17 -29 37 -49 58 -62zM281 356l29 151h18l-30 -155
c26 -6 49 -16 69 -30c35 -25 62 -59 80 -102s27 -90 27 -141s-9 -98 -27 -140c-18 -43 -45 -76 -80 -101s-79 -38 -130 -38c-15 0 -30 1 -44 3l-29 -152h-19l30 156c-26 6 -48 16 -68 31c-35 25 -62 58 -80 101c-18 42 -27 89 -27 140s9 98 27 141s45 77 80 102
s78 37 130 37c15 0 30 -1 44 -3z" />
    <glyph glyph-name="ugrave" unicode="&#xf9;" horiz-adv-x="551" 
d="M493 -181c4 -1 8 -4 8 -9v-1c0 -5 -5 -9 -10 -9h-99v145c-2 -3 -3 -6 -4 -9c-29 -64 -92 -136 -203 -136c-86 0 -149 56 -149 148l-1 297c0 14 -11 26 -26 26c-5 0 -9 4 -9 9c0 3 1 6 4 7l90 70c2 1 3 2 5 2c5 0 10 -4 10 -10v-393c0 -68 39 -128 112 -128
c85 0 170 100 171 192v225c0 14 -12 26 -27 26c-5 0 -9 4 -9 9c0 3 2 6 4 7l90 70c2 1 4 2 6 2c5 0 9 -4 9 -10v-458c0 -18 2 -64 28 -72zM213 532l125 -145l-9 -9l-136 135z" />
    <glyph glyph-name="uacute" unicode="&#xfa;" horiz-adv-x="551" 
d="M493 -181c4 -1 8 -4 8 -9v-1c0 -5 -5 -9 -10 -9h-99v145c-2 -3 -3 -6 -4 -9c-29 -64 -92 -136 -203 -136c-86 0 -149 56 -149 148l-1 297c0 14 -11 26 -26 26c-5 0 -9 4 -9 9c0 3 1 6 4 7l90 70c2 1 3 2 5 2c5 0 10 -4 10 -10v-393c0 -68 39 -128 112 -128
c85 0 170 100 171 192v225c0 14 -12 26 -27 26c-5 0 -9 4 -9 9c0 3 2 6 4 7l90 70c2 1 4 2 6 2c5 0 9 -4 9 -10v-458c0 -18 2 -64 28 -72zM317 532l19 -19l-135 -135l-10 9z" />
    <glyph glyph-name="ucircumflex" unicode="&#xfb;" horiz-adv-x="551" 
d="M493 -181c4 -1 8 -4 8 -9v-1c0 -5 -5 -9 -10 -9h-99v145c-2 -3 -3 -6 -4 -9c-29 -64 -92 -136 -203 -136c-86 0 -149 56 -149 148l-1 297c0 14 -11 26 -26 26c-5 0 -9 4 -9 9c0 3 1 6 4 7l90 70c2 1 3 2 5 2c5 0 10 -4 10 -10v-393c0 -68 39 -128 112 -128
c85 0 170 100 171 192v225c0 14 -12 26 -27 26c-5 0 -9 4 -9 9c0 3 2 6 4 7l90 70c2 1 4 2 6 2c5 0 9 -4 9 -10v-458c0 -18 2 -64 28 -72zM369 387h-19l-80 81l-81 -81h-19l100 115z" />
    <glyph glyph-name="udieresis" unicode="&#xfc;" horiz-adv-x="551" 
d="M493 -181c4 -1 8 -4 8 -9v-1c0 -5 -5 -9 -10 -9h-99v145c-2 -3 -3 -6 -4 -9c-29 -64 -92 -136 -203 -136c-86 0 -149 56 -149 148l-1 297c0 14 -11 26 -26 26c-5 0 -9 4 -9 9c0 3 1 6 4 7l90 70c2 1 3 2 5 2c5 0 10 -4 10 -10v-393c0 -68 39 -128 112 -128
c85 0 170 100 171 192v225c0 14 -12 26 -27 26c-5 0 -9 4 -9 9c0 3 2 6 4 7l90 70c2 1 4 2 6 2c5 0 9 -4 9 -10v-458c0 -18 2 -64 28 -72zM207 481c25 0 46 -20 46 -45c0 -26 -21 -46 -46 -46s-46 20 -46 46c0 25 21 45 46 45zM313 481c25 0 46 -20 46 -45
c0 -26 -21 -46 -46 -46s-46 20 -46 46c0 25 21 45 46 45z" />
    <glyph glyph-name="yacute" unicode="&#xfd;" horiz-adv-x="535" 
d="M404 359h71c6 0 10 -5 10 -10s-3 -9 -8 -10c-31 -7 -47 -57 -54 -74l-155 -417c-10 -30 -117 -346 -217 -346c-20 0 -34 8 -42 19c-4 7 -7 15 -7 23c0 7 2 14 5 20c0 1 1 2 1 3c8 18 25 27 42 27c7 0 15 -2 22 -5c5 -3 11 -4 18 -4c56 0 102 107 144 221v1l-160 428
c-6 18 -35 93 -66 104c-4 1 -7 5 -7 9v1c0 5 4 10 9 10h127c4 0 8 -4 8 -9v-3c0 -4 -3 -7 -6 -8c-8 -3 -11 -11 -11 -21c0 -20 12 -48 15 -57l130 -348l132 355c3 9 11 31 11 48c0 11 -3 20 -13 23c-4 1 -7 5 -7 9v2c0 5 4 9 8 9zM337 535l19 -19l-135 -135l-10 9z" />
    <glyph glyph-name="thorn" unicode="&#xfe;" horiz-adv-x="537" 
d="M272 359c137 0 215 -125 215 -279s-82 -279 -237 -279c-57 0 -104 16 -141 46v-254c0 -18 2 -64 28 -71c4 -1 8 -5 8 -9v-1c0 -6 -5 -10 -10 -10h-126c-5 0 -9 4 -9 10v1c0 4 3 8 8 9c27 7 28 53 28 71v752c0 15 -12 26 -27 26c-5 0 -9 4 -9 9c0 3 2 6 4 8l91 69
c2 1 4 2 5 2c5 0 9 -4 9 -9v-198c27 65 84 107 163 107zM250 -181c90 0 163 117 163 261s-69 251 -169 251c-59 0 -133 -61 -135 -152v-230c15 -97 78 -130 141 -130z" />
    <glyph glyph-name="ydieresis" unicode="&#xff;" horiz-adv-x="535" 
d="M404 359h71c6 0 10 -5 10 -10s-3 -9 -8 -10c-31 -7 -47 -57 -54 -74l-155 -417c-10 -30 -117 -346 -217 -346c-20 0 -34 8 -42 19c-4 7 -7 15 -7 23c0 7 2 14 5 20c0 1 1 2 1 3c8 18 25 27 42 27c7 0 15 -2 22 -5c5 -3 11 -4 18 -4c56 0 102 107 144 221v1l-160 428
c-6 18 -35 93 -66 104c-4 1 -7 5 -7 9v1c0 5 4 10 9 10h127c4 0 8 -4 8 -9v-3c0 -4 -3 -7 -6 -8c-8 -3 -11 -11 -11 -21c0 -20 12 -48 15 -57l130 -348l132 355c3 9 11 31 11 48c0 11 -3 20 -13 23c-4 1 -7 5 -7 9v2c0 5 4 9 8 9zM219 480c25 0 46 -20 46 -45
c0 -26 -21 -46 -46 -46s-46 20 -46 46c0 25 21 45 46 45zM325 480c25 0 46 -20 46 -45c0 -26 -21 -46 -46 -46s-46 20 -46 46c0 25 21 45 46 45z" />
    <glyph glyph-name="idotless" unicode="&#x131;" horiz-adv-x="194" 
d="M137 -181c4 -1 7 -4 7 -9v-1c0 -5 -4 -9 -9 -9h-126c-5 0 -9 4 -9 9v1c0 5 3 8 7 9c27 7 28 54 28 72v354c0 14 -12 26 -26 26c-5 0 -9 4 -9 9c0 3 1 5 3 7l91 70c2 1 3 2 5 2c5 0 10 -4 10 -10v-458c0 -18 2 -64 28 -72z" />
    <glyph glyph-name="gravecomb" unicode="&#x300;" 
d="M20 633l125 -145l-9 -9l-136 135z" />
    <glyph glyph-name="acutecomb" unicode="&#x301;" 
d="M126 633l19 -19l-135 -135l-10 9z" />
    <glyph glyph-name="circumflexcomb" unicode="&#x302;" horiz-adv-x="249" 
d="M199 498h-19l-80 81l-81 -81h-19l100 115z" />
    <glyph glyph-name="tildecomb" unicode="&#x303;" horiz-adv-x="262" 
d="M190 539c9 5 17 13 22 23c-1 -11 -7 -22 -16 -30c-10 -8 -22 -13 -35 -13c-12 0 -25 4 -36 10c-10 7 -18 15 -26 23c-8 7 -16 14 -24 19s-17 6 -27 6c-20 -2 -37 -17 -48 -36c2 11 7 22 14 31c8 9 19 16 31 19c4 1 8 1 12 1c9 0 18 -2 26 -5c11 -6 20 -15 28 -22
c16 -16 31 -30 51 -31h7c7 0 15 1 21 5z" />
    <glyph glyph-name="macroncomb" unicode="&#x304;" horiz-adv-x="241" 
d="M191 565v-18h-191v18h191z" />
    <glyph glyph-name="dotaccentcomb" unicode="&#x307;" horiz-adv-x="142" 
d="M46 602c25 0 46 -20 46 -45c0 -26 -21 -46 -46 -46s-46 20 -46 46c0 25 21 45 46 45z" />
    <glyph glyph-name="dieresiscomb" unicode="&#x308;" horiz-adv-x="248" 
d="M46 602c25 0 46 -20 46 -45c0 -26 -21 -46 -46 -46s-46 20 -46 46c0 25 21 45 46 45zM152 602c25 0 46 -20 46 -45c0 -26 -21 -46 -46 -46s-46 20 -46 46c0 25 21 45 46 45z" />
    <glyph glyph-name="ringcomb" unicode="&#x30a;" horiz-adv-x="212" 
d="M81 475c-45 0 -81 37 -81 82c0 44 36 81 81 81s81 -37 81 -81c0 -45 -36 -82 -81 -82zM81 619c-35 0 -63 -28 -63 -62c0 -35 28 -63 63 -63s63 28 63 63c0 34 -28 62 -63 62z" />
    <glyph glyph-name="caroncomb" unicode="&#x30c;" horiz-adv-x="249" 
d="M199 613l-99 -115l-100 115h19l81 -80l80 80h19z" />
    <glyph glyph-name="cedillacomb" unicode="&#x327;" horiz-adv-x="203" 
d="M153 -294c0 -33 -39 -59 -88 -59c-24 0 -49 8 -65 18l13 22c8 -12 31 -25 55 -25c38 0 54 18 54 42c0 44 -60 46 -71 46h-2l11 63h33l-24 -48c51 0 84 -27 84 -59z" />
    <glyph glyph-name="endash" unicode="&#x2013;" horiz-adv-x="491" 
d="M441 87v-19h-441v19h441z" />
    <glyph glyph-name="emdash" unicode="&#x2014;" horiz-adv-x="625" 
d="M575 87v-18h-575v18h575z" />
    <glyph glyph-name="quoteleft" unicode="&#x2018;" horiz-adv-x="155" 
d="M51 506h-4c-22 3 -43 20 -43 54v9c4 34 28 65 49 86c1 1 2 2 3 2c2 0 4 -2 4 -4c0 0 0 -1 -1 -2c-5 -12 -10 -26 -10 -44v-5h2c15 0 49 -9 49 -44v-7c-3 -27 -23 -45 -49 -45z" />
    <glyph glyph-name="quoteright" unicode="&#x2019;" horiz-adv-x="154" 
d="M51 656h6c22 -2 43 -20 43 -53v-9c-4 -34 -28 -66 -49 -87c-1 -1 -2 -1 -2 -1c-2 0 -4 2 -4 4v2c6 11 10 24 10 40v9h-2c-15 0 -49 8 -49 45v6c3 26 23 44 47 44z" />
    <glyph glyph-name="quotesinglbase" unicode="&#x201a;" horiz-adv-x="154" 
d="M51 -105h6c22 -2 43 -20 43 -53v-9c-4 -34 -28 -66 -49 -87c-1 -1 -2 -1 -2 -1c-2 0 -4 2 -4 4v2c6 11 10 24 10 40v9h-2c-15 0 -49 8 -49 45v6c3 26 23 44 47 44z" />
    <glyph glyph-name="quotedblleft" unicode="&#x201c;" horiz-adv-x="269" 
d="M165 506h-4c-22 3 -43 20 -43 54v9c4 34 28 65 49 86c1 1 2 2 3 2c2 0 4 -2 4 -4c0 0 0 -1 -1 -2c-5 -12 -10 -26 -10 -44v-5h2c15 0 49 -9 49 -44v-7c-3 -27 -23 -45 -49 -45zM51 506h-4c-22 3 -43 20 -43 54v9c4 34 28 65 49 86c1 1 2 2 3 2c2 0 4 -2 4 -4
c0 0 0 -1 -1 -2c-5 -12 -10 -26 -10 -44v-5h2c15 0 49 -9 49 -44v-7c-3 -27 -23 -45 -49 -45z" />
    <glyph glyph-name="quotedblright" unicode="&#x201d;" horiz-adv-x="268" 
d="M51 656h6c22 -2 43 -20 43 -53v-9c-4 -34 -28 -66 -49 -87c-1 -1 -2 -1 -2 -1c-2 0 -4 2 -4 4v2c6 11 10 24 10 40v9h-2c-15 0 -49 8 -49 45v6c3 26 23 44 47 44zM165 656h6c22 -2 43 -20 43 -53v-9c-4 -34 -28 -66 -49 -87c-1 -1 -2 -1 -2 -1c-2 0 -4 2 -4 4v2
c6 11 10 24 10 40v9h-2c-15 0 -49 8 -49 45v6c3 26 23 44 47 44z" />
    <glyph glyph-name="quotedblbase" unicode="&#x201e;" horiz-adv-x="268" 
d="M51 -105h6c22 -2 43 -20 43 -53v-9c-4 -34 -28 -66 -49 -87c-1 -1 -2 -1 -2 -1c-2 0 -4 2 -4 4v2c6 11 10 24 10 40v9h-2c-15 0 -49 8 -49 45v6c3 26 23 44 47 44zM165 -105h6c22 -2 43 -20 43 -53v-9c-4 -34 -28 -66 -49 -87c-1 -1 -2 -1 -2 -1c-2 0 -4 2 -4 4v2
c6 11 10 24 10 40v9h-2c-15 0 -49 8 -49 45v6c3 26 23 44 47 44z" />
    <glyph glyph-name="dagger" unicode="&#x2020;" horiz-adv-x="448" 
d="M216 638l-14 -170c0 -1 -1 -2 -3 -2c-1 0 -3 1 -3 2l-14 170v2c0 9 8 16 17 16s17 -7 17 -16v-2zM19 472l169 -14c2 0 3 -1 3 -3c0 -1 -1 -3 -3 -3l-169 -14h-2c-9 0 -17 8 -17 17s8 17 17 17h2zM380 472h2c8 0 16 -8 16 -17s-8 -17 -16 -17h-2l-170 14c-2 0 -3 2 -3 3
c0 2 1 3 3 3zM181 -182l15 623c0 2 2 3 3 3c2 0 3 -1 3 -3l15 -623c0 -10 -8 -18 -18 -18s-18 8 -18 18z" />
    <glyph glyph-name="daggerdbl" unicode="&#x2021;" horiz-adv-x="447" 
d="M216 638l-14 -170c0 -1 -2 -2 -3 -2c-2 0 -3 1 -3 2l-14 170v2c0 9 8 16 17 16c10 0 17 -8 17 -18zM182 236l14 205c0 2 1 3 3 3c1 0 3 -1 3 -3l13 -205v-12l-13 -206c0 -1 -2 -2 -3 -2c-2 0 -3 1 -3 2l-14 206v12zM18 438h-2c-9 0 -16 8 -16 17s7 17 16 17h2l170 -14
c2 0 3 -1 3 -3c0 -1 -1 -3 -3 -3zM379 438l-170 14c-2 0 -3 2 -3 3c0 2 1 3 3 3l170 14h2c9 0 16 -8 16 -17s-7 -17 -16 -17h-2zM182 -182l14 170c0 2 1 3 3 3c1 0 3 -1 3 -3l14 -170c0 -10 -7 -18 -17 -18c-9 0 -17 7 -17 16v2zM18 18l170 -14c2 0 3 -1 3 -3
c0 -1 -1 -2 -3 -3l-170 -14c-10 0 -18 7 -18 17c0 9 7 17 16 17h2zM379 18h2c9 0 16 -8 16 -17c0 -10 -8 -17 -18 -17l-170 14c-2 1 -3 2 -3 3c0 2 1 3 3 3z" />
    <glyph glyph-name="bullet" unicode="&#x2022;" horiz-adv-x="500" 
d="M191 340c0 -53 -43 -95 -95 -95c-53 0 -95 42 -95 95s42 95 95 95c52 0 95 -42 95 -95z" />
    <glyph glyph-name="ellipsis" unicode="&#x2026;" horiz-adv-x="1000" 
d="M96 -152c0 -27 -21 -48 -48 -48c-26 0 -48 21 -48 48c0 26 22 48 48 48c27 0 48 -22 48 -48zM429 -152c0 -27 -21 -48 -48 -48c-26 0 -48 21 -48 48c0 26 22 48 48 48c27 0 48 -22 48 -48zM762 -152c0 -27 -21 -48 -48 -48c-26 0 -48 21 -48 48c0 26 22 48 48 48
c27 0 48 -22 48 -48z" />
    <glyph glyph-name="guilsinglleft" unicode="&#x2039;" horiz-adv-x="327" 
d="M277 208l-238 -129l238 -128l-9 -17l-268 145l268 145z" />
    <glyph glyph-name="guilsinglright" unicode="&#x203a;" horiz-adv-x="327" 
d="M0 208l9 16l268 -145l-268 -145l-9 17l238 128z" />
    <glyph glyph-name="fraction" unicode="&#x2044;" horiz-adv-x="233" 
d="M183 656l-164 -856h-19l165 856h18z" />
    <glyph glyph-name="fraction" unicode="&#x2215;" horiz-adv-x="233" 
d="M183 656l-164 -856h-19l165 856h18z" />
    <glyph glyph-name="frenchfrancsign" unicode="&#x20a3;" horiz-adv-x="273" 
d="M36 87v401c0 9 1 22 3 41c1 18 6 37 14 57c8 19 21 36 38 50s42 21 73 21c21 0 39 -4 56 -13c16 -9 30 -20 43 -35c5 -6 8 -13 8 -20c0 -5 -2 -10 -5 -16l-1 -1c-7 -10 -15 -15 -25 -15c-2 0 -6 1 -14 3c-7 1 -13 9 -16 23c-3 16 -7 30 -14 41s-18 17 -32 17
c-21 0 -35 -10 -43 -29s-12 -41 -12 -65v-188h98c3 0 5 -1 7 -3s3 -4 3 -7s-1 -5 -3 -6c-2 -2 -4 -3 -7 -3h-98v-253h59v-19h-59v-177c0 -6 1 -14 2 -25s3 -20 7 -29s10 -15 19 -18c5 -1 7 -4 7 -9v-1c0 -3 -1 -5 -2 -6c-2 -2 -4 -3 -7 -3h-126c-2 0 -4 1 -6 3
c-2 1 -3 3 -3 6v1c0 5 3 8 8 9c9 3 15 9 19 18s7 18 8 29s1 19 1 25v177h-36v19h36z" />
    <glyph glyph-name="lirasign" unicode="&#x20a4;" horiz-adv-x="657" 
d="M597 -55c6 0 10 -5 10 -10l-8 -126c-1 -5 -5 -9 -10 -9h-502c-6 0 -10 5 -10 11c0 1 0 3 1 5c49 92 50 244 50 266v107h-119c-5 0 -9 5 -9 10s4 9 9 9h119v41h-119c-5 0 -9 4 -9 10c0 5 4 9 9 9h119v203c0 8 2 186 187 186c74 0 118 -53 136 -82c3 -4 5 -10 5 -15
c0 -6 -3 -13 -8 -18l-1 -1c-5 -6 -12 -8 -19 -8c-12 0 -24 7 -27 20c-10 43 -35 95 -88 95c-93 0 -111 -89 -111 -145v-235h184c5 0 9 -4 9 -9c0 -6 -4 -10 -9 -10h-184v-41h184c5 0 9 -4 9 -9s-4 -10 -9 -10h-184v-142c0 -92 -28 -201 -46 -228h297c69 0 126 50 135 117
c1 5 4 9 9 9z" />
    <glyph glyph-name="pesetasign" unicode="&#x20a7;" horiz-adv-x="1097" 
d="M109 184h100c147 0 240 101 240 226c0 126 -87 227 -232 227h-58c-49 0 -50 -50 -50 -70v-383zM733 247c0 -17 7 -32 20 -46s30 -27 51 -40s43 -25 68 -38c29 -15 56 -30 83 -47c26 -17 48 -35 66 -55c17 -21 26 -45 26 -72c0 -34 -9 -62 -27 -83
c-19 -22 -42 -38 -71 -49s-60 -16 -93 -16c-26 0 -57 5 -93 16c-37 11 -67 28 -90 51c-7 8 -11 17 -11 27s4 19 11 27l1 1c8 7 16 10 25 10c3 0 8 -1 16 -3c7 -1 14 -8 19 -21c9 -26 24 -47 44 -64s46 -26 78 -26h1c3 0 12 1 25 2s27 5 43 11c15 6 29 16 41 30
c11 14 17 34 17 60c0 21 -7 39 -22 56s-33 32 -56 46s-47 27 -73 40c-28 15 -54 30 -79 45s-46 33 -62 52s-24 40 -24 65c0 29 9 53 27 73c17 19 40 34 68 45c28 10 57 15 86 15c39 0 75 -8 108 -24c32 -16 55 -35 69 -56c6 -9 8 -18 8 -25c0 -9 -3 -17 -11 -23
c-7 -6 -15 -9 -23 -9c-3 0 -8 1 -15 2c-7 2 -13 9 -18 22c-8 24 -22 46 -41 66c-20 19 -47 29 -82 29c-8 0 -21 -2 -38 -7c-18 -5 -34 -14 -49 -27s-23 -33 -23 -60zM514 341c-5 -19 -13 -37 -23 -54c-22 -37 -54 -67 -95 -89c-42 -22 -93 -33 -153 -33h-134v-275
c0 -6 1 -14 2 -24c1 -11 3 -20 7 -29s10 -15 19 -18c5 -1 8 -4 8 -9v-1c0 -3 -1 -5 -3 -6c-2 -2 -4 -3 -7 -3h-125c-3 0 -5 1 -7 3c-2 1 -3 3 -3 6v1c0 5 3 8 8 9c9 3 15 9 19 18s7 18 8 29c1 10 1 18 1 24v677c0 7 0 15 -1 25s-4 19 -7 28c-4 9 -11 14 -20 16
c-5 2 -8 5 -8 9v1c0 3 1 5 3 7s4 3 7 3h242c77 0 141 -24 193 -72s78 -106 78 -174c0 -17 -2 -34 -5 -51h24v115c0 6 3 11 8 15l51 39c2 2 4 3 7 3c1 0 2 -1 5 -2c2 -1 3 -4 3 -8v-162h40c3 0 5 -1 7 -2c1 -2 2 -4 2 -7s-1 -5 -2 -6c-2 -2 -4 -3 -7 -3h-40v-489
c0 -11 3 -19 8 -23s11 -6 17 -6c7 0 13 3 18 8v1l2 2s2 1 3 2c1 0 2 0 3 -1s2 -1 2 -2v-2s0 -2 -1 -3l-2 -2c-3 -5 -8 -11 -16 -17c-9 -6 -20 -9 -35 -9c-22 0 -40 6 -53 18s-20 30 -20 53v470h-28z" />
    <glyph glyph-name="euro" unicode="&#x20ac;" horiz-adv-x="804" 
d="M749 -33c2 -2 4 -4 4 -7c0 -1 -1 -3 -2 -4c-61 -96 -159 -158 -286 -158c-204 0 -339 174 -353 392h-102c-6 0 -10 5 -10 10s4 9 10 9h101c0 6 -1 13 -1 20s1 14 1 21h-101c-6 0 -10 4 -10 10c0 5 4 9 10 9h102c14 218 141 392 344 392c109 0 202 -36 264 -122
c13 -18 20 -37 20 -53c0 -17 -8 -31 -26 -37c-5 -2 -11 -3 -17 -3c-21 0 -40 14 -46 36c-23 90 -96 161 -203 161c-140 0 -254 -168 -254 -371v-3h192c5 0 10 -4 10 -9c0 -6 -5 -10 -10 -10h-191c0 -14 1 -28 2 -41h189c5 0 10 -4 10 -9s-5 -10 -10 -10h-187
c22 -205 132 -341 307 -341c113 0 187 60 231 116c2 2 4 4 7 4c2 0 3 -1 5 -2z" />
    <glyph glyph-name="numerosign" unicode="&#x2116;" horiz-adv-x="1101" 
d="M476 656h71c5 0 9 -4 9 -9v-1c0 -4 -3 -8 -7 -9c-11 -3 -29 -16 -29 -72v-755c0 -7 -3 -11 -7 -11c-3 0 -7 3 -10 8l-449 812v-729c0 -57 17 -69 27 -72c5 -1 8 -4 8 -9s-4 -9 -9 -9h-71c-5 0 -9 4 -9 9v1c0 5 3 8 7 9c27 7 28 47 28 67v686c0 21 -1 59 -28 65
c-4 1 -7 4 -7 9v1c0 5 4 9 9 9h110l383 -699v616c0 21 -2 58 -28 64c-4 1 -7 4 -7 9v1c0 5 4 9 9 9zM814 656c155 0 237 -125 237 -280c0 -154 -82 -279 -237 -279c-156 0 -237 125 -237 279c0 155 81 280 237 280zM814 115c90 0 163 117 163 261c0 145 -73 262 -163 262
s-163 -117 -163 -262c0 -144 73 -261 163 -261zM1034 47v-19h-441v19h441z" />
    <glyph glyph-name="trademark" unicode="&#x2122;" horiz-adv-x="266" 
d="M3 656h91c1 0 2 -1 2 -2l1 -21c0 -1 -1 -2 -2 -2c0 0 -1 1 -1 2c-2 11 -11 19 -23 19h-8c-7 0 -8 -6 -8 -10v-115c0 -3 0 -11 4 -12c1 0 1 -1 1 -2s0 -1 -1 -1h-21c-1 0 -2 0 -2 1s1 2 1 2c5 1 5 9 5 12v113c0 3 0 12 -8 12h-8c-12 0 -21 -8 -23 -19c0 -1 -1 -2 -1 -2h-1
s-1 1 -1 2l1 21c0 1 1 2 2 2zM215 652c-5 -1 -5 -9 -5 -12v-113c0 -3 0 -11 5 -12c0 0 1 -1 1 -2s-1 -1 -2 -1h-21c-1 0 -1 0 -1 1s0 2 1 2c5 1 5 9 5 12v118l-41 -125s0 -1 -1 -1s-1 1 -2 1l-40 126v-119c0 -10 3 -12 4 -12c1 -1 2 -1 2 -2s-1 -1 -2 -1h-12c-1 0 -1 0 -1 1
s0 2 1 2c5 1 5 9 5 12v113c0 3 0 11 -5 12c-1 1 -1 1 -1 2s0 2 1 2h16c1 0 2 -1 2 -1l37 -114l36 114c1 0 1 1 2 1h15c1 0 2 -1 2 -2s-1 -1 -1 -2z" />
    <glyph glyph-name="minus" unicode="&#x2212;" horiz-adv-x="491" 
d="M441 87v-19h-441v19h441z" />
    <glyph glyph-name="almostequalto" unicode="&#x2248;" horiz-adv-x="262" 
d="M190 33c9 5 17 13 22 23c-1 -11 -7 -22 -16 -30c-10 -8 -22 -12 -35 -12h-4c-11 0 -22 4 -32 9c-10 7 -18 15 -26 23c-8 7 -16 15 -24 19c-8 5 -17 6 -27 6c-20 -2 -37 -17 -48 -36c2 11 7 22 14 31c8 9 19 16 31 19c4 1 8 1 12 1c9 0 18 -2 26 -5c11 -6 20 -14 28 -22
c16 -16 31 -30 51 -31h7c7 0 15 1 21 5zM190 91c9 5 17 13 22 23c-1 -11 -7 -22 -16 -30c-10 -8 -22 -12 -35 -12h-4c-11 0 -22 4 -32 9c-10 7 -18 15 -26 23c-8 7 -16 15 -24 19c-8 5 -17 6 -27 6c-20 -2 -37 -17 -48 -36c2 11 7 22 14 31c8 9 19 16 31 19c4 1 8 1 12 1
c9 0 18 -2 26 -5c11 -6 20 -14 28 -22c16 -16 31 -30 51 -31h7c7 0 15 1 21 5z" />
    <glyph glyph-name="lessthanorequalto" unicode="&#x2264;" horiz-adv-x="331" 
d="M0 -148h281v-17h-281v17zM279 157l-238 -129l238 -128l-9 -17l-268 145l268 145z" />
    <glyph glyph-name="greaterthanorequalto" unicode="&#x2265;" horiz-adv-x="331" 
d="M0 -148h281v-17h-281v17zM2 157l9 16l268 -145l-268 -145l-9 17l238 128z" />
    <glyph glyph-name="fi" unicode="&#xfb01;" horiz-adv-x="361" 
d="M304 -181c5 -1 7 -4 7 -9v-1c0 -3 -1 -5 -2 -6c-2 -2 -4 -3 -7 -3h-126c-3 0 -5 1 -6 3c-2 1 -3 3 -3 6v1c0 5 2 8 7 9c9 3 16 9 20 18s6 18 7 29s1 19 1 25v354c0 7 -2 14 -7 19s-12 7 -19 7c-3 0 -5 1 -6 3c-2 1 -3 3 -3 6s1 5 3 7l91 70c2 1 4 2 6 2c1 0 3 -1 6 -2
c2 -1 3 -4 3 -8v-458c0 -6 1 -14 2 -25s3 -20 7 -29s10 -15 19 -18zM263 609c5 -6 8 -13 8 -20c0 -5 -2 -10 -5 -16l-1 -1c-7 -10 -15 -15 -25 -15c-2 0 -6 1 -14 3c-7 1 -13 9 -16 23c-3 16 -7 30 -14 41s-18 17 -32 17c-21 0 -35 -10 -43 -29s-12 -41 -12 -65v-188h98
c3 0 5 -1 7 -3s3 -4 3 -7s-1 -5 -3 -6c-2 -2 -4 -3 -7 -3h-98v-449c0 -6 1 -14 2 -25s3 -20 7 -29s10 -15 19 -18c5 -1 7 -4 7 -9v-1c0 -3 -1 -5 -2 -6c-2 -2 -4 -3 -7 -3h-126c-2 0 -4 1 -6 3c-2 1 -3 3 -3 6v1c0 5 3 8 8 9c9 3 15 9 19 18s7 18 8 29s1 19 1 25v449h-27
c-2 0 -4 1 -6 3c-2 1 -3 3 -3 6s1 5 3 7s4 3 6 3h27v129c0 9 1 22 3 41c1 18 6 37 14 57c8 19 21 36 38 50s42 21 73 21c21 0 39 -4 56 -13c16 -9 30 -20 43 -35z" />
    <glyph glyph-name="fl" unicode="&#xfb02;" horiz-adv-x="366" 
d="M309 -181c4 -1 7 -4 7 -9v-1c0 -5 -4 -9 -9 -9h-126c-5 0 -10 4 -10 9v1c0 5 4 8 8 9c27 7 28 53 28 71v708l-3 9l-1 2c-7 19 -19 32 -39 32c-41 0 -54 -48 -55 -94v-189h76c5 0 9 -4 9 -9s-4 -9 -9 -9h-76v-450c0 -18 2 -64 28 -71c4 -1 8 -4 8 -9v-1c0 -5 -5 -9 -10 -9
h-126c-5 0 -9 4 -9 9v1c0 5 3 8 8 9c27 7 28 53 28 71v450h-27c-5 0 -9 4 -9 9s4 9 9 9h27v129c0 37 3 169 128 169c29 0 53 -8 73 -23l29 22c2 1 3 2 5 2c5 0 10 -4 10 -10v-757c0 -18 1 -64 28 -71z" />
    <glyph glyph-name="OE" unicode="&#x152;" horiz-adv-x="1159" 
d="M346 -182c58 0 106 19 145 56c38 37 67 87 86 150c19 62 28 131 28 207c0 75 -9 144 -28 207s-48 113 -86 150c-39 37 -87 56 -145 56s-106 -19 -145 -56s-68 -87 -87 -150c-20 -63 -30 -132 -30 -207c0 -76 10 -145 30 -207c19 -63 48 -113 87 -150s87 -56 145 -56z
M621 -37c-26 -41 -58 -76 -95 -104c-52 -39 -112 -59 -180 -59c-72 0 -134 20 -185 59c-52 39 -92 91 -119 156c-28 65 -42 137 -42 216s14 151 42 216c27 65 67 118 119 157c51 39 113 59 185 59s134 -20 186 -59c35 -27 65 -60 89 -99v62c0 7 0 15 -1 25s-3 19 -7 28
s-11 14 -20 17c-5 1 -7 4 -7 9v1c0 3 1 5 3 7c1 1 3 2 6 2h487c3 0 5 -1 7 -2l3 -6l8 -126c0 -3 -1 -5 -3 -7s-4 -3 -7 -3c-2 0 -4 1 -5 3c-2 1 -3 3 -4 5c-5 34 -20 62 -45 85c-25 22 -55 33 -90 33h-200c-17 0 -30 -4 -37 -13s-12 -18 -13 -28c-1 -7 -1 -13 -1 -19v-287
h198c16 0 30 5 42 16c11 10 18 23 21 39c0 2 1 4 3 6c1 1 3 2 6 2h1c2 0 4 -1 6 -3s3 -4 3 -7v-126c0 -2 -1 -4 -3 -6s-4 -3 -6 -3h-1c-3 0 -5 1 -6 3c-2 1 -3 3 -3 5c-3 16 -10 29 -21 40c-12 10 -26 15 -42 15h-198v-388c0 -6 0 -14 2 -23c1 -10 6 -20 13 -29
s20 -14 37 -14h209c34 0 64 11 89 33s40 50 45 85c1 2 2 4 4 6c1 1 3 2 5 2h1c3 0 5 -1 7 -3c1 -2 2 -4 2 -7l-8 -126c0 -3 -1 -5 -3 -6s-4 -2 -6 -2h-497c-3 0 -5 1 -6 3c-2 1 -3 3 -3 6v1c0 4 2 7 7 9c9 3 15 9 19 18s7 18 8 29c1 10 1 18 1 24v73z" />
    <glyph glyph-name="oe" unicode="&#x153;" horiz-adv-x="901" 
d="M237 -182c45 0 83 26 115 77s48 112 48 184s-16 134 -48 185s-70 77 -115 77s-84 -26 -115 -77c-32 -51 -48 -113 -48 -185s16 -133 48 -184c31 -51 70 -77 115 -77zM633 340c-45 0 -80 -17 -107 -52s-44 -83 -50 -144h301c-2 33 -9 65 -22 95c-13 29 -30 54 -51 73
s-44 28 -71 28zM438 -80c-17 -34 -41 -61 -71 -82c-35 -25 -79 -38 -130 -38c-52 0 -95 13 -130 38s-62 58 -80 101c-18 42 -27 89 -27 140s9 98 27 141s45 77 80 102s78 37 130 37c51 0 95 -12 130 -37c29 -21 53 -49 70 -82c17 33 41 60 70 81c35 25 78 38 130 38
c38 0 70 -8 96 -23s47 -34 64 -57s29 -47 38 -71c8 -24 13 -45 15 -64v-2c0 -4 -1 -8 -4 -11s-7 -5 -12 -5h-359c-1 -8 -1 -16 -1 -25c0 -48 8 -92 23 -131c15 -40 37 -72 66 -95s65 -35 108 -35c26 0 50 4 73 12c22 7 43 22 63 43c1 1 3 2 5 2s4 -1 5 -2s2 -3 3 -4
c0 -2 -1 -4 -2 -6c-19 -23 -43 -43 -73 -60c-31 -17 -65 -25 -104 -25c-51 0 -94 13 -130 38c-31 21 -55 48 -73 82z" />
    <glyph glyph-name="Scaron" unicode="&#x160;" horiz-adv-x="573" 
d="M92 488c0 -192 431 -271 431 -483c0 -150 -158 -208 -261 -208c-105 0 -191 44 -250 118c-6 7 -9 16 -9 24c0 10 4 19 10 26c8 10 19 14 30 14c15 0 30 -9 36 -25c30 -78 83 -141 199 -141h3c90 1 174 58 174 151c0 229 -433 280 -433 505c0 135 132 190 240 190
c107 0 178 -51 233 -124c5 -6 7 -14 7 -22s-2 -16 -8 -23c-6 -8 -15 -11 -25 -11c-17 0 -35 11 -41 34c-21 76 -70 133 -171 133h-2c-76 -1 -163 -56 -163 -158zM349 811l-99 -115l-100 115h19l81 -80l80 80h19z" />
    <glyph glyph-name="scaron" unicode="&#x161;" horiz-adv-x="439" 
d="M75 247c0 -111 314 -147 314 -298c0 -101 -93 -148 -191 -148c-52 0 -140 19 -183 67c-7 8 -11 18 -11 28c0 9 4 19 11 26l1 1c7 7 16 10 25 10c15 0 29 -9 35 -24c19 -51 57 -90 122 -90h2c18 0 125 3 125 103c0 130 -316 158 -316 304c0 85 92 133 181 133
c78 0 151 -39 177 -80c5 -9 8 -17 8 -24c0 -9 -4 -17 -11 -24c-7 -6 -15 -9 -23 -9c-14 0 -28 8 -33 24c-16 47 -54 95 -123 95c-25 0 -110 -14 -110 -94zM281 501l-99 -115l-100 115h19l81 -80l80 80h19z" />
    <glyph glyph-name="Ydieresis" unicode="&#x178;" horiz-adv-x="641" 
d="M502 646c0 6 5 10 10 10h69c6 0 10 -4 10 -9s-3 -9 -8 -10c-18 -3 -43 -31 -63 -73l-189 -375v-299c0 -18 2 -64 28 -71c4 -1 7 -5 7 -9v-1c0 -5 -4 -9 -9 -9h-126c-5 0 -9 4 -9 9v1c0 4 3 8 7 9c27 7 28 53 28 71v282l-181 376c-8 15 -40 86 -68 89c-4 1 -8 5 -8 10
s4 9 10 9h126c4 0 8 -4 8 -9v-2c0 -4 -3 -6 -6 -8c-6 -3 -8 -9 -8 -16c0 -17 12 -41 16 -49l174 -362l181 358c9 21 14 39 14 52c0 9 -2 15 -7 17c-4 1 -6 5 -6 9zM271 775c25 0 46 -20 46 -45c0 -26 -21 -46 -46 -46s-46 20 -46 46c0 25 21 45 46 45zM377 775
c25 0 46 -20 46 -45c0 -26 -21 -46 -46 -46s-46 20 -46 46c0 25 21 45 46 45z" />
    <glyph glyph-name="zcaron" unicode="&#x17e;" horiz-adv-x="469" 
d="M394 -111h1c5 0 9 -4 9 -9v-2l-17 -78h-376c-5 0 -9 5 -9 10c0 1 0 3 1 4l323 526h-208c-40 0 -74 -26 -85 -64c-1 -4 -5 -7 -9 -7c-5 0 -9 5 -9 9v2l16 78v1l377 -1c5 0 9 -4 9 -8c0 -2 -1 -4 -2 -6l-323 -526h207c40 0 75 27 87 64c1 4 4 7 8 7zM327 511l-99 -115
l-100 115h19l81 -80l80 80h19z" />
    <glyph glyph-name="perthousand" unicode="&#x2030;" horiz-adv-x="915" 
d="M485 656h21l-407 -856h-21zM251 443c0 -119 -56 -214 -126 -214c-69 0 -125 95 -125 214c0 118 56 213 125 213c70 0 126 -95 126 -213zM38 443c0 -114 39 -205 87 -205c49 0 88 91 88 205c0 113 -39 204 -88 204c-48 0 -87 -91 -87 -204zM460 228c69 0 125 -96 125 -214
s-56 -214 -125 -214c-70 0 -126 96 -126 214s56 214 126 214zM460 -190c48 0 87 91 87 204s-39 205 -87 205c-49 0 -88 -92 -88 -205s39 -204 88 -204zM740 228c69 0 125 -96 125 -214s-56 -214 -125 -214c-70 0 -126 96 -126 214s56 214 126 214zM740 -190
c48 0 87 91 87 204s-39 205 -87 205c-49 0 -88 -92 -88 -205s39 -204 88 -204z" />
    <glyph glyph-name="a.salt" unicode="&#xe00d;" horiz-adv-x="496" 
d="M722 -334c2 1 5 1 7 1c17 0 32 -15 32 -33c0 -2 0 -5 -1 -7c-10 -48 -63 -101 -157 -101c-241 0 -265 289 -265 347c-34 -36 -90 -73 -173 -73c-101 0 -165 64 -165 150c0 171 257 196 326 225c7 3 12 10 12 19v4c0 43 -2 142 -115 142c-75 0 -111 -49 -127 -85
c-6 -13 -19 -21 -32 -21c-6 0 -12 1 -17 4c-12 6 -17 18 -17 30c0 9 3 19 11 27c32 31 86 63 185 63c119 0 186 -59 186 -162v-305c0 -212 97 -341 218 -341c49 0 68 32 68 66c0 4 0 8 -1 12v5c0 15 9 28 24 32c0 0 0 1 1 1zM198 -176c53 0 106 27 140 69v269
c-65 -31 -264 -54 -264 -214c0 -85 54 -124 124 -124z" />
    <glyph glyph-name="b.salt" unicode="&#xe00e;" horiz-adv-x="536" 
d="M271 358c138 0 215 -125 215 -279s-81 -279 -236 -279c-57 0 -105 17 -141 46v-37c0 -5 -4 -9 -9 -9h-91c-5 0 -9 4 -9 9v1c0 5 3 8 7 9c27 7 28 54 28 71v428c0 212 -104 347 -225 347c-50 0 -63 -29 -63 -58c0 -9 1 -18 3 -26c1 -2 1 -5 1 -7c0 -14 -10 -28 -25 -31h-1
c-3 -1 -5 -1 -8 -1c-17 0 -31 15 -31 32c0 3 0 5 1 8c11 43 50 101 157 101c241 0 265 -288 265 -347v-85c27 65 83 107 162 107zM250 -182c90 0 163 117 163 261s-69 251 -169 251c-60 0 -135 -62 -135 -155v-226c14 -97 77 -131 141 -131z" />
    <glyph glyph-name="d.salt" unicode="&#xe00f;" horiz-adv-x="537" 
d="M799 582c1 -3 1 -5 1 -8c0 -17 -15 -32 -32 -32c-2 0 -5 0 -7 1h-1c-15 3 -25 17 -25 31c0 2 0 5 1 7c2 8 3 17 3 26c0 29 -13 58 -63 58c-121 0 -225 -134 -225 -346v-429c0 -17 2 -64 28 -71c4 -1 7 -4 7 -9v-1c0 -5 -4 -9 -9 -9h-90c-5 0 -10 4 -10 9v98
c-27 -65 -83 -107 -162 -107c-137 0 -215 125 -215 279s81 279 236 279c58 0 105 -17 141 -46v32h1c2 72 33 339 264 339c107 0 146 -58 157 -101zM377 -17v226c-14 97 -77 131 -141 131c-90 0 -163 -117 -163 -261s69 -251 169 -251c60 0 135 63 135 155z" />
    <glyph glyph-name="e.salt" unicode="&#xe010;" horiz-adv-x="620" 
d="M580 219c1 0 1 -1 2 -1c21 -5 35 -23 35 -44c0 -3 -1 -5 -1 -8c-16 -116 -81 -366 -344 -366c-163 0 -272 127 -272 279c0 154 93 279 237 279c151 0 205 -142 213 -214v-2c0 -8 -7 -16 -16 -16h-359c-1 -8 -1 -17 -1 -25c0 -144 80 -274 234 -274c159 0 219 142 219 279
c0 20 -1 41 -4 61v6c0 26 20 47 46 47c3 0 7 0 11 -1zM233 340c-89 0 -146 -77 -157 -196h301c-7 98 -65 196 -144 196z" />
    <glyph glyph-name="h.salt" unicode="&#xe011;" horiz-adv-x="550" 
d="M493 -181c4 -1 8 -4 8 -9v-1c0 -5 -5 -9 -10 -9h-126c-5 0 -9 4 -9 9v1c0 5 3 8 8 9c27 7 28 54 28 71v312c0 68 -40 128 -112 128c-86 0 -170 -100 -171 -192v-248c0 -17 2 -64 28 -71c4 -1 7 -4 7 -9v-1c0 -5 -4 -9 -9 -9h-126c-5 0 -9 4 -9 9v1c0 5 3 8 7 9
c28 7 28 54 28 71v428c0 212 -104 347 -224 347c-50 0 -64 -30 -64 -59c0 -9 1 -17 3 -25c1 -3 1 -5 1 -8c0 -14 -10 -27 -24 -30h-1c-2 -1 -5 -1 -7 -1c-18 0 -33 15 -33 32c0 3 0 5 1 8c12 43 51 101 158 101c239 0 264 -286 264 -346v-124c27 66 91 145 207 145
c85 0 149 -56 149 -148v-320c0 -17 2 -64 28 -71z" />
    <glyph glyph-name="i.salt" unicode="&#xe012;" horiz-adv-x="194" 
d="M73 479c-32 0 -57 26 -57 57s25 56 57 56c31 0 56 -25 56 -56s-25 -57 -56 -57zM419 -334c2 1 5 1 7 1c18 0 33 -15 33 -33c0 -2 0 -5 -1 -7c-10 -48 -63 -101 -158 -101c-241 0 -264 289 -264 347v372c0 14 -12 26 -27 26c-4 0 -9 4 -9 9c0 3 2 5 4 7l91 70c2 1 3 2 5 2
c5 0 10 -4 10 -10v-458c0 -212 97 -341 218 -341c49 0 67 31 67 65c0 4 0 9 -1 13v5c0 15 9 28 24 32c1 0 1 1 1 1z" />
    <glyph glyph-name="j.salt" unicode="&#xe013;" horiz-adv-x="178" 
d="M72 592c31 0 56 -25 56 -56s-25 -57 -56 -57s-57 26 -57 57s26 56 57 56zM3 287l91 70c2 1 3 2 5 2c5 0 10 -4 10 -10v-476c0 -58 -24 -347 -265 -347c-94 0 -147 53 -157 101c-1 2 -1 5 -1 7c0 18 15 33 32 33c2 0 5 0 7 -1c1 0 1 -1 1 -1c15 -4 24 -17 24 -33v-5
c-1 -4 -1 -8 -1 -12c0 -33 19 -65 68 -65c121 0 218 129 218 340v355c0 14 -12 26 -26 26c-5 0 -9 4 -9 9c0 3 1 5 3 7z" />
    <glyph glyph-name="k.salt" unicode="&#xe014;" horiz-adv-x="534" 
d="M884 -335c20 0 34 -16 34 -34c0 -7 -2 -14 -6 -20c-27 -39 -88 -85 -202 -85c-290 0 -472 480 -524 580l-77 -85v-130c0 -18 2 -64 28 -72c4 -1 7 -4 7 -9v-1c0 -5 -4 -9 -9 -9h-126c-5 0 -9 4 -9 9v1c0 5 3 8 7 9c27 7 28 54 28 72v427c0 212 -104 347 -225 347
c-50 0 -63 -29 -63 -58c0 -9 1 -18 3 -26c1 -2 1 -5 1 -7c0 -14 -10 -28 -25 -31h-1c-2 -1 -5 -1 -7 -1c-17 0 -32 15 -32 32c0 3 0 5 1 8c11 43 50 101 157 101c240 0 264 -285 265 -346v-288l270 297c8 9 19 13 29 13c20 0 39 -15 40 -39c0 -17 -11 -33 -28 -38
c-69 -23 -115 -46 -164 -100l-18 -20c97 -196 288 -622 491 -622c107 0 115 61 121 96c3 17 17 29 34 29z" />
    <glyph glyph-name="l.salt" unicode="&#xe015;" 
d="M137 -181c4 -1 7 -4 7 -9v-1c0 -5 -4 -9 -9 -9h-126c-5 0 -9 4 -9 9v1c0 5 3 8 7 9c27 7 28 54 28 72v427c0 212 -104 347 -225 347c-50 0 -63 -29 -63 -58c0 -9 1 -18 3 -26c1 -2 1 -5 1 -7c0 -14 -10 -28 -25 -31h-1c-2 -1 -5 -1 -7 -1c-17 0 -32 15 -32 32
c0 3 0 5 1 8c11 43 50 101 157 101c83 0 140 -35 180 -82c74 -89 84 -224 85 -264v-446c0 -18 1 -64 28 -72z" />
    <glyph glyph-name="m.salt" unicode="&#xe016;" horiz-adv-x="907" 
d="M1131 -334c2 1 5 1 7 1c18 0 33 -15 33 -33c0 -2 0 -5 -1 -7c-10 -48 -63 -101 -158 -101c-236 0 -263 277 -264 343v334c0 67 -39 127 -112 127c-84 0 -170 -96 -170 -187v-252c0 -18 1 -64 28 -72c4 -1 7 -4 7 -9v-1c0 -5 -4 -9 -9 -9h-126c-5 0 -9 4 -9 9v1
c0 5 3 8 7 9c27 7 28 54 28 72v312c0 67 -39 127 -112 127c-85 0 -170 -100 -170 -192v-248c0 -17 1 -64 28 -71c4 -1 7 -4 7 -9v-1c0 -5 -4 -9 -9 -9h-126c-5 0 -10 4 -10 9v1c0 5 4 8 8 9c27 7 28 54 28 71v355c0 14 -12 26 -27 26c-5 0 -9 4 -9 9c0 3 2 5 4 7l91 70
c2 1 3 2 5 2c5 0 10 -4 10 -10v-136c27 66 90 146 206 146c85 0 148 -56 150 -146c27 66 90 146 206 146c86 0 150 -57 150 -149v-319c0 -212 97 -341 218 -341c50 0 68 33 68 67c0 4 -1 7 -1 11c0 2 -1 4 -1 6c0 15 9 28 24 31c1 0 1 1 1 1z" />
    <glyph glyph-name="n.salt" unicode="&#xe017;" horiz-adv-x="550" 
d="M813 -373c-10 -48 -63 -101 -157 -101c-240 0 -264 286 -265 346v331c0 67 -39 127 -111 127c-86 0 -170 -100 -171 -192v-248c0 -18 2 -64 28 -71c4 -1 7 -4 7 -9v-1c0 -5 -4 -9 -9 -9h-126c-5 0 -9 4 -9 9v1c0 5 3 8 7 9c27 7 28 53 28 71v355c0 14 -12 26 -26 26
c-5 0 -9 4 -9 9c0 3 1 5 3 7l91 70c2 1 3 2 5 2c5 0 10 -4 10 -10v-136c27 66 90 145 207 145c85 0 149 -56 149 -148v-320c0 -211 97 -340 218 -340c49 0 68 32 68 65c0 4 0 8 -1 12v5c0 16 9 29 24 33c0 0 0 1 1 1c2 1 5 1 7 1c17 0 32 -15 32 -33c0 -2 0 -5 -1 -7z" />
    <glyph glyph-name="r.salt" unicode="&#xe018;" horiz-adv-x="441" 
d="M375 329c8 -7 13 -17 13 -27c0 -5 -1 -10 -3 -14c-6 -14 -20 -21 -33 -21c-11 0 -23 5 -30 17c-16 27 -41 46 -79 46c-80 0 -133 -119 -134 -211v-250c-1 -65 -28 -343 -264 -343c-107 0 -146 58 -158 101c-1 3 -1 5 -1 8c0 17 15 32 33 32c2 0 5 0 7 -1c0 0 0 -1 1 -1
c15 -3 25 -17 25 -30c0 -3 0 -5 -1 -7c-2 -8 -3 -17 -3 -26c0 -29 13 -58 63 -58c120 0 224 134 224 346v355c0 14 -11 26 -26 26c-5 0 -9 4 -9 9c0 3 1 5 3 7l91 70c2 1 3 2 5 2c5 0 10 -4 10 -10v-141c18 60 72 155 165 155c39 0 75 -13 101 -34z" />
    <glyph glyph-name="t.salt" unicode="&#xe019;" horiz-adv-x="215" 
d="M418 -334l1 1c2 1 5 1 7 1c17 0 32 -15 32 -33c0 -2 0 -5 -1 -7c-10 -48 -63 -101 -157 -101c-241 0 -265 289 -265 347h1v467h-27c-5 0 -9 4 -9 9s4 9 9 9h27v115c0 6 2 12 7 15l51 39c2 2 4 2 6 2c5 0 9 -3 9 -9v-162h40c5 0 9 -4 9 -9s-4 -9 -9 -9h-40v-449
c0 -212 97 -341 218 -341c49 0 68 32 68 66c0 4 0 8 -1 12v5c0 15 9 28 24 32z" />
    <glyph glyph-name="u.salt" unicode="&#xe01a;" horiz-adv-x="551" 
d="M774 -335l1 1c2 1 5 1 7 1c18 0 33 -15 33 -33c0 -2 0 -5 -1 -7c-11 -48 -63 -101 -158 -101c-241 0 -264 289 -264 347v72c-1 -3 -3 -6 -4 -9c-29 -64 -92 -136 -203 -136c-86 0 -149 56 -149 148v297c0 14 -12 26 -27 26c-5 0 -9 4 -9 9c0 3 2 5 4 7l91 70c2 1 3 2 5 2
c5 0 9 -4 9 -10v-393c0 -68 40 -128 112 -128c86 0 170 100 171 192v225c0 14 -12 26 -27 26c-5 0 -9 4 -9 9c0 3 2 5 4 7l91 70c2 1 3 2 5 2c5 0 10 -4 10 -10v-458c0 -213 97 -340 218 -340c49 0 67 31 67 64c0 4 0 9 -1 13v5c0 15 9 28 24 32z" />
    <glyph glyph-name="h.salt2" unicode="&#xe01b;" horiz-adv-x="550" 
d="M775 -334c2 1 5 1 7 1c18 0 33 -15 33 -33c0 -2 0 -5 -1 -7c-10 -48 -63 -101 -158 -101c-238 0 -264 283 -264 345v331c0 68 -39 128 -112 128c-85 0 -170 -100 -171 -192v-248c0 -17 2 -64 28 -71c5 -1 8 -4 8 -9v-1c0 -5 -4 -9 -10 -9h-125c-5 0 -10 4 -10 9v1
c0 5 3 8 8 9c27 7 28 54 28 71v653c0 14 -12 26 -27 26c-4 0 -9 4 -9 9c0 3 2 6 4 7l91 70c2 1 3 2 5 2c5 0 10 -4 10 -10l-1 -434c28 66 91 145 207 145c86 0 150 -56 150 -148v-319c0 -212 97 -341 218 -341c50 0 68 33 68 67c0 4 -1 7 -1 11v5c0 15 8 28 23 32
c1 0 1 1 1 1z" />
    <glyph glyph-name="l.salt2" unicode="&#xe01c;" 
d="M419 -334c2 1 5 1 7 1c17 0 32 -15 32 -33c0 -2 0 -5 -1 -7c-10 -48 -63 -101 -157 -101c-241 0 -265 289 -265 347v670c0 14 -12 26 -26 26c-5 0 -9 4 -9 9c0 3 1 6 3 7l91 70c2 1 3 2 5 2c5 0 10 -4 10 -10v-756c0 -212 97 -341 218 -341c50 0 68 33 68 67
c0 4 -1 7 -1 11v5c0 15 9 28 24 32c0 0 0 1 1 1z" />
    <glyph glyph-name="A.SALT3" unicode="&#xe01d;" horiz-adv-x="651" 
d="M1026 -339c21 0 35 -17 35 -35c0 -6 -2 -13 -6 -19c-27 -39 -89 -85 -203 -85c-284 0 -381 364 -392 404l-6 20c-17 58 -55 109 -109 137c-35 19 -68 25 -100 25c-10 0 -20 -1 -30 -2h-5c-23 0 -42 15 -42 35c0 3 1 6 2 10c6 15 19 23 34 23h3c107 -12 190 -98 227 -158
l-154 529l-199 -649c-3 -9 -11 -32 -11 -52c0 -13 3 -24 13 -28c5 -2 6 -6 6 -10s-2 -9 -11 -9h-68c-5 0 -10 4 -10 10c0 4 3 8 8 9c30 8 48 64 54 83l229 743c3 9 11 14 19 14c9 0 17 -5 20 -15l209 -724c1 -1 1 -3 2 -5c43 -146 129 -376 330 -376c98 0 115 61 121 96
c3 17 17 29 34 29z" />
    <glyph glyph-name="H.SALT3" unicode="&#xe01e;" horiz-adv-x="661" 
d="M884 -334h1c2 1 5 1 7 1c17 0 32 -15 32 -32c0 -3 0 -5 -1 -8c-11 -43 -50 -101 -157 -101c-238 0 -264 282 -264 345v401h-393v-381c0 -18 2 -64 28 -71c4 -2 7 -5 7 -9v-2c0 -5 -4 -9 -9 -9h-126c-5 0 -9 4 -9 9v1c0 5 3 8 8 9c27 7 27 54 27 72v678c0 20 -1 61 -27 68
c-5 1 -8 4 -8 9v1c0 5 4 9 9 9h126c5 0 9 -4 9 -9v-1c0 -5 -3 -8 -7 -9c-26 -6 -28 -43 -28 -64v-282h393v278c0 20 -1 61 -28 68c-4 1 -8 4 -8 9v1c0 5 5 9 10 9h125c6 0 10 -4 10 -9v-1c0 -5 -4 -8 -8 -9c-27 -7 -28 -47 -28 -68v-4l2 -676c0 -211 102 -345 223 -345
c50 0 63 29 63 58c0 9 -1 18 -3 26c-1 2 -1 5 -1 7c0 14 10 28 25 31z" />
    <glyph glyph-name="K.SALT3" unicode="&#xe01f;" horiz-adv-x="652" 
d="M1044 -334c21 0 35 -17 35 -36c0 -6 -2 -13 -6 -19c-27 -39 -81 -84 -194 -84c-348 0 -571 485 -702 704l-68 -74v-266c0 -18 2 -64 28 -71c5 -2 8 -5 8 -9v-2c0 -5 -4 -9 -10 -9h-125c-5 0 -10 4 -10 9v2c0 4 4 7 8 9c27 7 28 53 28 71v679c0 20 -1 60 -28 67
c-4 1 -8 4 -8 9v1c0 5 5 9 10 9h125c6 0 10 -4 10 -9v-1c0 -5 -4 -8 -8 -9c-26 -6 -28 -43 -28 -64v-383l318 351c9 10 44 50 44 75c0 11 -7 19 -26 21c-5 1 -9 5 -9 10s4 9 10 9h125c6 0 10 -4 10 -10c0 -4 -3 -8 -8 -9c-43 -9 -105 -85 -120 -101l-223 -247
c131 -221 429 -749 660 -749c106 0 114 62 120 97c3 16 18 29 34 29z" />
    <glyph glyph-name="M.SALT3" unicode="&#xe020;" horiz-adv-x="712" 
d="M935 -334h1c3 1 5 1 8 1c17 0 31 -14 31 -32c0 -2 0 -5 -1 -8c-11 -43 -50 -100 -157 -100c-236 0 -263 277 -264 342v726l-241 -744c-1 -4 -5 -6 -9 -6s-7 2 -9 6l-191 595c-19 -225 -82 -646 -297 -646c-72 0 -123 56 -137 108c-1 5 -2 9 -2 14c0 16 8 31 24 39l1 1
c6 3 13 4 19 4c20 0 39 -13 43 -34c10 -44 34 -83 85 -83c170 0 230 394 250 602c1 5 1 10 1 14c0 14 -2 29 -7 42l-44 138c0 1 -1 2 -1 3c0 4 4 8 9 8h59c4 0 7 -3 8 -6l218 -677l219 677c1 3 5 6 9 6h93c5 0 9 -4 9 -9v-1c0 -5 -3 -8 -8 -9c-25 -6 -27 -42 -27 -63v-683
c0 -212 103 -347 224 -347c50 0 63 29 63 58c0 9 -1 18 -3 26c-1 2 -1 5 -1 7c0 14 10 28 25 31z" />
    <glyph glyph-name="R.SALT3" unicode="&#xe021;" horiz-adv-x="636" 
d="M955 -334c20 0 34 -17 34 -35c0 -7 -2 -14 -6 -20c-27 -39 -71 -84 -179 -84c-369 0 -436 641 -635 641h-10c-4 0 -8 3 -8 8c0 4 4 8 8 8h50c147 0 240 101 240 226c0 126 -87 227 -232 227h-58c-49 0 -50 -50 -50 -70v-676c0 -18 2 -64 28 -72c4 -1 7 -4 7 -8v-2
c0 -5 -4 -9 -9 -9h-126c-5 0 -9 4 -9 9v1c0 5 3 8 7 9c27 7 28 54 28 72v678c0 20 -1 61 -27 67c-5 1 -8 5 -8 9v1c0 6 4 10 9 10h243c153 0 270 -106 270 -246c0 -134 -91 -219 -252 -244c155 -50 319 -626 536 -626c106 0 108 62 115 97c3 16 17 29 34 29z" />
    <glyph glyph-name="V.SALT3" unicode="&#xe022;" horiz-adv-x="649" 
d="M516 674c23 0 41 -19 41 -41c0 -4 -1 -8 -2 -12l-246 -806c-2 -9 -11 -14 -19 -14s-16 5 -19 14l-209 721c-5 17 -26 90 -55 101c-4 1 -7 4 -7 9v1c0 5 5 9 10 9h124c5 0 10 -4 10 -9s-3 -9 -7 -10c-10 -3 -13 -15 -13 -29c0 -22 8 -49 11 -59l185 -638l131 434
c20 64 29 131 29 197c0 29 -1 58 -5 86c0 2 -1 4 -1 6c0 22 19 40 42 40z" />
    <glyph glyph-name="W.SALT3" unicode="&#xe023;" horiz-adv-x="940" 
d="M805 674c23 0 41 -19 41 -41c0 -4 -1 -8 -2 -12l-245 -806c-3 -9 -11 -14 -19 -14c-9 0 -17 5 -20 14l-121 418l-129 -418c-3 -9 -11 -14 -19 -14s-16 5 -19 14l-209 721c-5 17 -26 90 -55 101c-5 1 -8 4 -8 9v1c0 5 5 9 11 9h124c5 0 10 -5 10 -9c0 -5 -3 -9 -7 -10
c-10 -3 -13 -15 -13 -29c0 -22 8 -49 11 -59l185 -638l109 354l-79 271c-5 17 -25 90 -55 100c-4 2 -7 5 -7 9v1c0 6 5 10 10 10h124c5 0 10 -5 10 -10c0 -4 -3 -8 -7 -10c-10 -3 -13 -15 -13 -28c0 -22 9 -50 11 -59l185 -638l131 434c20 64 29 131 29 197
c0 29 -1 58 -5 86v5c0 22 18 41 41 41z" />
    <glyph glyph-name="X.SALT3" unicode="&#xe024;" horiz-adv-x="639" 
d="M581 -180c4 -1 7 -5 7 -9v-1c0 -5 -4 -10 -10 -10h-144c-5 0 -9 5 -9 10s3 9 7 10c9 2 12 10 12 20c0 22 -17 56 -20 62l-153 287l-180 -307c-4 -8 -15 -28 -15 -43c0 -9 3 -17 15 -19c5 -1 8 -5 8 -10s-4 -10 -9 -10h-80c-5 0 -10 5 -10 10s4 9 8 10c30 7 57 53 66 69
l187 319l-177 331c-8 17 -42 88 -76 97c-5 2 -8 5 -8 10s5 10 10 10h140c5 0 9 -4 9 -10c0 -5 -3 -8 -8 -9c-11 -2 -14 -10 -14 -20c0 -22 20 -56 23 -63l153 -287l75 128c40 67 69 163 81 239c4 31 22 41 40 41h2c19 0 34 -16 34 -36c0 -7 -2 -14 -6 -21l-216 -370
l169 -316c10 -18 57 -100 89 -112z" />
    <glyph glyph-name="Y.SALT3" unicode="&#xe025;" horiz-adv-x="641" 
d="M358 -180c4 -1 7 -5 7 -9v-1c0 -5 -4 -10 -9 -10h-126c-5 0 -9 5 -9 10v1c0 4 3 8 7 9c27 7 28 53 28 71v274c0 5 -1 9 -3 14l-178 368c-7 16 -40 87 -67 90c-5 0 -8 4 -8 9c0 6 4 10 9 10h126c5 0 9 -4 9 -9v-2c0 -4 -3 -7 -7 -9c-5 -3 -7 -9 -7 -15
c0 -17 11 -41 15 -49l174 -362l93 182c37 71 59 168 68 247c4 27 22 36 39 36s33 -12 33 -34c0 -10 -3 -21 -10 -34l-209 -410c-2 -5 -3 -10 -3 -15v-291c0 -18 2 -64 28 -71z" />
    <glyph glyph-name="M.SALT4" unicode="&#xe026;" horiz-adv-x="712" 
d="M655 637c-26 -6 -28 -43 -28 -65v-681c0 -18 2 -64 28 -71c4 -1 7 -5 7 -9v-1c0 -5 -4 -10 -9 -10h-125c-6 0 -10 5 -10 10v1c0 4 3 8 8 9c27 7 28 53 28 71v704l-242 -743c-1 -4 -4 -7 -8 -7s-7 3 -9 7l-191 594c-19 -225 -82 -646 -297 -646c-71 0 -123 56 -137 108
c-1 5 -2 9 -2 14c0 16 8 31 24 39l1 1c6 3 13 4 20 4c20 0 38 -13 43 -34c9 -44 33 -83 84 -83c170 0 230 394 250 602c1 5 1 10 1 14c0 14 -2 29 -7 42l-44 138c0 1 -1 2 -1 3c0 4 4 8 9 8h59c4 0 7 -3 8 -7l218 -676l219 676c1 4 5 7 9 7h92c5 0 9 -4 9 -9v-1
c0 -5 -3 -8 -7 -9z" />
    </font>
</defs>
</svg>
