<?xml version="1.0" standalone="no"?>
<!DOCTYPE svg PUBLIC "-//W3C//DTD SVG 1.1//EN" "http://www.w3.org/Graphics/SVG/1.1/DTD/svg11.dtd" >
<svg xmlns="http://www.w3.org/2000/svg" xmlns:xlink="http://www.w3.org/1999/xlink" version="1.1">
<metadata>
Created by FontForge 20201107 at Thu Aug  4 07:22:49 2022
 By Unknown
Storytype Studio 2021. All Rights Reserved
</metadata>
<defs>
<font id="Zasline" horiz-adv-x="599" >
  <font-face 
    font-family="Zasline"
    font-weight="400"
    font-stretch="normal"
    units-per-em="1000"
    panose-1="0 0 0 0 0 0 0 0 0 0"
    ascent="800"
    descent="-200"
    x-height="498"
    cap-height="698"
    bbox="-560 -275 1453 955"
    underline-thickness="50"
    underline-position="-150"
    unicode-range="U+000A-FB02"
  />
<missing-glyph horiz-adv-x="527" 
d="M100 700h427v-700h-427v700zM128 680l185 -309l186 309h-371zM301 350l-180 300v-601zM314 329l-185 -308h370zM326 350l181 -303v605z" />
    <glyph glyph-name="fi.liga" unicode="fi" horiz-adv-x="504" 
d="M50 459c-12 0 -20 8 -20 20s8 19 20 19h22c10 128 63 210 186 210c66 0 122 -23 145 -36c48 -27 53 -67 22 -93c-30 -25 -60 -11 -76 11c-13 17 -47 78 -88 78c-43 0 -51 -66 -52 -170h219c23 0 39 -8 39 -32v-340c0 -33 14 -73 35 -100c3 -4 5 -9 5 -14v-2
c0 -6 -4 -10 -10 -10h-200c-6 0 -10 4 -10 10v2c0 5 2 10 5 14c21 26 35 67 35 100v247c0 28 -9 60 -25 86h-93v-333c0 -33 14 -73 35 -100c3 -4 5 -9 5 -14v-2c0 -6 -4 -10 -10 -10h-199c-6 0 -10 4 -10 10v2c0 5 2 10 5 14c21 26 35 67 35 100v333h-20z" />
    <glyph glyph-name="fl.liga" unicode="fl" horiz-adv-x="501" 
d="M48 459c-12 0 -20 8 -20 20s8 19 20 19h22c10 128 63 210 186 210c34 0 65 -6 90 -14l78 14c23 4 39 -9 39 -33v-549c0 -33 14 -73 35 -100c3 -4 5 -9 5 -14v-2c0 -6 -4 -10 -10 -10h-200c-6 0 -10 4 -10 10v2c0 5 2 10 5 14c21 26 35 67 35 100v433c0 32 -14 72 -34 99
c-9 6 -19 10 -30 10c-43 0 -51 -66 -52 -170h73c12 0 20 -7 20 -19s-8 -20 -20 -20h-73v-333c0 -33 14 -73 35 -100c3 -4 5 -9 5 -14v-2c0 -6 -4 -10 -10 -10h-199c-6 0 -10 4 -10 10v2c0 5 2 10 5 14c21 26 35 67 35 100v333h-20z" />
    <glyph glyph-name=".notdef" horiz-adv-x="527" 
d="M100 700h427v-700h-427v700zM128 680l185 -309l186 309h-371zM301 350l-180 300v-601zM314 329l-185 -308h370zM326 350l181 -303v605z" />
    <glyph glyph-name=".null" horiz-adv-x="0" 
 />
    <glyph glyph-name="nonmarkingreturn" horiz-adv-x="0" 
 />
    <glyph glyph-name="space" unicode=" " horiz-adv-x="347" 
 />
    <glyph glyph-name="nonmarkingreturn.1" unicode="&#xa;" horiz-adv-x="0" 
 />
    <glyph glyph-name="exclam" unicode="!" horiz-adv-x="233" 
d="M154 -10c-47 0 -78 31 -78 78s31 79 78 79s79 -32 79 -79s-32 -78 -79 -78zM179 208c-3 -12 -12 -19 -24 -19s-21 7 -24 19l-16 74c-17 80 -30 189 -30 270v78c0 42 27 69 69 69c43 0 71 -27 71 -69v-78c0 -81 -13 -190 -30 -270z" />
    <glyph glyph-name="quotedbl" unicode="&#x22;" horiz-adv-x="439" 
d="M297 523l-35 133c-15 56 19 94 80 94c65 1 98 -42 80 -106l-34 -121c-6 -21 -23 -34 -45 -33c-20 0 -40 11 -46 33zM77 523l-34 133c-15 56 18 94 79 94c66 1 99 -42 81 -106l-34 -121c-6 -21 -24 -34 -46 -33c-20 0 -40 11 -46 33z" />
    <glyph glyph-name="numbersign" unicode="#" horiz-adv-x="633" 
d="M242 269h159l34 160h-159zM165 95l29 134h-134c-9 0 -15 6 -13 16c3 15 15 24 30 24h125l34 160h-130c-12 0 -18 8 -15 20s12 20 24 20h130l28 130c2 12 12 19 24 19s18 -7 16 -19l-28 -130h159l28 130c2 12 12 19 24 19s18 -7 16 -19l-28 -130h130c12 0 18 -8 15 -20
s-12 -20 -24 -20h-130l-34 -160h130c12 0 18 -8 16 -20s-12 -20 -24 -20h-130l-28 -130c-2 -12 -12 -19 -24 -19s-18 7 -16 19l28 130h-159l-27 -125c-3 -14 -15 -24 -30 -24c-9 0 -14 6 -12 15z" />
    <glyph glyph-name="dollar" unicode="$" horiz-adv-x="550" 
d="M325 252v-219c50 11 83 49 83 100c0 52 -35 88 -83 119zM203 563c0 -49 30 -82 72 -112v215c-47 -10 -72 -58 -72 -103zM275 -87v77c-79 0 -138 19 -170 39c-49 29 -55 68 -35 99c25 38 67 25 89 -9c9 -14 45 -76 116 -87v250c-95 53 -205 105 -205 228
c0 109 86 184 205 196v80c0 15 10 25 25 25s25 -10 25 -25v-78c59 -3 112 -21 141 -39c49 -29 55 -68 35 -99c-25 -39 -67 -25 -89 9c-8 12 -38 65 -87 83v-242c97 -56 216 -108 216 -235c0 -105 -84 -178 -216 -192v-80c0 -15 -10 -25 -25 -25s-25 10 -25 25z" />
    <glyph glyph-name="percent" unicode="%" horiz-adv-x="670" 
d="M464 196c0 -108 25 -183 62 -183c36 0 63 73 63 183c0 115 -29 183 -63 183s-62 -67 -62 -183zM384 199c0 127 58 203 141 203c81 0 144 -76 144 -203s-63 -209 -144 -209c-82 0 -141 81 -141 209zM140 502c0 -108 25 -183 62 -183c36 0 63 73 63 183
c0 115 -29 183 -63 183s-62 -67 -62 -183zM196 25l277 648c6 15 21 25 38 25c16 0 22 -10 16 -25l-278 -648c-6 -15 -21 -25 -37 -25s-22 10 -16 25zM60 505c0 127 58 203 141 203c81 0 144 -76 144 -203s-63 -209 -144 -209c-82 0 -141 81 -141 209z" />
    <glyph glyph-name="ampersand" unicode="&#x26;" horiz-adv-x="695" 
d="M397 137c-69 65 -139 148 -188 228c-22 -36 -37 -83 -37 -133c0 -83 46 -135 136 -135c48 0 69 14 89 40zM309 448c57 51 66 132 66 159c0 43 -23 71 -57 71c-37 0 -61 -34 -61 -87c0 -50 21 -98 52 -143zM610 0c-40 0 -107 43 -179 107c-41 -72 -84 -117 -175 -117
c-105 0 -194 61 -194 179c0 93 54 164 124 235c-31 57 -51 111 -51 156c0 87 74 148 178 148c96 0 165 -52 165 -131c0 -74 -60 -115 -154 -149c32 -43 71 -83 105 -119c17 -18 34 -36 49 -51c17 43 54 130 63 145c23 40 117 31 86 -38c-21 -45 -89 -106 -120 -136
c106 -103 158 -122 197 -109c-2 -97 -65 -120 -94 -120z" />
    <glyph glyph-name="quotesingle" unicode="'" horiz-adv-x="219" 
d="M77 523l-34 133c-15 56 18 94 79 94c66 1 99 -42 81 -106l-34 -121c-6 -21 -24 -34 -46 -33c-20 0 -40 11 -46 33z" />
    <glyph glyph-name="parenleft" unicode="(" horiz-adv-x="270" 
d="M370 -120c-196 12 -294 196 -294 475c0 283 101 469 294 480c12 1 20 -7 20 -18s-8 -19 -20 -22c-94 -21 -154 -196 -154 -463c0 -248 52 -395 154 -411c12 -2 20 -10 20 -22s-8 -20 -20 -19z" />
    <glyph glyph-name="parenright" unicode=")" horiz-adv-x="270" 
d="M148 355c0 -279 -98 -463 -294 -475c-12 -1 -20 7 -20 19s8 20 20 22c102 16 154 163 154 411c0 267 -60 442 -154 463c-12 3 -20 11 -20 22s8 19 20 18c193 -11 294 -197 294 -480z" />
    <glyph glyph-name="asterisk" unicode="*" horiz-adv-x="319" 
d="M154 558l-34 -35c-24 -25 -51 -25 -68 3c-15 28 -2 53 37 64l45 12l-45 13c-39 11 -52 36 -37 64c17 28 44 28 68 3l34 -35l-13 47c-9 33 4 56 36 56c33 0 47 -25 37 -63l-10 -37l30 32c12 13 25 18 37 18s23 -7 31 -21c17 -28 2 -53 -36 -64l-46 -13l46 -12
c38 -11 53 -36 36 -64c-8 -14 -19 -21 -31 -21s-25 5 -37 18l-30 32l10 -37c10 -37 -4 -62 -37 -62c-32 0 -45 23 -36 55z" />
    <glyph glyph-name="plus" unicode="+" horiz-adv-x="565" 
d="M59 349h215v215c0 15 10 25 25 25s25 -10 25 -25v-215h215c15 0 25 -10 25 -25s-10 -25 -25 -25h-215v-215c0 -15 -10 -25 -25 -25s-25 10 -25 25v215h-215c-15 0 -25 10 -25 25s10 25 25 25z" />
    <glyph glyph-name="comma" unicode="," horiz-adv-x="205" 
d="M95 -47c19 10 34 20 44 38c-4 -1 -9 -1 -13 -1c-47 0 -78 32 -78 79s31 78 78 78c46 0 79 -30 79 -82c0 -54 -35 -102 -98 -138c-7 -4 -15 -2 -19 6s-1 16 7 20z" />
    <glyph glyph-name="hyphenminus" unicode="-" horiz-adv-x="742" 
d="M57 259h660c15 0 25 -10 25 -25s-10 -25 -25 -25h-660c-15 0 -25 10 -25 25s10 25 25 25z" />
    <glyph glyph-name="period" unicode="." horiz-adv-x="205" 
d="M48 69c0 47 31 78 78 78s79 -31 79 -78s-32 -79 -79 -79s-78 32 -78 79z" />
    <glyph glyph-name="slash" unicode="/" horiz-adv-x="327" 
d="M25 10l261 715c5 14 18 23 33 23s22 -9 17 -23l-262 -715c-5 -14 -18 -23 -32 -23c-15 0 -22 9 -17 23z" />
    <glyph glyph-name="zero" unicode="0" horiz-adv-x="571" 
d="M212 350c0 -190 43 -320 107 -320s112 127 112 321c0 198 -50 317 -111 317c-60 0 -108 -118 -108 -318zM72 354c0 220 102 354 245 354c144 0 253 -134 253 -355s-109 -363 -252 -363c-142 0 -246 141 -246 364z" />
    <glyph glyph-name="one" unicode="1" horiz-adv-x="289" 
d="M249 675v-549c0 -33 14 -73 35 -100c3 -4 5 -9 5 -14v-2c0 -6 -4 -10 -10 -10h-199c-6 0 -10 4 -10 10v2c0 5 2 10 5 14c21 26 35 67 35 100v383c0 33 -14 73 -32 96c-6 8 -8 13 -8 18v2c0 6 3 10 20 10c48 0 81 33 102 49c39 29 57 15 57 -9z" />
    <glyph glyph-name="two" unicode="2" horiz-adv-x="528" 
d="M175 140h183c24 0 54 8 75 20l29 16c4 2 9 3 12 3c8 0 13 -5 12 -13l-14 -132c-2 -21 -18 -34 -39 -34h-359c-43 0 -52 20 -23 53c126 140 318 366 318 504c0 56 -31 111 -89 111c-68 0 -110 -74 -120 -89c-21 -34 -64 -48 -89 -9c-20 31 -14 70 35 99
c33 20 92 39 158 39c135 0 238 -79 238 -207c0 -186 -223 -292 -327 -361z" />
    <glyph glyph-name="three" unicode="3" horiz-adv-x="550" 
d="M235 390c80 8 123 68 123 156c0 60 -20 122 -93 122c-79 0 -104 -74 -119 -96c-17 -27 -59 -41 -84 -2c-20 31 -14 70 35 100c30 18 86 38 167 38c149 0 233 -68 233 -167c0 -87 -65 -145 -157 -164c126 -12 197 -93 197 -189c0 -115 -104 -198 -270 -198
c-63 0 -127 12 -169 38c-50 30 -56 69 -36 100c25 38 67 25 84 -2c15 -22 40 -96 120 -96c74 0 132 64 132 150c0 100 -78 160 -163 168c-12 1 -20 9 -20 21s8 20 20 21z" />
    <glyph glyph-name="four" unicode="4" horiz-adv-x="583" 
d="M40 207c0 7 2 16 6 22c100 161 130 252 156 408c5 37 32 61 69 61h47c37 0 48 -21 29 -52l-267 -427h299v418c0 37 24 61 61 61h104c8 0 14 -6 14 -14c0 -4 -2 -8 -4 -11l-16 -20c-11 -15 -19 -38 -19 -57v-377h29c12 0 20 -8 20 -20s-8 -20 -20 -20h-29v-53
c0 -33 14 -73 34 -100c3 -4 5 -9 5 -14v-2c0 -6 -4 -10 -10 -10h-199c-6 0 -10 4 -10 10v2c0 5 2 10 5 14c21 26 35 67 35 100v53h-311c-17 0 -28 11 -28 28z" />
    <glyph glyph-name="five" unicode="5" horiz-adv-x="513" 
d="M84 351v294c0 44 20 53 62 53h197c24 0 54 8 75 20l29 17c4 2 9 3 13 3c7 0 12 -5 11 -13l-14 -133c-2 -21 -18 -34 -39 -34h-294v-178c27 13 95 59 174 59c115 0 207 -97 207 -230c0 -140 -103 -219 -238 -219c-66 0 -126 19 -158 39c-49 29 -55 68 -35 99
c25 38 67 25 89 -9c10 -15 52 -89 120 -89c58 0 89 55 89 157c0 111 -36 202 -112 202c-44 0 -105 -31 -148 -54c-16 -9 -28 -3 -28 16z" />
    <glyph glyph-name="six" unicode="6" horiz-adv-x="549" 
d="M222 219c0 -107 52 -189 107 -189c49 0 82 65 82 175c0 119 -38 194 -85 194c-43 0 -104 -64 -104 -180zM503 570c-25 -39 -68 -25 -90 9c-10 15 -52 89 -101 89c-66 0 -100 -131 -100 -319c27 56 78 90 148 90c122 0 191 -104 191 -225c0 -120 -69 -224 -214 -224
c-167 0 -265 139 -265 358s98 360 248 360c55 0 115 -19 148 -39c49 -29 55 -68 35 -99z" />
    <glyph glyph-name="seven" unicode="7" horiz-adv-x="515" 
d="M482 645c-110 -123 -190 -415 -209 -580c-5 -40 -30 -65 -68 -65h-10c-40 0 -65 28 -59 65c30 179 169 403 251 493h-212c-24 0 -54 -8 -75 -20l-29 -17c-4 -2 -9 -3 -13 -3c-8 0 -13 5 -12 13l15 133c2 21 18 34 39 34h359c43 0 52 -20 23 -53z" />
    <glyph glyph-name="eight" unicode="8" horiz-adv-x="546" 
d="M241 326c-18 -34 -33 -81 -33 -140c0 -98 39 -156 103 -156c54 0 103 41 103 105c0 85 -89 133 -173 191zM230 567c0 -73 54 -117 118 -157c24 23 47 59 47 122c0 92 -47 136 -91 136c-46 0 -74 -47 -74 -101zM202 354c-59 45 -106 100 -106 181c0 108 83 173 216 173
c121 0 198 -53 198 -152c0 -94 -71 -137 -133 -163c83 -50 171 -101 171 -206c0 -120 -116 -197 -259 -197c-140 0 -219 74 -219 170c0 70 43 131 132 194z" />
    <glyph glyph-name="nine" unicode="9" horiz-adv-x="549" 
d="M397 493c0 93 -33 175 -98 175c-60 0 -91 -69 -91 -176c0 -118 37 -193 84 -193c43 0 105 64 105 194zM116 128c25 38 68 25 90 -9c10 -15 51 -89 100 -89c66 0 101 131 101 319c-28 -56 -79 -90 -149 -90c-121 0 -190 104 -190 217c0 128 89 232 233 232
c168 0 246 -139 246 -345c0 -232 -98 -373 -249 -373c-55 0 -114 19 -147 39c-49 29 -55 68 -35 99z" />
    <glyph glyph-name="colon" unicode=":" horiz-adv-x="219" 
d="M62 69c0 47 31 78 78 78s79 -31 79 -78s-32 -79 -79 -79s-78 32 -78 79zM62 431c0 47 31 77 78 77s79 -30 79 -77s-32 -79 -79 -79s-78 32 -78 79z" />
    <glyph glyph-name="semicolon" unicode=";" horiz-adv-x="219" 
d="M109 -47c19 10 34 20 44 38c-4 -1 -9 -1 -13 -1c-47 0 -78 32 -78 79s31 78 78 78c46 0 79 -30 79 -82c0 -54 -35 -102 -98 -138c-7 -4 -15 -2 -19 6s-1 16 7 20zM62 431c0 47 31 77 78 77s79 -30 79 -77s-32 -79 -79 -79s-78 32 -78 79z" />
    <glyph glyph-name="less" unicode="&#x3c;" horiz-adv-x="581" 
d="M43 363l493 265c14 7 27 3 34 -10c6 -13 3 -27 -10 -34l-455 -245l455 -244c13 -7 16 -21 10 -34c-7 -13 -20 -17 -34 -10l-493 265c-10 5 -14 14 -13 23c-1 9 3 19 13 24z" />
    <glyph glyph-name="equal" unicode="=" horiz-adv-x="573" 
d="M67 229h480c15 0 25 -10 25 -25s-10 -25 -25 -25h-480c-15 0 -25 10 -25 25s10 25 25 25zM67 439h480c15 0 25 -10 25 -25s-10 -25 -25 -25h-480c-15 0 -25 10 -25 25s10 25 25 25z" />
    <glyph glyph-name="greater" unicode="&#x3e;" horiz-adv-x="581" 
d="M569 363c10 -5 14 -14 13 -23c1 -9 -3 -19 -13 -24l-493 -265c-14 -7 -27 -3 -34 10s-3 27 10 34l455 245l-455 244c-13 7 -17 21 -10 34s20 17 34 10z" />
    <glyph glyph-name="question" unicode="?" horiz-adv-x="487" 
d="M224 -10c-47 0 -78 31 -78 78s31 79 78 79s79 -32 79 -79s-32 -78 -79 -78zM241 209c-2 -12 -10 -20 -21 -20c-12 0 -20 8 -19 20c9 166 133 215 133 341c0 63 -31 118 -89 118c-68 0 -110 -74 -120 -89c-22 -34 -64 -48 -89 -9c-20 31 -14 70 35 99c32 20 92 39 158 39
c135 0 238 -79 238 -206c0 -178 -207 -165 -226 -293z" />
    <glyph glyph-name="at" unicode="@" horiz-adv-x="987" 
d="M599 381c-21 44 -51 68 -94 68c-72 0 -125 -68 -125 -203c0 -115 39 -196 111 -196c63 0 104 61 108 178v153zM509 -218c-264 9 -439 199 -439 477c0 285 184 477 460 477c275 0 457 -192 457 -437c0 -184 -102 -309 -257 -309c-85 0 -126 37 -130 106
c-35 -66 -93 -106 -165 -106c-117 0 -200 105 -200 251c0 164 104 267 224 267c56 0 105 -22 140 -61v29c0 23 16 36 39 32l131 -22c6 -1 10 -4 10 -10v-2c0 -5 -2 -10 -8 -18c-18 -23 -32 -63 -32 -96v-255c0 -13 4 -50 56 -50c82 0 152 92 152 241
c0 224 -159 402 -418 402c-251 0 -418 -167 -418 -432c0 -260 160 -435 408 -444c12 0 18 -8 15 -20s-13 -20 -25 -20z" />
    <glyph glyph-name="A" unicode="A" horiz-adv-x="595" 
d="M136 250h187l-92 256zM250 674c5 14 20 24 35 24s30 -9 35 -24l198 -553c11 -31 34 -65 59 -86l10 -9c4 -4 7 -10 7 -16s-4 -10 -10 -10h-215c-8 0 -13 5 -13 13c0 4 2 9 4 13l12 19c10 15 12 36 6 53l-41 112h-214l-35 -93c-10 -28 -6 -63 10 -89c3 -5 5 -12 5 -17v-1
c0 -6 -4 -10 -10 -10h-111c-7 0 -12 5 -12 12c0 5 2 10 6 13l23 20c17 15 34 40 42 61z" />
    <glyph glyph-name="B" unicode="B" horiz-adv-x="583" 
d="M215 40h77c92 0 153 62 153 156c0 92 -61 153 -153 153h-77v-309zM215 389h47c92 0 143 62 143 135s-51 134 -143 134h-47v-269zM36 10v2c0 5 2 10 5 14c21 26 35 67 35 100v446c0 33 -14 73 -35 100c-3 4 -5 9 -5 14v2c0 6 4 10 10 10h296c121 0 202 -68 202 -181
c0 -63 -26 -112 -77 -140c72 -26 117 -93 117 -185c0 -115 -76 -192 -192 -192h-346c-6 0 -10 4 -10 10z" />
    <glyph glyph-name="C" unicode="C" horiz-adv-x="536" 
d="M534 570c-24 -39 -67 -25 -89 9c-10 15 -52 89 -111 89c-77 0 -160 -128 -160 -319s83 -319 165 -319c63 0 101 76 112 94c21 35 53 41 78 8c26 -33 21 -72 -26 -101c-34 -21 -96 -41 -167 -41c-185 0 -302 139 -302 353c0 220 123 365 306 365c67 0 127 -19 160 -39
c48 -29 54 -68 34 -99z" />
    <glyph glyph-name="D" unicode="D" horiz-adv-x="585" 
d="M215 40h27c92 0 203 62 203 310c0 247 -111 308 -203 308h-27v-618zM302 0h-256c-6 0 -10 4 -10 10v2c0 5 2 10 5 14c21 26 35 67 35 100v446c0 33 -14 73 -35 100c-3 4 -5 9 -5 14v2c0 6 4 10 10 10h256c116 0 282 -77 282 -349s-166 -349 -282 -349z" />
    <glyph glyph-name="E" unicode="E" horiz-adv-x="510" 
d="M273 329h-58v-289h131c47 0 105 18 142 47l9 7c5 4 12 6 18 6s10 -4 9 -10l-7 -69c-1 -12 -10 -21 -23 -21h-448c-6 0 -10 4 -10 10v2c0 5 2 10 5 14c21 26 35 67 35 100v446c0 33 -14 73 -35 100c-3 4 -5 9 -5 14v2c0 6 4 10 10 10h438c13 0 22 -9 23 -21l7 -69
c1 -6 -3 -10 -9 -10s-13 2 -18 6l-9 7c-38 28 -95 47 -142 47h-121v-289h25c45 0 103 11 146 27c5 2 13 3 19 3s10 -4 10 -10v-77c0 -8 -5 -13 -13 -13c-4 0 -9 1 -13 2l-34 13c-24 9 -57 15 -82 15z" />
    <glyph glyph-name="F" unicode="F" horiz-adv-x="488" 
d="M273 329h-58v-203c0 -33 14 -73 35 -100c3 -4 5 -9 5 -14v-2c0 -6 -4 -10 -10 -10h-199c-6 0 -10 4 -10 10v2c0 5 2 10 5 14c21 26 35 67 35 100v446c0 33 -14 73 -35 100c-3 4 -5 9 -5 14v2c0 6 4 10 10 10h438c13 0 22 -8 23 -21l7 -69c1 -6 -3 -10 -9 -10s-13 2 -18 6
l-9 7c-38 28 -94 47 -142 47h-121v-289h25c45 0 103 11 146 27c6 2 13 3 19 3s10 -4 10 -10v-77c0 -8 -5 -13 -13 -13c-4 0 -10 1 -13 2l-34 13c-24 9 -57 15 -82 15z" />
    <glyph glyph-name="G" unicode="G" horiz-adv-x="579" 
d="M545 257v-165c0 -22 -14 -43 -41 -61c-35 -21 -97 -41 -168 -41c-185 0 -302 139 -302 353c0 220 123 365 306 365c67 0 127 -19 160 -39c48 -29 54 -68 34 -99c-24 -39 -67 -25 -89 9c-10 15 -52 89 -111 89c-77 0 -160 -128 -160 -319s83 -319 165 -319
c27 0 49 14 67 31v172c0 34 -14 74 -36 101c-3 3 -4 8 -4 12v3c0 6 4 10 10 10h195c9 0 14 -5 14 -14c0 -3 -1 -7 -3 -10l-17 -21c-12 -15 -20 -38 -20 -57z" />
    <glyph glyph-name="H" unicode="H" horiz-adv-x="634" 
d="M415 10v2c0 5 2 10 5 14c21 26 35 67 35 100v203h-240v-203c0 -33 14 -73 35 -100c3 -4 5 -9 5 -14v-2c0 -6 -4 -10 -10 -10h-199c-6 0 -10 4 -10 10v2c0 5 2 10 5 14c21 26 35 67 35 100v446c0 33 -14 73 -35 100c-3 4 -5 9 -5 14v2c0 6 4 10 10 10h195
c8 0 14 -6 14 -14c0 -4 -2 -8 -4 -11l-16 -20c-12 -15 -20 -38 -20 -57v-227h240v203c0 33 -14 73 -35 100c-3 4 -5 9 -5 14v2c0 6 4 10 10 10h195c8 0 14 -6 14 -14c0 -4 -2 -8 -4 -11l-16 -20c-12 -15 -20 -38 -20 -57v-470c0 -33 14 -73 35 -100c3 -4 5 -9 5 -14v-2
c0 -6 -4 -10 -10 -10h-199c-6 0 -10 4 -10 10z" />
    <glyph glyph-name="I" unicode="I" horiz-adv-x="255" 
d="M36 10v2c0 5 2 10 5 14c21 27 35 66 35 100v446c0 34 -14 73 -35 100c-3 4 -5 9 -5 14v2c0 6 4 10 10 10h195c8 0 14 -6 14 -14c0 -4 -2 -8 -4 -11l-16 -20c-12 -15 -20 -38 -20 -57v-470c0 -34 14 -73 35 -100c3 -4 5 -9 5 -14v-2c0 -6 -4 -10 -10 -10h-199
c-6 0 -10 4 -10 10z" />
    <glyph glyph-name="J" unicode="J" horiz-adv-x="492" 
d="M422 596v-281c0 -220 -62 -325 -238 -325c-75 0 -135 19 -167 39c-49 29 -55 68 -35 99c25 38 67 25 89 -9c10 -15 52 -89 117 -89c71 0 95 88 95 279v263c0 33 -14 73 -35 100c-3 4 -5 9 -5 14v2c0 6 4 10 10 10h195c8 0 14 -6 14 -14c0 -4 -2 -8 -4 -11l-16 -20
c-12 -15 -20 -38 -20 -57z" />
    <glyph glyph-name="K" unicode="K" horiz-adv-x="635" 
d="M36 10v2c0 5 2 10 5 14c21 26 35 67 35 100v446c0 33 -14 73 -35 100c-3 4 -5 9 -5 14v2c0 6 4 10 10 10h195c8 0 14 -6 14 -14c0 -4 -2 -8 -4 -11l-16 -20c-12 -15 -20 -38 -20 -57v-250l211 245c17 20 35 53 24 79c-2 5 -3 11 -3 16v2c0 6 4 10 10 10h128
c6 0 11 -4 11 -11c0 -5 -3 -11 -8 -14l-31 -20c-23 -15 -64 -40 -82 -62l-120 -140l232 -361c8 -12 18 -25 29 -33l42 -31c5 -4 8 -10 8 -16s-4 -10 -10 -10h-145c-14 0 -26 8 -34 20l-211 327l-51 -60v-161c0 -33 14 -73 35 -100c3 -4 5 -9 5 -14v-2c0 -6 -4 -10 -10 -10
h-199c-6 0 -10 4 -10 10z" />
    <glyph glyph-name="L" unicode="L" horiz-adv-x="494" 
d="M36 686v2c0 6 4 10 10 10h199c6 0 10 -4 10 -10v-2c0 -5 -2 -10 -5 -14c-21 -27 -35 -67 -35 -100v-532h131c47 0 105 18 142 47l9 7c5 4 12 6 18 6s10 -4 9 -10l-7 -69c-1 -12 -10 -21 -23 -21h-448c-6 0 -10 4 -10 10v2c0 5 2 10 5 14c21 27 35 67 35 100v446
c0 33 -14 74 -35 100c-3 4 -5 9 -5 14z" />
    <glyph glyph-name="M" unicode="M" horiz-adv-x="833" 
d="M351 20l-235 579v-473c0 -33 14 -73 35 -100c3 -4 5 -9 5 -14v-2c0 -6 -4 -10 -10 -10h-100c-6 0 -10 4 -10 10v2c0 5 2 10 5 14c21 26 35 67 35 100v446c0 33 -14 73 -35 100c-3 4 -5 9 -5 14v2c0 6 4 10 10 10h127c31 0 61 -20 73 -50l190 -467l194 467
c13 30 43 50 75 50h115c8 0 14 -6 14 -14c0 -4 -2 -8 -4 -11l-16 -20c-12 -15 -20 -38 -20 -57v-470c0 -33 14 -73 35 -100c3 -4 5 -9 5 -14v-2c0 -6 -4 -10 -10 -10h-200c-6 0 -10 4 -10 10v2c0 5 2 10 5 14c21 26 35 67 35 100v476l-243 -582c-5 -12 -17 -20 -30 -20
s-25 8 -30 20z" />
    <glyph glyph-name="N" unicode="N" horiz-adv-x="602" 
d="M543 0c-11 0 -22 7 -28 16l-399 620v-510c0 -33 14 -73 35 -100c3 -4 5 -9 5 -14v-2c0 -6 -4 -10 -10 -10h-100c-6 0 -10 4 -10 10v2c0 5 2 10 5 14c21 26 35 67 35 100v446c0 33 -14 73 -35 100c-3 4 -5 9 -5 14v2c0 6 4 10 10 10h155c24 0 50 -15 64 -36l260 -403v313
c0 33 -14 73 -35 100c-3 4 -5 9 -5 14v2c0 6 4 10 10 10h95c8 0 14 -6 14 -14c0 -4 -2 -8 -4 -11l-16 -20c-12 -15 -20 -38 -20 -57v-575c0 -13 -8 -21 -21 -21z" />
    <glyph glyph-name="O" unicode="O" horiz-adv-x="698" 
d="M170 349c0 -191 83 -319 194 -319s194 128 194 319s-83 319 -194 319s-194 -128 -194 -319zM30 349c0 215 144 359 334 359s334 -144 334 -359s-144 -359 -334 -359s-334 144 -334 359z" />
    <glyph glyph-name="P" unicode="P" horiz-adv-x="570" 
d="M215 349h77c92 0 153 62 153 156c0 92 -61 153 -153 153h-77v-309zM392 309h-177v-183c0 -33 14 -73 35 -100c3 -4 5 -9 5 -14v-2c0 -6 -4 -10 -10 -10h-199c-6 0 -10 4 -10 10v2c0 5 2 10 5 14c21 26 35 67 35 100v446c0 33 -14 73 -35 100c-3 4 -5 9 -5 14v2
c0 6 4 10 10 10h346c116 0 192 -77 192 -197c0 -115 -76 -192 -192 -192z" />
    <glyph glyph-name="Q" unicode="Q" horiz-adv-x="698" 
d="M170 349c0 -191 83 -319 194 -319s194 128 194 319s-83 319 -194 319s-194 -128 -194 -319zM30 349c0 215 144 359 334 359s334 -144 334 -359s-144 -359 -334 -359c-7 0 -15 1 -22 1c93 -16 189 5 303 7c14 0 23 -9 23 -23v-64c0 -14 -9 -23 -23 -23
c-152 4 -272 63 -388 118c-134 43 -227 170 -227 343z" />
    <glyph glyph-name="R" unicode="R" horiz-adv-x="624" 
d="M215 349h77c92 0 153 62 153 156c0 92 -61 153 -153 153h-77v-309zM36 10v2c0 5 2 10 5 14c21 26 35 67 35 100v446c0 33 -14 73 -35 100c-3 4 -5 9 -5 14v2c0 6 4 10 10 10h346c116 0 192 -77 192 -197c0 -98 -55 -169 -144 -187l128 -224c7 -12 18 -25 29 -33l42 -31
c5 -4 8 -10 8 -16s-4 -10 -10 -10h-145c-14 0 -27 8 -34 20l-166 289h-77v-183c0 -33 14 -73 35 -100c3 -4 5 -9 5 -14v-2c0 -6 -4 -10 -10 -10h-199c-6 0 -10 4 -10 10z" />
    <glyph glyph-name="S" unicode="S" horiz-adv-x="509" 
d="M163 563c0 -163 338 -164 338 -378c0 -118 -105 -195 -265 -195c-79 0 -139 19 -171 39c-49 29 -55 68 -35 99c25 38 67 25 89 -9c10 -15 52 -89 138 -89c65 0 111 43 111 103c0 163 -338 162 -338 377c0 119 103 198 238 198c66 0 126 -19 158 -39c49 -29 55 -68 35 -99
c-25 -39 -67 -25 -89 9c-10 15 -52 89 -120 89c-58 0 -89 -55 -89 -105z" />
    <glyph glyph-name="T" unicode="T" horiz-adv-x="523" 
d="M-26 608l7 69c1 12 10 21 23 21h487c13 0 22 -9 23 -21l6 -69c1 -6 -2 -10 -8 -10s-13 2 -18 6l-9 7c-37 29 -95 47 -142 47h-26v-532c0 -33 14 -73 35 -100c3 -4 5 -9 5 -14v-2c0 -6 -4 -10 -10 -10h-199c-6 0 -10 4 -10 10v2c0 5 2 10 5 14c21 26 35 67 35 100v532h-26
c-47 0 -105 -18 -142 -47l-9 -7c-5 -4 -12 -6 -18 -6s-10 4 -9 10z" />
    <glyph glyph-name="U" unicode="U" 
d="M60 246v326c0 33 -14 73 -32 96c-6 8 -8 13 -8 18v2c0 6 4 10 10 10h195c8 0 14 -6 14 -14c0 -4 -2 -8 -4 -11l-16 -20c-12 -15 -20 -38 -20 -57v-447c0 -71 47 -119 110 -119c62 0 110 48 110 119v423c0 33 -14 73 -32 96c-6 8 -8 13 -8 18v2c0 6 4 10 10 10h195
c8 0 14 -6 14 -14c0 -4 -2 -8 -4 -11l-16 -20c-12 -15 -20 -38 -20 -57v-350c0 -153 -102 -256 -249 -256c-146 0 -249 103 -249 256z" />
    <glyph glyph-name="V" unicode="V" horiz-adv-x="594" 
d="M314 24c-5 -14 -20 -24 -35 -24s-30 9 -35 24l-198 553c-11 31 -34 65 -59 86l-10 9c-4 4 -7 10 -7 16s4 10 10 10h215c8 0 13 -5 13 -13c0 -4 -2 -9 -4 -13l-12 -19c-10 -15 -12 -36 -6 -53l147 -409l143 390c10 28 6 63 -10 89c-2 5 -4 12 -4 17v1c0 6 3 10 9 10h111
c7 0 12 -5 12 -12c0 -5 -2 -10 -6 -13l-23 -20c-17 -15 -34 -40 -42 -61z" />
    <glyph glyph-name="W" unicode="W" horiz-adv-x="894" 
d="M284 24c-4 -14 -20 -24 -35 -24s-30 9 -35 24l-168 553c-9 31 -34 65 -59 86l-10 9c-4 4 -7 10 -7 16s4 10 10 10h214c8 0 13 -5 13 -13c0 -4 -2 -9 -4 -13l-12 -19c-10 -15 -11 -36 -6 -53l116 -387l109 347l-5 17c-9 31 -34 65 -59 86l-10 9c-4 4 -7 10 -7 16
s4 10 10 10h214c8 0 13 -5 13 -13c0 -4 -2 -9 -4 -13l-12 -19c-10 -15 -11 -36 -6 -53l116 -387l116 368c9 28 6 63 -10 89c-3 5 -5 12 -5 17v1c0 6 4 10 10 10h110c7 0 12 -5 12 -12c0 -5 -2 -10 -6 -13l-23 -20c-17 -15 -35 -40 -42 -61l-179 -568c-4 -14 -20 -24 -35 -24
s-30 9 -35 24l-141 467z" />
    <glyph glyph-name="X" unicode="X" horiz-adv-x="617" 
d="M606 0h-239c-8 0 -13 5 -13 13c0 4 1 9 4 13l11 19c9 15 9 35 0 50l-104 175l-123 -164c-17 -21 -21 -53 -9 -78c2 -5 3 -11 3 -16v-2c0 -6 -4 -10 -10 -10h-129c-7 0 -11 4 -11 11c0 5 3 11 8 14l31 20c24 15 50 40 67 62l151 200l-163 274c-17 28 -46 60 -72 78l-18 13
c-5 4 -8 10 -8 16s4 10 10 10h239c8 0 13 -5 13 -13c0 -4 -1 -9 -4 -13l-11 -19c-9 -15 -9 -35 0 -50l105 -176l125 164c16 22 19 54 8 79c-2 5 -3 11 -3 16v2c0 6 4 10 10 10h128c7 0 11 -4 11 -11c0 -5 -3 -11 -8 -14l-31 -20c-24 -15 -50 -40 -67 -62l-151 -201l162 -273
c17 -28 46 -60 72 -78l18 -13c5 -4 8 -10 8 -16s-4 -10 -10 -10z" />
    <glyph glyph-name="Y" unicode="Y" horiz-adv-x="596" 
d="M489 591l-136 -241v-224c0 -33 14 -73 35 -100c3 -4 5 -9 5 -14v-2c0 -6 -4 -10 -10 -10h-200c-6 0 -10 4 -10 10v2c0 5 2 10 5 14c21 26 35 67 35 100v204l-151 251c-17 28 -46 59 -72 78l-18 13c-5 3 -8 10 -8 16s4 10 10 10h239c8 0 13 -5 13 -13c0 -4 -2 -9 -4 -13
l-11 -19c-9 -15 -9 -35 0 -50l123 -204l110 192c13 23 18 53 8 79c-2 5 -3 11 -3 16v2c0 6 4 10 10 10h125c6 0 11 -4 11 -11c0 -5 -3 -11 -8 -14l-31 -20c-23 -15 -54 -39 -67 -62z" />
    <glyph glyph-name="Z" unicode="Z" horiz-adv-x="541" 
d="M-3 46l365 612h-176c-47 0 -103 -19 -141 -47l-9 -7c-5 -4 -12 -6 -18 -6s-10 4 -9 10l7 69c1 12 10 21 23 21h455c32 0 43 -18 26 -46l-365 -612h196c47 0 104 19 141 47l9 7c5 4 12 6 18 6s10 -4 9 -10l-7 -69c-1 -12 -10 -21 -23 -21h-475c-32 0 -43 18 -26 46z" />
    <glyph glyph-name="bracketleft" unicode="[" horiz-adv-x="246" 
d="M86 -140v890c0 35 23 58 58 58h205c12 0 20 -8 20 -20s-8 -20 -20 -20h-103v-926h103c12 0 20 -7 20 -19s-8 -20 -20 -20h-205c-35 0 -58 23 -58 57z" />
    <glyph glyph-name="backslash" unicode="\" horiz-adv-x="327" 
d="M291 -13c-15 0 -28 9 -33 23l-261 715c-5 14 2 23 17 23c14 0 27 -9 32 -23l262 -715c5 -14 -2 -23 -17 -23z" />
    <glyph glyph-name="bracketright" unicode="]" horiz-adv-x="246" 
d="M121 750v-890c0 -34 -23 -57 -58 -57h-205c-12 0 -20 8 -20 20s8 19 20 19h104v926h-104c-12 0 -20 8 -20 20s8 20 20 20h205c35 0 58 -23 58 -58z" />
    <glyph glyph-name="asciicircum" unicode="^" horiz-adv-x="465" 
d="M41 355l185 332c5 8 13 13 22 12c8 1 17 -4 22 -12l185 -332c8 -14 4 -27 -8 -35c-13 -8 -28 -4 -35 8l-163 295l-165 -295c-7 -12 -22 -16 -35 -8c-12 8 -16 21 -8 35z" />
    <glyph glyph-name="underscore" unicode="_" horiz-adv-x="607" 
d="M111 -169h470c15 0 25 -10 25 -25s-10 -25 -25 -25h-470c-15 0 -25 10 -25 25s10 25 25 25z" />
    <glyph glyph-name="grave" unicode="`" horiz-adv-x="240" 
d="M216 570l-14 -14c-5 -5 -12 -5 -18 -1l-150 106c-31 23 -4 45 16 66c12 12 33 36 56 6l111 -146c4 -6 4 -12 -1 -17z" />
    <glyph glyph-name="a" unicode="a" horiz-adv-x="532" 
d="M348 260c-86 0 -179 -10 -179 -104c0 -60 37 -106 86 -106c54 0 90 56 93 148v62zM24 147c0 145 189 153 324 152c-3 118 -36 170 -82 170c-51 0 -84 -61 -97 -78c-16 -22 -46 -36 -76 -11c-31 26 -26 66 22 93c23 13 78 35 155 35c139 0 218 -73 218 -229v-184
c0 -13 4 -20 13 -20c7 0 10 5 12 8c6 9 9 12 14 12s9 -4 9 -9v-11c0 -57 -30 -85 -88 -85s-88 28 -97 81c-31 -52 -81 -81 -149 -81c-102 0 -178 65 -178 157z" />
    <glyph glyph-name="b" unicode="b" horiz-adv-x="574" 
d="M203 118c21 -44 52 -68 95 -68c72 0 125 68 125 202c0 116 -39 197 -111 197c-63 0 -105 -61 -109 -179v-152zM149 0h-115c-6 0 -10 4 -10 10v2c0 5 2 10 5 14c21 26 35 67 35 100v433c0 33 -14 73 -35 100c-3 4 -5 9 -5 14v2c0 6 4 9 10 10l131 23c23 4 38 -9 38 -33
v-271c36 66 94 104 165 104c117 0 199 -104 199 -251c0 -163 -103 -267 -223 -267c-56 0 -105 23 -141 62c-1 -31 -22 -52 -54 -52z" />
    <glyph glyph-name="c" unicode="c" horiz-adv-x="489" 
d="M387 97c25 45 62 49 89 22s22 -66 -26 -93c-23 -13 -79 -36 -154 -36c-160 0 -264 104 -264 259c0 156 104 259 264 259c75 0 131 -22 154 -35c48 -27 53 -67 22 -93c-30 -25 -60 -11 -76 11c-13 17 -47 78 -102 78c-65 0 -117 -88 -117 -220c0 -131 52 -219 117 -219
c55 0 89 61 93 67z" />
    <glyph glyph-name="d" unicode="d" horiz-adv-x="582" 
d="M400 381c-21 44 -52 68 -95 68c-72 0 -124 -68 -124 -203c0 -115 38 -196 110 -196c63 0 105 61 109 178v153zM259 508c56 0 105 -22 141 -61v112c0 33 -14 73 -32 96c-6 8 -8 13 -8 18v2c0 6 4 9 10 10l131 23c23 4 38 -9 38 -33v-580c0 -13 4 -20 13 -20c7 0 10 5 12 8
c6 9 10 12 15 12s9 -4 9 -9v-11c0 -57 -31 -85 -88 -85c-66 0 -95 36 -99 106c-36 -66 -94 -106 -166 -106c-116 0 -199 105 -199 251c0 164 104 267 223 267z" />
    <glyph glyph-name="e" unicode="e" horiz-adv-x="495" 
d="M179 259c0 -45 6 -85 15 -117c148 42 151 193 151 212c0 68 -33 115 -73 115c-56 0 -93 -90 -93 -210zM389 97c25 45 62 49 89 22s22 -66 -26 -93c-23 -13 -79 -36 -154 -36c-160 0 -264 104 -264 259c0 159 108 259 243 259c119 0 207 -76 207 -181
c0 -135 -144 -216 -282 -213c22 -54 56 -84 94 -84c55 0 89 61 93 67z" />
    <glyph glyph-name="f" unicode="f" horiz-adv-x="283" 
d="M50 459c-12 0 -20 8 -20 20s8 19 20 19h22c10 128 63 210 186 210c66 0 122 -23 145 -36c48 -27 53 -67 22 -93c-30 -25 -60 -11 -76 11c-13 17 -47 78 -88 78c-43 0 -51 -66 -52 -170h73c12 0 20 -7 20 -19s-8 -20 -20 -20h-73v-333c0 -33 14 -73 35 -100
c3 -4 5 -9 5 -14v-2c0 -6 -4 -10 -10 -10h-199c-6 0 -10 4 -10 10v2c0 5 2 10 5 14c21 26 35 67 35 100v333h-20z" />
    <glyph glyph-name="g" unicode="g" horiz-adv-x="538" 
d="M175 296c0 -101 52 -166 105 -166s103 63 103 166c0 101 -49 173 -103 173s-105 -73 -105 -173zM31 298c0 126 107 210 248 210c55 0 109 51 128 74c29 38 66 42 93 15s22 -66 -15 -87c-16 -9 -46 -18 -81 -26c73 -33 123 -96 123 -183c0 -139 -125 -211 -252 -211
c-82 0 -102 -2 -102 -13c0 -46 368 53 368 -121c0 -89 -96 -165 -281 -165c-93 0 -153 19 -185 39c-49 28 -55 67 -35 98c25 39 67 25 89 -9c10 -15 52 -88 160 -88c83 0 119 42 119 72c0 94 -368 -46 -368 129c0 52 34 78 100 90c-66 35 -109 96 -109 176z" />
    <glyph glyph-name="h" unicode="h" horiz-adv-x="591" 
d="M203 675v-255c43 57 115 88 185 88c102 0 164 -67 164 -173v-209c0 -33 14 -73 35 -100c3 -4 5 -9 5 -14v-2c0 -6 -4 -10 -10 -10h-199c-6 0 -10 4 -10 10v2c0 5 2 10 5 14c21 26 35 67 35 100v193c0 72 -33 117 -92 117c-64 0 -118 -54 -118 -137v-173
c0 -33 14 -73 35 -100c3 -4 5 -9 5 -14v-2c0 -6 -4 -10 -10 -10h-199c-6 0 -10 4 -10 10v2c0 5 2 10 5 14c21 26 35 67 35 100v433c0 33 -14 73 -35 100c-3 4 -5 9 -5 14v2c0 6 4 9 10 10l131 23c23 4 38 -9 38 -33z" />
    <glyph glyph-name="i" unicode="i" horiz-adv-x="248" 
d="M211 476v-350c0 -33 14 -73 35 -100c3 -4 5 -9 5 -14v-2c0 -6 -4 -10 -10 -10h-199c-6 0 -10 4 -10 10v2c0 5 2 10 5 14c21 26 35 67 35 100v234c0 33 -14 73 -35 100c-3 4 -5 9 -5 14v2c0 6 4 9 10 10l131 22c23 4 38 -9 38 -32zM40 617c0 55 37 92 92 92s91 -37 91 -92
s-36 -92 -91 -92s-92 37 -92 92z" />
    <glyph glyph-name="j" unicode="j" horiz-adv-x="230" 
d="M-191 -209c-66 0 -122 23 -145 36c-47 26 -52 66 -22 92c30 25 60 11 76 -11c13 -17 47 -77 88 -77c49 0 52 87 52 219v310c0 33 -14 73 -35 100c-3 4 -5 9 -5 14v2c0 6 4 9 10 10l130 22c23 4 39 -9 39 -32v-426c0 -156 -48 -259 -188 -259zM-82 525
c-55 0 -92 37 -92 92s37 92 92 92c54 0 91 -37 91 -92s-37 -92 -91 -92z" />
    <glyph glyph-name="k" unicode="k" horiz-adv-x="546" 
d="M203 675v-412l154 133c35 31 13 58 13 75c0 18 23 27 100 27h19c25 0 34 -12 14 -30l-170 -146l152 -232c8 -12 18 -25 29 -33l41 -31c5 -4 8 -10 8 -16s-4 -10 -10 -10h-145c-14 0 -26 8 -34 20l-141 217l-30 -26v-85c0 -33 14 -73 35 -100c3 -4 5 -9 5 -14v-2
c0 -6 -4 -10 -10 -10h-199c-6 0 -10 4 -10 10v2c0 5 2 10 5 14c21 26 35 67 35 100v433c0 33 -14 73 -35 100c-3 4 -5 9 -5 14v2c0 6 4 9 10 10l131 23c23 4 38 -9 38 -33z" />
    <glyph glyph-name="l" unicode="l" horiz-adv-x="244" 
d="M203 675v-549c0 -33 14 -73 35 -100c3 -4 5 -9 5 -14v-2c0 -6 -4 -10 -10 -10h-199c-6 0 -10 4 -10 10v2c0 5 2 10 5 14c21 26 35 67 35 100v433c0 33 -14 73 -35 100c-3 4 -5 9 -5 14v2c0 6 4 9 10 10l131 23c23 4 38 -9 38 -33z" />
    <glyph glyph-name="m" unicode="m" horiz-adv-x="844" 
d="M810 335v-209c0 -33 14 -73 35 -100c3 -4 5 -9 5 -14v-2c0 -6 -4 -10 -10 -10h-200c-6 0 -10 4 -10 10v2c0 5 2 10 5 14c21 26 35 67 35 100v193c0 69 -26 117 -74 117c-52 0 -85 -56 -85 -137v-173c0 -33 14 -73 34 -100c3 -4 5 -9 5 -14v-2c0 -6 -4 -10 -10 -10h-199
c-6 0 -10 4 -10 10v2c0 5 2 10 5 14c21 26 35 67 35 100v193c0 69 -26 117 -74 117c-52 0 -86 -56 -86 -137v-173c0 -33 14 -73 35 -100c3 -4 5 -9 5 -14v-2c0 -6 -4 -10 -10 -10h-199c-6 0 -10 4 -10 10v2c0 5 2 10 5 14c21 26 35 67 35 100v234c0 33 -14 73 -35 100
c-3 4 -5 9 -5 14v2c0 6 4 9 10 10l131 22c23 4 38 -9 38 -32v-48c36 50 94 80 159 80c71 0 113 -36 131 -95c34 59 97 95 168 95c99 0 141 -70 141 -173z" />
    <glyph glyph-name="n" unicode="n" horiz-adv-x="595" 
d="M560 335v-209c0 -33 14 -73 35 -100c3 -4 5 -9 5 -14v-2c0 -6 -4 -10 -10 -10h-199c-6 0 -10 4 -10 10v2c0 5 2 10 5 14c21 26 35 67 35 100v193c0 72 -33 117 -92 117c-64 0 -118 -54 -118 -137v-173c0 -33 14 -73 35 -100c3 -4 5 -9 5 -14v-2c0 -6 -4 -10 -10 -10h-199
c-6 0 -10 4 -10 10v2c0 5 2 10 5 14c21 26 35 67 35 100v234c0 33 -14 73 -35 100c-3 4 -5 9 -5 14v2c0 6 4 9 10 10l131 22c23 4 38 -9 38 -32v-56c43 57 115 88 185 88c102 0 164 -67 164 -173z" />
    <glyph glyph-name="o" unicode="o" horiz-adv-x="601" 
d="M177 249c0 -131 52 -219 139 -219s140 88 140 219c0 132 -53 220 -140 220s-139 -88 -139 -220zM32 249c0 156 104 259 284 259c181 0 284 -103 284 -259c0 -155 -103 -259 -284 -259c-180 0 -284 104 -284 259z" />
    <glyph glyph-name="p" unicode="p" horiz-adv-x="574" 
d="M203 381v-153c4 -117 46 -178 109 -178c72 0 111 81 111 196c0 135 -53 203 -125 203c-43 0 -74 -24 -95 -68zM203 475v-28c36 39 85 61 141 61c120 0 223 -103 223 -267c0 -146 -82 -251 -199 -251c-71 0 -129 39 -165 105v-170c0 -33 14 -73 35 -99c3 -4 5 -9 5 -14v-2
c0 -6 -4 -10 -10 -10h-199c-6 0 -10 4 -10 10v2c0 5 2 10 5 14c21 25 35 66 35 99v434c0 33 -14 73 -35 100c-3 4 -5 9 -5 14v2c0 6 4 9 10 10l131 22c23 4 38 -9 38 -32z" />
    <glyph glyph-name="q" unicode="q" horiz-adv-x="574" 
d="M305 50c43 0 74 24 95 68v152c-4 118 -46 179 -109 179c-72 0 -110 -81 -110 -197c0 -134 52 -202 124 -202zM400 404v71c0 23 16 36 39 32l130 -22c6 -1 10 -4 10 -10v-2c0 -5 -2 -10 -5 -14c-21 -27 -35 -67 -35 -100v-434c0 -33 14 -74 35 -99c3 -4 5 -9 5 -14v-2
c0 -6 -4 -10 -10 -10h-199c-6 0 -10 4 -10 10v2c0 5 2 10 5 14c21 26 35 66 35 99v127c-36 -39 -85 -62 -141 -62c-119 0 -223 104 -223 267c0 147 83 251 199 251c71 0 129 -38 165 -104z" />
    <glyph glyph-name="r" unicode="r" horiz-adv-x="478" 
d="M211 476v-55c32 56 81 87 141 87c37 0 64 -12 85 -23c66 -39 71 -79 41 -104c-31 -26 -71 -13 -88 10c-12 16 -36 68 -90 68c-66 0 -89 -78 -89 -210v-123c0 -33 14 -73 35 -100c3 -4 5 -9 5 -14v-2c0 -6 -4 -10 -10 -10h-199c-6 0 -10 4 -10 10v2c0 5 2 10 5 14
c21 26 35 67 35 100v234c0 33 -14 73 -35 100c-3 4 -5 9 -5 14v2c0 6 4 9 10 10l131 22c23 4 38 -9 38 -32z" />
    <glyph glyph-name="s" unicode="s" horiz-adv-x="457" 
d="M162 409c0 -112 284 -93 284 -262c0 -95 -90 -157 -222 -157c-81 0 -137 23 -160 36c-47 27 -52 67 -22 93c30 25 60 11 76 -11c13 -17 47 -78 116 -78c49 0 81 30 81 68c0 112 -283 79 -283 254c0 93 79 156 200 156c73 0 128 -22 151 -35c48 -27 53 -67 22 -93
c-30 -25 -59 -11 -75 11c-13 17 -47 78 -105 78c-38 0 -63 -27 -63 -60z" />
    <glyph glyph-name="t" unicode="t" horiz-adv-x="399" 
d="M34 459c-12 0 -20 8 -20 20s8 19 20 19h20v85c0 21 14 38 34 42l72 16c19 4 33 -7 33 -28v-115h73c12 0 20 -7 20 -19s-8 -20 -20 -20h-73v-210c0 -131 3 -219 52 -219c41 0 55 61 71 83c13 17 43 31 73 6c31 -26 26 -66 -30 -97c-15 -9 -51 -32 -119 -32
c-137 0 -186 94 -186 249v220h-20z" />
    <glyph glyph-name="u" unicode="u" 
d="M60 165v195c0 33 -14 73 -35 100c-3 4 -5 9 -5 14v2c0 6 4 9 10 10l131 22c23 4 38 -9 38 -32v-296c0 -71 33 -116 92 -116c64 0 118 54 118 136v160c0 33 -14 73 -32 96c-6 8 -8 13 -8 18v2c0 6 4 9 10 10l131 22c22 4 38 -9 38 -32v-381c0 -13 4 -20 13 -20
c7 0 10 5 12 8c6 9 10 12 15 12s9 -4 9 -9v-11c0 -57 -31 -85 -88 -85c-62 0 -91 32 -98 93c-43 -58 -116 -92 -187 -92c-101 0 -164 68 -164 174z" />
    <glyph glyph-name="v" unicode="v" horiz-adv-x="532" 
d="M183 461l147 -303l68 136c34 69 18 91 18 134c0 52 24 80 60 80h3c42 0 57 -24 38 -62l-209 -426c-6 -12 -19 -20 -32 -20h-1c-13 0 -26 8 -32 20l-182 378c-9 19 -26 39 -42 52l-29 23c-5 4 -8 10 -8 16s4 9 10 9h132c24 0 48 -14 59 -37z" />
    <glyph glyph-name="w" unicode="w" horiz-adv-x="761" 
d="M183 461l116 -287l50 120c12 29 15 49 15 66l-15 38c-8 19 -26 39 -42 52l-29 23c-5 4 -8 10 -8 16s4 9 10 9h132c25 0 51 -14 60 -37l115 -287l50 120c30 73 7 91 7 138c0 48 24 76 60 76h4c42 0 54 -24 38 -62l-180 -426c-5 -12 -19 -20 -32 -20h-1c-13 0 -27 8 -32 20
l-109 270l-114 -270c-5 -12 -19 -20 -32 -20h-1c-13 0 -27 8 -32 20l-152 378c-8 19 -26 39 -42 52l-29 23c-5 4 -8 10 -8 16s4 9 10 9h132c24 0 50 -14 59 -37z" />
    <glyph glyph-name="x" unicode="x" horiz-adv-x="546" 
d="M535 0h-142c-25 0 -51 14 -65 35l-95 143l-76 -67c-36 -32 -35 -53 -35 -62c0 -46 -25 -49 -60 -49h-29c-25 0 -34 12 -14 31l191 181l-120 182c-14 21 -36 45 -57 59l-31 20c-5 3 -8 10 -8 16s4 9 10 9h143c24 0 50 -13 64 -34l95 -144l84 76c35 31 28 58 28 70
c0 23 23 32 70 32h18c25 0 34 -11 14 -30l-191 -182l121 -181c14 -21 36 -45 56 -59l31 -20c5 -3 8 -10 8 -16s-4 -10 -10 -10z" />
    <glyph glyph-name="y" unicode="y" horiz-adv-x="532" 
d="M183 461l147 -303l68 136c34 69 18 91 18 134c0 52 24 80 60 80h3c42 0 57 -24 38 -62l-219 -446c-66 -134 -171 -192 -257 -206c-24 -4 -42 13 -42 39v55c0 24 13 33 38 25c63 -19 165 -19 218 82l-194 403c-9 19 -26 39 -42 52l-29 23c-5 4 -8 10 -8 16s4 9 10 9h132
c24 0 48 -14 59 -37z" />
    <glyph glyph-name="z" unicode="z" horiz-adv-x="488" 
d="M14 59l287 400h-103c-47 0 -104 -19 -142 -47l-9 -7c-5 -4 -12 -6 -17 -6c-6 0 -10 4 -9 10l7 69c1 12 9 20 22 20h379c44 0 56 -23 30 -58l-287 -400h123c47 0 103 19 141 47l9 7c5 4 12 6 18 6s10 -4 9 -10l-7 -69c-1 -12 -10 -21 -23 -21h-399c-43 0 -55 24 -29 59z
" />
    <glyph glyph-name="braceleft" unicode="{" horiz-adv-x="303" 
d="M405 -197c-238 1 -263 29 -263 246c0 163 -14 213 -72 228c-18 5 -24 16 -24 29s7 26 24 29c59 11 72 61 72 181c0 293 76 292 263 292c12 0 20 -8 20 -20s-8 -20 -20 -21c-175 -11 -124 -169 -124 -293c0 -134 -59 -141 -129 -169c67 -25 129 -30 129 -206
c0 -139 -38 -249 124 -257c12 -1 20 -7 20 -19s-8 -20 -20 -20z" />
    <glyph glyph-name="bar" unicode="|" horiz-adv-x="136" 
d="M86 -199v932c0 15 10 25 25 25s25 -10 25 -25v-932c0 -15 -10 -25 -25 -25s-25 10 -25 25z" />
    <glyph glyph-name="braceright" unicode="}" horiz-adv-x="303" 
d="M85 49c0 -217 -25 -245 -263 -246c-12 0 -20 8 -20 20s8 18 20 19c161 8 124 118 124 257c0 176 61 181 129 206c-71 28 -129 35 -129 169c0 124 50 282 -124 293c-12 1 -20 9 -20 21s8 20 20 20c186 0 263 1 263 -292c0 -120 13 -170 72 -181c17 -3 24 -16 24 -29
s-6 -24 -24 -29c-58 -15 -72 -65 -72 -228z" />
    <glyph glyph-name="asciitilde" unicode="~" horiz-adv-x="672" 
d="M230 359c140 0 379 -155 423 -28l18 -13c-31 -82 -114 -126 -184 -126c-136 0 -361 162 -427 30l-18 9c28 67 101 128 188 128z" />
    <glyph glyph-name="nbspace" unicode="&#xa0;" horiz-adv-x="347" 
 />
    <glyph glyph-name="exclamdown" unicode="&#xa1;" horiz-adv-x="223" 
d="M145 310c12 0 21 -7 24 -19l16 -74c17 -79 30 -188 30 -270v-78c0 -41 -28 -68 -71 -68c-42 0 -69 27 -69 68v78c0 82 13 191 30 270l16 74c3 12 12 19 24 19zM66 432c0 47 31 77 78 77s79 -30 79 -77s-32 -79 -79 -79s-78 32 -78 79z" />
    <glyph glyph-name="cent" unicode="&#xa2;" horiz-adv-x="521" 
d="M293 37v425c-50 -23 -86 -103 -86 -213c0 -109 36 -189 86 -212zM417 97c25 45 62 49 89 22s22 -66 -26 -93c-21 -12 -71 -33 -137 -36v-117c0 -15 -10 -25 -25 -25s-25 10 -25 25v119c-141 13 -231 113 -231 257c0 145 90 245 231 257v150c0 15 10 25 25 25
s25 -10 25 -25v-148c66 -3 116 -23 137 -35c48 -27 53 -67 22 -93c-30 -25 -60 -11 -76 11c-11 15 -39 63 -83 75v-434c44 11 70 60 74 65z" />
    <glyph glyph-name="sterling" unicode="&#xa3;" horiz-adv-x="650" 
d="M476 301h-131c0 -70 -41 -197 -114 -261h249c47 0 104 18 141 47l9 7c5 4 12 6 18 6s10 -4 9 -10l-7 -69c-1 -12 -10 -21 -23 -21h-547c-12 0 -20 8 -20 20s8 20 20 20h85c97 77 102 195 61 261h-129c-15 0 -25 10 -25 25s10 25 25 25h98c-40 59 -85 125 -84 208
c2 129 111 199 277 199c107 0 159 -33 202 -86c58 -70 -54 -174 -101 -77c-32 66 -70 133 -137 133c-51 0 -86 -40 -86 -93c0 -70 59 -174 75 -284h135c15 0 25 -10 25 -25s-10 -25 -25 -25z" />
    <glyph glyph-name="currency" unicode="&#xa4;" horiz-adv-x="550" 
d="M119 358c0 -116 80 -199 192 -199c109 0 184 78 184 193c0 118 -78 200 -189 200c-110 0 -187 -80 -187 -194zM86 148l47 46c-34 41 -54 97 -54 162c0 55 14 104 39 141l-48 48c-8 8 -8 19 1 28c9 8 20 8 28 0l45 -45c40 41 95 64 163 64c67 0 123 -22 163 -62l43 43
c7 8 19 9 28 0c9 -8 8 -20 0 -28l-46 -47c25 -37 39 -86 39 -142c0 -67 -19 -124 -55 -165l46 -46c8 -8 8 -19 -1 -28c-8 -8 -19 -8 -27 0l-48 48c-38 -29 -86 -46 -142 -46c-58 0 -108 17 -145 47l-47 -46c-8 -8 -20 -9 -29 0c-9 8 -8 20 0 28z" />
    <glyph glyph-name="yen" unicode="&#xa5;" horiz-adv-x="674" 
d="M563 591l-136 -241v-61h176c15 0 25 -10 25 -25s-10 -25 -25 -25h-176v-60h176c15 0 25 -10 25 -24c0 -15 -10 -25 -25 -25h-176v-4c0 -33 14 -73 35 -100c3 -4 5 -9 5 -14v-2c0 -6 -4 -10 -10 -10h-200c-6 0 -10 4 -10 10v2c0 5 2 10 5 14c21 26 35 67 35 100v4h-164
c-15 0 -25 10 -25 25c0 14 10 24 25 24h164v60h-164c-15 0 -25 10 -25 25s10 25 25 25h164v41l-151 251c-17 28 -46 59 -72 78l-18 13c-5 3 -8 10 -8 16s4 10 10 10h239c8 0 13 -5 13 -13c0 -4 -2 -9 -4 -13l-11 -19c-9 -15 -9 -35 0 -50l123 -204l110 192c13 23 18 53 8 79
c-2 5 -3 11 -3 16v2c0 6 4 10 10 10h125c6 0 11 -4 11 -11c0 -5 -3 -11 -8 -14l-31 -20c-23 -15 -54 -39 -67 -62z" />
    <glyph glyph-name="brokenbar" unicode="&#xa6;" horiz-adv-x="126" 
d="M126 135v-344c0 -15 -10 -25 -25 -25s-25 10 -25 25v344c0 15 10 25 25 25s25 -10 25 -25zM126 733v-344c0 -15 -10 -25 -25 -25s-25 10 -25 25v344c0 15 10 25 25 25s25 -10 25 -25z" />
    <glyph glyph-name="section" unicode="&#xa7;" horiz-adv-x="498" 
d="M202 406c3 -56 80 -79 153 -111v2c0 60 -79 79 -153 109zM202 608c0 -112 284 -93 284 -262c0 -41 -17 -76 -46 -102c27 -24 46 -55 46 -97c0 -95 -90 -157 -222 -157c-81 0 -137 23 -160 36c-47 27 -52 67 -22 93c30 25 60 11 76 -11c13 -17 47 -78 116 -78
c49 0 81 30 81 68c0 112 -283 79 -283 254c0 41 15 76 43 103c-26 23 -43 53 -43 96c0 93 79 157 200 157c73 0 128 -23 151 -36c48 -27 53 -67 22 -93c-30 -25 -59 -11 -75 11c-13 17 -47 78 -105 78c-38 0 -63 -27 -63 -60z" />
    <glyph glyph-name="dieresis" unicode="&#xa8;" horiz-adv-x="307" 
d="M192 655c0 34 22 56 56 56c35 0 58 -22 58 -56c0 -33 -23 -57 -58 -57c-34 0 -56 24 -56 57zM42 655c0 34 23 56 57 56c35 0 58 -22 58 -56c0 -33 -23 -57 -58 -57c-34 0 -57 24 -57 57z" />
    <glyph glyph-name="copyright" unicode="&#xa9;" horiz-adv-x="813" 
d="M547 195c24 45 61 49 88 22s22 -65 -26 -92c-23 -13 -78 -36 -153 -36c-161 0 -264 103 -264 259c0 155 103 259 264 259c75 0 130 -23 153 -36c48 -27 53 -67 22 -92c-30 -25 -60 -11 -75 11c-13 16 -47 77 -102 77c-65 0 -118 -87 -118 -219s53 -219 118 -219
c55 0 89 60 93 66zM442 697c-200 0 -332 -132 -332 -344c0 -211 133 -352 340 -352c199 0 324 131 324 343s-127 353 -332 353zM442 -38c-222 0 -372 156 -372 387c0 230 150 386 373 386c222 0 370 -156 370 -386c0 -231 -150 -387 -371 -387z" />
    <glyph glyph-name="ordfeminine" unicode="&#xaa;" horiz-adv-x="409" 
d="M280 536c-58 0 -122 -6 -122 -70c0 -41 26 -73 60 -73c36 0 59 39 62 101v42zM58 460c0 99 131 104 222 104c-2 81 -24 116 -56 116c-34 0 -57 -41 -65 -52c-12 -16 -33 -26 -53 -9c-22 18 -18 46 14 64c16 9 55 25 107 25c95 0 149 -51 149 -158v-126c0 -9 3 -14 9 -14
c5 0 7 4 11 9c2 3 4 5 7 5c4 0 7 -3 7 -6v-8c0 -39 -21 -58 -61 -58s-59 19 -66 55c-21 -35 -56 -55 -102 -55c-71 0 -123 45 -123 108z" />
    <glyph glyph-name="guillemotleft" unicode="&#xab;" horiz-adv-x="489" 
d="M241 276l200 211c11 10 25 10 36 1c10 -10 11 -25 0 -36l-184 -194l184 -194c11 -11 10 -26 0 -36c-11 -10 -25 -10 -36 1l-200 210c-6 6 -8 13 -8 19s2 12 8 18zM52 276l199 211c11 10 25 10 36 1c10 -10 11 -25 0 -36l-183 -194l183 -194c11 -11 10 -26 0 -36
c-11 -10 -25 -10 -36 1l-199 210c-6 6 -8 13 -8 19s2 12 8 18z" />
    <glyph glyph-name="logicalnot" unicode="&#xac;" horiz-adv-x="579" 
d="M63 439h480c17 0 25 -11 25 -27v-163c0 -15 -10 -25 -25 -25c-14 0 -24 10 -24 25v140h-456c-15 0 -25 10 -25 25s10 25 25 25z" />
    <glyph glyph-name="softhyphen" unicode="&#xad;" horiz-adv-x="0" 
 />
    <glyph glyph-name="registered" unicode="&#xae;" horiz-adv-x="445" 
d="M213 563h26c33 0 55 22 55 56c0 32 -22 54 -55 54h-26v-110zM149 443c0 2 0 4 2 5c7 10 12 24 12 36v159c0 11 -5 26 -12 35c-2 2 -2 3 -2 5v1c0 2 1 3 3 3h123c41 0 69 -27 69 -70c0 -35 -21 -60 -52 -67l46 -79c2 -4 6 -9 10 -12l15 -11c2 -1 3 -3 3 -5
c0 -3 -1 -4 -3 -4h-52c-5 0 -10 3 -13 7l-58 102h-27v-64c0 -12 5 -26 12 -36c0 -1 1 -3 1 -5c0 -3 -1 -4 -2 -4h-72c-2 0 -3 1 -3 4zM83 562c0 -108 69 -180 174 -180c102 0 165 67 165 174c0 109 -65 181 -170 181c-101 0 -169 -67 -169 -175zM60 559
c0 120 78 201 193 201s192 -81 192 -201c0 -119 -78 -200 -193 -200c-114 0 -192 81 -192 200z" />
    <glyph glyph-name="macron" unicode="&#xaf;" horiz-adv-x="461" 
d="M55 598h381c15 0 25 -10 25 -25s-10 -25 -25 -25h-381c-15 0 -25 10 -25 25s10 25 25 25z" />
    <glyph glyph-name="degree" unicode="&#xb0;" horiz-adv-x="271" 
d="M120 586c0 -27 18 -46 43 -46c26 0 43 19 43 46c0 26 -17 44 -43 44c-25 0 -43 -17 -43 -44zM54 586c0 67 44 112 109 112c64 0 107 -45 107 -112c0 -68 -43 -112 -107 -112c-65 0 -109 44 -109 112z" />
    <glyph glyph-name="plusminus" unicode="&#xb1;" horiz-adv-x="585" 
d="M79 349h215v215c0 15 10 25 25 25s25 -10 25 -25v-215h215c15 0 25 -10 25 -25s-10 -25 -25 -25h-215v-191h215c15 0 25 -10 25 -25s-10 -25 -25 -25h-480c-15 0 -25 10 -25 25s10 25 25 25h215v191h-215c-15 0 -25 10 -25 25s10 25 25 25z" />
    <glyph glyph-name="twosuperior" unicode="&#xb2;" horiz-adv-x="330" 
d="M127 379h105c14 0 31 5 43 12l17 9c3 2 5 2 8 2c4 0 7 -3 7 -7l-9 -77c-1 -12 -10 -20 -23 -20h-207c-25 0 -30 12 -13 31c73 81 183 211 183 292c0 32 -17 64 -50 64c-39 0 -64 -43 -69 -50c-13 -21 -38 -29 -53 -6c-11 17 -8 40 21 57c19 11 53 22 91 22
c78 0 138 -46 138 -120c0 -107 -129 -168 -189 -209z" />
    <glyph glyph-name="threesuperior" unicode="&#xb3;" horiz-adv-x="339" 
d="M159 525c45 5 70 39 70 91c0 34 -11 69 -53 69c-46 0 -60 -42 -68 -55c-9 -15 -34 -23 -49 -1c-11 18 -7 40 21 57c18 11 49 22 95 22c86 0 134 -39 134 -96c0 -50 -37 -83 -90 -94c73 -7 113 -53 113 -107c0 -67 -60 -115 -155 -115c-36 0 -72 7 -97 22
c-28 17 -32 40 -21 58c15 22 40 14 49 -1c8 -13 22 -56 68 -56c43 0 76 37 76 86c0 58 -45 92 -93 96c-7 1 -12 5 -12 12s5 12 12 12z" />
    <glyph glyph-name="acute" unicode="&#xb4;" horiz-adv-x="240" 
d="M59 556l-14 14c-5 5 -5 11 -1 17l111 146c22 30 43 6 55 -6c20 -21 48 -43 16 -66l-149 -106c-6 -4 -13 -4 -18 1z" />
    <glyph glyph-name="mu-grek" unicode="&#x3bc;" horiz-adv-x="598" 
d="M100 165v195c0 33 -14 73 -35 100c-3 4 -5 9 -5 14v2c0 6 4 9 10 10l131 22c23 4 38 -9 38 -32v-296c0 -71 33 -116 92 -116c64 0 118 54 118 136v160c0 33 -14 73 -32 96c-6 8 -8 13 -8 18v2c0 6 4 9 10 10l131 22c22 4 38 -9 38 -32v-481c0 -13 4 -20 13 -20
c7 0 10 5 12 8c6 9 10 12 15 12s9 -4 9 -9v-11c0 -57 -31 -85 -88 -85c-72 0 -100 43 -100 125v65c-43 -57 -115 -89 -185 -89c-101 0 -164 68 -164 174z" />
    <glyph glyph-name="paragraph" unicode="&#xb6;" horiz-adv-x="479" 
d="M289 748h190c15 0 25 -10 25 -25s-10 -25 -25 -25h-17v-892c0 -15 -10 -25 -25 -25s-25 10 -25 25v892h-100v-894c0 -15 -10 -25 -25 -25s-25 10 -25 25v558c-126 0 -210 66 -210 173c0 115 95 213 237 213z" />
    <glyph glyph-name="periodcentered" unicode="&#xb7;" horiz-adv-x="208" 
d="M48 349c0 47 32 77 80 77s80 -30 80 -77s-32 -80 -80 -80s-80 33 -80 80z" />
    <glyph glyph-name="cedilla" unicode="&#xb8;" horiz-adv-x="22" 
d="M19 -156c0 -45 -46 -75 -112 -75c-29 0 -49 6 -49 15s20 15 43 15c39 0 58 18 58 45c0 34 -27 62 -68 69l38 85c2 4 7 6 13 6c11 0 8 -6 4 -15l-22 -52c51 -9 95 -49 95 -93z" />
    <glyph glyph-name="onesuperior" unicode="&#xb9;" horiz-adv-x="190" 
d="M168 691v-320c0 -19 8 -42 21 -58c1 -2 2 -5 2 -8v-1c0 -4 -2 -6 -5 -6h-117c-3 0 -5 2 -5 6v1c0 3 1 6 2 8c13 15 21 39 21 58v223c0 19 -8 43 -19 58c-3 3 -4 5 -4 8v2c0 3 1 5 10 5c29 0 48 20 61 30c22 16 33 8 33 -6z" />
    <glyph glyph-name="ordmasculine" unicode="&#xba;" horiz-adv-x="450" 
d="M160 530c0 -90 36 -150 95 -150s96 60 96 150s-37 150 -96 150s-95 -60 -95 -150zM60 529c0 107 71 179 195 179s195 -72 195 -179c0 -106 -71 -177 -195 -177s-195 71 -195 177z" />
    <glyph glyph-name="guillemotright" unicode="&#xbb;" horiz-adv-x="529" 
d="M529 258c0 -6 -2 -13 -8 -19l-199 -210c-11 -11 -25 -11 -36 -1c-10 10 -11 25 0 36l184 194l-184 194c-11 11 -10 26 0 36c11 9 25 9 36 -1l199 -211c6 -6 8 -12 8 -18zM300 258c0 -6 -2 -13 -8 -19l-199 -210c-11 -11 -25 -11 -36 -1c-10 10 -11 25 0 36l183 194
l-183 194c-11 11 -10 26 0 36c11 9 25 9 36 -1l199 -211c6 -6 8 -12 8 -18z" />
    <glyph glyph-name="onequarter" unicode="&#xbc;" horiz-adv-x="588" 
d="M289 119c0 4 1 9 4 12c57 91 74 144 89 233c3 21 19 35 40 35h27c21 0 27 -12 16 -30l-153 -243h171v238c0 21 14 35 35 35h59c5 0 8 -3 8 -8c0 -2 -1 -4 -2 -6l-9 -12c-7 -8 -11 -21 -11 -32v-215h17c6 0 11 -5 11 -12s-5 -11 -11 -11h-17v-31c0 -19 7 -42 19 -57
c2 -2 3 -5 3 -8v-1c0 -4 -2 -6 -5 -6h-114c-3 0 -5 2 -5 6v1c0 3 1 6 2 8c12 15 20 38 20 57v31h-178c-10 0 -16 6 -16 16zM114 25l277 648c6 15 21 25 38 25c16 0 22 -10 16 -25l-277 -648c-6 -15 -21 -25 -38 -25c-16 0 -22 10 -16 25zM174 691v-320c0 -19 8 -42 21 -58
c1 -2 2 -5 2 -8v-1c0 -4 -2 -6 -5 -6h-117c-3 0 -5 2 -5 6v1c0 3 1 6 2 8c13 15 21 39 21 58v223c0 19 -8 43 -19 58c-3 3 -4 5 -4 8v2c0 3 1 5 10 5c29 0 48 20 61 30c22 16 33 8 33 -6z" />
    <glyph glyph-name="onehalf" unicode="&#xbd;" horiz-adv-x="604" 
d="M418 81h106c14 0 31 5 42 12l17 9c3 2 5 2 8 2c4 0 7 -3 7 -7l-9 -77c-1 -12 -10 -20 -23 -20h-207c-25 0 -30 12 -13 31c73 81 184 211 184 292c0 32 -17 64 -51 64c-39 0 -64 -43 -69 -50c-13 -21 -38 -29 -53 -6c-11 17 -8 40 21 57c19 11 53 22 91 22
c79 0 138 -46 138 -120c0 -108 -129 -168 -189 -209zM114 25l277 648c6 15 21 25 38 25c16 0 22 -10 16 -25l-277 -648c-6 -15 -21 -25 -38 -25c-16 0 -22 10 -16 25zM174 691v-320c0 -19 8 -42 21 -58c1 -2 2 -5 2 -8v-1c0 -4 -2 -6 -5 -6h-117c-3 0 -5 2 -5 6v1
c0 3 1 6 2 8c13 15 21 39 21 58v223c0 19 -8 43 -19 58c-3 3 -4 5 -4 8v2c0 3 1 5 10 5c29 0 48 20 61 30c22 16 33 8 33 -6z" />
    <glyph glyph-name="threequarters" unicode="&#xbe;" horiz-adv-x="700" 
d="M389 119c0 4 1 9 4 12c56 91 73 144 88 233c3 21 19 35 40 35h27c21 0 27 -12 16 -30l-152 -243h170v238c0 21 14 35 35 35h60c5 0 8 -3 8 -8c0 -2 -1 -4 -2 -6l-9 -12c-7 -8 -12 -21 -12 -32v-215h18c6 0 11 -5 11 -12s-5 -11 -11 -11h-18v-31c0 -19 8 -42 20 -57
c2 -2 3 -5 3 -8v-1c0 -4 -2 -6 -5 -6h-115c-3 0 -5 2 -5 6v1c0 3 1 6 2 8c12 15 20 38 20 57v31h-177c-10 0 -16 6 -16 16zM213 25l277 648c6 15 21 25 38 25c16 0 22 -10 16 -25l-277 -648c-6 -15 -21 -25 -38 -25c-16 0 -22 10 -16 25zM155 525c45 5 70 39 70 91
c0 34 -11 69 -53 69c-46 0 -60 -42 -68 -55c-9 -15 -34 -23 -49 -1c-11 18 -7 40 21 57c18 11 49 22 95 22c86 0 134 -39 134 -96c0 -50 -37 -83 -90 -94c73 -7 113 -53 113 -107c0 -67 -60 -115 -155 -115c-36 0 -72 7 -97 22c-28 17 -32 40 -21 58c15 22 40 14 49 -1
c8 -13 22 -56 68 -56c43 0 76 37 76 86c0 58 -45 92 -93 96c-7 1 -12 5 -12 12s5 12 12 12z" />
    <glyph glyph-name="questiondown" unicode="&#xbf;" horiz-adv-x="364" 
d="M260 289c2 12 10 20 21 20c12 0 20 -8 19 -20c-9 -165 -132 -214 -132 -341c0 -63 31 -117 88 -117c68 0 110 73 120 88c22 34 65 48 90 9c20 -31 14 -70 -35 -98c-33 -20 -93 -39 -159 -39c-134 0 -238 78 -238 205c0 178 207 166 226 293zM277 508c47 0 78 -30 78 -77
s-31 -79 -78 -79s-78 32 -78 79s31 77 78 77z" />
    <glyph glyph-name="AE" unicode="&#xc6;" horiz-adv-x="783" 
d="M136 250h180v322c0 29 -10 63 -27 89l-58 -155zM276 10v2c0 5 2 10 5 14c21 26 35 67 35 100v84h-193l-35 -93c-10 -28 -6 -63 10 -89c3 -5 5 -12 5 -17v-1c0 -6 -4 -10 -10 -10h-111c-7 0 -12 5 -12 12c0 5 2 10 6 13l23 20c17 15 34 40 42 61l209 568c5 14 20 24 36 24
h438c13 0 22 -9 23 -21l7 -69c1 -6 -3 -10 -9 -10s-13 2 -18 6l-9 7c-38 28 -95 47 -142 47h-120v-289h24c45 0 103 11 146 27c5 2 13 3 19 3s10 -4 10 -10v-77c0 -8 -5 -13 -13 -13c-4 0 -9 1 -13 2l-34 13c-24 9 -57 15 -82 15h-57v-289h130c47 0 105 18 142 47l9 7
c5 4 12 6 18 6s10 -4 9 -10l-7 -69c-1 -12 -10 -21 -23 -21h-448c-6 0 -10 4 -10 10z" />
    <glyph glyph-name="Eth" unicode="&#xd0;" horiz-adv-x="619" 
d="M233 40h27c92 0 203 62 203 310c0 247 -111 308 -203 308h-27v-284h57c15 0 25 -10 25 -25s-10 -25 -25 -25h-57v-284zM320 0h-256c-6 0 -10 4 -10 10v2c0 5 2 10 5 14c21 26 35 67 35 100v198h-65c-15 0 -25 10 -25 25s10 25 25 25h65v198c0 33 -14 73 -35 100
c-3 4 -5 9 -5 14v2c0 6 4 10 10 10h256c116 0 282 -77 282 -349s-166 -349 -282 -349z" />
    <glyph glyph-name="multiply" unicode="&#xd7;" horiz-adv-x="474" 
d="M58 158l167 166l-167 167c-11 10 -11 23 0 34s24 11 35 0l167 -166l166 166c11 11 24 11 35 0s11 -24 0 -34l-166 -167l166 -166c11 -11 11 -24 0 -35s-24 -11 -35 0l-166 166l-167 -166c-11 -11 -24 -11 -35 0s-11 24 0 35z" />
    <glyph glyph-name="Oslash" unicode="&#xd8;" horiz-adv-x="698" 
d="M483 608l-202 -551c25 -17 53 -27 83 -27c111 0 194 128 194 319c0 113 -29 203 -75 259zM170 349c0 -112 28 -201 74 -257l202 550c-25 17 -53 26 -82 26c-111 0 -194 -128 -194 -319zM30 349c0 215 144 359 334 359c35 0 69 -5 100 -14l5 12c5 14 18 23 33 23
s22 -9 17 -23l-11 -29c114 -53 190 -172 190 -328c0 -215 -144 -359 -334 -359c-36 0 -70 5 -102 15l-5 -14c-5 -14 -18 -23 -33 -23s-22 9 -17 23l11 31c-113 54 -188 171 -188 327z" />
    <glyph glyph-name="Thorn" unicode="&#xde;" horiz-adv-x="572" 
d="M215 194h77c92 0 153 62 153 157c0 92 -61 152 -153 152h-77v-309zM392 155h-177v-29c0 -33 14 -73 35 -100c3 -4 5 -9 5 -14v-2c0 -6 -4 -10 -10 -10h-199c-6 0 -10 4 -10 10v2c0 5 2 10 5 14c21 27 35 67 35 100v446c0 33 -14 73 -35 100c-3 4 -5 9 -5 14v2
c0 6 4 10 10 10h199c6 0 10 -4 10 -10v-2c0 -5 -2 -10 -5 -14c-21 -27 -35 -67 -35 -100v-29h177c116 0 192 -76 192 -196c0 -116 -76 -192 -192 -192z" />
    <glyph glyph-name="germandbls" unicode="&#xdf;" horiz-adv-x="577" 
d="M263 389c84 6 130 66 130 151c0 69 -29 128 -91 128c-60 0 -99 -56 -99 -147v-521h-169c-6 0 -10 4 -10 10v2c0 5 2 10 5 14c21 26 35 67 35 100v337c0 141 94 245 251 245c106 0 217 -47 217 -187c0 -67 -26 -116 -77 -144c72 -26 117 -93 117 -183
c0 -117 -76 -194 -192 -194h-117c-12 0 -20 8 -20 20s8 20 20 20h17c92 0 153 62 153 155s-61 154 -153 154h-17c-12 0 -20 8 -20 20s8 19 20 20z" />
    <glyph glyph-name="ae" unicode="&#xe6;" horiz-adv-x="816" 
d="M348 260c-86 0 -179 -10 -179 -104c0 -60 37 -106 86 -106c54 0 90 56 93 148v62zM510 142c148 42 151 193 151 212c0 68 -33 115 -73 115c-56 0 -93 -90 -93 -210c0 -45 6 -85 15 -117zM24 147c0 145 189 153 324 152c-3 118 -36 170 -82 170c-51 0 -84 -61 -97 -78
c-16 -22 -46 -36 -76 -11c-31 26 -26 66 22 93c23 13 78 35 155 35c71 0 126 -19 163 -58c43 38 98 58 160 58c119 0 207 -76 207 -181c0 -135 -144 -216 -281 -213c21 -54 55 -84 93 -84c55 0 89 61 93 67c25 45 62 49 89 22s22 -66 -26 -93c-23 -13 -79 -36 -154 -36
c-113 0 -199 52 -239 138c-24 -87 -82 -138 -173 -138c-102 0 -178 65 -178 157z" />
    <glyph glyph-name="eth" unicode="&#xf0;" horiz-adv-x="515" 
d="M251 30c55 0 108 82 108 189c0 116 -62 180 -105 180c-47 0 -84 -75 -84 -194c0 -110 32 -175 81 -175zM168 579c-22 -34 -65 -48 -90 -9c-20 31 -14 70 35 99c33 20 92 39 147 39c51 0 97 -16 134 -46l24 25c6 6 14 6 20 0l4 -4c8 -8 8 -20 0 -28l-20 -21
c55 -63 87 -161 87 -286c0 -219 -98 -358 -266 -358c-144 0 -213 104 -213 224c0 121 69 225 190 225c70 0 121 -34 149 -90c0 84 -7 154 -20 209l-10 -10c-9 -10 -22 -10 -32 0c-7 7 -7 17 0 24l28 29c-17 42 -39 67 -67 67c-49 0 -90 -74 -100 -89z" />
    <glyph glyph-name="divide" unicode="&#xf7;" horiz-adv-x="607" 
d="M263 168c0 47 31 78 78 78s79 -31 79 -78c0 -46 -32 -78 -79 -78s-78 32 -78 78zM101 374h480c15 0 25 -10 25 -25s-10 -25 -25 -25h-480c-15 0 -25 10 -25 25s10 25 25 25zM263 530c0 47 31 78 78 78s79 -31 79 -78c0 -46 -32 -78 -79 -78s-78 32 -78 78z" />
    <glyph glyph-name="oslash" unicode="&#xf8;" horiz-adv-x="601" 
d="M429 389l-191 -329c21 -20 48 -30 78 -30c87 0 140 88 140 219c0 56 -10 103 -27 140zM177 249c0 -62 11 -114 32 -152l194 333c-23 25 -52 39 -87 39c-87 0 -139 -88 -139 -220zM32 249c0 156 104 259 284 259c46 0 87 -7 122 -18l3 5c8 14 18 23 33 23s25 -9 17 -23
l-14 -22c79 -43 123 -123 123 -224c0 -155 -103 -259 -284 -259c-41 0 -77 5 -110 15c-7 -11 -16 -18 -29 -18c-15 0 -25 9 -17 23l6 11c-87 42 -134 124 -134 228z" />
    <glyph glyph-name="thorn" unicode="&#xfe;" horiz-adv-x="560" 
d="M175 381v-153c4 -117 46 -178 109 -178c72 0 111 81 111 196c0 135 -53 203 -125 203c-43 0 -74 -24 -95 -68zM175 674v-227c36 39 85 61 141 61c120 0 223 -103 223 -267c0 -146 -82 -251 -199 -251c-71 0 -129 39 -165 105v-170c0 -33 14 -73 35 -99c3 -4 5 -9 5 -14
v-2c0 -6 -4 -10 -10 -10h-199c-6 0 -10 4 -10 10v2c0 5 2 10 5 14c21 25 35 66 35 99v633c0 33 -14 73 -35 100c-3 4 -5 9 -5 14v2c0 6 4 9 10 10l131 23c23 4 38 -9 38 -33z" />
    <glyph glyph-name="dcroat" unicode="&#x111;" horiz-adv-x="582" 
d="M400 381c-21 44 -52 68 -95 68c-72 0 -124 -68 -124 -203c0 -115 38 -196 110 -196c63 0 105 61 109 178v153zM259 508c56 0 105 -22 141 -61v101h-188c-14 0 -24 10 -24 25s10 25 24 25h183c-6 22 -16 43 -27 57c-6 8 -8 13 -8 18v2c0 6 4 9 10 10l131 23
c23 4 38 -9 38 -33v-77h54c15 0 25 -10 25 -25s-10 -25 -25 -25h-54v-453c0 -13 4 -20 13 -20c7 0 10 5 12 8c6 9 10 12 15 12s9 -4 9 -9v-11c0 -57 -31 -85 -88 -85c-66 0 -95 36 -99 106c-36 -66 -94 -106 -166 -106c-116 0 -199 105 -199 251c0 164 104 267 223 267z" />
    <glyph glyph-name="Lslash" unicode="&#x141;" horiz-adv-x="521" 
d="M48 686v2c0 6 4 10 10 10h199c6 0 10 -4 10 -10v-2c0 -5 -2 -10 -5 -14c-21 -27 -35 -67 -35 -100v-166l54 42c8 7 20 3 29 -9s10 -24 2 -30l-85 -66v-303h131c47 0 105 18 141 47l9 7c5 4 12 6 18 6s10 -4 9 -10l-7 -69c-1 -12 -10 -21 -23 -21h-447c-6 0 -10 4 -10 10
v2c0 5 2 10 5 14c21 27 35 67 35 100v109l-43 -33c-9 -7 -21 -3 -30 9s-9 24 -1 30l74 57v274c0 33 -14 74 -35 100c-3 4 -5 9 -5 14z" />
    <glyph glyph-name="lslash" unicode="&#x142;" horiz-adv-x="313" 
d="M225 675v-266l50 39c8 7 20 3 29 -9s10 -24 2 -30l-81 -63v-220c0 -33 14 -73 35 -100c3 -4 5 -9 5 -14v-2c0 -6 -4 -10 -10 -10h-199c-6 0 -10 4 -10 10v2c0 5 2 10 5 14c21 26 35 67 35 100v112l-47 -36c-9 -7 -21 -3 -30 9s-9 24 -1 30l78 60v258c0 33 -14 73 -35 100
c-3 4 -5 9 -5 14v2c0 6 4 9 10 10l130 23c23 4 39 -9 39 -33z" />
    <glyph glyph-name="OE" unicode="&#x152;" horiz-adv-x="998" 
d="M170 349c0 -191 83 -319 194 -319s194 128 194 319s-83 319 -194 319s-194 -128 -194 -319zM30 349c0 215 144 359 334 359c62 0 118 -15 166 -42c0 1 -1 2 -1 2l-3 3c-3 5 -5 10 -5 15v2c0 6 4 10 9 10h438c13 0 22 -9 23 -21l7 -69c1 -6 -3 -10 -9 -10s-13 2 -18 6
l-9 7c-38 28 -95 47 -141 47h-121v-289h25c45 0 103 11 145 27c5 2 13 3 19 3s10 -4 10 -10v-77c0 -8 -5 -13 -13 -13c-4 0 -9 1 -13 2l-33 13c-24 9 -57 15 -82 15h-58v-289h131c46 0 104 18 141 47l9 7c5 4 12 6 18 6s10 -4 9 -10l-7 -69c-1 -12 -10 -21 -23 -21h-448
c-5 0 -9 4 -9 10v2c0 5 2 10 4 14c1 1 1 1 1 2l3 3c0 1 1 2 1 2c-48 -28 -104 -43 -166 -43c-190 0 -334 144 -334 359z" />
    <glyph glyph-name="oe" unicode="&#x153;" horiz-adv-x="925" 
d="M622 142c149 42 152 193 152 212c0 68 -33 115 -73 115c-56 0 -94 -90 -94 -210c0 -45 6 -85 15 -117zM177 249c0 -131 52 -219 139 -219s140 88 140 219c0 132 -53 220 -140 220s-139 -88 -139 -220zM32 249c0 156 104 259 284 259c93 0 165 -26 213 -74
c44 48 107 74 177 74c119 0 206 -76 206 -181c0 -135 -143 -216 -281 -213c22 -54 56 -84 94 -84c55 0 89 61 93 67c25 45 61 49 88 22s22 -66 -26 -93c-23 -13 -78 -36 -153 -36c-83 0 -151 28 -197 76c-48 -48 -121 -76 -214 -76c-180 0 -284 104 -284 259z" />
    <glyph glyph-name="fhook" unicode="&#x192;" horiz-adv-x="333" 
d="M15 459c-11 0 -17 8 -15 20c3 12 12 19 23 19h22c38 128 108 210 232 210c66 0 116 -23 136 -36c43 -27 39 -67 3 -93c-36 -25 -63 -11 -73 11c-9 17 -30 78 -71 78c-43 0 -65 -66 -89 -170h73c12 0 19 -7 16 -19c-2 -12 -12 -20 -24 -20h-73c-1 -3 -2 -7 -2 -10
l-102 -480c-18 -82 -55 -125 -126 -125c-58 0 -83 28 -71 85l2 11c1 5 6 9 11 9s9 -3 13 -12c1 -3 3 -8 10 -8c9 0 15 7 17 20l106 500c0 3 1 7 2 10h-20z" />
    <glyph glyph-name="circumflexmod" unicode="&#x2c6;" horiz-adv-x="326" 
d="M57 572l-14 14c-5 5 -5 11 -1 17l111 146c10 14 19 14 28 14s20 0 30 -14l111 -146c4 -6 4 -12 -1 -17l-14 -14c-5 -5 -12 -5 -18 -1l-107 76l-107 -76c-6 -4 -13 -4 -18 1z" />
    <glyph glyph-name="caronmod" unicode="&#x2c7;" horiz-adv-x="270" 
d="M1 758c5 5 12 5 18 1l107 -76l107 76c6 4 13 4 18 -1l14 -14c5 -5 5 -11 1 -17l-111 -146c-10 -14 -21 -14 -30 -14s-18 0 -28 14l-111 146c-4 6 -4 12 1 17z" />
    <glyph glyph-name="brevemod" unicode="&#x2d8;" horiz-adv-x="332" 
d="M70 708c13 0 21 -9 22 -23c3 -47 41 -48 98 -48c56 0 94 1 97 49c1 14 8 22 21 22s23 -9 23 -22c-2 -83 -58 -138 -141 -138c-85 0 -142 55 -144 137c0 13 10 23 24 23z" />
    <glyph glyph-name="dotaccentmod" unicode="&#x2d9;" horiz-adv-x="157" 
d="M42 655c0 34 23 56 57 56c35 0 58 -22 58 -56c0 -33 -23 -57 -58 -57c-34 0 -57 24 -57 57z" />
    <glyph glyph-name="ringmod" unicode="&#x2da;" horiz-adv-x="246" 
d="M147 701c-27 0 -44 -17 -44 -43s17 -43 44 -43c25 0 42 17 42 43s-17 43 -42 43zM146 558c-60 0 -100 40 -100 100s40 100 100 100s99 -40 99 -100s-39 -100 -99 -100z" />
    <glyph glyph-name="ogonekmod" unicode="&#x2db;" horiz-adv-x="93" 
d="M30 15c-36 -23 -60 -68 -60 -109c0 -42 24 -68 63 -68c18 0 38 -5 38 -14s-20 -15 -49 -15c-67 0 -112 32 -112 83c0 49 41 108 105 140c6 3 13 1 17 -4s4 -9 -2 -13z" />
    <glyph glyph-name="tildemod" unicode="&#x2dc;" horiz-adv-x="402" 
d="M148 691c77 0 190 -119 222 -37c3 9 10 11 18 8c10 -4 14 -13 11 -22c-21 -60 -64 -92 -103 -92c-75 0 -174 123 -217 42c-5 -10 -15 -15 -25 -12s-14 11 -11 20c19 51 59 93 105 93z" />
    <glyph glyph-name="doubleacutemod" unicode="&#x2dd;" horiz-adv-x="383" 
d="M201 556l-14 14c-5 5 -5 11 -1 17l111 146c23 30 44 6 56 -6c20 -21 48 -43 16 -66l-150 -106c-6 -4 -13 -4 -18 1zM59 556l-14 14c-5 5 -5 11 -1 17l111 146c22 30 43 6 55 -6c20 -21 48 -43 16 -66l-149 -106c-6 -4 -13 -4 -18 1z" />
    <glyph glyph-name="endash" unicode="&#x2013;" horiz-adv-x="563" 
d="M57 279h480c15 0 25 -10 25 -25s-10 -25 -25 -25h-480c-15 0 -25 10 -25 25s10 25 25 25z" />
    <glyph glyph-name="emdash" unicode="&#x2014;" horiz-adv-x="1061" 
d="M57 269h979c15 0 25 -10 25 -25s-10 -25 -25 -25h-979c-15 0 -25 10 -25 25s10 25 25 25z" />
    <glyph glyph-name="quoteleft" unicode="&#x2018;" horiz-adv-x="209" 
d="M162 678c-19 -10 -34 -20 -44 -38c4 1 9 1 13 1c47 0 78 -32 78 -79s-31 -77 -78 -77c-46 0 -79 29 -79 81c0 54 35 102 98 138c7 4 15 2 19 -6s1 -16 -7 -20z" />
    <glyph glyph-name="quoteright" unicode="&#x2019;" horiz-adv-x="209" 
d="M99 514c19 10 34 20 44 38c-4 -1 -9 -1 -13 -1c-47 0 -78 32 -78 79s31 78 78 78c46 0 79 -30 79 -82c0 -54 -35 -102 -98 -137c-7 -4 -15 -2 -19 6c-4 7 -1 15 7 19z" />
    <glyph glyph-name="quotesinglbase" unicode="&#x201a;" horiz-adv-x="205" 
d="M95 -47c19 10 34 20 44 38c-4 -1 -9 -1 -13 -1c-47 0 -78 32 -78 79s31 78 78 78c46 0 79 -30 79 -82c0 -54 -35 -102 -98 -138c-7 -4 -15 -2 -19 6s-1 16 7 20z" />
    <glyph glyph-name="quotereversed" unicode="&#x201b;" horiz-adv-x="209" 
d="M118 552c10 -18 25 -28 44 -38c8 -4 11 -12 7 -19c-4 -8 -12 -10 -19 -6c-63 35 -98 83 -98 137c0 52 33 82 79 82c47 0 78 -31 78 -78s-31 -79 -78 -79c-4 0 -9 0 -13 1z" />
    <glyph glyph-name="quotedblleft" unicode="&#x201c;" horiz-adv-x="379" 
d="M331 678c-19 -10 -34 -20 -44 -38c4 1 9 1 13 1c47 0 78 -32 78 -79s-31 -77 -78 -77c-46 0 -79 29 -79 81c0 54 35 102 98 138c7 4 15 2 19 -6s1 -16 -7 -20zM162 678c-19 -10 -34 -20 -44 -38c4 1 9 1 13 1c47 0 78 -32 78 -79s-31 -77 -78 -77c-46 0 -79 29 -79 81
c0 54 35 102 98 138c7 4 15 2 19 -6s1 -16 -7 -20z" />
    <glyph glyph-name="quotedblright" unicode="&#x201d;" horiz-adv-x="379" 
d="M99 512c19 10 34 20 44 38c-4 -1 -9 -1 -13 -1c-47 0 -78 32 -78 79s31 78 78 78c46 0 79 -30 79 -82c0 -54 -35 -102 -98 -137c-7 -4 -15 -2 -19 6c-4 7 -1 15 7 19zM268 512c19 10 34 20 44 38c-4 -1 -9 -1 -13 -1c-47 0 -78 32 -78 79s31 78 78 78c46 0 79 -30 79 -82
c0 -54 -35 -102 -98 -137c-7 -4 -15 -2 -19 6c-4 7 -1 15 7 19z" />
    <glyph glyph-name="quotedblbase" unicode="&#x201e;" horiz-adv-x="375" 
d="M264 -47c19 10 34 20 44 38c-4 -1 -9 -1 -13 -1c-47 0 -78 32 -78 79s31 78 78 78c46 0 79 -30 79 -82c0 -54 -35 -102 -98 -138c-7 -4 -15 -2 -19 6s-1 16 7 20zM95 -47c19 10 34 20 44 38c-4 -1 -9 -1 -13 -1c-47 0 -78 32 -78 79s31 78 78 78c46 0 79 -30 79 -82
c0 -54 -35 -102 -98 -138c-7 -4 -15 -2 -19 6s-1 16 7 20z" />
    <glyph glyph-name="dagger" unicode="&#x2020;" horiz-adv-x="336" 
d="M155 -199v668h-106c-15 0 -25 10 -25 25c0 14 10 24 25 24h106v215c0 15 10 25 25 25c14 0 24 -10 24 -25v-215h106c15 0 25 -10 25 -24c0 -15 -10 -25 -25 -25h-106v-668c0 -15 -10 -25 -24 -25c-15 0 -25 10 -25 25z" />
    <glyph glyph-name="daggerdbl" unicode="&#x2021;" horiz-adv-x="360" 
d="M177 -199v179h-104c-15 0 -25 10 -25 25s10 25 25 25h104v442h-104c-15 0 -25 10 -25 24c0 15 10 25 25 25h104v212c0 15 10 25 25 25c14 0 24 -10 24 -25v-212h108c15 0 25 -10 25 -25c0 -14 -10 -24 -25 -24h-108v-442h108c15 0 25 -10 25 -25s-10 -25 -25 -25h-108
v-179c0 -15 -10 -25 -24 -25c-15 0 -25 10 -25 25z" />
    <glyph glyph-name="bullet" unicode="&#x2022;" horiz-adv-x="326" 
d="M56 328c0 81 54 135 135 135c80 0 134 -54 134 -135c0 -82 -54 -136 -134 -136c-81 0 -135 54 -135 136z" />
    <glyph glyph-name="ellipsis" unicode="&#x2026;" horiz-adv-x="725" 
d="M568 69c0 47 31 78 78 78s79 -31 79 -78s-32 -79 -79 -79s-78 32 -78 79zM308 69c0 47 31 78 78 78s79 -31 79 -78s-32 -79 -79 -79s-78 32 -78 79zM48 69c0 47 31 78 78 78s79 -31 79 -78s-32 -79 -79 -79s-78 32 -78 79z" />
    <glyph glyph-name="perthousand" unicode="&#x2030;" horiz-adv-x="969" 
d="M763 196c0 -108 25 -183 62 -183s63 73 63 183c0 115 -28 183 -63 183c-34 0 -62 -67 -62 -183zM464 196c0 -108 25 -183 62 -183c36 0 63 73 63 183c0 115 -29 183 -63 183s-62 -67 -62 -183zM683 199c0 127 58 203 141 203c81 0 144 -76 144 -203s-63 -209 -144 -209
c-82 0 -141 81 -141 209zM384 199c0 127 58 203 141 203c81 0 144 -76 144 -203s-63 -209 -144 -209c-82 0 -141 81 -141 209zM140 502c0 -108 25 -183 62 -183c36 0 63 73 63 183c0 115 -29 183 -63 183s-62 -67 -62 -183zM196 25l277 648c6 15 21 25 38 25
c16 0 22 -10 16 -25l-278 -648c-6 -15 -21 -25 -37 -25s-22 10 -16 25zM60 505c0 127 58 203 141 203c81 0 144 -76 144 -203s-63 -209 -144 -209c-82 0 -141 81 -141 209z" />
    <glyph glyph-name="guilsinglleft" unicode="&#x2039;" horiz-adv-x="301" 
d="M253 29l-199 210c-6 6 -8 13 -8 19s2 12 8 18l199 211c11 10 25 10 36 1c10 -10 11 -25 0 -36l-183 -194l183 -194c11 -11 10 -26 0 -36c-11 -10 -25 -10 -36 1z" />
    <glyph glyph-name="guilsinglright" unicode="&#x203a;" horiz-adv-x="301" 
d="M300 258c0 -6 -2 -13 -8 -19l-199 -210c-11 -11 -25 -11 -36 -1c-10 10 -11 25 0 36l183 194l-183 194c-11 11 -10 26 0 36c11 9 25 9 36 -1l199 -211c6 -6 8 -12 8 -18z" />
    <glyph glyph-name="fraction" unicode="&#x2044;" horiz-adv-x="356" 
d="M17 25l277 648c6 15 21 25 38 25c16 0 22 -10 16 -25l-277 -648c-6 -15 -21 -25 -38 -25c-16 0 -22 10 -16 25z" />
    <glyph glyph-name="euro" unicode="&#x20ac;" horiz-adv-x="646" 
d="M77 439h58c31 165 142 269 298 269c67 0 126 -19 159 -39c49 -29 55 -68 35 -99c-25 -39 -68 -25 -89 9c-10 15 -52 89 -111 89c-64 0 -133 -89 -154 -229h284c15 0 25 -10 25 -25s-10 -25 -25 -25h-290c-1 -13 -1 -26 -1 -40c0 -24 1 -48 4 -70h287c15 0 25 -10 25 -25
s-10 -25 -25 -25h-279c26 -122 91 -199 154 -199s101 76 112 94c20 35 52 41 78 8s21 -72 -27 -101c-34 -21 -95 -41 -166 -41c-151 0 -255 91 -290 239h-62c-15 0 -25 10 -25 25s10 25 25 25h54c-2 20 -4 42 -4 64c0 16 1 31 2 46h-52c-15 0 -25 10 -25 25s10 25 25 25z
" />
    <glyph glyph-name="trademark" unicode="&#x2122;" horiz-adv-x="715" 
d="M467 369l-115 281v-230c0 -16 7 -35 17 -48c2 -2 3 -5 3 -7v-1c0 -3 -2 -5 -5 -5h-49c-3 0 -5 2 -5 5v1c0 2 1 5 3 7c10 12 17 32 17 48v217c0 16 -7 36 -17 49c-2 2 -3 4 -3 7v1c0 3 2 4 5 4h62c16 0 30 -9 36 -24l93 -226l94 226c7 15 20 24 36 24h56c4 0 7 -2 7 -6
c0 -2 -1 -4 -2 -6l-8 -9c-6 -8 -10 -19 -10 -28v-229c0 -16 7 -35 17 -48c2 -2 3 -5 3 -7v-1c0 -3 -2 -5 -5 -5h-97c-2 0 -4 2 -4 5v1c0 2 1 5 2 7c10 12 17 32 17 48v232l-119 -283c-2 -6 -8 -10 -14 -10c-7 0 -12 4 -15 10zM38 655l3 33c1 6 5 10 11 10h237
c6 0 10 -4 11 -10l3 -33c1 -3 -1 -5 -4 -5s-6 1 -9 3l-3 3c-18 14 -46 23 -69 23h-13v-259c0 -16 7 -35 17 -48c2 -2 3 -5 3 -7v-1c0 -3 -2 -5 -5 -5h-98c-3 0 -5 2 -5 5v1c0 2 1 5 3 7c10 12 17 32 17 48v259h-13c-23 0 -51 -9 -69 -23l-4 -3c-3 -2 -6 -3 -9 -3s-5 2 -4 5z
" />
    <glyph glyph-name="minus" unicode="&#x2212;" horiz-adv-x="563" 
d="M57 349h480c15 0 25 -10 25 -25s-10 -25 -25 -25h-480c-15 0 -25 10 -25 25s10 25 25 25z" />
    <glyph glyph-name="glyph176" unicode="&#xf000;" horiz-adv-x="572" 
d="M250 674c5 14 20 24 35 24s30 -9 35 -24l198 -553c60 -137 86 -265 190 -265c72 0 86 61 135 68c52 8 87 -51 11 -85c-29 -12 -74 -22 -139 -22c-204 0 -269 99 -337 281l-41 112h-214l-35 -93c-10 -28 -6 -63 10 -89c3 -5 5 -12 5 -17v-1c0 -6 -4 -10 -10 -10h-111
c-7 0 -12 5 -12 12c0 5 2 10 6 13l23 20c17 15 34 40 42 61zM136 250h187l-92 256z" />
    <glyph glyph-name="glyph177" unicode="&#xf001;" horiz-adv-x="830" 
d="M456 40h76c92 0 153 62 153 156c0 92 -61 153 -153 153h-76v-309zM456 389h47c91 0 142 62 142 135s-51 134 -142 134h-47v-269zM259 653c-101 0 -165 -92 -165 -208c0 -69 23 -140 79 -174c42 -26 72 -10 91 -10c20 0 35 -17 35 -51c0 -41 -23 -67 -78 -67
c-118 0 -199 123 -199 272c0 171 107 283 294 283h266c121 0 203 -68 203 -181c0 -63 -27 -112 -78 -140c73 -26 118 -93 118 -185c0 -115 -77 -192 -193 -192h-346c-6 0 -10 4 -10 10v2c0 5 2 10 5 14c21 26 35 67 35 100v474c0 36 -23 53 -57 53z" />
    <glyph glyph-name="glyph178" unicode="&#xf002;" horiz-adv-x="731" 
d="M346 708c145 0 232 -84 334 -84c110 0 100 -96 -3 -96c-125 0 -227 140 -326 140c-94 0 -177 -128 -177 -319s83 -319 165 -319c63 0 101 76 112 94c21 35 53 41 78 8c26 -33 21 -72 -26 -101c-34 -21 -96 -41 -167 -41c-185 0 -302 139 -302 353c0 220 123 365 312 365z
" />
    <glyph glyph-name="glyph179" unicode="&#xf003;" horiz-adv-x="831" 
d="M455 40h27c91 0 202 62 202 310c0 247 -111 308 -202 308h-27v-618zM258 652c-100 0 -164 -92 -164 -207c0 -69 23 -140 79 -174c42 -26 72 -10 91 -10c20 0 35 -17 35 -51c0 -41 -23 -67 -78 -67c-118 0 -199 123 -199 272c0 170 106 282 293 283h226
c116 0 283 -77 283 -349s-167 -349 -283 -349h-256c-6 0 -10 4 -10 10v2c0 5 2 10 5 14c21 26 35 67 35 100v474c0 36 -23 52 -57 52z" />
    <glyph glyph-name="glyph180" unicode="&#xf004;" horiz-adv-x="757" 
d="M259 653c-101 0 -165 -92 -165 -208c0 -69 23 -140 79 -174c42 -26 72 -10 91 -10c20 0 35 -17 35 -51c0 -41 -23 -67 -78 -67c-118 0 -199 123 -199 272c0 171 107 283 294 283h408c13 0 22 -9 23 -21l7 -69c1 -6 -3 -10 -9 -10s-13 2 -18 6l-9 7c-38 28 -95 47 -142 47
h-120v-289h25c44 0 102 11 145 27c5 2 13 3 19 3s10 -4 10 -10v-77c0 -8 -5 -13 -13 -13c-4 0 -9 1 -13 2l-34 13c-24 9 -57 15 -81 15h-58v-289h130c47 0 105 18 142 47l9 7c5 4 12 6 18 6s10 -4 9 -10l-7 -69c-1 -12 -10 -21 -23 -21h-448c-6 0 -10 4 -10 10v2
c0 5 2 10 5 14c21 26 35 67 35 100v474c0 36 -23 53 -57 53z" />
    <glyph glyph-name="glyph181" unicode="&#xf005;" horiz-adv-x="735" 
d="M259 653c-101 0 -165 -92 -165 -208c0 -69 23 -140 79 -174c42 -26 72 -10 91 -10c20 0 35 -17 35 -51c0 -41 -23 -67 -78 -67c-118 0 -199 123 -199 272c0 171 107 283 294 283h408c13 0 22 -9 23 -21l7 -69c1 -6 -3 -10 -9 -10s-13 2 -18 6l-9 7c-38 28 -95 47 -142 47
h-120v-289h25c44 0 102 11 145 27c5 2 13 3 19 3s10 -4 10 -10v-77c0 -8 -5 -13 -13 -13c-4 0 -9 1 -13 2l-34 13c-24 9 -57 15 -81 15h-58v-203c0 -33 14 -73 35 -100c3 -4 5 -9 5 -14v-2c0 -6 -4 -10 -10 -10h-200c-6 0 -10 4 -10 10v2c0 5 2 10 5 14c21 26 35 67 35 100
v474c0 36 -23 53 -57 53z" />
    <glyph glyph-name="glyph182" unicode="&#xf006;" horiz-adv-x="731" 
d="M546 257v-165c1 -22 -15 -43 -42 -60c-35 -22 -97 -42 -168 -42c-185 0 -302 139 -302 353c0 220 123 365 312 365c145 0 232 -84 334 -84c110 0 100 -96 -3 -96c-125 0 -227 140 -326 140c-94 0 -177 -128 -177 -319s83 -319 165 -319c27 0 50 14 68 32v171
c0 34 -14 74 -36 101c-3 3 -4 8 -4 12v3c0 6 4 10 10 10h195c9 0 14 -5 14 -14c0 -3 -1 -7 -3 -10l-17 -21c-12 -15 -20 -38 -20 -57z" />
    <glyph glyph-name="glyph183" unicode="&#xf007;" horiz-adv-x="875" 
d="M253 651c-98 0 -159 -92 -159 -206c0 -69 23 -140 79 -174c42 -26 72 -10 91 -10c20 0 35 -17 35 -51c0 -41 -23 -67 -78 -67c-118 0 -199 123 -199 272c0 169 104 280 288 283h166c8 0 14 -6 14 -14c0 -4 -2 -8 -4 -11l-16 -20c-12 -15 -20 -38 -20 -57v-227h239v203
c0 33 -14 73 -35 100c-3 4 -5 9 -5 14v2c0 6 4 10 10 10h195c8 0 14 -6 14 -14c0 -4 -2 -8 -4 -11l-16 -20c-11 -15 -19 -38 -19 -57v-470c0 -33 14 -73 34 -100c3 -4 5 -9 5 -14v-2c0 -6 -4 -10 -10 -10h-199c-6 0 -10 4 -10 10v2c0 5 2 10 5 14c21 26 35 67 35 100v203
h-239v-203c0 -33 14 -73 35 -100c3 -4 5 -9 5 -14v-2c0 -6 -4 -10 -10 -10h-200c-6 0 -10 4 -10 10v2c0 5 2 10 5 14c21 26 35 67 35 100v474c0 36 -24 51 -57 51z" />
    <glyph glyph-name="glyph184" unicode="&#xf008;" horiz-adv-x="499" 
d="M256 652c-99 0 -162 -92 -162 -207c0 -69 23 -140 79 -174c42 -26 72 -10 91 -10c20 0 35 -17 35 -51c0 -41 -23 -67 -78 -67c-118 0 -199 123 -199 272c0 170 106 281 291 283h166c8 0 14 -6 14 -14c0 -4 -2 -8 -4 -11l-16 -20c-12 -15 -20 -38 -20 -57v-470
c0 -33 14 -73 35 -100c3 -4 5 -9 5 -14v-2c0 -6 -4 -10 -10 -10h-200c-6 0 -10 4 -10 10v2c0 5 2 10 5 14c21 26 35 67 35 100v474c0 36 -24 52 -57 52z" />
    <glyph glyph-name="glyph185" unicode="&#xf009;" horiz-adv-x="517" 
d="M276 652c-101 0 -164 -92 -164 -207c0 -69 23 -140 79 -174c43 -26 73 -10 92 -10c20 0 35 -17 35 -51c0 -41 -23 -67 -78 -67c-119 0 -199 123 -199 272c0 170 105 282 292 283h165c8 0 14 -6 14 -14c0 -4 -2 -8 -4 -11l-16 -20c-12 -15 -20 -38 -20 -57v-281
c0 -220 -62 -325 -238 -325c-75 0 -135 19 -167 39c-49 29 -55 68 -35 99c25 38 67 25 89 -9c10 -15 52 -89 117 -89c71 0 95 88 95 279v291c0 36 -24 52 -57 52z" />
    <glyph glyph-name="glyph186" unicode="&#xf00a;" horiz-adv-x="879" 
d="M256 652c-99 0 -162 -92 -162 -207c0 -69 23 -140 79 -174c42 -26 72 -10 91 -10c20 0 35 -17 35 -51c0 -41 -23 -67 -78 -67c-118 0 -199 123 -199 272c0 170 106 281 291 283h166c8 0 14 -6 14 -14c0 -4 -2 -8 -4 -11l-16 -20c-12 -15 -20 -38 -20 -57v-250l210 245
c17 20 35 53 24 79c-2 5 -3 11 -3 16v2c0 6 4 10 10 10h129c6 0 11 -4 11 -11c0 -5 -3 -11 -8 -14l-31 -20c-23 -15 -65 -40 -83 -62l-120 -140l233 -361c8 -12 18 -25 28 -33l42 -31c5 -4 8 -10 8 -16s-4 -10 -10 -10h-145c-14 0 -26 8 -34 20l-210 327l-51 -60v-161
c0 -33 14 -73 35 -100c3 -4 5 -9 5 -14v-2c0 -6 -4 -10 -10 -10h-200c-6 0 -10 4 -10 10v2c0 5 2 10 5 14c21 26 35 67 35 100v474c0 36 -24 52 -57 52z" />
    <glyph glyph-name="glyph187" unicode="&#xf00b;" horiz-adv-x="739" 
d="M257 652c-100 0 -163 -92 -163 -207c0 -69 23 -140 79 -174c42 -26 72 -10 91 -10c20 0 35 -17 35 -51c0 -41 -23 -67 -78 -67c-118 0 -199 123 -199 272c0 170 106 282 292 283h170c6 0 10 -4 10 -10v-2c0 -5 -2 -10 -5 -14c-21 -27 -35 -67 -35 -100v-532h130
c47 0 105 18 142 47l9 7c5 4 12 6 18 6s10 -4 9 -10l-7 -69c-1 -12 -10 -21 -23 -21h-448c-6 0 -10 4 -10 10v2c0 5 2 10 5 14c21 27 35 67 35 100v474c0 36 -24 52 -57 52z" />
    <glyph glyph-name="glyph188" unicode="&#xf00c;" horiz-adv-x="1078" 
d="M257 652c-100 0 -163 -92 -163 -207c0 -69 23 -140 79 -174c42 -26 72 -10 91 -10c20 0 35 -17 35 -51c0 -41 -23 -67 -78 -67c-118 0 -199 123 -199 272c0 170 106 282 292 283h97c32 0 62 -20 74 -50l189 -467l194 467c13 30 43 50 75 50h115c8 0 14 -6 14 -14
c0 -4 -2 -8 -4 -11l-16 -20c-12 -15 -20 -38 -20 -57v-470c0 -33 14 -73 35 -100c3 -4 5 -9 5 -14v-2c0 -6 -4 -10 -10 -10h-200c-6 0 -10 4 -10 10v2c0 5 2 10 5 14c21 26 35 67 35 100v476l-243 -582c-5 -12 -16 -20 -30 -20c-13 0 -25 8 -30 20l-235 579v-473
c0 -33 14 -73 35 -100c3 -4 5 -9 5 -14v-2c0 -6 -4 -10 -10 -10h-100c-6 0 -10 4 -10 10v2c0 5 2 10 5 14c21 26 35 67 35 100v474c0 36 -24 52 -57 52z" />
    <glyph glyph-name="glyph189" unicode="&#xf00d;" horiz-adv-x="847" 
d="M257 652c-100 0 -163 -92 -163 -207c0 -69 23 -140 79 -174c42 -26 72 -10 91 -10c20 0 35 -17 35 -51c0 -41 -23 -67 -78 -67c-118 0 -199 123 -199 272c0 170 106 282 292 283h125c25 0 51 -15 65 -36l259 -403v313c0 33 -14 73 -35 100c-3 4 -5 9 -5 14v2
c0 6 4 10 10 10h96c8 0 14 -6 14 -14c0 -4 -2 -8 -4 -11l-16 -20c-12 -15 -20 -38 -20 -57v-575c0 -13 -8 -21 -21 -21c-11 0 -23 7 -29 16l-399 620v-510c0 -33 14 -73 35 -100c3 -4 5 -9 5 -14v-2c0 -6 -4 -10 -10 -10h-100c-6 0 -10 4 -10 10v2c0 5 2 10 5 14
c21 26 35 67 35 100v474c0 36 -24 52 -57 52z" />
    <glyph glyph-name="glyph190" unicode="&#xf00e;" horiz-adv-x="816" 
d="M455 349h76c92 0 153 62 153 156c0 92 -61 153 -153 153h-76v-309zM258 652c-100 0 -164 -92 -164 -207c0 -69 23 -140 79 -174c42 -26 72 -10 91 -10c20 0 35 -17 35 -51c0 -41 -23 -67 -78 -67c-118 0 -199 123 -199 272c0 170 106 282 293 283h316
c116 0 193 -77 193 -197c0 -115 -77 -192 -193 -192h-176v-183c0 -33 14 -73 35 -100c3 -4 5 -9 5 -14v-2c0 -6 -4 -10 -10 -10h-200c-6 0 -10 4 -10 10v2c0 5 2 10 5 14c21 26 35 67 35 100v474c0 36 -23 52 -57 52z" />
    <glyph glyph-name="glyph191" unicode="&#xf00f;" horiz-adv-x="871" 
d="M456 349h76c92 0 153 62 153 156c0 92 -61 153 -153 153h-76v-309zM259 653c-101 0 -165 -92 -165 -208c0 -69 23 -140 79 -174c42 -26 72 -10 91 -10c20 0 35 -17 35 -51c0 -41 -23 -67 -78 -67c-118 0 -199 123 -199 272c0 171 107 283 294 283h316
c116 0 193 -77 193 -197c0 -98 -56 -169 -145 -187l129 -224c7 -12 18 -25 29 -33l41 -31c5 -4 8 -10 8 -16s-4 -10 -10 -10h-145c-14 0 -27 8 -34 20l-166 289h-76v-183c0 -33 14 -73 35 -100c3 -4 5 -9 5 -14v-2c0 -6 -4 -10 -10 -10h-200c-6 0 -10 4 -10 10v2
c0 5 2 10 5 14c21 26 35 67 35 100v474c0 36 -23 53 -57 53z" />
    <glyph glyph-name="glyph192" unicode="&#xf010;" horiz-adv-x="644" 
d="M163 563c0 -163 338 -164 338 -378c0 -118 -105 -195 -265 -195c-79 0 -139 19 -171 39c-49 29 -55 68 -35 99c25 38 67 25 89 -9c10 -15 52 -89 138 -89c65 0 111 43 111 103c0 163 -338 162 -338 373c0 117 103 202 232 202c129 1 222 -84 322 -84c107 0 97 -96 -6 -96
c-125 0 -227 140 -324 140c-60 0 -91 -55 -91 -105z" />
    <glyph glyph-name="glyph193" unicode="&#xf011;" horiz-adv-x="663" 
d="M22 415c0 171 107 283 294 283h339c13 0 22 -9 23 -21l7 -69c1 -6 -3 -10 -9 -10s-13 2 -18 6l-9 7c-37 29 -95 47 -141 47h-26v-532c0 -33 14 -73 35 -100c2 -4 4 -9 4 -14v-2c0 -6 -4 -10 -9 -10h-200c-6 0 -10 4 -10 10v2c0 5 2 10 5 14c21 26 35 67 35 100v532h-25
c-131 0 -223 -76 -223 -213c0 -69 23 -140 79 -174c42 -26 72 -10 91 -10c20 0 35 -17 35 -51c0 -41 -23 -67 -78 -67c-118 0 -199 123 -199 272z" />
    <glyph glyph-name="glyph194" unicode="&#xf012;" horiz-adv-x="848" 
d="M253 651c-98 0 -159 -92 -159 -206c0 -69 23 -140 79 -174c42 -26 72 -10 91 -10c20 0 35 -17 35 -51c0 -41 -23 -67 -78 -67c-118 0 -199 123 -199 272c0 169 104 280 288 283h166c8 0 14 -6 14 -14c0 -4 -2 -8 -4 -11l-16 -20c-12 -15 -20 -38 -20 -57v-447
c0 -71 47 -119 109 -119s110 48 110 119v423c0 33 -14 73 -32 96c-6 8 -8 13 -8 18v2c0 6 4 10 10 10h196c8 0 13 -6 13 -14c0 -4 -1 -8 -3 -11l-16 -20c-12 -15 -20 -38 -20 -57v-350c0 -153 -103 -256 -250 -256c-146 0 -249 103 -249 256v354c0 36 -24 51 -57 51z" />
    <glyph glyph-name="glyph195" unicode="&#xf013;" horiz-adv-x="769" 
d="M517 24c-5 -14 -20 -24 -35 -24s-30 9 -35 24l-199 553c-7 21 -20 42 -35 61c-72 -31 -117 -97 -117 -193c0 -69 23 -140 79 -174c42 -26 72 -10 91 -10c20 0 35 -17 35 -51c0 -41 -23 -67 -78 -67c-118 0 -199 123 -199 272c0 171 87 283 275 283h99c8 0 13 -5 13 -13
c0 -4 -2 -9 -4 -13l-12 -19c-10 -15 -12 -36 -6 -53l146 -409l144 390c10 28 6 63 -10 89c-3 5 -5 12 -5 17v1c0 6 4 10 10 10h111c7 0 12 -5 12 -12c0 -5 -2 -10 -6 -13l-23 -20c-17 -15 -34 -40 -42 -61z" />
    <glyph glyph-name="glyph196" unicode="&#xf014;" horiz-adv-x="1104" 
d="M520 24c-3 -14 -19 -24 -34 -24s-30 9 -35 24l-169 553c-7 24 -24 51 -43 71c-88 -25 -145 -95 -145 -203c0 -69 23 -140 79 -174c42 -26 72 -10 91 -10c20 0 35 -17 35 -51c0 -41 -23 -67 -78 -67c-118 0 -199 123 -199 272c0 171 107 283 295 283h114c8 0 13 -5 13 -13
c0 -4 -2 -9 -4 -13l-12 -19c-10 -15 -11 -36 -6 -53l115 -387l109 347l-5 17c-9 31 -34 65 -59 86l-10 9c-4 4 -7 10 -7 16s4 10 10 10h215c8 0 13 -5 13 -13c0 -4 -2 -9 -4 -13l-12 -19c-10 -15 -11 -36 -6 -53l115 -387l116 368c9 28 6 63 -10 89c-3 5 -5 12 -5 17v1
c0 6 4 10 10 10h111c7 0 12 -5 12 -12c0 -5 -2 -10 -6 -13l-23 -20c-17 -15 -35 -40 -42 -61l-180 -568c-4 -14 -20 -24 -34 -24c-15 0 -30 9 -35 24l-142 467z" />
    <glyph glyph-name="glyph197" unicode="&#xf015;" horiz-adv-x="804" 
d="M814 0h-240c-8 0 -13 5 -13 13c0 4 2 9 4 13l11 19c9 15 9 35 0 50l-103 175l-124 -164c-17 -22 -20 -52 -9 -78c2 -5 3 -11 3 -16v-2c0 -6 -4 -10 -10 -10h-129c-6 0 -11 4 -11 11c0 5 3 11 8 14l31 20c23 15 50 40 67 62l152 200l-164 274c-13 22 -34 47 -55 65
c-84 -27 -138 -96 -138 -201c0 -69 23 -140 79 -174c42 -26 72 -10 91 -10c20 0 35 -17 35 -51c0 -41 -23 -67 -78 -67c-118 0 -199 123 -199 272c0 171 107 283 294 283h123c8 0 13 -5 13 -13c0 -4 -2 -9 -4 -13l-11 -19c-9 -15 -9 -35 0 -50l104 -176l125 164
c16 22 19 53 8 79c-2 5 -3 11 -3 16v2c0 6 4 10 10 10h129c6 0 11 -4 11 -11c0 -5 -3 -11 -8 -14l-31 -20c-23 -15 -50 -40 -67 -62l-152 -201l163 -273c17 -28 46 -59 72 -78l18 -13c5 -3 8 -10 8 -16s-4 -10 -10 -10z" />
    <glyph glyph-name="glyph198" unicode="&#xf016;" horiz-adv-x="791" 
d="M714 591l-137 -241v-224c0 -33 14 -73 35 -100c3 -4 5 -9 5 -14v-2c0 -6 -4 -10 -10 -10h-199c-6 0 -10 4 -10 10v2c0 5 2 10 5 14c21 26 35 67 35 100v204l-152 251c-13 22 -34 46 -55 64c-83 -27 -137 -96 -137 -200c0 -69 23 -140 79 -174c42 -26 72 -10 91 -10
c20 0 35 -17 35 -51c0 -41 -23 -67 -78 -67c-118 0 -199 123 -199 272c0 170 106 282 292 283h124c8 0 13 -5 13 -13c0 -4 -2 -9 -4 -13l-11 -19c-9 -15 -9 -35 0 -50l122 -204l110 192c13 23 19 53 8 79c-2 5 -3 11 -3 16v2c0 6 4 10 10 10h126c6 0 11 -4 11 -11
c0 -5 -3 -11 -8 -14l-31 -20c-23 -15 -54 -39 -67 -62z" />
    <glyph glyph-name="glyph199" unicode="&#xf017;" horiz-adv-x="745" 
d="M222 46l365 612h-270c-131 0 -223 -76 -223 -213c0 -69 23 -140 79 -174c42 -26 72 -10 91 -10c20 0 35 -17 35 -51c0 -41 -23 -67 -78 -67c-118 0 -199 123 -199 272c0 170 106 282 292 283h406c32 0 43 -18 26 -46l-365 -612h195c47 0 104 19 142 47l9 7c5 4 12 6 18 6
s10 -4 9 -10l-7 -69c-1 -12 -10 -21 -23 -21h-476c-32 0 -43 18 -26 46z" />
    <glyph glyph-name="glyph200" unicode="&#xf018;" horiz-adv-x="865" 
d="M250 652c-93 0 -156 -92 -156 -206c0 -70 23 -141 79 -175c42 -26 72 -10 91 -10c20 0 35 -17 35 -51c0 -41 -23 -67 -78 -67c-118 0 -199 123 -199 272c0 170 106 281 291 283h166c8 0 14 -6 14 -14c0 -4 -2 -8 -4 -11l-16 -20c-12 -15 -20 -38 -20 -57v-250l210 245
c17 20 35 53 24 78c-2 6 -3 12 -3 17v2c0 6 4 10 10 10h129c6 0 11 -4 11 -11c0 -5 -3 -11 -8 -14l-31 -20c-23 -15 -65 -40 -83 -62l-120 -140l213 -330c80 -126 185 -265 231 -265c30 0 44 61 94 68c51 8 86 -51 11 -85c-29 -12 -75 -22 -126 -22
c-177 0 -246 118 -351 281l-160 249l-51 -60v-161c0 -33 14 -73 32 -96c6 -8 8 -13 8 -18v-2c0 -6 -4 -10 -10 -10h-200c-6 0 -10 4 -10 10v2c0 5 2 10 8 17c18 23 32 64 32 97v474c0 36 -24 52 -63 52z" />
    <glyph glyph-name="glyph201" unicode="&#xf019;" horiz-adv-x="859" 
d="M456 349h76c92 0 153 62 153 156c0 92 -61 153 -153 153h-76v-309zM259 653c-101 0 -165 -92 -165 -208c0 -69 23 -140 79 -174c42 -26 72 -10 91 -10c20 0 35 -17 35 -51c0 -41 -23 -67 -78 -67c-118 0 -199 123 -199 272c0 171 107 283 294 283h316
c116 0 193 -77 193 -197c0 -95 -50 -186 -158 -192l121 -188c80 -126 185 -265 231 -265c30 0 44 61 94 68c52 8 86 -51 11 -85c-29 -12 -75 -22 -126 -22c-177 0 -246 118 -351 281l-136 211h-55v-183c0 -33 14 -73 35 -100c3 -4 5 -9 5 -14v-2c0 -6 -4 -10 -10 -10h-200
c-6 0 -10 4 -10 10v2c0 5 2 10 5 14c21 26 35 67 35 100v474c0 36 -23 53 -57 53z" />
    <glyph glyph-name="glyph202" unicode="&#xf01a;" horiz-adv-x="510" 
d="M348 260c-86 0 -179 -10 -179 -104c0 -60 37 -106 86 -106c54 0 90 56 93 148v62zM488 100c0 -172 78 -292 183 -292c61 0 110 39 121 103c9 51 38 59 60 59c48 0 67 -33 67 -67c0 -75 -98 -134 -237 -134c-182 0 -319 101 -333 298c-31 -49 -80 -77 -147 -77
c-102 0 -178 65 -178 157c0 145 189 153 324 152c-3 118 -36 170 -82 170c-51 0 -84 -61 -97 -78c-16 -22 -46 -36 -76 -11c-31 26 -26 66 22 93c23 13 78 35 155 35c139 0 218 -73 218 -229v-179z" />
    <glyph glyph-name="glyph203" unicode="&#xf01b;" horiz-adv-x="574" 
d="M-88 118c21 -44 51 -68 94 -68c72 0 125 68 125 202c0 116 -39 197 -111 197c-63 0 -104 -61 -108 -179v-152zM-143 0h-115c-6 0 -10 4 -10 10v2c0 5 2 10 5 14c21 26 35 67 35 100v276c0 171 -29 292 -117 292c-50 0 -76 -40 -85 -93c-11 -62 -40 -70 -63 -70
c-48 0 -67 33 -67 69c0 77 86 133 207 133c171 0 263 -111 265 -325v-4c35 66 93 104 164 104c117 0 199 -104 199 -251c0 -163 -103 -267 -223 -267c-56 0 -105 23 -140 62c-1 -31 -23 -52 -55 -52z" />
    <glyph glyph-name="glyph204" unicode="&#xf01c;" horiz-adv-x="684" 
d="M387 97c25 45 62 49 89 22s22 -66 -26 -93c-23 -13 -79 -36 -154 -36c-160 0 -264 104 -264 259c0 159 107 259 262 259c143 0 230 -83 330 -83c109 0 99 -96 -4 -96c-124 0 -227 140 -318 140c-73 0 -125 -88 -125 -220c0 -131 52 -219 117 -219c55 0 89 61 93 67z" />
    <glyph glyph-name="glyph205" unicode="&#xf01d;" horiz-adv-x="562" 
d="M400 381c-21 44 -52 68 -95 68c-72 0 -124 -68 -124 -203c0 -115 38 -196 110 -196c63 0 105 61 109 178v153zM259 508c56 0 105 -22 141 -61v112c0 33 -14 73 -32 96c-6 8 -8 13 -8 18v2c0 6 4 9 10 10l131 23c23 4 38 -9 38 -33v-575c0 -172 79 -292 184 -292
c61 0 110 39 121 103c9 51 37 59 60 59c48 0 67 -33 67 -67c0 -75 -99 -134 -237 -134c-191 0 -332 110 -334 326c-36 -66 -94 -105 -165 -105c-116 0 -199 105 -199 251c0 164 104 267 223 267z" />
    <glyph glyph-name="glyph206" unicode="&#xf01e;" horiz-adv-x="525" 
d="M177 296c0 -101 51 -166 104 -166s103 63 103 166c0 101 -49 173 -103 173s-104 -73 -104 -173zM183 -43c0 -115 49 -193 128 -193c56 0 105 40 116 103c9 51 38 59 61 59c47 0 66 -33 66 -67c0 -75 -98 -134 -242 -134c-166 0 -269 80 -269 208c0 99 61 150 149 169
c-94 27 -160 97 -160 196c0 126 108 210 248 210c55 0 109 51 128 74c30 38 67 42 94 15c26 -27 22 -66 -15 -87c-16 -9 -46 -18 -82 -26c74 -33 123 -96 123 -183c0 -129 -111 -211 -250 -211c-80 0 -95 -64 -95 -133z" />
    <glyph glyph-name="glyph207" unicode="&#xf01f;" horiz-adv-x="577" 
d="M552 335v-235c0 -172 79 -292 184 -292c61 0 110 39 120 103c9 51 38 59 61 59c48 0 67 -33 67 -67c0 -75 -99 -134 -237 -134c-193 0 -334 112 -334 330v220c0 72 -33 117 -92 117c-64 0 -118 -54 -118 -137v-173c0 -33 14 -73 35 -100c3 -4 5 -9 5 -14v-2
c0 -6 -4 -10 -10 -10h-199c-6 0 -10 4 -10 10v2c0 5 2 10 5 14c21 26 35 67 35 100v433c0 33 -14 73 -35 100c-3 4 -5 9 -5 14v2c0 6 4 9 10 10l131 23c23 4 38 -9 38 -33v-255c43 57 115 88 185 88c102 0 164 -67 164 -173z" />
    <glyph glyph-name="glyph208" unicode="&#xf020;" horiz-adv-x="546" 
d="M-88 408v-145l153 133c35 31 13 58 13 75c0 18 23 27 100 27h19c25 0 35 -12 14 -30l-170 -146l152 -232c8 -12 18 -25 29 -33l42 -31c4 -4 7 -10 7 -16s-4 -10 -9 -10h-146c-14 0 -26 8 -34 20l-141 217l-29 -26v-85c0 -33 14 -73 34 -100c3 -4 5 -9 5 -14v-2
c0 -6 -4 -10 -10 -10h-199c-6 0 -10 4 -10 10v2c0 5 2 10 5 14c21 26 35 67 35 100v276c0 171 -29 292 -117 292c-50 0 -76 -40 -85 -93c-11 -62 -40 -70 -63 -70c-48 0 -67 33 -67 69c0 77 86 133 207 133c171 0 263 -111 265 -325z" />
    <glyph glyph-name="glyph209" unicode="&#xf021;" horiz-adv-x="244" 
d="M-88 404v-278c0 -33 14 -73 34 -100c3 -4 5 -9 5 -14v-2c0 -6 -4 -10 -10 -10h-199c-6 0 -10 4 -10 10v2c0 5 2 10 5 14c21 26 35 67 35 100v276c0 171 -29 292 -117 292c-50 0 -76 -40 -85 -93c-11 -62 -40 -70 -63 -70c-48 0 -67 33 -67 69c0 77 86 133 207 133
c172 0 264 -112 265 -329z" />
    <glyph glyph-name="glyph210" unicode="&#xf022;" horiz-adv-x="831" 
d="M810 335v-235c0 -172 78 -292 183 -292c61 0 110 39 121 103c9 51 38 59 61 59c47 0 66 -33 66 -67c0 -75 -98 -134 -237 -134c-191 0 -332 111 -334 327v223c0 69 -26 117 -74 117c-52 0 -85 -56 -85 -137v-173c0 -33 14 -73 34 -100c3 -4 5 -9 5 -14v-2
c0 -6 -4 -10 -10 -10h-199c-6 0 -10 4 -10 10v2c0 5 2 10 5 14c21 26 35 67 35 100v193c0 69 -26 117 -74 117c-52 0 -86 -56 -86 -137v-173c0 -33 14 -73 35 -100c3 -4 5 -9 5 -14v-2c0 -6 -4 -10 -10 -10h-199c-6 0 -10 4 -10 10v2c0 5 2 10 5 14c21 26 35 67 35 100v234
c0 33 -14 73 -35 100c-3 4 -5 9 -5 14v2c0 6 4 9 10 10l131 22c23 4 38 -9 38 -32v-48c36 50 94 80 159 80c71 0 113 -36 131 -95c34 59 97 95 168 95c99 0 141 -70 141 -173z" />
    <glyph glyph-name="glyph211" unicode="&#xf023;" horiz-adv-x="581" 
d="M560 335v-235c0 -172 79 -292 184 -292c61 0 110 39 120 103c9 51 38 59 61 59c48 0 67 -33 67 -67c0 -75 -99 -134 -237 -134c-192 0 -333 111 -334 329v221c0 72 -33 117 -92 117c-64 0 -118 -54 -118 -137v-173c0 -33 14 -73 35 -100c3 -4 5 -9 5 -14v-2
c0 -6 -4 -10 -10 -10h-199c-6 0 -10 4 -10 10v2c0 5 2 10 5 14c21 26 35 67 35 100v234c0 33 -14 73 -35 100c-3 4 -5 9 -5 14v2c0 6 4 9 10 10l131 22c23 4 38 -9 38 -32v-56c43 57 115 88 185 88c102 0 164 -67 164 -173z" />
    <glyph glyph-name="glyph212" unicode="&#xf024;" horiz-adv-x="579" 
d="M60 165v195c0 33 -14 73 -35 100c-3 4 -5 9 -5 14v2c0 6 4 9 10 10l131 22c23 4 38 -9 38 -32v-296c0 -71 33 -116 92 -116c64 0 118 54 118 136v160c0 33 -14 73 -32 96c-6 8 -8 13 -8 18v2c0 6 4 9 10 10l131 22c22 4 38 -9 38 -32v-376c0 -172 79 -292 184 -292
c61 0 110 39 120 103c9 51 38 59 61 59c48 0 67 -33 67 -67c0 -75 -99 -134 -237 -134c-187 0 -326 106 -334 312c-43 -57 -115 -90 -185 -90c-101 0 -164 68 -164 174z" />
    <glyph glyph-name="glyph213" unicode="&#xf025;" horiz-adv-x="582" 
d="M400 381c-21 44 -52 68 -95 68c-72 0 -124 -68 -124 -203c0 -115 38 -196 110 -196c63 0 105 61 109 178v153zM259 508c55 0 104 -21 140 -60c-5 146 -36 246 -116 246c-50 0 -77 -40 -85 -93c-11 -62 -40 -70 -63 -70c-48 0 -67 33 -67 69c0 77 86 133 207 133
c171 0 262 -111 264 -325v-313c0 -13 4 -20 13 -20c7 0 10 5 12 8c6 9 10 12 15 12s9 -4 9 -9v-11c0 -57 -31 -85 -88 -85c-66 0 -95 36 -99 106c-36 -66 -94 -106 -166 -106c-116 0 -199 105 -199 251c0 164 104 267 223 267z" />
    <glyph glyph-name="glyph214" unicode="&#xf026;" horiz-adv-x="591" 
d="M261 335v-209c0 -33 13 -73 34 -100c3 -4 5 -9 5 -14v-2c0 -6 -4 -10 -10 -10h-199c-6 0 -10 4 -10 10v2c0 5 2 10 5 14c21 26 35 67 35 100v193c0 72 -33 117 -92 117c-64 0 -117 -54 -117 -137v-173c0 -33 14 -73 34 -100c3 -4 5 -9 5 -14v-2c0 -6 -4 -10 -10 -10h-199
c-6 0 -10 4 -10 10v2c0 5 2 10 5 14c21 26 35 67 35 100v276c0 171 -29 292 -117 292c-50 0 -76 -40 -85 -93c-11 -62 -40 -70 -63 -70c-48 0 -67 33 -67 69c0 77 86 133 207 133c168 0 260 -107 265 -314c42 57 114 89 184 89c102 0 165 -67 165 -173z" />
    <glyph glyph-name="glyph215" unicode="&#xf027;" horiz-adv-x="1319" 
d="M1126 460c-86 0 -180 -10 -180 -105c0 -60 38 -106 87 -106c54 0 90 56 93 149v62zM250 652c-93 0 -156 -92 -156 -206c0 -70 23 -141 79 -175c42 -26 72 -10 91 -10c20 0 35 -17 35 -51c0 -41 -23 -67 -78 -67c-118 0 -199 123 -199 272c0 170 106 281 291 283h166
c8 0 14 -6 14 -14c0 -4 -2 -8 -4 -11l-16 -20c-12 -15 -20 -38 -20 -57v-250l210 245c17 20 35 53 24 78c-2 6 -3 12 -3 17v2c0 6 4 10 10 10h129c6 0 11 -4 11 -11c0 -5 -3 -11 -8 -14l-31 -20c-23 -15 -65 -40 -83 -62l-129 -152l232 -199c124 -106 220 -210 311 -210
c69 0 83 61 133 68c52 8 87 -51 11 -85c-29 -13 -75 -23 -147 -23c-160 0 -265 49 -431 193l-188 164l-51 -60v-161c0 -33 14 -73 32 -96c6 -8 8 -13 8 -18v-2c0 -6 -4 -10 -10 -10h-200c-6 0 -10 4 -10 10v2c0 5 2 10 8 17c18 23 32 64 32 97v474c0 36 -24 52 -63 52z
M802 346c0 146 189 153 324 152c-3 118 -36 170 -82 170c-51 0 -85 -61 -98 -78c-16 -22 -46 -36 -76 -11c-30 26 -25 66 22 93c23 13 79 36 156 36c138 0 217 -74 217 -229v-185c0 -13 4 -20 13 -20c7 0 10 5 12 8c6 9 10 12 15 12s9 -4 9 -9v-11c0 -57 -31 -85 -89 -85
c-57 0 -87 28 -96 81c-31 -52 -81 -81 -149 -81c-103 0 -178 65 -178 157z" />
    <glyph glyph-name="glyph216" unicode="&#xf028;" horiz-adv-x="1352" 
d="M1160 460c-86 0 -180 -10 -180 -105c0 -60 38 -106 87 -106c54 0 90 56 93 149v62zM456 349h76c92 0 153 62 153 156c0 92 -61 153 -153 153h-76v-309zM259 653c-101 0 -165 -92 -165 -208c0 -69 23 -140 79 -174c42 -26 72 -10 91 -10c20 0 35 -17 35 -51
c0 -41 -23 -67 -78 -67c-118 0 -199 123 -199 272c0 171 107 283 294 283h316c116 0 193 -77 193 -197c0 -90 -46 -177 -144 -190l98 -71c126 -91 279 -210 379 -210c71 0 85 61 135 68c52 8 87 -51 11 -85c-29 -13 -75 -23 -149 -23c-180 0 -313 57 -442 153l-222 166h-35
v-183c0 -33 14 -73 35 -100c3 -4 5 -9 5 -14v-2c0 -6 -4 -10 -10 -10h-200c-6 0 -10 4 -10 10v2c0 5 2 10 5 14c21 26 35 67 35 100v474c0 36 -23 53 -57 53zM836 346c0 146 189 153 324 152c-3 118 -36 170 -82 170c-51 0 -85 -61 -98 -78c-16 -22 -46 -36 -76 -11
c-31 26 -26 66 22 93c23 13 79 36 156 36c138 0 217 -74 217 -229v-185c0 -13 4 -20 13 -20c7 0 10 5 12 8c6 9 10 12 15 12s9 -4 9 -9v-11c0 -57 -31 -85 -89 -85s-87 28 -96 81c-31 -52 -81 -81 -149 -81c-103 0 -178 65 -178 157z" />
    <glyph glyph-name="glyph217" unicode="&#xf029;" horiz-adv-x="1455" 
d="M915 353v195c0 33 -14 73 -35 100c-3 4 -5 9 -5 14v2c0 6 4 9 10 10l131 23c23 4 39 -9 39 -33v-295c0 -72 33 -117 92 -117c63 0 117 54 117 137v159c0 33 -14 73 -32 96c-6 8 -8 13 -8 18v2c0 6 4 9 10 10l131 23c23 4 39 -9 39 -33v-381c0 -13 4 -20 13 -20
c7 0 10 5 12 8c6 9 10 12 15 12s9 -4 9 -9v-11c0 -57 -31 -85 -89 -85c-62 0 -91 32 -98 93c-43 -58 -115 -92 -186 -92c-102 0 -165 68 -165 174zM250 652c-93 0 -156 -92 -156 -206c0 -70 23 -141 79 -175c42 -26 72 -10 91 -10c20 0 35 -17 35 -51c0 -41 -23 -67 -78 -67
c-118 0 -199 123 -199 272c0 170 106 281 291 283h166c8 0 14 -6 14 -14c0 -4 -2 -8 -4 -11l-16 -20c-12 -15 -20 -38 -20 -57v-250l210 245c17 20 35 53 24 78c-2 6 -3 12 -3 17v2c0 6 4 10 10 10h129c6 0 11 -4 11 -11c0 -5 -3 -11 -8 -14l-31 -20
c-23 -15 -65 -40 -83 -62l-129 -152l271 -199c133 -96 281 -210 373 -210c68 0 82 61 132 68c52 8 87 -51 11 -85c-29 -13 -75 -23 -141 -23c-166 0 -318 65 -497 193l-228 164l-51 -60v-161c0 -33 14 -73 32 -96c6 -8 8 -13 8 -18v-2c0 -6 -4 -10 -10 -10h-200
c-6 0 -10 4 -10 10v2c0 5 2 10 8 17c18 23 32 64 32 97v474c0 36 -24 52 -63 52z" />
    <glyph glyph-name="glyph218" unicode="&#xf02a;" horiz-adv-x="1456" 
d="M456 349h76c92 0 153 62 153 156c0 92 -61 153 -153 153h-76v-309zM914 353v195c0 33 -14 73 -35 100c-3 4 -5 9 -5 14v2c0 6 4 9 10 10l131 23c23 4 39 -9 39 -33v-295c0 -72 33 -117 92 -117c63 0 117 54 117 137v159c0 33 -14 73 -32 96c-6 8 -8 13 -8 18v2
c0 6 4 9 10 10l131 23c23 4 39 -9 39 -33v-381c0 -13 4 -20 13 -20c7 0 10 5 12 8c6 9 10 12 15 12s9 -4 9 -9v-11c0 -57 -31 -85 -89 -85c-62 0 -91 32 -98 93c-43 -58 -115 -92 -186 -92c-102 0 -165 68 -165 174zM259 653c-101 0 -165 -92 -165 -208
c0 -69 23 -140 79 -174c42 -26 72 -10 91 -10c20 0 35 -17 35 -51c0 -41 -23 -67 -78 -67c-118 0 -199 123 -199 272c0 171 107 283 294 283h316c116 0 193 -77 193 -197c0 -89 -45 -175 -141 -190l135 -90c129 -86 319 -191 416 -191c74 0 88 61 138 68c52 8 87 -51 11 -85
c-29 -13 -75 -23 -163 -23c-228 0 -365 68 -498 153l-260 166h-7v-183c0 -33 14 -73 35 -100c3 -4 5 -9 5 -14v-2c0 -6 -4 -10 -10 -10h-200c-6 0 -10 4 -10 10v2c0 5 2 10 5 14c21 26 35 67 35 100v474c0 36 -23 53 -57 53z" />
    <glyph glyph-name="glyph219" unicode="&#xf02b;" horiz-adv-x="1303" 
d="M985 341c149 43 152 193 152 212c0 68 -33 115 -73 115c-56 0 -94 -90 -94 -209c0 -45 6 -85 15 -118zM250 652c-93 0 -156 -92 -156 -206c0 -70 23 -141 79 -175c42 -26 72 -10 91 -10c20 0 35 -17 35 -51c0 -41 -23 -67 -78 -67c-118 0 -199 123 -199 272
c0 170 106 281 291 283h166c8 0 14 -6 14 -14c0 -4 -2 -8 -4 -11l-16 -20c-12 -15 -20 -38 -20 -57v-250l210 245c17 20 35 53 24 78c-2 6 -3 12 -3 17v2c0 6 4 10 10 10h129c6 0 11 -4 11 -11c0 -5 -3 -11 -8 -14l-31 -20c-23 -15 -65 -40 -83 -62l-129 -152l212 -199
c119 -112 220 -210 310 -210c71 0 84 61 134 68c52 8 87 -51 11 -85c-29 -13 -74 -23 -152 -23c-155 0 -268 40 -426 193l-168 164l-51 -60v-161c0 -33 14 -73 32 -96c6 -8 8 -13 8 -18v-2c0 -6 -4 -10 -10 -10h-200c-6 0 -10 4 -10 10v2c0 5 2 10 8 17c18 23 32 64 32 97
v474c0 36 -24 52 -63 52zM1269 318c27 -27 22 -66 -26 -93c-23 -13 -78 -36 -153 -36c-161 0 -264 104 -264 260c0 158 107 259 243 259c118 0 206 -77 206 -182c0 -134 -143 -216 -281 -213c22 -54 56 -84 94 -84c55 0 89 61 92 67c25 45 62 49 89 22z" />
    <glyph glyph-name="glyph220" unicode="&#xf02c;" horiz-adv-x="1350" 
d="M456 349h76c92 0 153 62 153 156c0 92 -61 153 -153 153h-76v-309zM1024 341c149 43 152 193 152 212c0 68 -33 115 -73 115c-56 0 -94 -90 -94 -209c0 -45 6 -85 15 -118zM259 653c-101 0 -165 -92 -165 -208c0 -69 23 -140 79 -174c42 -26 72 -10 91 -10
c20 0 35 -17 35 -51c0 -41 -23 -67 -78 -67c-118 0 -199 123 -199 272c0 171 107 283 294 283h316c116 0 193 -77 193 -197c0 -90 -46 -177 -144 -190l98 -71c126 -91 279 -210 379 -210c71 0 85 61 135 68c52 8 87 -51 11 -85c-29 -13 -75 -23 -149 -23
c-180 0 -313 57 -442 153l-222 166h-35v-183c0 -33 14 -73 35 -100c3 -4 5 -9 5 -14v-2c0 -6 -4 -10 -10 -10h-200c-6 0 -10 4 -10 10v2c0 5 2 10 5 14c21 26 35 67 35 100v474c0 36 -23 53 -57 53zM1308 318c27 -27 22 -66 -26 -93c-23 -13 -79 -36 -153 -36
c-161 0 -265 104 -265 260c0 158 108 259 244 259c118 0 206 -77 206 -182c0 -134 -143 -216 -281 -213c22 -54 56 -84 94 -84c54 0 88 61 92 67c25 45 62 49 89 22z" />
    <glyph glyph-name="glyph221" unicode="&#xf02d;" horiz-adv-x="1350" 
d="M923 449c0 -132 53 -220 140 -220s139 88 139 220c0 131 -52 219 -139 219s-140 -88 -140 -219zM250 652c-93 0 -156 -92 -156 -206c0 -70 23 -141 79 -175c42 -26 72 -10 91 -10c20 0 35 -17 35 -51c0 -41 -23 -67 -78 -67c-118 0 -199 123 -199 272
c0 170 106 281 291 283h166c8 0 14 -6 14 -14c0 -4 -2 -8 -4 -11l-16 -20c-12 -15 -20 -38 -20 -57v-250l210 245c17 20 35 53 24 78c-2 6 -3 12 -3 17v2c0 6 4 10 10 10h129c6 0 11 -4 11 -11c0 -5 -3 -11 -8 -14l-31 -20c-23 -15 -65 -40 -83 -62l-129 -152l212 -199
c119 -112 220 -210 310 -210c71 0 84 61 134 68c52 8 87 -51 11 -85c-29 -13 -74 -23 -152 -23c-155 0 -268 40 -426 193l-168 164l-51 -60v-161c0 -33 14 -73 32 -96c6 -8 8 -13 8 -18v-2c0 -6 -4 -10 -10 -10h-200c-6 0 -10 4 -10 10v2c0 5 2 10 8 17c18 23 32 64 32 97
v474c0 36 -24 52 -63 52zM779 449c0 155 103 259 284 259c180 0 284 -104 284 -259c0 -156 -104 -260 -284 -260c-181 0 -284 104 -284 260z" />
    <glyph glyph-name="glyph222" unicode="&#xf02e;" horiz-adv-x="1430" 
d="M456 349h76c92 0 153 62 153 156c0 92 -61 153 -153 153h-76v-309zM1003 449c0 -132 53 -220 140 -220c86 0 139 88 139 220c0 131 -53 219 -139 219c-87 0 -140 -88 -140 -219zM259 653c-101 0 -165 -92 -165 -208c0 -69 23 -140 79 -174c42 -26 72 -10 91 -10
c20 0 35 -17 35 -51c0 -41 -23 -67 -78 -67c-118 0 -199 123 -199 272c0 171 107 283 294 283h316c116 0 193 -77 193 -197c0 -90 -46 -177 -144 -190l98 -71c126 -91 309 -210 408 -210c72 0 86 61 136 68c52 8 87 -51 11 -85c-29 -13 -75 -23 -150 -23
c-179 0 -342 57 -471 153l-222 166h-35v-183c0 -33 14 -73 35 -100c3 -4 5 -9 5 -14v-2c0 -6 -4 -10 -10 -10h-200c-6 0 -10 4 -10 10v2c0 5 2 10 5 14c21 26 35 67 35 100v474c0 36 -23 53 -57 53zM858 449c0 155 104 259 285 259c180 0 284 -104 284 -259
c0 -156 -104 -260 -284 -260c-181 0 -285 104 -285 260z" />
    <glyph glyph-name="glyph223" unicode="&#xf02f;" horiz-adv-x="762" 
d="M138 10v2c0 5 2 10 5 14c21 26 35 67 35 100v532h-26c-47 0 -105 -18 -142 -47l-9 -7c-5 -4 -12 -6 -18 -6s-10 4 -9 10l7 69c1 12 10 21 23 21h726c13 0 22 -9 23 -21l7 -69c1 -6 -3 -10 -9 -10s-13 2 -18 6l-9 7c-37 29 -95 47 -142 47h-26v-532c0 -33 14 -73 35 -100
c3 -4 5 -9 5 -14v-2c0 -6 -4 -10 -10 -10h-199c-6 0 -10 4 -10 10v2c0 5 2 10 5 14c21 26 35 67 35 100v532h-100v-532c0 -33 14 -73 35 -100c3 -4 5 -9 5 -14v-2c0 -6 -4 -10 -10 -10h-199c-6 0 -10 4 -10 10z" />
    <glyph glyph-name="glyph224" unicode="&#xf030;" horiz-adv-x="620" 
d="M35 459c-12 0 -20 8 -20 20s8 19 20 19h22c10 128 63 210 186 210c66 0 102 -23 117 -32c56 -31 61 -71 30 -97c-30 -25 -60 -11 -73 6c-16 22 -30 83 -71 83c-43 0 -51 -66 -52 -170h73h3v5c0 21 14 38 34 42l72 16c20 4 34 -7 34 -28v-35h92c12 0 20 -7 20 -19
s-8 -20 -20 -20h-92v-210c0 -131 3 -219 52 -219c40 0 54 61 70 83c13 17 43 31 73 6c31 -26 26 -66 -30 -97c-15 -9 -51 -32 -118 -32c-138 0 -187 94 -187 249v220h-76v-444c0 -82 -27 -125 -99 -125c-58 0 -89 28 -89 85v11c0 5 4 9 9 9s9 -3 15 -12c2 -3 5 -8 12 -8
c9 0 13 7 13 20v464h-20z" />
    <glyph glyph-name="glyph225" unicode="&#xf031;" horiz-adv-x="611" 
d="M265 459h-72v-210c0 -131 3 -219 52 -219c25 0 40 22 51 44c-22 42 -31 97 -31 165v220zM34 459c-12 0 -20 8 -20 20s8 19 20 19h20v85c0 21 14 38 34 42l72 16c19 4 33 -7 33 -28v-115h72v85c0 21 14 38 34 42l72 16c20 4 34 -7 34 -28v-115h81c12 0 20 -7 20 -19
s-8 -20 -20 -20h-81v-210c0 -131 3 -219 52 -219c41 0 54 61 70 83c13 17 43 31 73 6c31 -26 26 -66 -30 -97c-15 -9 -51 -32 -118 -32c-43 0 -76 9 -103 26c-19 -11 -53 -26 -109 -26c-137 0 -186 94 -186 249v220h-20z" />
    <glyph glyph-name="glyph226" unicode="&#xf032;" horiz-adv-x="893" 
d="M387 97c25 45 62 49 89 22s22 -66 -26 -93c-23 -13 -79 -36 -154 -36c-160 0 -264 104 -264 259c0 156 104 259 264 259c24 0 45 -2 65 -6c-18 27 -31 60 -31 96c0 85 70 141 185 141c107 0 181 -50 181 -128c0 -55 -37 -89 -100 -113h173c12 0 20 -7 20 -19
s-8 -20 -20 -20h-73v-210c0 -131 3 -219 52 -219c41 0 55 61 71 83c13 17 42 31 72 6c31 -26 26 -66 -30 -97c-14 -9 -50 -32 -118 -32c-138 0 -187 94 -187 249v220h-20c-11 0 -19 8 -19 20s8 19 19 19h20v62c0 81 -29 129 -92 129c-48 0 -94 -28 -94 -86
c0 -62 51 -114 80 -130c48 -27 53 -67 22 -93c-30 -25 -60 -11 -76 11c-13 17 -47 78 -102 78c-65 0 -117 -88 -117 -220c0 -131 52 -219 117 -219c55 0 89 61 93 67z" />
    <glyph glyph-name="glyph227" unicode="&#xf033;" horiz-adv-x="814" 
d="M448 118c21 -44 52 -68 94 -68c72 0 125 68 125 202c0 116 -39 197 -111 197c-62 0 -104 -61 -108 -179v-152zM211 476v-350c0 -33 14 -73 35 -100c3 -4 5 -9 5 -14v-2c0 -6 -4 -10 -10 -10h-199c-6 0 -10 4 -10 10v2c0 5 2 10 5 14c21 26 35 67 35 100v234
c0 33 -14 73 -35 100c-3 4 -5 9 -5 14v2c0 6 4 9 10 10l131 22c23 4 38 -9 38 -32zM247 692c-31 0 -42 -54 -45 -71c-8 -59 -45 -96 -90 -96s-72 37 -72 76c0 66 77 132 194 132c146 0 213 -101 214 -304v-25c36 66 93 104 164 104c117 0 200 -104 200 -251
c0 -163 -104 -267 -224 -267c-56 0 -104 23 -140 62c-1 -31 -23 -52 -55 -52h-115c-6 0 -10 4 -10 10v2c0 5 2 10 8 17c18 23 32 64 32 97v276c0 39 6 290 -61 290z" />
    <glyph glyph-name="glyph228" unicode="&#xf034;" horiz-adv-x="831" 
d="M211 476v-350c0 -33 14 -73 35 -100c3 -4 5 -9 5 -14v-2c0 -6 -4 -10 -10 -10h-199c-6 0 -10 4 -10 10v2c0 5 2 10 5 14c21 26 35 67 35 100v234c0 33 -14 73 -35 100c-3 4 -5 9 -5 14v2c0 6 4 9 10 10l131 22c23 4 38 -9 38 -32zM247 692c-31 0 -42 -54 -45 -71
c-8 -59 -45 -96 -90 -96s-72 37 -72 76c0 66 77 132 194 132c146 0 213 -101 214 -304v-9c43 57 114 88 184 88c102 0 165 -67 165 -173v-209c0 -33 14 -73 35 -100c3 -4 5 -9 5 -14v-2c0 -6 -4 -10 -10 -10h-200c-6 0 -10 4 -10 10v2c0 5 2 10 5 14c21 26 35 67 35 100v193
c0 72 -33 117 -92 117c-63 0 -117 -54 -117 -137v-173c0 -33 14 -73 35 -100c3 -4 5 -9 5 -14v-2c0 -6 -4 -10 -10 -10h-200c-6 0 -10 4 -10 10v2c0 5 2 10 5 14c21 26 35 67 35 100v276c0 39 6 290 -61 290z" />
    <glyph glyph-name="glyph229" unicode="&#xf035;" horiz-adv-x="786" 
d="M211 476v-350c0 -33 14 -73 35 -100c3 -4 5 -9 5 -14v-2c0 -6 -4 -10 -10 -10h-199c-6 0 -10 4 -10 10v2c0 5 2 10 5 14c21 26 35 67 35 100v234c0 33 -14 73 -35 100c-3 4 -5 9 -5 14v2c0 6 4 9 10 10l131 22c23 4 38 -9 38 -32zM618 20l-140 217l-30 -26v-85
c0 -33 14 -73 35 -100c3 -4 5 -9 5 -14v-2c0 -6 -4 -10 -10 -10h-200c-6 0 -10 4 -10 10v2c0 5 2 10 5 14c21 26 35 67 35 100v276c0 39 6 290 -61 290c-31 0 -42 -54 -45 -71c-8 -59 -45 -96 -90 -96s-72 37 -72 76c0 66 77 132 194 132c146 0 213 -101 214 -304v-166
l153 133c35 31 13 58 13 75c0 18 23 27 100 27h19c25 0 35 -12 14 -30l-170 -146l152 -232c8 -12 18 -25 29 -33l42 -31c5 -4 8 -10 8 -16s-4 -10 -10 -10h-146c-14 0 -26 8 -34 20z" />
    <glyph glyph-name="glyph230" unicode="&#xf036;" horiz-adv-x="484" 
d="M211 476v-350c0 -33 14 -73 35 -100c3 -4 5 -9 5 -14v-2c0 -6 -4 -10 -10 -10h-199c-6 0 -10 4 -10 10v2c0 5 2 10 5 14c21 26 35 67 35 100v234c0 33 -14 73 -35 100c-3 4 -5 9 -5 14v2c0 6 4 9 10 10l131 22c23 4 38 -9 38 -32zM247 692c-31 0 -42 -54 -45 -71
c-8 -59 -45 -96 -90 -96s-72 37 -72 76c0 66 77 132 194 132c146 0 213 -101 214 -304v-303c0 -33 14 -73 35 -100c3 -4 5 -9 5 -14v-2c0 -6 -4 -10 -10 -10h-200c-6 0 -10 4 -10 10v2c0 5 2 10 5 14c21 26 35 67 35 100v276c0 39 6 290 -61 290z" />
    <glyph glyph-name="glyph231" unicode="&#xf037;" horiz-adv-x="645" 
d="M211 476v-350c0 -33 14 -73 35 -100c3 -4 5 -9 5 -14v-2c0 -6 -4 -10 -10 -10h-199c-6 0 -10 4 -10 10v2c0 5 2 10 5 14c21 26 35 67 35 100v234c0 33 -14 73 -35 100c-3 4 -5 9 -5 14v2c0 6 4 9 10 10l131 22c23 4 38 -9 38 -32zM247 692c-31 0 -42 -54 -45 -71
c-8 -59 -45 -96 -90 -96s-72 37 -72 76c0 66 77 132 194 132c128 0 196 -78 211 -235h76c11 0 19 -7 19 -19s-8 -20 -19 -20h-74c0 -10 1 -20 1 -30v-180c0 -131 3 -219 52 -219c40 0 54 61 70 83c13 17 43 31 73 6c31 -26 26 -66 -30 -97c-15 -9 -51 -32 -118 -32
c-138 0 -187 94 -187 249v163v57h-20c-12 0 -20 8 -20 20s8 19 20 19h19c-3 86 -16 194 -60 194z" />
    <glyph glyph-name="glyph232" unicode="&#xf038;" horiz-adv-x="1062" 
d="M696 270v-152c21 -44 52 -68 95 -68c71 0 124 68 124 202c0 116 -39 197 -110 197c-63 0 -105 -61 -109 -179zM387 97c25 45 62 49 89 22s22 -66 -26 -93c-23 -13 -79 -36 -154 -36c-160 0 -264 104 -264 259c0 156 104 259 264 259c24 0 45 -2 65 -6
c-18 27 -31 60 -31 96c0 85 70 141 168 141c123 0 198 -90 198 -238v-97c36 66 94 104 164 104c117 0 200 -104 200 -251c0 -163 -104 -267 -223 -267c-56 0 -105 23 -141 62c-1 -31 -23 -52 -55 -52h-114c-6 0 -10 4 -10 10v2c0 5 2 10 8 17c17 23 31 64 31 97v374
c0 125 -33 189 -97 189c-43 0 -89 -28 -89 -86c0 -62 51 -114 80 -130c48 -27 53 -67 22 -93c-30 -25 -60 -11 -76 11c-13 17 -47 78 -102 78c-65 0 -117 -88 -117 -220c0 -131 52 -219 117 -219c55 0 89 61 93 67z" />
    <glyph glyph-name="glyph233" unicode="&#xf039;" horiz-adv-x="1006" 
d="M630 118c21 -44 51 -68 94 -68c72 0 125 68 125 202c0 116 -39 197 -111 197c-62 0 -104 -61 -108 -179v-152zM162 409c0 -112 284 -93 284 -262c0 -95 -90 -157 -222 -157c-81 0 -137 23 -160 36c-47 27 -52 67 -22 93c30 25 60 11 76 -11c13 -17 47 -78 116 -78
c49 0 81 30 81 68c0 112 -283 79 -283 254c0 93 79 156 200 156c23 0 44 -3 63 -6c-18 27 -31 60 -31 96c0 85 70 141 167 141c124 0 199 -90 199 -238v-97c36 66 93 104 164 104c117 0 200 -104 200 -251c0 -163 -104 -267 -224 -267c-56 0 -104 23 -140 62
c-1 -31 -23 -52 -55 -52h-115c-6 0 -10 4 -10 10v2c0 5 2 10 8 17c18 23 32 64 32 97v374c0 125 -34 189 -98 189c-42 0 -88 -28 -88 -86c0 -62 50 -114 79 -130c48 -27 53 -67 22 -93c-30 -25 -59 -11 -75 11c-13 17 -47 78 -105 78c-38 0 -63 -27 -63 -60z" />
    <glyph glyph-name="glyph234" unicode="&#xf03a;" horiz-adv-x="1079" 
d="M387 97c25 45 62 49 89 22s22 -66 -26 -93c-23 -13 -79 -36 -154 -36c-160 0 -264 104 -264 259c0 156 104 259 264 259c24 0 45 -2 65 -6c-18 27 -31 60 -31 96c0 85 70 141 168 141c123 0 198 -90 198 -238v-81c43 57 115 88 184 88c102 0 165 -67 165 -173v-209
c0 -33 14 -73 35 -100c3 -4 5 -9 5 -14v-2c0 -6 -4 -10 -10 -10h-200c-6 0 -10 4 -10 10v2c0 5 2 10 5 14c21 26 35 67 35 100v193c0 72 -33 117 -91 117c-64 0 -118 -54 -118 -137v-173c0 -33 14 -73 35 -100c3 -4 5 -9 5 -14v-2c0 -6 -4 -10 -10 -10h-199
c-6 0 -10 4 -10 10v2c0 5 2 10 5 14c20 26 34 67 34 100v374c0 125 -33 189 -97 189c-43 0 -89 -28 -89 -86c0 -62 51 -114 80 -130c48 -27 53 -67 22 -93c-30 -25 -60 -11 -76 11c-13 17 -47 78 -102 78c-65 0 -117 -88 -117 -220c0 -131 52 -219 117 -219
c55 0 89 61 93 67z" />
    <glyph glyph-name="glyph235" unicode="&#xf03b;" horiz-adv-x="1023" 
d="M162 409c0 -112 284 -93 284 -262c0 -95 -90 -157 -222 -157c-81 0 -137 23 -160 36c-47 27 -52 67 -22 93c30 25 60 11 76 -11c13 -17 47 -78 116 -78c49 0 81 30 81 68c0 112 -283 79 -283 254c0 93 79 156 200 156c23 0 44 -3 63 -6c-18 27 -31 60 -31 96
c0 85 70 141 167 141c124 0 199 -90 199 -238v-81c43 57 114 88 184 88c102 0 165 -67 165 -173v-209c0 -33 14 -73 34 -100c3 -4 5 -9 5 -14v-2c0 -6 -4 -10 -9 -10h-200c-6 0 -10 4 -10 10v2c0 5 2 10 5 14c21 26 35 67 35 100v193c0 72 -33 117 -92 117
c-64 0 -117 -54 -117 -137v-173c0 -33 14 -73 35 -100c3 -4 5 -9 5 -14v-2c0 -6 -4 -10 -10 -10h-200c-6 0 -10 4 -10 10v2c0 5 2 10 5 14c21 26 35 67 35 100v374c0 125 -34 189 -98 189c-42 0 -88 -28 -88 -86c0 -62 50 -114 79 -130c48 -27 53 -67 22 -93
c-30 -25 -59 -11 -75 11c-13 17 -47 78 -105 78c-38 0 -63 -27 -63 -60z" />
    <glyph glyph-name="glyph236" unicode="&#xf03c;" horiz-adv-x="1034" 
d="M387 97c25 45 62 49 89 22s22 -66 -26 -93c-23 -13 -79 -36 -154 -36c-160 0 -264 104 -264 259c0 156 104 259 264 259c24 0 45 -2 65 -6c-18 27 -31 60 -31 96c0 85 70 141 168 141c123 0 198 -90 198 -238v-238l154 133c34 31 12 58 12 75c0 18 23 27 100 27h19
c25 0 35 -12 14 -30l-169 -146l151 -232c8 -12 18 -25 29 -33l42 -31c5 -4 8 -10 8 -16s-4 -10 -10 -10h-146c-14 0 -26 8 -34 20l-140 217l-30 -26v-85c0 -33 14 -73 35 -100c3 -4 5 -9 5 -14v-2c0 -6 -4 -10 -10 -10h-199c-6 0 -10 4 -10 10v2c0 5 2 10 5 14
c20 26 34 67 34 100v374c0 125 -33 189 -97 189c-43 0 -89 -28 -89 -86c0 -62 51 -114 80 -130c48 -27 53 -67 22 -93c-30 -25 -60 -11 -76 11c-13 17 -47 78 -102 78c-65 0 -117 -88 -117 -220c0 -131 52 -219 117 -219c55 0 89 61 93 67z" />
    <glyph glyph-name="glyph237" unicode="&#xf03d;" horiz-adv-x="978" 
d="M162 409c0 -112 284 -93 284 -262c0 -95 -90 -157 -222 -157c-81 0 -137 23 -160 36c-47 27 -52 67 -22 93c30 25 60 11 76 -11c13 -17 47 -78 116 -78c49 0 81 30 81 68c0 112 -283 79 -283 254c0 93 79 156 200 156c23 0 44 -3 63 -6c-18 27 -31 60 -31 96
c0 85 70 141 167 141c124 0 199 -90 199 -238v-238l153 133c35 31 13 58 13 75c0 18 23 27 100 27h19c25 0 35 -12 14 -30l-170 -146l152 -232c8 -12 18 -25 29 -33l42 -31c5 -4 8 -10 8 -16s-4 -10 -10 -10h-146c-14 0 -26 8 -34 20l-140 217l-30 -26v-85
c0 -33 14 -73 35 -100c3 -4 5 -9 5 -14v-2c0 -6 -4 -10 -10 -10h-200c-6 0 -10 4 -10 10v2c0 5 2 10 5 14c21 26 35 67 35 100v374c0 125 -34 189 -98 189c-42 0 -88 -28 -88 -86c0 -62 50 -114 79 -130c48 -27 53 -67 22 -93c-30 -25 -59 -11 -75 11c-13 17 -47 78 -105 78
c-38 0 -63 -27 -63 -60z" />
    <glyph glyph-name="glyph238" unicode="&#xf03e;" horiz-adv-x="731" 
d="M387 97c25 45 62 49 89 22s22 -66 -26 -93c-23 -13 -79 -36 -154 -36c-160 0 -264 104 -264 259c0 156 104 259 264 259c23 0 45 -3 64 -6c-18 27 -31 60 -31 96c0 85 70 141 168 141c123 0 198 -90 198 -238v-375c0 -33 14 -73 35 -100c3 -4 5 -9 5 -14v-2
c0 -6 -4 -10 -10 -10h-199c-6 0 -10 4 -10 10v2c0 5 2 10 5 14c20 26 34 67 34 100v374c0 125 -33 189 -97 189c-43 0 -89 -28 -89 -86s44 -107 74 -126c3 -1 5 -3 7 -4c48 -27 53 -67 22 -93c-30 -25 -60 -11 -76 11c-13 17 -47 78 -102 78c-65 0 -117 -88 -117 -220
c0 -131 52 -219 117 -219c55 0 89 61 93 67z" />
    <glyph glyph-name="glyph239" unicode="&#xf03f;" horiz-adv-x="676" 
d="M162 409c0 -112 284 -93 284 -262c0 -95 -90 -157 -222 -157c-81 0 -137 23 -160 36c-47 27 -52 67 -22 93c30 25 60 11 76 -11c13 -17 47 -78 116 -78c49 0 81 30 81 68c0 112 -283 79 -283 254c0 93 79 156 200 156c23 0 44 -3 63 -6c-18 27 -31 60 -31 96
c0 85 70 141 167 141c124 0 199 -90 199 -238v-375c0 -33 14 -73 35 -100c3 -4 5 -9 5 -14v-2c0 -6 -4 -10 -10 -10h-200c-6 0 -10 4 -10 10v2c0 5 2 10 5 14c21 26 35 67 35 100v374c0 125 -34 189 -98 189c-42 0 -88 -28 -88 -86c0 -62 50 -114 79 -130
c48 -27 53 -67 22 -93c-30 -25 -59 -11 -75 11c-13 17 -47 78 -105 78c-38 0 -63 -27 -63 -60z" />
    <glyph glyph-name="st.dlig" horiz-adv-x="836" 
d="M162 409c0 -112 284 -93 284 -262c0 -95 -90 -157 -222 -157c-81 0 -137 23 -160 36c-47 27 -52 67 -22 93c30 25 60 11 76 -11c13 -17 47 -78 116 -78c49 0 81 30 81 68c0 112 -283 79 -283 254c0 93 79 156 200 156c23 0 44 -3 63 -6c-18 27 -31 60 -31 96
c0 85 70 141 184 141c108 0 182 -50 182 -128c0 -55 -37 -89 -100 -113h172c12 0 20 -7 20 -19s-8 -20 -20 -20h-72v-210c0 -131 3 -219 51 -219c41 0 55 61 71 83c13 17 43 31 73 6c31 -26 26 -66 -30 -97c-15 -9 -51 -32 -118 -32c-138 0 -187 94 -187 249v220h-20
c-12 0 -20 8 -20 20s8 19 20 19h20v62c0 81 -30 129 -93 129c-47 0 -93 -28 -93 -86c0 -62 50 -114 79 -130c48 -27 53 -67 22 -93c-30 -25 -59 -11 -75 11c-13 17 -47 78 -105 78c-38 0 -63 -27 -63 -60z" />
    <glyph glyph-name="fi" unicode="&#xfb01;" horiz-adv-x="504" 
d="M50 459c-12 0 -20 8 -20 20s8 19 20 19h22c10 128 63 210 186 210c66 0 122 -23 145 -36c48 -27 53 -67 22 -93c-30 -25 -60 -11 -76 11c-13 17 -47 78 -88 78c-43 0 -51 -66 -52 -170h219c23 0 39 -8 39 -32v-340c0 -33 14 -73 35 -100c3 -4 5 -9 5 -14v-2
c0 -6 -4 -10 -10 -10h-200c-6 0 -10 4 -10 10v2c0 5 2 10 5 14c21 26 35 67 35 100v247c0 28 -9 60 -25 86h-93v-333c0 -33 14 -73 35 -100c3 -4 5 -9 5 -14v-2c0 -6 -4 -10 -10 -10h-199c-6 0 -10 4 -10 10v2c0 5 2 10 5 14c21 26 35 67 35 100v333h-20z" />
    <glyph glyph-name="fl" unicode="&#xfb02;" horiz-adv-x="501" 
d="M48 459c-12 0 -20 8 -20 20s8 19 20 19h22c10 128 63 210 186 210c34 0 65 -6 90 -14l78 14c23 4 39 -9 39 -33v-549c0 -33 14 -73 35 -100c3 -4 5 -9 5 -14v-2c0 -6 -4 -10 -10 -10h-200c-6 0 -10 4 -10 10v2c0 5 2 10 5 14c21 26 35 67 35 100v433c0 32 -14 72 -34 99
c-9 6 -19 10 -30 10c-43 0 -51 -66 -52 -170h73c12 0 20 -7 20 -19s-8 -20 -20 -20h-73v-333c0 -33 14 -73 35 -100c3 -4 5 -9 5 -14v-2c0 -6 -4 -10 -10 -10h-199c-6 0 -10 4 -10 10v2c0 5 2 10 5 14c21 26 35 67 35 100v333h-20z" />
    <glyph glyph-name="idotless" unicode="&#x131;" horiz-adv-x="248" 
d="M211 476v-350c0 -33 14 -73 35 -100c3 -4 5 -9 5 -14v-2c0 -6 -4 -10 -10 -10h-199c-6 0 -10 4 -10 10v2c0 5 2 10 5 14c21 26 35 67 35 100v234c0 33 -14 73 -35 100c-3 4 -5 9 -5 14v2c0 6 4 9 10 10l131 22c23 4 38 -9 38 -32z" />
    <glyph glyph-name="Agrave" unicode="&#xc0;" horiz-adv-x="595" 
d="M136 250h187l-92 256zM250 674c5 14 20 24 35 24s30 -9 35 -24l198 -553c11 -31 34 -65 59 -86l10 -9c4 -4 7 -10 7 -16s-4 -10 -10 -10h-215c-8 0 -13 5 -13 13c0 4 2 9 4 13l12 19c10 15 12 36 6 53l-41 112h-214l-35 -93c-10 -28 -6 -63 10 -89c3 -5 5 -12 5 -17v-1
c0 -6 -4 -10 -10 -10h-111c-7 0 -12 5 -12 12c0 5 2 10 6 13l23 20c17 15 34 40 42 61zM379 762l-14 -14c-5 -5 -12 -5 -18 -1l-150 106c-31 23 -4 45 16 66c12 12 33 36 56 6l111 -146c4 -6 4 -12 -1 -17z" />
    <glyph glyph-name="Aacute" unicode="&#xc1;" horiz-adv-x="595" 
d="M136 250h187l-92 256zM250 674c5 14 20 24 35 24s30 -9 35 -24l198 -553c11 -31 34 -65 59 -86l10 -9c4 -4 7 -10 7 -16s-4 -10 -10 -10h-215c-8 0 -13 5 -13 13c0 4 2 9 4 13l12 19c10 15 12 36 6 53l-41 112h-214l-35 -93c-10 -28 -6 -63 10 -89c3 -5 5 -12 5 -17v-1
c0 -6 -4 -10 -10 -10h-111c-7 0 -12 5 -12 12c0 5 2 10 6 13l23 20c17 15 34 40 42 61zM201 748l-14 14c-5 5 -5 11 -1 17l111 146c22 30 43 6 55 -6c20 -21 48 -43 16 -66l-149 -106c-6 -4 -13 -4 -18 1z" />
    <glyph glyph-name="Acircumflex" unicode="&#xc2;" horiz-adv-x="595" 
d="M136 250h187l-92 256zM250 674c5 14 20 24 35 24s30 -9 35 -24l198 -553c11 -31 34 -65 59 -86l10 -9c4 -4 7 -10 7 -16s-4 -10 -10 -10h-215c-8 0 -13 5 -13 13c0 4 2 9 4 13l12 19c10 15 12 36 6 53l-41 112h-214l-35 -93c-10 -28 -6 -63 10 -89c3 -5 5 -12 5 -17v-1
c0 -6 -4 -10 -10 -10h-111c-7 0 -12 5 -12 12c0 5 2 10 6 13l23 20c17 15 34 40 42 61zM158 764l-14 14c-5 5 -5 11 -1 17l111 146c10 14 19 14 28 14s20 0 30 -14l111 -146c4 -6 4 -12 -1 -17l-14 -14c-5 -5 -12 -5 -18 -1l-107 76l-107 -76c-6 -4 -13 -4 -18 1z" />
    <glyph glyph-name="Atilde" unicode="&#xc3;" horiz-adv-x="595" 
d="M136 250h187l-92 256zM250 674c5 14 20 24 35 24s30 -9 35 -24l198 -553c11 -31 34 -65 59 -86l10 -9c4 -4 7 -10 7 -16s-4 -10 -10 -10h-215c-8 0 -13 5 -13 13c0 4 2 9 4 13l12 19c10 15 12 36 6 53l-41 112h-214l-35 -93c-10 -28 -6 -63 10 -89c3 -5 5 -12 5 -17v-1
c0 -6 -4 -10 -10 -10h-111c-7 0 -12 5 -12 12c0 5 2 10 6 13l23 20c17 15 34 40 42 61zM209 883c77 0 190 -119 222 -37c3 9 10 11 18 8c10 -4 14 -13 11 -22c-21 -60 -64 -92 -103 -92c-75 0 -174 123 -217 42c-5 -10 -15 -15 -25 -12s-14 11 -11 20c19 51 59 93 105 93z
" />
    <glyph glyph-name="Adieresis" unicode="&#xc4;" horiz-adv-x="595" 
d="M136 250h187l-92 256zM250 674c5 14 20 24 35 24s30 -9 35 -24l198 -553c11 -31 34 -65 59 -86l10 -9c4 -4 7 -10 7 -16s-4 -10 -10 -10h-215c-8 0 -13 5 -13 13c0 4 2 9 4 13l12 19c10 15 12 36 6 53l-41 112h-214l-35 -93c-10 -28 -6 -63 10 -89c3 -5 5 -12 5 -17v-1
c0 -6 -4 -10 -10 -10h-111c-7 0 -12 5 -12 12c0 5 2 10 6 13l23 20c17 15 34 40 42 61zM301 847c0 34 22 56 56 56c35 0 58 -22 58 -56c0 -33 -23 -57 -58 -57c-34 0 -56 24 -56 57zM151 847c0 34 23 56 57 56c35 0 58 -22 58 -56c0 -33 -23 -57 -58 -57
c-34 0 -57 24 -57 57z" />
    <glyph glyph-name="Aring" unicode="&#xc5;" horiz-adv-x="595" 
d="M136 250h187l-92 256zM250 674c5 14 20 24 35 24s30 -9 35 -24l198 -553c11 -31 34 -65 59 -86l10 -9c4 -4 7 -10 7 -16s-4 -10 -10 -10h-215c-8 0 -13 5 -13 13c0 4 2 9 4 13l12 19c10 15 12 36 6 53l-41 112h-214l-35 -93c-10 -28 -6 -63 10 -89c3 -5 5 -12 5 -17v-1
c0 -6 -4 -10 -10 -10h-111c-7 0 -12 5 -12 12c0 5 2 10 6 13l23 20c17 15 34 40 42 61zM284 893c-27 0 -44 -17 -44 -43s17 -43 44 -43c25 0 42 17 42 43s-17 43 -42 43zM283 750c-60 0 -100 40 -100 100s40 100 100 100s99 -40 99 -100s-39 -100 -99 -100z" />
    <glyph glyph-name="Ccedilla" unicode="&#xc7;" horiz-adv-x="536" 
d="M534 570c-24 -39 -67 -25 -89 9c-10 15 -52 89 -111 89c-77 0 -160 -128 -160 -319s83 -319 165 -319c63 0 101 76 112 94c21 35 53 41 78 8c26 -33 21 -72 -26 -101c-34 -21 -96 -41 -167 -41c-185 0 -302 139 -302 353c0 220 123 365 306 365c67 0 127 -19 160 -39
c48 -29 54 -68 34 -99zM366 -156c0 -45 -46 -75 -112 -75c-29 0 -49 6 -49 15s20 15 43 15c39 0 58 18 58 45c0 34 -27 62 -68 69l38 85c2 4 7 6 13 6c11 0 8 -6 4 -15l-22 -52c51 -9 95 -49 95 -93z" />
    <glyph glyph-name="Dcroat" unicode="&#x110;" horiz-adv-x="619" 
d="M233 40h27c92 0 203 62 203 310c0 247 -111 308 -203 308h-27v-284h57c15 0 25 -10 25 -25s-10 -25 -25 -25h-57v-284zM320 0h-256c-6 0 -10 4 -10 10v2c0 5 2 10 5 14c21 26 35 67 35 100v198h-65c-15 0 -25 10 -25 25s10 25 25 25h65v198c0 33 -14 73 -35 100
c-3 4 -5 9 -5 14v2c0 6 4 10 10 10h256c116 0 282 -77 282 -349s-166 -349 -282 -349z" />
    <glyph glyph-name="Egrave" unicode="&#xc8;" horiz-adv-x="510" 
d="M273 329h-58v-289h131c47 0 105 18 142 47l9 7c5 4 12 6 18 6s10 -4 9 -10l-7 -69c-1 -12 -10 -21 -23 -21h-448c-6 0 -10 4 -10 10v2c0 5 2 10 5 14c21 26 35 67 35 100v446c0 33 -14 73 -35 100c-3 4 -5 9 -5 14v2c0 6 4 10 10 10h438c13 0 22 -9 23 -21l7 -69
c1 -6 -3 -10 -9 -10s-13 2 -18 6l-9 7c-38 28 -95 47 -142 47h-121v-289h25c45 0 103 11 146 27c5 2 13 3 19 3s10 -4 10 -10v-77c0 -8 -5 -13 -13 -13c-4 0 -9 1 -13 2l-34 13c-24 9 -57 15 -82 15zM369 762l-14 -14c-5 -5 -12 -5 -18 -1l-150 106c-31 23 -4 45 16 66
c12 12 33 36 56 6l111 -146c4 -6 4 -12 -1 -17z" />
    <glyph glyph-name="Eacute" unicode="&#xc9;" horiz-adv-x="510" 
d="M273 329h-58v-289h131c47 0 105 18 142 47l9 7c5 4 12 6 18 6s10 -4 9 -10l-7 -69c-1 -12 -10 -21 -23 -21h-448c-6 0 -10 4 -10 10v2c0 5 2 10 5 14c21 26 35 67 35 100v446c0 33 -14 73 -35 100c-3 4 -5 9 -5 14v2c0 6 4 10 10 10h438c13 0 22 -9 23 -21l7 -69
c1 -6 -3 -10 -9 -10s-13 2 -18 6l-9 7c-38 28 -95 47 -142 47h-121v-289h25c45 0 103 11 146 27c5 2 13 3 19 3s10 -4 10 -10v-77c0 -8 -5 -13 -13 -13c-4 0 -9 1 -13 2l-34 13c-24 9 -57 15 -82 15zM191 748l-14 14c-5 5 -5 11 -1 17l111 146c22 30 43 6 55 -6
c20 -21 48 -43 16 -66l-149 -106c-6 -4 -13 -4 -18 1z" />
    <glyph glyph-name="Ecircumflex" unicode="&#xca;" horiz-adv-x="510" 
d="M273 329h-58v-289h131c47 0 105 18 142 47l9 7c5 4 12 6 18 6s10 -4 9 -10l-7 -69c-1 -12 -10 -21 -23 -21h-448c-6 0 -10 4 -10 10v2c0 5 2 10 5 14c21 26 35 67 35 100v446c0 33 -14 73 -35 100c-3 4 -5 9 -5 14v2c0 6 4 10 10 10h438c13 0 22 -9 23 -21l7 -69
c1 -6 -3 -10 -9 -10s-13 2 -18 6l-9 7c-38 28 -95 47 -142 47h-121v-289h25c45 0 103 11 146 27c5 2 13 3 19 3s10 -4 10 -10v-77c0 -8 -5 -13 -13 -13c-4 0 -9 1 -13 2l-34 13c-24 9 -57 15 -82 15zM148 764l-14 14c-5 5 -5 11 -1 17l111 146c10 14 19 14 28 14
s20 0 30 -14l111 -146c4 -6 4 -12 -1 -17l-14 -14c-5 -5 -12 -5 -18 -1l-107 76l-107 -76c-6 -4 -13 -4 -18 1z" />
    <glyph glyph-name="Edieresis" unicode="&#xcb;" horiz-adv-x="510" 
d="M273 329h-58v-289h131c47 0 105 18 142 47l9 7c5 4 12 6 18 6s10 -4 9 -10l-7 -69c-1 -12 -10 -21 -23 -21h-448c-6 0 -10 4 -10 10v2c0 5 2 10 5 14c21 26 35 67 35 100v446c0 33 -14 73 -35 100c-3 4 -5 9 -5 14v2c0 6 4 10 10 10h438c13 0 22 -9 23 -21l7 -69
c1 -6 -3 -10 -9 -10s-13 2 -18 6l-9 7c-38 28 -95 47 -142 47h-121v-289h25c45 0 103 11 146 27c5 2 13 3 19 3s10 -4 10 -10v-77c0 -8 -5 -13 -13 -13c-4 0 -9 1 -13 2l-34 13c-24 9 -57 15 -82 15zM291 847c0 34 22 56 56 56c35 0 58 -22 58 -56c0 -33 -23 -57 -58 -57
c-34 0 -56 24 -56 57zM141 847c0 34 23 56 57 56c35 0 58 -22 58 -56c0 -33 -23 -57 -58 -57c-34 0 -57 24 -57 57z" />
    <glyph glyph-name="Igrave" unicode="&#xcc;" horiz-adv-x="255" 
d="M29 10v2c0 5 2 10 5 14c21 27 35 66 35 100v446c0 34 -14 73 -35 100c-3 4 -5 9 -5 14v2c0 6 4 10 10 10h195c8 0 14 -6 14 -14c0 -4 -2 -8 -4 -11l-16 -20c-12 -15 -20 -38 -20 -57v-470c0 -34 14 -73 35 -100c3 -4 5 -9 5 -14v-2c0 -6 -4 -10 -10 -10h-199
c-6 0 -10 4 -10 10zM235 762l-14 -14c-5 -5 -12 -5 -18 -1l-150 106c-31 23 -4 45 16 66c12 12 33 36 56 6l111 -146c4 -6 4 -12 -1 -17z" />
    <glyph glyph-name="Iacute" unicode="&#xcd;" horiz-adv-x="255" 
d="M36 10v2c0 5 2 10 5 14c21 27 35 66 35 100v446c0 34 -14 73 -35 100c-3 4 -5 9 -5 14v2c0 6 4 10 10 10h195c8 0 14 -6 14 -14c0 -4 -2 -8 -4 -11l-16 -20c-12 -15 -20 -38 -20 -57v-470c0 -34 14 -73 35 -100c3 -4 5 -9 5 -14v-2c0 -6 -4 -10 -10 -10h-199
c-6 0 -10 4 -10 10zM64 748l-14 14c-5 5 -5 11 -1 17l111 146c22 30 43 6 55 -6c20 -21 48 -43 16 -66l-149 -106c-6 -4 -13 -4 -18 1z" />
    <glyph glyph-name="Icircumflex" unicode="&#xce;" horiz-adv-x="255" 
d="M2 10v2c0 5 2 10 5 14c21 27 35 66 35 100v446c0 34 -14 73 -35 100c-3 4 -5 9 -5 14v2c0 6 4 10 10 10h195c8 0 14 -6 14 -14c0 -4 -2 -8 -4 -11l-16 -20c-12 -15 -20 -38 -20 -57v-470c0 -34 14 -73 35 -100c3 -4 5 -9 5 -14v-2c0 -6 -4 -10 -10 -10h-199
c-6 0 -10 4 -10 10zM-13 764l-14 14c-5 5 -5 11 -1 17l111 146c10 14 19 14 28 14s20 0 30 -14l111 -146c4 -6 4 -12 -1 -17l-14 -14c-5 -5 -12 -5 -18 -1l-107 76l-107 -76c-6 -4 -13 -4 -18 1z" />
    <glyph glyph-name="Idieresis" unicode="&#xcf;" horiz-adv-x="255" 
d="M13 10v2c0 5 2 10 5 14c21 27 35 66 35 100v446c0 34 -14 73 -35 100c-3 4 -5 9 -5 14v2c0 6 4 10 10 10h195c8 0 14 -6 14 -14c0 -4 -2 -8 -4 -11l-16 -20c-12 -15 -20 -38 -20 -57v-470c0 -34 14 -73 35 -100c3 -4 5 -9 5 -14v-2c0 -6 -4 -10 -10 -10h-199
c-6 0 -10 4 -10 10zM140 847c0 34 22 56 56 56c35 0 58 -22 58 -56c0 -33 -23 -57 -58 -57c-34 0 -56 24 -56 57zM-10 847c0 34 23 56 57 56c35 0 58 -22 58 -56c0 -33 -23 -57 -58 -57c-34 0 -57 24 -57 57z" />
    <glyph glyph-name="Ntilde" unicode="&#xd1;" horiz-adv-x="602" 
d="M543 0c-11 0 -22 7 -28 16l-399 620v-510c0 -33 14 -73 35 -100c3 -4 5 -9 5 -14v-2c0 -6 -4 -10 -10 -10h-100c-6 0 -10 4 -10 10v2c0 5 2 10 5 14c21 26 35 67 35 100v446c0 33 -14 73 -35 100c-3 4 -5 9 -5 14v2c0 6 4 10 10 10h155c24 0 50 -15 64 -36l260 -403v313
c0 33 -14 73 -35 100c-3 4 -5 9 -5 14v2c0 6 4 10 10 10h95c8 0 14 -6 14 -14c0 -4 -2 -8 -4 -11l-16 -20c-12 -15 -20 -38 -20 -57v-575c0 -13 -8 -21 -21 -21zM246 883c77 0 190 -119 222 -37c3 9 10 11 18 8c10 -4 14 -13 11 -22c-21 -60 -64 -92 -103 -92
c-75 0 -174 123 -217 42c-5 -10 -15 -15 -25 -12s-14 11 -11 20c19 51 59 93 105 93z" />
    <glyph glyph-name="Ograve" unicode="&#xd2;" horiz-adv-x="698" 
d="M170 349c0 -191 83 -319 194 -319s194 128 194 319s-83 319 -194 319s-194 -128 -194 -319zM30 349c0 215 144 359 334 359s334 -144 334 -359s-144 -359 -334 -359s-334 144 -334 359zM460 762l-14 -14c-5 -5 -12 -5 -18 -1l-150 106c-31 23 -4 45 16 66
c12 12 33 36 56 6l111 -146c4 -6 4 -12 -1 -17z" />
    <glyph glyph-name="Oacute" unicode="&#xd3;" horiz-adv-x="698" 
d="M170 349c0 -191 83 -319 194 -319s194 128 194 319s-83 319 -194 319s-194 -128 -194 -319zM30 349c0 215 144 359 334 359s334 -144 334 -359s-144 -359 -334 -359s-334 144 -334 359zM282 748l-14 14c-5 5 -5 11 -1 17l111 146c22 30 43 6 55 -6c20 -21 48 -43 16 -66
l-149 -106c-6 -4 -13 -4 -18 1z" />
    <glyph glyph-name="Ocircumflex" unicode="&#xd4;" horiz-adv-x="698" 
d="M170 349c0 -191 83 -319 194 -319s194 128 194 319s-83 319 -194 319s-194 -128 -194 -319zM30 349c0 215 144 359 334 359s334 -144 334 -359s-144 -359 -334 -359s-334 144 -334 359zM239 764l-14 14c-5 5 -5 11 -1 17l111 146c10 14 19 14 28 14s20 0 30 -14l111 -146
c4 -6 4 -12 -1 -17l-14 -14c-5 -5 -12 -5 -18 -1l-107 76l-107 -76c-6 -4 -13 -4 -18 1z" />
    <glyph glyph-name="Otilde" unicode="&#xd5;" horiz-adv-x="698" 
d="M170 349c0 -191 83 -319 194 -319s194 128 194 319s-83 319 -194 319s-194 -128 -194 -319zM30 349c0 215 144 359 334 359s334 -144 334 -359s-144 -359 -334 -359s-334 144 -334 359zM291 883c77 0 190 -119 222 -37c3 9 10 11 18 8c10 -4 14 -13 11 -22
c-21 -60 -64 -92 -103 -92c-75 0 -174 123 -217 42c-5 -10 -15 -15 -25 -12s-14 11 -11 20c19 51 59 93 105 93z" />
    <glyph glyph-name="Odieresis" unicode="&#xd6;" horiz-adv-x="698" 
d="M170 349c0 -191 83 -319 194 -319s194 128 194 319s-83 319 -194 319s-194 -128 -194 -319zM30 349c0 215 144 359 334 359s334 -144 334 -359s-144 -359 -334 -359s-334 144 -334 359zM382 847c0 34 22 56 56 56c35 0 58 -22 58 -56c0 -33 -23 -57 -58 -57
c-34 0 -56 24 -56 57zM232 847c0 34 23 56 57 56c35 0 58 -22 58 -56c0 -33 -23 -57 -58 -57c-34 0 -57 24 -57 57z" />
    <glyph glyph-name="Scaron" unicode="&#x160;" horiz-adv-x="509" 
d="M163 563c0 -163 338 -164 338 -378c0 -118 -105 -195 -265 -195c-79 0 -139 19 -171 39c-49 29 -55 68 -35 99c25 38 67 25 89 -9c10 -15 52 -89 138 -89c65 0 111 43 111 103c0 163 -338 162 -338 377c0 119 103 198 238 198c66 0 126 -19 158 -39c49 -29 55 -68 35 -99
c-25 -39 -67 -25 -89 9c-10 15 -52 89 -120 89c-58 0 -89 -55 -89 -105zM135 950c5 5 12 5 18 1l107 -76l107 76c6 4 13 4 18 -1l14 -14c5 -5 5 -11 1 -17l-111 -146c-10 -14 -21 -14 -30 -14s-18 0 -28 14l-111 146c-4 6 -4 12 1 17z" />
    <glyph glyph-name="Ugrave" unicode="&#xd9;" 
d="M60 246v326c0 33 -14 73 -32 96c-6 8 -8 13 -8 18v2c0 6 4 10 10 10h195c8 0 14 -6 14 -14c0 -4 -2 -8 -4 -11l-16 -20c-12 -15 -20 -38 -20 -57v-447c0 -71 47 -119 110 -119c62 0 110 48 110 119v423c0 33 -14 73 -32 96c-6 8 -8 13 -8 18v2c0 6 4 10 10 10h195
c8 0 14 -6 14 -14c0 -4 -2 -8 -4 -11l-16 -20c-12 -15 -20 -38 -20 -57v-350c0 -153 -102 -256 -249 -256c-146 0 -249 103 -249 256zM406 762l-14 -14c-5 -5 -12 -5 -18 -1l-150 106c-31 23 -4 45 16 66c12 12 33 36 56 6l111 -146c4 -6 4 -12 -1 -17z" />
    <glyph glyph-name="Uacute" unicode="&#xda;" 
d="M60 246v326c0 33 -14 73 -32 96c-6 8 -8 13 -8 18v2c0 6 4 10 10 10h195c8 0 14 -6 14 -14c0 -4 -2 -8 -4 -11l-16 -20c-12 -15 -20 -38 -20 -57v-447c0 -71 47 -119 110 -119c62 0 110 48 110 119v423c0 33 -14 73 -32 96c-6 8 -8 13 -8 18v2c0 6 4 10 10 10h195
c8 0 14 -6 14 -14c0 -4 -2 -8 -4 -11l-16 -20c-12 -15 -20 -38 -20 -57v-350c0 -153 -102 -256 -249 -256c-146 0 -249 103 -249 256zM228 748l-14 14c-5 5 -5 11 -1 17l111 146c22 30 43 6 55 -6c20 -21 48 -43 16 -66l-149 -106c-6 -4 -13 -4 -18 1z" />
    <glyph glyph-name="Ucircumflex" unicode="&#xdb;" 
d="M60 246v326c0 33 -14 73 -32 96c-6 8 -8 13 -8 18v2c0 6 4 10 10 10h195c8 0 14 -6 14 -14c0 -4 -2 -8 -4 -11l-16 -20c-12 -15 -20 -38 -20 -57v-447c0 -71 47 -119 110 -119c62 0 110 48 110 119v423c0 33 -14 73 -32 96c-6 8 -8 13 -8 18v2c0 6 4 10 10 10h195
c8 0 14 -6 14 -14c0 -4 -2 -8 -4 -11l-16 -20c-12 -15 -20 -38 -20 -57v-350c0 -153 -102 -256 -249 -256c-146 0 -249 103 -249 256zM185 764l-14 14c-5 5 -5 11 -1 17l111 146c10 14 19 14 28 14s20 0 30 -14l111 -146c4 -6 4 -12 -1 -17l-14 -14c-5 -5 -12 -5 -18 -1
l-107 76l-107 -76c-6 -4 -13 -4 -18 1z" />
    <glyph glyph-name="Udieresis" unicode="&#xdc;" 
d="M60 246v326c0 33 -14 73 -32 96c-6 8 -8 13 -8 18v2c0 6 4 10 10 10h195c8 0 14 -6 14 -14c0 -4 -2 -8 -4 -11l-16 -20c-12 -15 -20 -38 -20 -57v-447c0 -71 47 -119 110 -119c62 0 110 48 110 119v423c0 33 -14 73 -32 96c-6 8 -8 13 -8 18v2c0 6 4 10 10 10h195
c8 0 14 -6 14 -14c0 -4 -2 -8 -4 -11l-16 -20c-12 -15 -20 -38 -20 -57v-350c0 -153 -102 -256 -249 -256c-146 0 -249 103 -249 256zM328 847c0 34 22 56 56 56c35 0 58 -22 58 -56c0 -33 -23 -57 -58 -57c-34 0 -56 24 -56 57zM178 847c0 34 23 56 57 56
c35 0 58 -22 58 -56c0 -33 -23 -57 -58 -57c-34 0 -57 24 -57 57z" />
    <glyph glyph-name="Ydieresis" unicode="&#x178;" horiz-adv-x="596" 
d="M489 591l-136 -241v-224c0 -33 14 -73 35 -100c3 -4 5 -9 5 -14v-2c0 -6 -4 -10 -10 -10h-200c-6 0 -10 4 -10 10v2c0 5 2 10 5 14c21 26 35 67 35 100v204l-151 251c-17 28 -46 59 -72 78l-18 13c-5 3 -8 10 -8 16s4 10 10 10h239c8 0 13 -5 13 -13c0 -4 -2 -9 -4 -13
l-11 -19c-9 -15 -9 -35 0 -50l123 -204l110 192c13 23 18 53 8 79c-2 5 -3 11 -3 16v2c0 6 4 10 10 10h125c6 0 11 -4 11 -11c0 -5 -3 -11 -8 -14l-31 -20c-23 -15 -54 -39 -67 -62zM298 847c0 34 22 56 56 56c35 0 58 -22 58 -56c0 -33 -23 -57 -58 -57
c-34 0 -56 24 -56 57zM148 847c0 34 23 56 57 56c35 0 58 -22 58 -56c0 -33 -23 -57 -58 -57c-34 0 -57 24 -57 57z" />
    <glyph glyph-name="Yacute" unicode="&#xdd;" horiz-adv-x="596" 
d="M489 591l-136 -241v-224c0 -33 14 -73 35 -100c3 -4 5 -9 5 -14v-2c0 -6 -4 -10 -10 -10h-200c-6 0 -10 4 -10 10v2c0 5 2 10 5 14c21 26 35 67 35 100v204l-151 251c-17 28 -46 59 -72 78l-18 13c-5 3 -8 10 -8 16s4 10 10 10h239c8 0 13 -5 13 -13c0 -4 -2 -9 -4 -13
l-11 -19c-9 -15 -9 -35 0 -50l123 -204l110 192c13 23 18 53 8 79c-2 5 -3 11 -3 16v2c0 6 4 10 10 10h125c6 0 11 -4 11 -11c0 -5 -3 -11 -8 -14l-31 -20c-23 -15 -54 -39 -67 -62zM198 748l-14 14c-5 5 -5 11 -1 17l111 146c22 30 43 6 55 -6c20 -21 48 -43 16 -66
l-149 -106c-6 -4 -13 -4 -18 1z" />
    <glyph glyph-name="Zcaron" unicode="&#x17d;" horiz-adv-x="541" 
d="M-3 46l365 612h-176c-47 0 -103 -19 -141 -47l-9 -7c-5 -4 -12 -6 -18 -6s-10 4 -9 10l7 69c1 12 10 21 23 21h455c32 0 43 -18 26 -46l-365 -612h196c47 0 104 19 141 47l9 7c5 4 12 6 18 6s10 -4 9 -10l-7 -69c-1 -12 -10 -21 -23 -21h-475c-32 0 -43 18 -26 46z
M136 950c5 5 12 5 18 1l107 -76l107 76c6 4 13 4 18 -1l14 -14c5 -5 5 -11 1 -17l-111 -146c-10 -14 -21 -14 -30 -14s-18 0 -28 14l-111 146c-4 6 -4 12 1 17z" />
    <glyph glyph-name="agrave" unicode="&#xe0;" horiz-adv-x="532" 
d="M348 260c-86 0 -179 -10 -179 -104c0 -60 37 -106 86 -106c54 0 90 56 93 148v62zM24 147c0 145 189 153 324 152c-3 118 -36 170 -82 170c-51 0 -84 -61 -97 -78c-16 -22 -46 -36 -76 -11c-31 26 -26 66 22 93c23 13 78 35 155 35c139 0 218 -73 218 -229v-184
c0 -13 4 -20 13 -20c7 0 10 5 12 8c6 9 9 12 14 12s9 -4 9 -9v-11c0 -57 -30 -85 -88 -85s-88 28 -97 81c-31 -52 -81 -81 -149 -81c-102 0 -178 65 -178 157zM374 570l-14 -14c-5 -5 -12 -5 -18 -1l-150 106c-31 23 -4 45 16 66c12 12 33 36 56 6l111 -146
c4 -6 4 -12 -1 -17z" />
    <glyph glyph-name="aacute" unicode="&#xe1;" horiz-adv-x="532" 
d="M348 260c-86 0 -179 -10 -179 -104c0 -60 37 -106 86 -106c54 0 90 56 93 148v62zM24 147c0 145 189 153 324 152c-3 118 -36 170 -82 170c-51 0 -84 -61 -97 -78c-16 -22 -46 -36 -76 -11c-31 26 -26 66 22 93c23 13 78 35 155 35c139 0 218 -73 218 -229v-184
c0 -13 4 -20 13 -20c7 0 10 5 12 8c6 9 9 12 14 12s9 -4 9 -9v-11c0 -57 -30 -85 -88 -85s-88 28 -97 81c-31 -52 -81 -81 -149 -81c-102 0 -178 65 -178 157zM196 556l-14 14c-5 5 -5 11 -1 17l111 146c22 30 43 6 55 -6c20 -21 48 -43 16 -66l-149 -106
c-6 -4 -13 -4 -18 1z" />
    <glyph glyph-name="acircumflex" unicode="&#xe2;" horiz-adv-x="532" 
d="M348 260c-86 0 -179 -10 -179 -104c0 -60 37 -106 86 -106c54 0 90 56 93 148v62zM24 147c0 145 189 153 324 152c-3 118 -36 170 -82 170c-51 0 -84 -61 -97 -78c-16 -22 -46 -36 -76 -11c-31 26 -26 66 22 93c23 13 78 35 155 35c139 0 218 -73 218 -229v-184
c0 -13 4 -20 13 -20c7 0 10 5 12 8c6 9 9 12 14 12s9 -4 9 -9v-11c0 -57 -30 -85 -88 -85s-88 28 -97 81c-31 -52 -81 -81 -149 -81c-102 0 -178 65 -178 157zM153 572l-14 14c-5 5 -5 11 -1 17l111 146c10 14 19 14 28 14s20 0 30 -14l111 -146c4 -6 4 -12 -1 -17l-14 -14
c-5 -5 -12 -5 -18 -1l-107 76l-107 -76c-6 -4 -13 -4 -18 1z" />
    <glyph glyph-name="atilde" unicode="&#xe3;" horiz-adv-x="532" 
d="M348 260c-86 0 -179 -10 -179 -104c0 -60 37 -106 86 -106c54 0 90 56 93 148v62zM24 147c0 145 189 153 324 152c-3 118 -36 170 -82 170c-51 0 -84 -61 -97 -78c-16 -22 -46 -36 -76 -11c-31 26 -26 66 22 93c23 13 78 35 155 35c139 0 218 -73 218 -229v-184
c0 -13 4 -20 13 -20c7 0 10 5 12 8c6 9 9 12 14 12s9 -4 9 -9v-11c0 -57 -30 -85 -88 -85s-88 28 -97 81c-31 -52 -81 -81 -149 -81c-102 0 -178 65 -178 157zM205 691c77 0 190 -119 222 -37c3 9 10 11 18 8c10 -4 14 -13 11 -22c-21 -60 -64 -92 -103 -92
c-75 0 -174 123 -217 42c-5 -10 -15 -15 -25 -12s-14 11 -11 20c19 51 59 93 105 93z" />
    <glyph glyph-name="adieresis" unicode="&#xe4;" horiz-adv-x="532" 
d="M348 260c-86 0 -179 -10 -179 -104c0 -60 37 -106 86 -106c54 0 90 56 93 148v62zM24 147c0 145 189 153 324 152c-3 118 -36 170 -82 170c-51 0 -84 -61 -97 -78c-16 -22 -46 -36 -76 -11c-31 26 -26 66 22 93c23 13 78 35 155 35c139 0 218 -73 218 -229v-184
c0 -13 4 -20 13 -20c7 0 10 5 12 8c6 9 9 12 14 12s9 -4 9 -9v-11c0 -57 -30 -85 -88 -85s-88 28 -97 81c-31 -52 -81 -81 -149 -81c-102 0 -178 65 -178 157zM296 655c0 34 22 56 56 56c35 0 58 -22 58 -56c0 -33 -23 -57 -58 -57c-34 0 -56 24 -56 57zM146 655
c0 34 23 56 57 56c35 0 58 -22 58 -56c0 -33 -23 -57 -58 -57c-34 0 -57 24 -57 57z" />
    <glyph glyph-name="aring" unicode="&#xe5;" horiz-adv-x="532" 
d="M348 260c-86 0 -179 -10 -179 -104c0 -60 37 -106 86 -106c54 0 90 56 93 148v62zM24 147c0 145 189 153 324 152c-3 118 -36 170 -82 170c-51 0 -84 -61 -97 -78c-16 -22 -46 -36 -76 -11c-31 26 -26 66 22 93c23 13 78 35 155 35c139 0 218 -73 218 -229v-184
c0 -13 4 -20 13 -20c7 0 10 5 12 8c6 9 9 12 14 12s9 -4 9 -9v-11c0 -57 -30 -85 -88 -85s-88 28 -97 81c-31 -52 -81 -81 -149 -81c-102 0 -178 65 -178 157zM280 701c-27 0 -44 -17 -44 -43s17 -43 44 -43c25 0 42 17 42 43s-17 43 -42 43zM279 558
c-60 0 -100 40 -100 100s40 100 100 100s99 -40 99 -100s-39 -100 -99 -100z" />
    <glyph glyph-name="ccedilla" unicode="&#xe7;" horiz-adv-x="489" 
d="M387 97c25 45 62 49 89 22s22 -66 -26 -93c-23 -13 -79 -36 -154 -36c-160 0 -264 104 -264 259c0 156 104 259 264 259c75 0 131 -22 154 -35c48 -27 53 -67 22 -93c-30 -25 -60 -11 -76 11c-13 17 -47 78 -102 78c-65 0 -117 -88 -117 -220c0 -131 52 -219 117 -219
c55 0 89 61 93 67zM341 -156c0 -45 -46 -75 -112 -75c-29 0 -49 6 -49 15s20 15 43 15c39 0 58 18 58 45c0 34 -27 62 -68 69l38 85c2 4 7 6 13 6c11 0 8 -6 4 -15l-22 -52c51 -9 95 -49 95 -93z" />
    <glyph glyph-name="egrave" unicode="&#xe8;" horiz-adv-x="495" 
d="M179 259c0 -45 6 -85 15 -117c148 42 151 193 151 212c0 68 -33 115 -73 115c-56 0 -93 -90 -93 -210zM389 97c25 45 62 49 89 22s22 -66 -26 -93c-23 -13 -79 -36 -154 -36c-160 0 -264 104 -264 259c0 159 108 259 243 259c119 0 207 -76 207 -181
c0 -135 -144 -216 -282 -213c22 -54 56 -84 94 -84c55 0 89 61 93 67zM361 570l-14 -14c-5 -5 -12 -5 -18 -1l-150 106c-31 23 -4 45 16 66c12 12 33 36 56 6l111 -146c4 -6 4 -12 -1 -17z" />
    <glyph glyph-name="eacute" unicode="&#xe9;" horiz-adv-x="495" 
d="M179 259c0 -45 6 -85 15 -117c148 42 151 193 151 212c0 68 -33 115 -73 115c-56 0 -93 -90 -93 -210zM389 97c25 45 62 49 89 22s22 -66 -26 -93c-23 -13 -79 -36 -154 -36c-160 0 -264 104 -264 259c0 159 108 259 243 259c119 0 207 -76 207 -181
c0 -135 -144 -216 -282 -213c22 -54 56 -84 94 -84c55 0 89 61 93 67zM183 556l-14 14c-5 5 -5 11 -1 17l111 146c22 30 43 6 55 -6c20 -21 48 -43 16 -66l-149 -106c-6 -4 -13 -4 -18 1z" />
    <glyph glyph-name="ecircumflex" unicode="&#xea;" horiz-adv-x="495" 
d="M179 259c0 -45 6 -85 15 -117c148 42 151 193 151 212c0 68 -33 115 -73 115c-56 0 -93 -90 -93 -210zM389 97c25 45 62 49 89 22s22 -66 -26 -93c-23 -13 -79 -36 -154 -36c-160 0 -264 104 -264 259c0 159 108 259 243 259c119 0 207 -76 207 -181
c0 -135 -144 -216 -282 -213c22 -54 56 -84 94 -84c55 0 89 61 93 67zM140 572l-14 14c-5 5 -5 11 -1 17l111 146c10 14 19 14 28 14s20 0 30 -14l111 -146c4 -6 4 -12 -1 -17l-14 -14c-5 -5 -12 -5 -18 -1l-107 76l-107 -76c-6 -4 -13 -4 -18 1z" />
    <glyph glyph-name="edieresis" unicode="&#xeb;" horiz-adv-x="495" 
d="M179 259c0 -45 6 -85 15 -117c148 42 151 193 151 212c0 68 -33 115 -73 115c-56 0 -93 -90 -93 -210zM389 97c25 45 62 49 89 22s22 -66 -26 -93c-23 -13 -79 -36 -154 -36c-160 0 -264 104 -264 259c0 159 108 259 243 259c119 0 207 -76 207 -181
c0 -135 -144 -216 -282 -213c22 -54 56 -84 94 -84c55 0 89 61 93 67zM283 655c0 34 22 56 56 56c35 0 58 -22 58 -56c0 -33 -23 -57 -58 -57c-34 0 -56 24 -56 57zM133 655c0 34 23 56 57 56c35 0 58 -22 58 -56c0 -33 -23 -57 -58 -57c-34 0 -57 24 -57 57z" />
    <glyph glyph-name="igrave" unicode="&#xec;" horiz-adv-x="248" 
d="M202 476v-350c0 -33 14 -73 35 -100c3 -4 5 -9 5 -14v-2c0 -6 -4 -10 -10 -10h-199c-6 0 -10 4 -10 10v2c0 5 2 10 5 14c21 26 35 67 35 100v234c0 33 -14 73 -35 100c-3 4 -5 9 -5 14v2c0 6 4 9 10 10l131 22c23 4 38 -9 38 -32zM227 570l-14 -14c-5 -5 -12 -5 -18 -1
l-150 106c-31 23 -4 45 16 66c12 12 33 36 56 6l111 -146c4 -6 4 -12 -1 -17z" />
    <glyph glyph-name="iacute" unicode="&#xed;" horiz-adv-x="248" 
d="M211 476v-350c0 -33 14 -73 35 -100c3 -4 5 -9 5 -14v-2c0 -6 -4 -10 -10 -10h-199c-6 0 -10 4 -10 10v2c0 5 2 10 5 14c21 26 35 67 35 100v234c0 33 -14 73 -35 100c-3 4 -5 9 -5 14v2c0 6 4 9 10 10l131 22c23 4 38 -9 38 -32zM58 556l-14 14c-5 5 -5 11 -1 17
l111 146c22 30 43 6 55 -6c20 -21 48 -43 16 -66l-149 -106c-6 -4 -13 -4 -18 1z" />
    <glyph glyph-name="icircumflex" unicode="&#xee;" horiz-adv-x="248" 
d="M175 476v-350c0 -33 14 -73 35 -100c3 -4 5 -9 5 -14v-2c0 -6 -4 -10 -10 -10h-199c-6 0 -10 4 -10 10v2c0 5 2 10 5 14c21 26 35 67 35 100v234c0 33 -14 73 -35 100c-3 4 -5 9 -5 14v2c0 6 4 9 10 10l131 22c23 4 38 -9 38 -32zM-21 572l-14 14c-5 5 -5 11 -1 17
l111 146c10 14 19 14 28 14s20 0 30 -14l111 -146c4 -6 4 -12 -1 -17l-14 -14c-5 -5 -12 -5 -18 -1l-107 76l-107 -76c-6 -4 -13 -4 -18 1z" />
    <glyph glyph-name="idieresis" unicode="&#xef;" horiz-adv-x="248" 
d="M187 476v-350c0 -33 14 -73 35 -100c3 -4 5 -9 5 -14v-2c0 -6 -4 -10 -10 -10h-199c-6 0 -10 4 -10 10v2c0 5 2 10 5 14c21 26 35 67 35 100v234c0 33 -14 73 -35 100c-3 4 -5 9 -5 14v2c0 6 4 9 10 10l131 22c23 4 38 -9 38 -32zM134 655c0 34 22 56 56 56
c35 0 58 -22 58 -56c0 -33 -23 -57 -58 -57c-34 0 -56 24 -56 57zM-16 655c0 34 23 56 57 56c35 0 58 -22 58 -56c0 -33 -23 -57 -58 -57c-34 0 -57 24 -57 57z" />
    <glyph glyph-name="ntilde" unicode="&#xf1;" horiz-adv-x="595" 
d="M560 335v-209c0 -33 14 -73 35 -100c3 -4 5 -9 5 -14v-2c0 -6 -4 -10 -10 -10h-199c-6 0 -10 4 -10 10v2c0 5 2 10 5 14c21 26 35 67 35 100v193c0 72 -33 117 -92 117c-64 0 -118 -54 -118 -137v-173c0 -33 14 -73 35 -100c3 -4 5 -9 5 -14v-2c0 -6 -4 -10 -10 -10h-199
c-6 0 -10 4 -10 10v2c0 5 2 10 5 14c21 26 35 67 35 100v234c0 33 -14 73 -35 100c-3 4 -5 9 -5 14v2c0 6 4 9 10 10l131 22c23 4 38 -9 38 -32v-56c43 57 115 88 185 88c102 0 164 -67 164 -173zM240 691c77 0 190 -119 222 -37c3 9 10 11 18 8c10 -4 14 -13 11 -22
c-21 -60 -64 -92 -103 -92c-75 0 -174 123 -217 42c-5 -10 -15 -15 -25 -12s-14 11 -11 20c19 51 59 93 105 93z" />
    <glyph glyph-name="ograve" unicode="&#xf2;" horiz-adv-x="601" 
d="M177 249c0 -131 52 -219 139 -219s140 88 140 219c0 132 -53 220 -140 220s-139 -88 -139 -220zM32 249c0 156 104 259 284 259c181 0 284 -103 284 -259c0 -155 -103 -259 -284 -259c-180 0 -284 104 -284 259zM413 570l-14 -14c-5 -5 -12 -5 -18 -1l-150 106
c-31 23 -4 45 16 66c12 12 33 36 56 6l111 -146c4 -6 4 -12 -1 -17z" />
    <glyph glyph-name="oacute" unicode="&#xf3;" horiz-adv-x="601" 
d="M177 249c0 -131 52 -219 139 -219s140 88 140 219c0 132 -53 220 -140 220s-139 -88 -139 -220zM32 249c0 156 104 259 284 259c181 0 284 -103 284 -259c0 -155 -103 -259 -284 -259c-180 0 -284 104 -284 259zM235 556l-14 14c-5 5 -5 11 -1 17l111 146
c22 30 43 6 55 -6c20 -21 48 -43 16 -66l-149 -106c-6 -4 -13 -4 -18 1z" />
    <glyph glyph-name="ocircumflex" unicode="&#xf4;" horiz-adv-x="601" 
d="M177 249c0 -131 52 -219 139 -219s140 88 140 219c0 132 -53 220 -140 220s-139 -88 -139 -220zM32 249c0 156 104 259 284 259c181 0 284 -103 284 -259c0 -155 -103 -259 -284 -259c-180 0 -284 104 -284 259zM192 572l-14 14c-5 5 -5 11 -1 17l111 146
c10 14 19 14 28 14s20 0 30 -14l111 -146c4 -6 4 -12 -1 -17l-14 -14c-5 -5 -12 -5 -18 -1l-107 76l-107 -76c-6 -4 -13 -4 -18 1z" />
    <glyph glyph-name="otilde" unicode="&#xf5;" horiz-adv-x="601" 
d="M177 249c0 -131 52 -219 139 -219s140 88 140 219c0 132 -53 220 -140 220s-139 -88 -139 -220zM32 249c0 156 104 259 284 259c181 0 284 -103 284 -259c0 -155 -103 -259 -284 -259c-180 0 -284 104 -284 259zM243 691c77 0 190 -119 222 -37c3 9 10 11 18 8
c10 -4 14 -13 11 -22c-21 -60 -64 -92 -103 -92c-75 0 -174 123 -217 42c-5 -10 -15 -15 -25 -12s-14 11 -11 20c19 51 59 93 105 93z" />
    <glyph glyph-name="odieresis" unicode="&#xf6;" horiz-adv-x="601" 
d="M177 249c0 -131 52 -219 139 -219s140 88 140 219c0 132 -53 220 -140 220s-139 -88 -139 -220zM32 249c0 156 104 259 284 259c181 0 284 -103 284 -259c0 -155 -103 -259 -284 -259c-180 0 -284 104 -284 259zM335 655c0 34 22 56 56 56c35 0 58 -22 58 -56
c0 -33 -23 -57 -58 -57c-34 0 -56 24 -56 57zM185 655c0 34 23 56 57 56c35 0 58 -22 58 -56c0 -33 -23 -57 -58 -57c-34 0 -57 24 -57 57z" />
    <glyph glyph-name="scaron" unicode="&#x161;" horiz-adv-x="457" 
d="M162 409c0 -112 284 -93 284 -262c0 -95 -90 -157 -222 -157c-81 0 -137 23 -160 36c-47 27 -52 67 -22 93c30 25 60 11 76 -11c13 -17 47 -78 116 -78c49 0 81 30 81 68c0 112 -283 79 -283 254c0 93 79 156 200 156c73 0 128 -22 151 -35c48 -27 53 -67 22 -93
c-30 -25 -59 -11 -75 11c-13 17 -47 78 -105 78c-38 0 -63 -27 -63 -60zM110 758c5 5 12 5 18 1l107 -76l107 76c6 4 13 4 18 -1l14 -14c5 -5 5 -11 1 -17l-111 -146c-10 -14 -21 -14 -30 -14s-18 0 -28 14l-111 146c-4 6 -4 12 1 17z" />
    <glyph glyph-name="ugrave" unicode="&#xf9;" 
d="M60 165v195c0 33 -14 73 -35 100c-3 4 -5 9 -5 14v2c0 6 4 9 10 10l131 22c23 4 38 -9 38 -32v-296c0 -71 33 -116 92 -116c64 0 118 54 118 136v160c0 33 -14 73 -32 96c-6 8 -8 13 -8 18v2c0 6 4 9 10 10l131 22c22 4 38 -9 38 -32v-381c0 -13 4 -20 13 -20
c7 0 10 5 12 8c6 9 10 12 15 12s9 -4 9 -9v-11c0 -57 -31 -85 -88 -85c-62 0 -91 32 -98 93c-43 -58 -116 -92 -187 -92c-101 0 -164 68 -164 174zM406 570l-14 -14c-5 -5 -12 -5 -18 -1l-150 106c-31 23 -4 45 16 66c12 12 33 36 56 6l111 -146c4 -6 4 -12 -1 -17z" />
    <glyph glyph-name="uacute" unicode="&#xfa;" 
d="M60 165v195c0 33 -14 73 -35 100c-3 4 -5 9 -5 14v2c0 6 4 9 10 10l131 22c23 4 38 -9 38 -32v-296c0 -71 33 -116 92 -116c64 0 118 54 118 136v160c0 33 -14 73 -32 96c-6 8 -8 13 -8 18v2c0 6 4 9 10 10l131 22c22 4 38 -9 38 -32v-381c0 -13 4 -20 13 -20
c7 0 10 5 12 8c6 9 10 12 15 12s9 -4 9 -9v-11c0 -57 -31 -85 -88 -85c-62 0 -91 32 -98 93c-43 -58 -116 -92 -187 -92c-101 0 -164 68 -164 174zM228 556l-14 14c-5 5 -5 11 -1 17l111 146c22 30 43 6 55 -6c20 -21 48 -43 16 -66l-149 -106c-6 -4 -13 -4 -18 1z" />
    <glyph glyph-name="ucircumflex" unicode="&#xfb;" 
d="M60 165v195c0 33 -14 73 -35 100c-3 4 -5 9 -5 14v2c0 6 4 9 10 10l131 22c23 4 38 -9 38 -32v-296c0 -71 33 -116 92 -116c64 0 118 54 118 136v160c0 33 -14 73 -32 96c-6 8 -8 13 -8 18v2c0 6 4 9 10 10l131 22c22 4 38 -9 38 -32v-381c0 -13 4 -20 13 -20
c7 0 10 5 12 8c6 9 10 12 15 12s9 -4 9 -9v-11c0 -57 -31 -85 -88 -85c-62 0 -91 32 -98 93c-43 -58 -116 -92 -187 -92c-101 0 -164 68 -164 174zM185 572l-14 14c-5 5 -5 11 -1 17l111 146c10 14 19 14 28 14s20 0 30 -14l111 -146c4 -6 4 -12 -1 -17l-14 -14
c-5 -5 -12 -5 -18 -1l-107 76l-107 -76c-6 -4 -13 -4 -18 1z" />
    <glyph glyph-name="udieresis" unicode="&#xfc;" 
d="M60 165v195c0 33 -14 73 -35 100c-3 4 -5 9 -5 14v2c0 6 4 9 10 10l131 22c23 4 38 -9 38 -32v-296c0 -71 33 -116 92 -116c64 0 118 54 118 136v160c0 33 -14 73 -32 96c-6 8 -8 13 -8 18v2c0 6 4 9 10 10l131 22c22 4 38 -9 38 -32v-381c0 -13 4 -20 13 -20
c7 0 10 5 12 8c6 9 10 12 15 12s9 -4 9 -9v-11c0 -57 -31 -85 -88 -85c-62 0 -91 32 -98 93c-43 -58 -116 -92 -187 -92c-101 0 -164 68 -164 174zM328 655c0 34 22 56 56 56c35 0 58 -22 58 -56c0 -33 -23 -57 -58 -57c-34 0 -56 24 -56 57zM178 655c0 34 23 56 57 56
c35 0 58 -22 58 -56c0 -33 -23 -57 -58 -57c-34 0 -57 24 -57 57z" />
    <glyph glyph-name="yacute" unicode="&#xfd;" horiz-adv-x="532" 
d="M183 461l147 -303l68 136c34 69 18 91 18 134c0 52 24 80 60 80h3c42 0 57 -24 38 -62l-219 -446c-66 -134 -171 -192 -257 -206c-24 -4 -42 13 -42 39v55c0 24 13 33 38 25c63 -19 165 -19 218 82l-194 403c-9 19 -26 39 -42 52l-29 23c-5 4 -8 10 -8 16s4 9 10 9h132
c24 0 48 -14 59 -37zM175 556l-14 14c-5 5 -5 11 -1 17l111 146c22 30 43 6 55 -6c20 -21 48 -43 16 -66l-149 -106c-6 -4 -13 -4 -18 1z" />
    <glyph glyph-name="ydieresis" unicode="&#xff;" horiz-adv-x="532" 
d="M183 461l147 -303l68 136c34 69 18 91 18 134c0 52 24 80 60 80h3c42 0 57 -24 38 -62l-219 -446c-66 -134 -171 -192 -257 -206c-24 -4 -42 13 -42 39v55c0 24 13 33 38 25c63 -19 165 -19 218 82l-194 403c-9 19 -26 39 -42 52l-29 23c-5 4 -8 10 -8 16s4 9 10 9h132
c24 0 48 -14 59 -37zM275 655c0 34 22 56 56 56c35 0 58 -22 58 -56c0 -33 -23 -57 -58 -57c-34 0 -56 24 -56 57zM125 655c0 34 23 56 57 56c35 0 58 -22 58 -56c0 -33 -23 -57 -58 -57c-34 0 -57 24 -57 57z" />
    <glyph glyph-name="zcaron" unicode="&#x17e;" horiz-adv-x="488" 
d="M14 59l287 400h-103c-47 0 -104 -19 -142 -47l-9 -7c-5 -4 -12 -6 -17 -6c-6 0 -10 4 -9 10l7 69c1 12 9 20 22 20h379c44 0 56 -23 30 -58l-287 -400h123c47 0 103 19 141 47l9 7c5 4 12 6 18 6s10 -4 9 -10l-7 -69c-1 -12 -10 -21 -23 -21h-399c-43 0 -55 24 -29 59z
M113 758c5 5 12 5 18 1l107 -76l107 76c6 4 13 4 18 -1l14 -14c5 -5 5 -11 1 -17l-111 -146c-10 -14 -21 -14 -30 -14s-18 0 -28 14l-111 146c-4 6 -4 12 1 17z" />
    <glyph glyph-name="Amacron" unicode="&#x100;" horiz-adv-x="595" 
d="M136 250h187l-92 256zM250 674c5 14 20 24 35 24s30 -9 35 -24l198 -553c11 -31 34 -65 59 -86l10 -9c4 -4 7 -10 7 -16s-4 -10 -10 -10h-215c-8 0 -13 5 -13 13c0 4 2 9 4 13l12 19c10 15 12 36 6 53l-41 112h-214l-35 -93c-10 -28 -6 -63 10 -89c3 -5 5 -12 5 -17v-1
c0 -6 -4 -10 -10 -10h-111c-7 0 -12 5 -12 12c0 5 2 10 6 13l23 20c17 15 34 40 42 61zM92 790h381c15 0 25 -10 25 -25s-10 -25 -25 -25h-381c-15 0 -25 10 -25 25s10 25 25 25z" />
    <glyph glyph-name="amacron" unicode="&#x101;" horiz-adv-x="532" 
d="M348 260c-86 0 -179 -10 -179 -104c0 -60 37 -106 86 -106c54 0 90 56 93 148v62zM24 147c0 145 189 153 324 152c-3 118 -36 170 -82 170c-51 0 -84 -61 -97 -78c-16 -22 -46 -36 -76 -11c-31 26 -26 66 22 93c23 13 78 35 155 35c139 0 218 -73 218 -229v-184
c0 -13 4 -20 13 -20c7 0 10 5 12 8c6 9 9 12 14 12s9 -4 9 -9v-11c0 -57 -30 -85 -88 -85s-88 28 -97 81c-31 -52 -81 -81 -149 -81c-102 0 -178 65 -178 157zM88 598h381c15 0 25 -10 25 -25s-10 -25 -25 -25h-381c-15 0 -25 10 -25 25s10 25 25 25z" />
    <glyph glyph-name="Abreve" unicode="&#x102;" horiz-adv-x="595" 
d="M136 250h187l-92 256zM250 674c5 14 20 24 35 24s30 -9 35 -24l198 -553c11 -31 34 -65 59 -86l10 -9c4 -4 7 -10 7 -16s-4 -10 -10 -10h-215c-8 0 -13 5 -13 13c0 4 2 9 4 13l12 19c10 15 12 36 6 53l-41 112h-214l-35 -93c-10 -28 -6 -63 10 -89c3 -5 5 -12 5 -17v-1
c0 -6 -4 -10 -10 -10h-111c-7 0 -12 5 -12 12c0 5 2 10 6 13l23 20c17 15 34 40 42 61zM164 900c13 0 21 -9 22 -23c3 -47 41 -48 98 -48c56 0 94 1 97 49c1 14 8 22 21 22s23 -9 23 -22c-2 -83 -58 -138 -141 -138c-85 0 -142 55 -144 137c0 13 10 23 24 23z" />
    <glyph glyph-name="abreve" unicode="&#x103;" horiz-adv-x="532" 
d="M348 260c-86 0 -179 -10 -179 -104c0 -60 37 -106 86 -106c54 0 90 56 93 148v62zM24 147c0 145 189 153 324 152c-3 118 -36 170 -82 170c-51 0 -84 -61 -97 -78c-16 -22 -46 -36 -76 -11c-31 26 -26 66 22 93c23 13 78 35 155 35c139 0 218 -73 218 -229v-184
c0 -13 4 -20 13 -20c7 0 10 5 12 8c6 9 9 12 14 12s9 -4 9 -9v-11c0 -57 -30 -85 -88 -85s-88 28 -97 81c-31 -52 -81 -81 -149 -81c-102 0 -178 65 -178 157zM160 708c13 0 21 -9 22 -23c3 -47 41 -48 98 -48c56 0 94 1 97 49c1 14 8 22 21 22s23 -9 23 -22
c-2 -83 -58 -138 -141 -138c-85 0 -142 55 -144 137c0 13 10 23 24 23z" />
    <glyph glyph-name="Aogonek" unicode="&#x104;" horiz-adv-x="595" 
d="M136 250h187l-92 256zM250 674c5 14 20 24 35 24s30 -9 35 -24l198 -553c11 -31 34 -65 59 -86l10 -9c4 -4 7 -10 7 -16s-4 -10 -10 -10h-215c-8 0 -13 5 -13 13c0 4 2 9 4 13l12 19c10 15 12 36 6 53l-41 112h-214l-35 -93c-10 -28 -6 -63 10 -89c3 -5 5 -12 5 -17v-1
c0 -6 -4 -10 -10 -10h-111c-7 0 -12 5 -12 12c0 5 2 10 6 13l23 20c17 15 34 40 42 61zM553 15c-36 -23 -60 -68 -60 -109c0 -42 24 -68 63 -68c18 0 38 -5 38 -14s-20 -15 -49 -15c-67 0 -112 32 -112 83c0 49 41 108 105 140c6 3 13 1 17 -4s4 -9 -2 -13z" />
    <glyph glyph-name="aogonek" unicode="&#x105;" horiz-adv-x="532" 
d="M348 260c-86 0 -179 -10 -179 -104c0 -60 37 -106 86 -106c54 0 90 56 93 148v62zM24 147c0 145 189 153 324 152c-3 118 -36 170 -82 170c-51 0 -84 -61 -97 -78c-16 -22 -46 -36 -76 -11c-31 26 -26 66 22 93c23 13 78 35 155 35c139 0 218 -73 218 -229v-184
c0 -13 4 -20 13 -20c7 0 10 5 12 8c6 9 9 12 14 12s9 -4 9 -9v-11c0 -57 -30 -85 -88 -85s-88 28 -97 81c-31 -52 -81 -81 -149 -81c-102 0 -178 65 -178 157zM495 15c-36 -23 -60 -68 -60 -109c0 -42 24 -68 63 -68c18 0 38 -5 38 -14s-20 -15 -49 -15
c-67 0 -112 32 -112 83c0 49 41 108 105 140c6 3 13 1 17 -4s4 -9 -2 -13z" />
    <glyph glyph-name="Cacute" unicode="&#x106;" horiz-adv-x="536" 
d="M534 570c-24 -39 -67 -25 -89 9c-10 15 -52 89 -111 89c-77 0 -160 -128 -160 -319s83 -319 165 -319c63 0 101 76 112 94c21 35 53 41 78 8c26 -33 21 -72 -26 -101c-34 -21 -96 -41 -167 -41c-185 0 -302 139 -302 353c0 220 123 365 306 365c67 0 127 -19 160 -39
c48 -29 54 -68 34 -99zM203 748l-14 14c-5 5 -5 11 -1 17l111 146c22 30 43 6 55 -6c20 -21 48 -43 16 -66l-149 -106c-6 -4 -13 -4 -18 1z" />
    <glyph glyph-name="cacute" unicode="&#x107;" horiz-adv-x="489" 
d="M387 97c25 45 62 49 89 22s22 -66 -26 -93c-23 -13 -79 -36 -154 -36c-160 0 -264 104 -264 259c0 156 104 259 264 259c75 0 131 -22 154 -35c48 -27 53 -67 22 -93c-30 -25 -60 -11 -76 11c-13 17 -47 78 -102 78c-65 0 -117 -88 -117 -220c0 -131 52 -219 117 -219
c55 0 89 61 93 67zM179 556l-14 14c-5 5 -5 11 -1 17l111 146c22 30 43 6 55 -6c20 -21 48 -43 16 -66l-149 -106c-6 -4 -13 -4 -18 1z" />
    <glyph glyph-name="Ccircumflex" unicode="&#x108;" horiz-adv-x="536" 
d="M534 570c-24 -39 -67 -25 -89 9c-10 15 -52 89 -111 89c-77 0 -160 -128 -160 -319s83 -319 165 -319c63 0 101 76 112 94c21 35 53 41 78 8c26 -33 21 -72 -26 -101c-34 -21 -96 -41 -167 -41c-185 0 -302 139 -302 353c0 220 123 365 306 365c67 0 127 -19 160 -39
c48 -29 54 -68 34 -99zM160 764l-14 14c-5 5 -5 11 -1 17l111 146c10 14 19 14 28 14s20 0 30 -14l111 -146c4 -6 4 -12 -1 -17l-14 -14c-5 -5 -12 -5 -18 -1l-107 76l-107 -76c-6 -4 -13 -4 -18 1z" />
    <glyph glyph-name="ccircumflex" unicode="&#x109;" horiz-adv-x="489" 
d="M387 97c25 45 62 49 89 22s22 -66 -26 -93c-23 -13 -79 -36 -154 -36c-160 0 -264 104 -264 259c0 156 104 259 264 259c75 0 131 -22 154 -35c48 -27 53 -67 22 -93c-30 -25 -60 -11 -76 11c-13 17 -47 78 -102 78c-65 0 -117 -88 -117 -220c0 -131 52 -219 117 -219
c55 0 89 61 93 67zM136 572l-14 14c-5 5 -5 11 -1 17l111 146c10 14 19 14 28 14s20 0 30 -14l111 -146c4 -6 4 -12 -1 -17l-14 -14c-5 -5 -12 -5 -18 -1l-107 76l-107 -76c-6 -4 -13 -4 -18 1z" />
    <glyph glyph-name="Cdotaccent" unicode="&#x10a;" horiz-adv-x="536" 
d="M534 570c-24 -39 -67 -25 -89 9c-10 15 -52 89 -111 89c-77 0 -160 -128 -160 -319s83 -319 165 -319c63 0 101 76 112 94c21 35 53 41 78 8c26 -33 21 -72 -26 -101c-34 -21 -96 -41 -167 -41c-185 0 -302 139 -302 353c0 220 123 365 306 365c67 0 127 -19 160 -39
c48 -29 54 -68 34 -99zM228 847c0 34 23 56 57 56c35 0 58 -22 58 -56c0 -33 -23 -57 -58 -57c-34 0 -57 24 -57 57z" />
    <glyph glyph-name="cdotaccent" unicode="&#x10b;" horiz-adv-x="489" 
d="M387 97c25 45 62 49 89 22s22 -66 -26 -93c-23 -13 -79 -36 -154 -36c-160 0 -264 104 -264 259c0 156 104 259 264 259c75 0 131 -22 154 -35c48 -27 53 -67 22 -93c-30 -25 -60 -11 -76 11c-13 17 -47 78 -102 78c-65 0 -117 -88 -117 -220c0 -131 52 -219 117 -219
c55 0 89 61 93 67zM203 655c0 34 23 56 57 56c35 0 58 -22 58 -56c0 -33 -23 -57 -58 -57c-34 0 -57 24 -57 57z" />
    <glyph glyph-name="Ccaron" unicode="&#x10c;" horiz-adv-x="536" 
d="M534 570c-24 -39 -67 -25 -89 9c-10 15 -52 89 -111 89c-77 0 -160 -128 -160 -319s83 -319 165 -319c63 0 101 76 112 94c21 35 53 41 78 8c26 -33 21 -72 -26 -101c-34 -21 -96 -41 -167 -41c-185 0 -302 139 -302 353c0 220 123 365 306 365c67 0 127 -19 160 -39
c48 -29 54 -68 34 -99zM160 950c5 5 12 5 18 1l107 -76l107 76c6 4 13 4 18 -1l14 -14c5 -5 5 -11 1 -17l-111 -146c-10 -14 -21 -14 -30 -14s-18 0 -28 14l-111 146c-4 6 -4 12 1 17z" />
    <glyph glyph-name="ccaron" unicode="&#x10d;" horiz-adv-x="489" 
d="M387 97c25 45 62 49 89 22s22 -66 -26 -93c-23 -13 -79 -36 -154 -36c-160 0 -264 104 -264 259c0 156 104 259 264 259c75 0 131 -22 154 -35c48 -27 53 -67 22 -93c-30 -25 -60 -11 -76 11c-13 17 -47 78 -102 78c-65 0 -117 -88 -117 -220c0 -131 52 -219 117 -219
c55 0 89 61 93 67zM136 758c5 5 12 5 18 1l107 -76l107 76c6 4 13 4 18 -1l14 -14c5 -5 5 -11 1 -17l-111 -146c-10 -14 -21 -14 -30 -14s-18 0 -28 14l-111 146c-4 6 -4 12 1 17z" />
    <glyph glyph-name="Dcaron" unicode="&#x10e;" horiz-adv-x="585" 
d="M215 40h27c92 0 203 62 203 310c0 247 -111 308 -203 308h-27v-618zM302 0h-256c-6 0 -10 4 -10 10v2c0 5 2 10 5 14c21 26 35 67 35 100v446c0 33 -14 73 -35 100c-3 4 -5 9 -5 14v2c0 6 4 10 10 10h256c116 0 282 -77 282 -349s-166 -349 -282 -349zM186 950
c5 5 12 5 18 1l107 -76l107 76c6 4 13 4 18 -1l14 -14c5 -5 5 -11 1 -17l-111 -146c-10 -14 -21 -14 -30 -14s-18 0 -28 14l-111 146c-4 6 -4 12 1 17z" />
    <glyph glyph-name="dcaron" unicode="&#x10f;" horiz-adv-x="778" 
d="M400 381c-21 44 -52 68 -95 68c-72 0 -124 -68 -124 -203c0 -115 38 -196 110 -196c63 0 105 61 109 178v153zM259 508c56 0 105 -22 141 -61v112c0 33 -14 73 -32 96c-6 8 -8 13 -8 18v2c0 6 4 9 10 10l131 23c23 4 38 -9 38 -33v-580c0 -13 4 -20 13 -20c7 0 10 5 12 8
c6 9 10 12 15 12s9 -4 9 -9v-11c0 -57 -31 -85 -88 -85c-66 0 -95 36 -99 106c-36 -66 -94 -106 -166 -106c-116 0 -199 105 -199 251c0 164 104 267 223 267zM660 514c19 10 34 20 44 38c-4 -1 -9 -1 -13 -1c-47 0 -78 32 -78 79s31 78 78 78c46 0 79 -30 79 -82
c0 -54 -35 -102 -98 -137c-7 -4 -15 -2 -19 6c-4 7 -1 15 7 19z" />
    <glyph glyph-name="Emacron" unicode="&#x112;" horiz-adv-x="510" 
d="M273 329h-58v-289h131c47 0 105 18 142 47l9 7c5 4 12 6 18 6s10 -4 9 -10l-7 -69c-1 -12 -10 -21 -23 -21h-448c-6 0 -10 4 -10 10v2c0 5 2 10 5 14c21 26 35 67 35 100v446c0 33 -14 73 -35 100c-3 4 -5 9 -5 14v2c0 6 4 10 10 10h438c13 0 22 -9 23 -21l7 -69
c1 -6 -3 -10 -9 -10s-13 2 -18 6l-9 7c-38 28 -95 47 -142 47h-121v-289h25c45 0 103 11 146 27c5 2 13 3 19 3s10 -4 10 -10v-77c0 -8 -5 -13 -13 -13c-4 0 -9 1 -13 2l-34 13c-24 9 -57 15 -82 15zM83 790h381c15 0 25 -10 25 -25s-10 -25 -25 -25h-381
c-15 0 -25 10 -25 25s10 25 25 25z" />
    <glyph glyph-name="emacron" unicode="&#x113;" horiz-adv-x="495" 
d="M179 259c0 -45 6 -85 15 -117c148 42 151 193 151 212c0 68 -33 115 -73 115c-56 0 -93 -90 -93 -210zM389 97c25 45 62 49 89 22s22 -66 -26 -93c-23 -13 -79 -36 -154 -36c-160 0 -264 104 -264 259c0 159 108 259 243 259c119 0 207 -76 207 -181
c0 -135 -144 -216 -282 -213c22 -54 56 -84 94 -84c55 0 89 61 93 67zM74 598h381c15 0 25 -10 25 -25s-10 -25 -25 -25h-381c-15 0 -25 10 -25 25s10 25 25 25z" />
    <glyph glyph-name="Ebreve" unicode="&#x114;" horiz-adv-x="510" 
d="M273 329h-58v-289h131c47 0 105 18 142 47l9 7c5 4 12 6 18 6s10 -4 9 -10l-7 -69c-1 -12 -10 -21 -23 -21h-448c-6 0 -10 4 -10 10v2c0 5 2 10 5 14c21 26 35 67 35 100v446c0 33 -14 73 -35 100c-3 4 -5 9 -5 14v2c0 6 4 10 10 10h438c13 0 22 -9 23 -21l7 -69
c1 -6 -3 -10 -9 -10s-13 2 -18 6l-9 7c-38 28 -95 47 -142 47h-121v-289h25c45 0 103 11 146 27c5 2 13 3 19 3s10 -4 10 -10v-77c0 -8 -5 -13 -13 -13c-4 0 -9 1 -13 2l-34 13c-24 9 -57 15 -82 15zM155 900c13 0 21 -9 22 -23c3 -47 41 -48 98 -48c56 0 94 1 97 49
c1 14 8 22 21 22s23 -9 23 -22c-2 -83 -58 -138 -141 -138c-85 0 -142 55 -144 137c0 13 10 23 24 23z" />
    <glyph glyph-name="ebreve" unicode="&#x115;" horiz-adv-x="495" 
d="M179 259c0 -45 6 -85 15 -117c148 42 151 193 151 212c0 68 -33 115 -73 115c-56 0 -93 -90 -93 -210zM389 97c25 45 62 49 89 22s22 -66 -26 -93c-23 -13 -79 -36 -154 -36c-160 0 -264 104 -264 259c0 159 108 259 243 259c119 0 207 -76 207 -181
c0 -135 -144 -216 -282 -213c22 -54 56 -84 94 -84c55 0 89 61 93 67zM146 708c13 0 21 -9 22 -23c3 -47 41 -48 98 -48c56 0 94 1 97 49c1 14 8 22 21 22s23 -9 23 -22c-2 -83 -58 -138 -141 -138c-85 0 -142 55 -144 137c0 13 10 23 24 23z" />
    <glyph glyph-name="Edotaccent" unicode="&#x116;" horiz-adv-x="510" 
d="M273 329h-58v-289h131c47 0 105 18 142 47l9 7c5 4 12 6 18 6s10 -4 9 -10l-7 -69c-1 -12 -10 -21 -23 -21h-448c-6 0 -10 4 -10 10v2c0 5 2 10 5 14c21 26 35 67 35 100v446c0 33 -14 73 -35 100c-3 4 -5 9 -5 14v2c0 6 4 10 10 10h438c13 0 22 -9 23 -21l7 -69
c1 -6 -3 -10 -9 -10s-13 2 -18 6l-9 7c-38 28 -95 47 -142 47h-121v-289h25c45 0 103 11 146 27c5 2 13 3 19 3s10 -4 10 -10v-77c0 -8 -5 -13 -13 -13c-4 0 -9 1 -13 2l-34 13c-24 9 -57 15 -82 15zM216 847c0 34 23 56 57 56c35 0 58 -22 58 -56c0 -33 -23 -57 -58 -57
c-34 0 -57 24 -57 57z" />
    <glyph glyph-name="edotaccent" unicode="&#x117;" horiz-adv-x="495" 
d="M179 259c0 -45 6 -85 15 -117c148 42 151 193 151 212c0 68 -33 115 -73 115c-56 0 -93 -90 -93 -210zM389 97c25 45 62 49 89 22s22 -66 -26 -93c-23 -13 -79 -36 -154 -36c-160 0 -264 104 -264 259c0 159 108 259 243 259c119 0 207 -76 207 -181
c0 -135 -144 -216 -282 -213c22 -54 56 -84 94 -84c55 0 89 61 93 67zM207 655c0 34 23 56 57 56c35 0 58 -22 58 -56c0 -33 -23 -57 -58 -57c-34 0 -57 24 -57 57z" />
    <glyph glyph-name="Eogonek" unicode="&#x118;" horiz-adv-x="510" 
d="M273 329h-58v-289h131c47 0 105 18 142 47l9 7c5 4 12 6 18 6s10 -4 9 -10l-7 -69c-1 -12 -10 -21 -23 -21h-448c-6 0 -10 4 -10 10v2c0 5 2 10 5 14c21 26 35 67 35 100v446c0 33 -14 73 -35 100c-3 4 -5 9 -5 14v2c0 6 4 10 10 10h438c13 0 22 -9 23 -21l7 -69
c1 -6 -3 -10 -9 -10s-13 2 -18 6l-9 7c-38 28 -95 47 -142 47h-121v-289h25c45 0 103 11 146 27c5 2 13 3 19 3s10 -4 10 -10v-77c0 -8 -5 -13 -13 -13c-4 0 -9 1 -13 2l-34 13c-24 9 -57 15 -82 15zM454 15c-36 -23 -60 -68 -60 -109c0 -42 24 -68 63 -68
c18 0 38 -5 38 -14s-20 -15 -49 -15c-67 0 -112 32 -112 83c0 49 41 108 105 140c6 3 13 1 17 -4s4 -9 -2 -13z" />
    <glyph glyph-name="eogonek" unicode="&#x119;" horiz-adv-x="495" 
d="M179 259c0 -45 6 -85 15 -117c148 42 151 193 151 212c0 68 -33 115 -73 115c-56 0 -93 -90 -93 -210zM389 97c25 45 62 49 89 22s22 -66 -26 -93c-23 -13 -79 -36 -154 -36c-160 0 -264 104 -264 259c0 159 108 259 243 259c119 0 207 -76 207 -181
c0 -135 -144 -216 -282 -213c22 -54 56 -84 94 -84c55 0 89 61 93 67zM453 15c-36 -23 -60 -68 -60 -109c0 -42 24 -68 63 -68c18 0 38 -5 38 -14s-20 -15 -49 -15c-67 0 -112 32 -112 83c0 49 41 108 105 140c6 3 13 1 17 -4s4 -9 -2 -13z" />
    <glyph glyph-name="Ecaron" unicode="&#x11a;" horiz-adv-x="510" 
d="M273 329h-58v-289h131c47 0 105 18 142 47l9 7c5 4 12 6 18 6s10 -4 9 -10l-7 -69c-1 -12 -10 -21 -23 -21h-448c-6 0 -10 4 -10 10v2c0 5 2 10 5 14c21 26 35 67 35 100v446c0 33 -14 73 -35 100c-3 4 -5 9 -5 14v2c0 6 4 10 10 10h438c13 0 22 -9 23 -21l7 -69
c1 -6 -3 -10 -9 -10s-13 2 -18 6l-9 7c-38 28 -95 47 -142 47h-121v-289h25c45 0 103 11 146 27c5 2 13 3 19 3s10 -4 10 -10v-77c0 -8 -5 -13 -13 -13c-4 0 -9 1 -13 2l-34 13c-24 9 -57 15 -82 15zM148 950c5 5 12 5 18 1l107 -76l107 76c6 4 13 4 18 -1l14 -14
c5 -5 5 -11 1 -17l-111 -146c-10 -14 -21 -14 -30 -14s-18 0 -28 14l-111 146c-4 6 -4 12 1 17z" />
    <glyph glyph-name="ecaron" unicode="&#x11b;" horiz-adv-x="495" 
d="M179 259c0 -45 6 -85 15 -117c148 42 151 193 151 212c0 68 -33 115 -73 115c-56 0 -93 -90 -93 -210zM389 97c25 45 62 49 89 22s22 -66 -26 -93c-23 -13 -79 -36 -154 -36c-160 0 -264 104 -264 259c0 159 108 259 243 259c119 0 207 -76 207 -181
c0 -135 -144 -216 -282 -213c22 -54 56 -84 94 -84c55 0 89 61 93 67zM140 758c5 5 12 5 18 1l107 -76l107 76c6 4 13 4 18 -1l14 -14c5 -5 5 -11 1 -17l-111 -146c-10 -14 -21 -14 -30 -14s-18 0 -28 14l-111 146c-4 6 -4 12 1 17z" />
    <glyph glyph-name="Gcircumflex" unicode="&#x11c;" horiz-adv-x="579" 
d="M545 257v-165c0 -22 -14 -43 -41 -61c-35 -21 -97 -41 -168 -41c-185 0 -302 139 -302 353c0 220 123 365 306 365c67 0 127 -19 160 -39c48 -29 54 -68 34 -99c-24 -39 -67 -25 -89 9c-10 15 -52 89 -111 89c-77 0 -160 -128 -160 -319s83 -319 165 -319
c27 0 49 14 67 31v172c0 34 -14 74 -36 101c-3 3 -4 8 -4 12v3c0 6 4 10 10 10h195c9 0 14 -5 14 -14c0 -3 -1 -7 -3 -10l-17 -21c-12 -15 -20 -38 -20 -57zM182 764l-14 14c-5 5 -5 11 -1 17l111 146c10 14 19 14 28 14s20 0 30 -14l111 -146c4 -6 4 -12 -1 -17l-14 -14
c-5 -5 -12 -5 -18 -1l-107 76l-107 -76c-6 -4 -13 -4 -18 1z" />
    <glyph glyph-name="gcircumflex" unicode="&#x11d;" horiz-adv-x="538" 
d="M175 296c0 -101 52 -166 105 -166s103 63 103 166c0 101 -49 173 -103 173s-105 -73 -105 -173zM31 298c0 126 107 210 248 210c55 0 109 51 128 74c29 38 66 42 93 15s22 -66 -15 -87c-16 -9 -46 -18 -81 -26c73 -33 123 -96 123 -183c0 -139 -125 -211 -252 -211
c-82 0 -102 -2 -102 -13c0 -46 368 53 368 -121c0 -89 -96 -165 -281 -165c-93 0 -153 19 -185 39c-49 28 -55 67 -35 98c25 39 67 25 89 -9c10 -15 52 -88 160 -88c83 0 119 42 119 72c0 94 -368 -46 -368 129c0 52 34 78 100 90c-66 35 -109 96 -109 176zM154 572l-14 14
c-5 5 -5 11 -1 17l111 146c10 14 19 14 28 14s20 0 30 -14l111 -146c4 -6 4 -12 -1 -17l-14 -14c-5 -5 -12 -5 -18 -1l-107 76l-107 -76c-6 -4 -13 -4 -18 1z" />
    <glyph glyph-name="Gbreve" unicode="&#x11e;" horiz-adv-x="579" 
d="M545 257v-165c0 -22 -14 -43 -41 -61c-35 -21 -97 -41 -168 -41c-185 0 -302 139 -302 353c0 220 123 365 306 365c67 0 127 -19 160 -39c48 -29 54 -68 34 -99c-24 -39 -67 -25 -89 9c-10 15 -52 89 -111 89c-77 0 -160 -128 -160 -319s83 -319 165 -319
c27 0 49 14 67 31v172c0 34 -14 74 -36 101c-3 3 -4 8 -4 12v3c0 6 4 10 10 10h195c9 0 14 -5 14 -14c0 -3 -1 -7 -3 -10l-17 -21c-12 -15 -20 -38 -20 -57zM188 900c13 0 21 -9 22 -23c3 -47 41 -48 98 -48c56 0 94 1 97 49c1 14 8 22 21 22s23 -9 23 -22
c-2 -83 -58 -138 -141 -138c-85 0 -142 55 -144 137c0 13 10 23 24 23z" />
    <glyph glyph-name="gbreve" unicode="&#x11f;" horiz-adv-x="538" 
d="M175 296c0 -101 52 -166 105 -166s103 63 103 166c0 101 -49 173 -103 173s-105 -73 -105 -173zM31 298c0 126 107 210 248 210c55 0 109 51 128 74c29 38 66 42 93 15s22 -66 -15 -87c-16 -9 -46 -18 -81 -26c73 -33 123 -96 123 -183c0 -139 -125 -211 -252 -211
c-82 0 -102 -2 -102 -13c0 -46 368 53 368 -121c0 -89 -96 -165 -281 -165c-93 0 -153 19 -185 39c-49 28 -55 67 -35 98c25 39 67 25 89 -9c10 -15 52 -88 160 -88c83 0 119 42 119 72c0 94 -368 -46 -368 129c0 52 34 78 100 90c-66 35 -109 96 -109 176zM161 708
c13 0 21 -9 22 -23c3 -47 41 -48 98 -48c56 0 94 1 97 49c1 14 8 22 21 22s23 -9 23 -22c-2 -83 -58 -138 -141 -138c-85 0 -142 55 -144 137c0 13 10 23 24 23z" />
    <glyph glyph-name="Gdotaccent" unicode="&#x120;" horiz-adv-x="579" 
d="M545 257v-165c0 -22 -14 -43 -41 -61c-35 -21 -97 -41 -168 -41c-185 0 -302 139 -302 353c0 220 123 365 306 365c67 0 127 -19 160 -39c48 -29 54 -68 34 -99c-24 -39 -67 -25 -89 9c-10 15 -52 89 -111 89c-77 0 -160 -128 -160 -319s83 -319 165 -319
c27 0 49 14 67 31v172c0 34 -14 74 -36 101c-3 3 -4 8 -4 12v3c0 6 4 10 10 10h195c9 0 14 -5 14 -14c0 -3 -1 -7 -3 -10l-17 -21c-12 -15 -20 -38 -20 -57zM249 847c0 34 23 56 57 56c35 0 58 -22 58 -56c0 -33 -23 -57 -58 -57c-34 0 -57 24 -57 57z" />
    <glyph glyph-name="gdotaccent" unicode="&#x121;" horiz-adv-x="538" 
d="M175 296c0 -101 52 -166 105 -166s103 63 103 166c0 101 -49 173 -103 173s-105 -73 -105 -173zM31 298c0 126 107 210 248 210c55 0 109 51 128 74c29 38 66 42 93 15s22 -66 -15 -87c-16 -9 -46 -18 -81 -26c73 -33 123 -96 123 -183c0 -139 -125 -211 -252 -211
c-82 0 -102 -2 -102 -13c0 -46 368 53 368 -121c0 -89 -96 -165 -281 -165c-93 0 -153 19 -185 39c-49 28 -55 67 -35 98c25 39 67 25 89 -9c10 -15 52 -88 160 -88c83 0 119 42 119 72c0 94 -368 -46 -368 129c0 52 34 78 100 90c-66 35 -109 96 -109 176zM222 655
c0 34 23 56 57 56c35 0 58 -22 58 -56c0 -33 -23 -57 -58 -57c-34 0 -57 24 -57 57z" />
    <glyph glyph-name="gcedilla" unicode="&#x123;" horiz-adv-x="538" 
d="M175 296c0 -101 52 -166 105 -166s103 63 103 166c0 101 -49 173 -103 173s-105 -73 -105 -173zM31 298c0 126 107 210 248 210c55 0 109 51 128 74c29 38 66 42 93 15s22 -66 -15 -87c-16 -9 -46 -18 -81 -26c73 -33 123 -96 123 -183c0 -139 -125 -211 -252 -211
c-82 0 -102 -2 -102 -13c0 -46 368 53 368 -121c0 -89 -96 -165 -281 -165c-93 0 -153 19 -185 39c-49 28 -55 67 -35 98c25 39 67 25 89 -9c10 -15 52 -88 160 -88c83 0 119 42 119 72c0 94 -368 -46 -368 129c0 52 34 78 100 90c-66 35 -109 96 -109 176zM311 870
c-19 -10 -34 -20 -44 -38c4 1 9 1 13 1c47 0 78 -32 78 -79s-31 -77 -78 -77c-46 0 -79 29 -79 81c0 54 35 102 98 138c7 4 15 2 19 -6s1 -16 -7 -20z" />
    <glyph glyph-name="Itilde" unicode="&#x128;" horiz-adv-x="255" 
d="M-36 10v2c0 5 2 10 5 14c21 27 35 66 35 100v446c0 34 -14 73 -35 100c-3 4 -5 9 -5 14v2c0 6 4 10 10 10h195c8 0 14 -6 14 -14c0 -4 -2 -8 -4 -11l-16 -20c-12 -15 -20 -38 -20 -57v-470c0 -34 14 -73 35 -100c3 -4 5 -9 5 -14v-2c0 -6 -4 -10 -10 -10h-199
c-6 0 -10 4 -10 10zM0 883c77 0 190 -119 222 -37c3 9 10 11 18 8c10 -4 14 -13 11 -22c-21 -60 -64 -92 -103 -92c-75 0 -174 123 -217 42c-5 -10 -15 -15 -25 -12s-14 11 -11 20c19 51 59 93 105 93z" />
    <glyph glyph-name="itilde" unicode="&#x129;" horiz-adv-x="248" 
d="M138 476v-350c0 -33 14 -73 35 -100c3 -4 5 -9 5 -14v-2c0 -6 -4 -10 -10 -10h-199c-6 0 -10 4 -10 10v2c0 5 2 10 5 14c21 26 35 67 35 100v234c0 33 -14 73 -35 100c-3 4 -5 9 -5 14v2c0 6 4 9 10 10l131 22c23 4 38 -9 38 -32zM-6 691c77 0 190 -119 222 -37
c3 9 10 11 18 8c10 -4 14 -13 11 -22c-21 -60 -64 -92 -103 -92c-75 0 -174 123 -217 42c-5 -10 -15 -15 -25 -12s-14 11 -11 20c19 51 59 93 105 93z" />
    <glyph glyph-name="Imacron" unicode="&#x12a;" horiz-adv-x="255" 
d="M-70 10v2c0 5 2 10 5 14c21 27 35 66 35 100v446c0 34 -14 73 -35 100c-3 4 -5 9 -5 14v2c0 6 4 10 10 10h195c8 0 14 -6 14 -14c0 -4 -2 -8 -4 -11l-16 -20c-12 -15 -20 -38 -20 -57v-470c0 -34 14 -73 35 -100c3 -4 5 -9 5 -14v-2c0 -6 -4 -10 -10 -10h-199
c-6 0 -10 4 -10 10zM-151 790h381c15 0 25 -10 25 -25s-10 -25 -25 -25h-381c-15 0 -25 10 -25 25s10 25 25 25z" />
    <glyph glyph-name="imacron" unicode="&#x12b;" horiz-adv-x="248" 
d="M103 476v-350c0 -33 14 -73 35 -100c3 -4 5 -9 5 -14v-2c0 -6 -4 -10 -10 -10h-199c-6 0 -10 4 -10 10v2c0 5 2 10 5 14c21 26 35 67 35 100v234c0 33 -14 73 -35 100c-3 4 -5 9 -5 14v2c0 6 4 9 10 10l131 22c23 4 38 -9 38 -32zM-159 598h381c15 0 25 -10 25 -25
s-10 -25 -25 -25h-381c-15 0 -25 10 -25 25s10 25 25 25z" />
    <glyph glyph-name="Ibreve" unicode="&#x12c;" horiz-adv-x="255" 
d="M3 10v2c0 5 2 10 5 14c21 27 35 66 35 100v446c0 34 -14 73 -35 100c-3 4 -5 9 -5 14v2c0 6 4 10 10 10h195c8 0 14 -6 14 -14c0 -4 -2 -8 -4 -11l-16 -20c-12 -15 -20 -38 -20 -57v-470c0 -34 14 -73 35 -100c3 -4 5 -9 5 -14v-2c0 -6 -4 -10 -10 -10h-199
c-6 0 -10 4 -10 10zM-6 900c13 0 21 -9 22 -23c3 -47 41 -48 98 -48c56 0 94 1 97 49c1 14 8 22 21 22s23 -9 23 -22c-2 -83 -58 -138 -141 -138c-85 0 -142 55 -144 137c0 13 10 23 24 23z" />
    <glyph glyph-name="ibreve" unicode="&#x12d;" horiz-adv-x="248" 
d="M176 476v-350c0 -33 14 -73 35 -100c3 -4 5 -9 5 -14v-2c0 -6 -4 -10 -10 -10h-199c-6 0 -10 4 -10 10v2c0 5 2 10 5 14c21 26 35 67 35 100v234c0 33 -14 73 -35 100c-3 4 -5 9 -5 14v2c0 6 4 9 10 10l131 22c23 4 38 -9 38 -32zM-14 708c13 0 21 -9 22 -23
c3 -47 41 -48 98 -48c56 0 94 1 97 49c1 14 8 22 21 22s23 -9 23 -22c-2 -83 -58 -138 -141 -138c-85 0 -142 55 -144 137c0 13 10 23 24 23z" />
    <glyph glyph-name="Iogonek" unicode="&#x12e;" horiz-adv-x="255" 
d="M36 10v2c0 5 2 10 5 14c21 27 35 66 35 100v446c0 34 -14 73 -35 100c-3 4 -5 9 -5 14v2c0 6 4 10 10 10h195c8 0 14 -6 14 -14c0 -4 -2 -8 -4 -11l-16 -20c-12 -15 -20 -38 -20 -57v-470c0 -34 14 -73 35 -100c3 -4 5 -9 5 -14v-2c0 -6 -4 -10 -10 -10h-199
c-6 0 -10 4 -10 10zM214 15c-36 -23 -60 -68 -60 -109c0 -42 24 -68 63 -68c18 0 38 -5 38 -14s-20 -15 -49 -15c-67 0 -112 32 -112 83c0 49 41 108 105 140c6 3 13 1 17 -4s4 -9 -2 -13z" />
    <glyph glyph-name="iogonek" unicode="&#x12f;" horiz-adv-x="248" 
d="M211 476v-350c0 -33 14 -73 35 -100c3 -4 5 -9 5 -14v-2c0 -6 -4 -10 -10 -10h-199c-6 0 -10 4 -10 10v2c0 5 2 10 5 14c21 26 35 67 35 100v234c0 33 -14 73 -35 100c-3 4 -5 9 -5 14v2c0 6 4 9 10 10l131 22c23 4 38 -9 38 -32zM40 617c0 55 37 92 92 92s91 -37 91 -92
s-36 -92 -91 -92s-92 37 -92 92zM180 15c-36 -23 -60 -68 -60 -109c0 -42 24 -68 63 -68c18 0 38 -5 38 -14s-20 -15 -49 -15c-67 0 -112 32 -112 83c0 49 41 108 105 140c6 3 13 1 17 -4s4 -9 -2 -13z" />
    <glyph glyph-name="Idotaccent" unicode="&#x130;" horiz-adv-x="255" 
d="M36 10v2c0 5 2 10 5 14c21 27 35 66 35 100v446c0 34 -14 73 -35 100c-3 4 -5 9 -5 14v2c0 6 4 10 10 10h195c8 0 14 -6 14 -14c0 -4 -2 -8 -4 -11l-16 -20c-12 -15 -20 -38 -20 -57v-470c0 -34 14 -73 35 -100c3 -4 5 -9 5 -14v-2c0 -6 -4 -10 -10 -10h-199
c-6 0 -10 4 -10 10zM88 847c0 34 23 56 57 56c35 0 58 -22 58 -56c0 -33 -23 -57 -58 -57c-34 0 -57 24 -57 57z" />
    <glyph glyph-name="IJ" unicode="&#x132;" horiz-adv-x="747" 
d="M36 10v2c0 5 2 10 5 14c21 27 35 66 35 100v446c0 34 -14 73 -35 100c-3 4 -5 9 -5 14v2c0 6 4 10 10 10h195c8 0 14 -6 14 -14c0 -4 -2 -8 -4 -11l-16 -20c-12 -15 -20 -38 -20 -57v-470c0 -34 14 -73 35 -100c3 -4 5 -9 5 -14v-2c0 -6 -4 -10 -10 -10h-199
c-6 0 -10 4 -10 10zM714 596v-281c0 -220 -62 -325 -238 -325c-75 0 -135 19 -167 39c-49 29 -55 68 -35 99c25 38 67 25 89 -9c10 -15 52 -89 117 -89c71 0 95 88 95 279v263c0 33 -14 73 -35 100c-3 4 -5 9 -5 14v2c0 6 4 10 10 10h195c8 0 14 -6 14 -14
c0 -4 -2 -8 -4 -11l-16 -20c-12 -15 -20 -38 -20 -57z" />
    <glyph glyph-name="ij" unicode="&#x133;" horiz-adv-x="478" 
d="M211 476v-350c0 -33 14 -73 35 -100c3 -4 5 -9 5 -14v-2c0 -6 -4 -10 -10 -10h-199c-6 0 -10 4 -10 10v2c0 5 2 10 5 14c21 26 35 67 35 100v234c0 33 -14 73 -35 100c-3 4 -5 9 -5 14v2c0 6 4 9 10 10l131 22c23 4 38 -9 38 -32zM40 617c0 55 37 92 92 92s91 -37 91 -92
s-36 -92 -91 -92s-92 37 -92 92zM267 -209c-66 0 -122 23 -145 36c-47 26 -52 66 -22 92c30 25 60 11 76 -11c13 -17 47 -77 88 -77c49 0 52 87 52 219v310c0 33 -14 73 -35 100c-3 4 -5 9 -5 14v2c0 6 4 9 10 10l130 22c23 4 39 -9 39 -32v-426c0 -156 -48 -259 -188 -259z
M376 525c-55 0 -92 37 -92 92s37 92 92 92c54 0 91 -37 91 -92s-37 -92 -91 -92z" />
    <glyph glyph-name="Lcaron" unicode="&#x13d;" horiz-adv-x="494" 
d="M36 686v2c0 6 4 10 10 10h199c6 0 10 -4 10 -10v-2c0 -5 -2 -10 -5 -14c-21 -27 -35 -67 -35 -100v-532h131c47 0 105 18 142 47l9 7c5 4 12 6 18 6s10 -4 9 -10l-7 -69c-1 -12 -10 -21 -23 -21h-448c-6 0 -10 4 -10 10v2c0 5 2 10 5 14c21 27 35 67 35 100v446
c0 33 -14 74 -35 100c-3 4 -5 9 -5 14zM334 506c19 10 34 20 44 38c-4 -1 -9 -1 -13 -1c-47 0 -78 32 -78 79s31 78 78 78c46 0 79 -30 79 -82c0 -54 -35 -102 -98 -137c-7 -4 -15 -2 -19 6c-4 7 -1 15 7 19z" />
    <glyph glyph-name="lcaron" unicode="&#x13e;" horiz-adv-x="440" 
d="M203 675v-549c0 -33 14 -73 35 -100c3 -4 5 -9 5 -14v-2c0 -6 -4 -10 -10 -10h-199c-6 0 -10 4 -10 10v2c0 5 2 10 5 14c21 26 35 67 35 100v433c0 33 -14 73 -35 100c-3 4 -5 9 -5 14v2c0 6 4 9 10 10l131 23c23 4 38 -9 38 -33zM316 514c19 10 34 20 44 38
c-4 -1 -9 -1 -13 -1c-47 0 -78 32 -78 79s31 78 78 78c46 0 79 -30 79 -82c0 -54 -35 -102 -98 -137c-7 -4 -15 -2 -19 6c-4 7 -1 15 7 19z" />
    <glyph glyph-name="Lmiddledot" unicode="&#x13f;" horiz-adv-x="494" 
d="M36 686v2c0 6 4 10 10 10h199c6 0 10 -4 10 -10v-2c0 -5 -2 -10 -5 -14c-21 -27 -35 -67 -35 -100v-532h131c47 0 105 18 142 47l9 7c5 4 12 6 18 6s10 -4 9 -10l-7 -69c-1 -12 -10 -21 -23 -21h-448c-6 0 -10 4 -10 10v2c0 5 2 10 5 14c21 27 35 67 35 100v446
c0 33 -14 74 -35 100c-3 4 -5 9 -5 14zM285 541c0 47 32 77 80 77s80 -30 80 -77s-32 -80 -80 -80s-80 33 -80 80z" />
    <glyph glyph-name="lmiddledot" unicode="&#x140;" horiz-adv-x="445" 
d="M203 675v-549c0 -33 14 -73 35 -100c3 -4 5 -9 5 -14v-2c0 -6 -4 -10 -10 -10h-199c-6 0 -10 4 -10 10v2c0 5 2 10 5 14c21 26 35 67 35 100v433c0 33 -14 73 -35 100c-3 4 -5 9 -5 14v2c0 6 4 9 10 10l131 23c23 4 38 -9 38 -33zM273 349c0 47 32 77 80 77
s80 -30 80 -77s-32 -80 -80 -80s-80 33 -80 80z" />
    <glyph glyph-name="Nacute" unicode="&#x143;" horiz-adv-x="602" 
d="M543 0c-11 0 -22 7 -28 16l-399 620v-510c0 -33 14 -73 35 -100c3 -4 5 -9 5 -14v-2c0 -6 -4 -10 -10 -10h-100c-6 0 -10 4 -10 10v2c0 5 2 10 5 14c21 26 35 67 35 100v446c0 33 -14 73 -35 100c-3 4 -5 9 -5 14v2c0 6 4 10 10 10h155c24 0 50 -15 64 -36l260 -403v313
c0 33 -14 73 -35 100c-3 4 -5 9 -5 14v2c0 6 4 10 10 10h95c8 0 14 -6 14 -14c0 -4 -2 -8 -4 -11l-16 -20c-12 -15 -20 -38 -20 -57v-575c0 -13 -8 -21 -21 -21zM237 748l-14 14c-5 5 -5 11 -1 17l111 146c22 30 43 6 55 -6c20 -21 48 -43 16 -66l-149 -106
c-6 -4 -13 -4 -18 1z" />
    <glyph glyph-name="nacute" unicode="&#x144;" horiz-adv-x="595" 
d="M560 335v-209c0 -33 14 -73 35 -100c3 -4 5 -9 5 -14v-2c0 -6 -4 -10 -10 -10h-199c-6 0 -10 4 -10 10v2c0 5 2 10 5 14c21 26 35 67 35 100v193c0 72 -33 117 -92 117c-64 0 -118 -54 -118 -137v-173c0 -33 14 -73 35 -100c3 -4 5 -9 5 -14v-2c0 -6 -4 -10 -10 -10h-199
c-6 0 -10 4 -10 10v2c0 5 2 10 5 14c21 26 35 67 35 100v234c0 33 -14 73 -35 100c-3 4 -5 9 -5 14v2c0 6 4 9 10 10l131 22c23 4 38 -9 38 -32v-56c43 57 115 88 185 88c102 0 164 -67 164 -173zM232 556l-14 14c-5 5 -5 11 -1 17l111 146c22 30 43 6 55 -6
c20 -21 48 -43 16 -66l-149 -106c-6 -4 -13 -4 -18 1z" />
    <glyph glyph-name="Ncaron" unicode="&#x147;" horiz-adv-x="602" 
d="M543 0c-11 0 -22 7 -28 16l-399 620v-510c0 -33 14 -73 35 -100c3 -4 5 -9 5 -14v-2c0 -6 -4 -10 -10 -10h-100c-6 0 -10 4 -10 10v2c0 5 2 10 5 14c21 26 35 67 35 100v446c0 33 -14 73 -35 100c-3 4 -5 9 -5 14v2c0 6 4 10 10 10h155c24 0 50 -15 64 -36l260 -403v313
c0 33 -14 73 -35 100c-3 4 -5 9 -5 14v2c0 6 4 10 10 10h95c8 0 14 -6 14 -14c0 -4 -2 -8 -4 -11l-16 -20c-12 -15 -20 -38 -20 -57v-575c0 -13 -8 -21 -21 -21zM194 950c5 5 12 5 18 1l107 -76l107 76c6 4 13 4 18 -1l14 -14c5 -5 5 -11 1 -17l-111 -146
c-10 -14 -21 -14 -30 -14s-18 0 -28 14l-111 146c-4 6 -4 12 1 17z" />
    <glyph glyph-name="ncaron" unicode="&#x148;" horiz-adv-x="595" 
d="M560 335v-209c0 -33 14 -73 35 -100c3 -4 5 -9 5 -14v-2c0 -6 -4 -10 -10 -10h-199c-6 0 -10 4 -10 10v2c0 5 2 10 5 14c21 26 35 67 35 100v193c0 72 -33 117 -92 117c-64 0 -118 -54 -118 -137v-173c0 -33 14 -73 35 -100c3 -4 5 -9 5 -14v-2c0 -6 -4 -10 -10 -10h-199
c-6 0 -10 4 -10 10v2c0 5 2 10 5 14c21 26 35 67 35 100v234c0 33 -14 73 -35 100c-3 4 -5 9 -5 14v2c0 6 4 9 10 10l131 22c23 4 38 -9 38 -32v-56c43 57 115 88 185 88c102 0 164 -67 164 -173zM189 758c5 5 12 5 18 1l107 -76l107 76c6 4 13 4 18 -1l14 -14
c5 -5 5 -11 1 -17l-111 -146c-10 -14 -21 -14 -30 -14s-18 0 -28 14l-111 146c-4 6 -4 12 1 17z" />
    <glyph glyph-name="Omacron" unicode="&#x14c;" horiz-adv-x="698" 
d="M170 349c0 -191 83 -319 194 -319s194 128 194 319s-83 319 -194 319s-194 -128 -194 -319zM30 349c0 215 144 359 334 359s334 -144 334 -359s-144 -359 -334 -359s-334 144 -334 359zM174 790h381c15 0 25 -10 25 -25s-10 -25 -25 -25h-381c-15 0 -25 10 -25 25
s10 25 25 25z" />
    <glyph glyph-name="omacron" unicode="&#x14d;" horiz-adv-x="601" 
d="M177 249c0 -131 52 -219 139 -219s140 88 140 219c0 132 -53 220 -140 220s-139 -88 -139 -220zM32 249c0 156 104 259 284 259c181 0 284 -103 284 -259c0 -155 -103 -259 -284 -259c-180 0 -284 104 -284 259zM126 598h381c15 0 25 -10 25 -25s-10 -25 -25 -25h-381
c-15 0 -25 10 -25 25s10 25 25 25z" />
    <glyph glyph-name="Obreve" unicode="&#x14e;" horiz-adv-x="698" 
d="M170 349c0 -191 83 -319 194 -319s194 128 194 319s-83 319 -194 319s-194 -128 -194 -319zM30 349c0 215 144 359 334 359s334 -144 334 -359s-144 -359 -334 -359s-334 144 -334 359zM246 900c13 0 21 -9 22 -23c3 -47 41 -48 98 -48c56 0 94 1 97 49c1 14 8 22 21 22
s23 -9 23 -22c-2 -83 -58 -138 -141 -138c-85 0 -142 55 -144 137c0 13 10 23 24 23z" />
    <glyph glyph-name="obreve" unicode="&#x14f;" horiz-adv-x="601" 
d="M177 249c0 -131 52 -219 139 -219s140 88 140 219c0 132 -53 220 -140 220s-139 -88 -139 -220zM32 249c0 156 104 259 284 259c181 0 284 -103 284 -259c0 -155 -103 -259 -284 -259c-180 0 -284 104 -284 259zM198 708c13 0 21 -9 22 -23c3 -47 41 -48 98 -48
c56 0 94 1 97 49c1 14 8 22 21 22s23 -9 23 -22c-2 -83 -58 -138 -141 -138c-85 0 -142 55 -144 137c0 13 10 23 24 23z" />
    <glyph glyph-name="Odoubleacute" unicode="&#x150;" horiz-adv-x="698" 
d="M170 349c0 -191 83 -319 194 -319s194 128 194 319s-83 319 -194 319s-194 -128 -194 -319zM30 349c0 215 144 359 334 359s334 -144 334 -359s-144 -359 -334 -359s-334 144 -334 359zM353 748l-14 14c-5 5 -5 11 -1 17l111 146c23 30 44 6 56 -6c20 -21 48 -43 16 -66
l-150 -106c-6 -4 -13 -4 -18 1zM211 748l-14 14c-5 5 -5 11 -1 17l111 146c22 30 43 6 55 -6c20 -21 48 -43 16 -66l-149 -106c-6 -4 -13 -4 -18 1z" />
    <glyph glyph-name="odoubleacute" unicode="&#x151;" horiz-adv-x="601" 
d="M177 249c0 -131 52 -219 139 -219s140 88 140 219c0 132 -53 220 -140 220s-139 -88 -139 -220zM32 249c0 156 104 259 284 259c181 0 284 -103 284 -259c0 -155 -103 -259 -284 -259c-180 0 -284 104 -284 259zM305 556l-14 14c-5 5 -5 11 -1 17l111 146
c23 30 44 6 56 -6c20 -21 48 -43 16 -66l-150 -106c-6 -4 -13 -4 -18 1zM163 556l-14 14c-5 5 -5 11 -1 17l111 146c22 30 43 6 55 -6c20 -21 48 -43 16 -66l-149 -106c-6 -4 -13 -4 -18 1z" />
    <glyph glyph-name="Racute" unicode="&#x154;" horiz-adv-x="624" 
d="M215 349h77c92 0 153 62 153 156c0 92 -61 153 -153 153h-77v-309zM36 10v2c0 5 2 10 5 14c21 26 35 67 35 100v446c0 33 -14 73 -35 100c-3 4 -5 9 -5 14v2c0 6 4 10 10 10h346c116 0 192 -77 192 -197c0 -98 -55 -169 -144 -187l128 -224c7 -12 18 -25 29 -33l42 -31
c5 -4 8 -10 8 -16s-4 -10 -10 -10h-145c-14 0 -27 8 -34 20l-166 289h-77v-183c0 -33 14 -73 35 -100c3 -4 5 -9 5 -14v-2c0 -6 -4 -10 -10 -10h-199c-6 0 -10 4 -10 10zM248 748l-14 14c-5 5 -5 11 -1 17l111 146c22 30 43 6 55 -6c20 -21 48 -43 16 -66l-149 -106
c-6 -4 -13 -4 -18 1z" />
    <glyph glyph-name="racute" unicode="&#x155;" horiz-adv-x="478" 
d="M211 476v-55c32 56 81 87 141 87c37 0 64 -12 85 -23c66 -39 71 -79 41 -104c-31 -26 -71 -13 -88 10c-12 16 -36 68 -90 68c-66 0 -89 -78 -89 -210v-123c0 -33 14 -73 35 -100c3 -4 5 -9 5 -14v-2c0 -6 -4 -10 -10 -10h-199c-6 0 -10 4 -10 10v2c0 5 2 10 5 14
c21 26 35 67 35 100v234c0 33 -14 73 -35 100c-3 4 -5 9 -5 14v2c0 6 4 9 10 10l131 22c23 4 38 -9 38 -32zM173 556l-14 14c-5 5 -5 11 -1 17l111 146c22 30 43 6 55 -6c20 -21 48 -43 16 -66l-149 -106c-6 -4 -13 -4 -18 1z" />
    <glyph glyph-name="Rcaron" unicode="&#x158;" horiz-adv-x="624" 
d="M215 349h77c92 0 153 62 153 156c0 92 -61 153 -153 153h-77v-309zM36 10v2c0 5 2 10 5 14c21 26 35 67 35 100v446c0 33 -14 73 -35 100c-3 4 -5 9 -5 14v2c0 6 4 10 10 10h346c116 0 192 -77 192 -197c0 -98 -55 -169 -144 -187l128 -224c7 -12 18 -25 29 -33l42 -31
c5 -4 8 -10 8 -16s-4 -10 -10 -10h-145c-14 0 -27 8 -34 20l-166 289h-77v-183c0 -33 14 -73 35 -100c3 -4 5 -9 5 -14v-2c0 -6 -4 -10 -10 -10h-199c-6 0 -10 4 -10 10zM205 950c5 5 12 5 18 1l107 -76l107 76c6 4 13 4 18 -1l14 -14c5 -5 5 -11 1 -17l-111 -146
c-10 -14 -21 -14 -30 -14s-18 0 -28 14l-111 146c-4 6 -4 12 1 17z" />
    <glyph glyph-name="rcaron" unicode="&#x159;" horiz-adv-x="478" 
d="M211 476v-55c32 56 81 87 141 87c37 0 64 -12 85 -23c66 -39 71 -79 41 -104c-31 -26 -71 -13 -88 10c-12 16 -36 68 -90 68c-66 0 -89 -78 -89 -210v-123c0 -33 14 -73 35 -100c3 -4 5 -9 5 -14v-2c0 -6 -4 -10 -10 -10h-199c-6 0 -10 4 -10 10v2c0 5 2 10 5 14
c21 26 35 67 35 100v234c0 33 -14 73 -35 100c-3 4 -5 9 -5 14v2c0 6 4 9 10 10l131 22c23 4 38 -9 38 -32zM130 758c5 5 12 5 18 1l107 -76l107 76c6 4 13 4 18 -1l14 -14c5 -5 5 -11 1 -17l-111 -146c-10 -14 -21 -14 -30 -14s-18 0 -28 14l-111 146c-4 6 -4 12 1 17z" />
    <glyph glyph-name="Sacute" unicode="&#x15a;" horiz-adv-x="509" 
d="M163 563c0 -163 338 -164 338 -378c0 -118 -105 -195 -265 -195c-79 0 -139 19 -171 39c-49 29 -55 68 -35 99c25 38 67 25 89 -9c10 -15 52 -89 138 -89c65 0 111 43 111 103c0 163 -338 162 -338 377c0 119 103 198 238 198c66 0 126 -19 158 -39c49 -29 55 -68 35 -99
c-25 -39 -67 -25 -89 9c-10 15 -52 89 -120 89c-58 0 -89 -55 -89 -105zM178 748l-14 14c-5 5 -5 11 -1 17l111 146c22 30 43 6 55 -6c20 -21 48 -43 16 -66l-149 -106c-6 -4 -13 -4 -18 1z" />
    <glyph glyph-name="sacute" unicode="&#x15b;" horiz-adv-x="457" 
d="M162 409c0 -112 284 -93 284 -262c0 -95 -90 -157 -222 -157c-81 0 -137 23 -160 36c-47 27 -52 67 -22 93c30 25 60 11 76 -11c13 -17 47 -78 116 -78c49 0 81 30 81 68c0 112 -283 79 -283 254c0 93 79 156 200 156c73 0 128 -22 151 -35c48 -27 53 -67 22 -93
c-30 -25 -59 -11 -75 11c-13 17 -47 78 -105 78c-38 0 -63 -27 -63 -60zM153 556l-14 14c-5 5 -5 11 -1 17l111 146c22 30 43 6 55 -6c20 -21 48 -43 16 -66l-149 -106c-6 -4 -13 -4 -18 1z" />
    <glyph glyph-name="Scircumflex" unicode="&#x15c;" horiz-adv-x="509" 
d="M163 563c0 -163 338 -164 338 -378c0 -118 -105 -195 -265 -195c-79 0 -139 19 -171 39c-49 29 -55 68 -35 99c25 38 67 25 89 -9c10 -15 52 -89 138 -89c65 0 111 43 111 103c0 163 -338 162 -338 377c0 119 103 198 238 198c66 0 126 -19 158 -39c49 -29 55 -68 35 -99
c-25 -39 -67 -25 -89 9c-10 15 -52 89 -120 89c-58 0 -89 -55 -89 -105zM135 764l-14 14c-5 5 -5 11 -1 17l111 146c10 14 19 14 28 14s20 0 30 -14l111 -146c4 -6 4 -12 -1 -17l-14 -14c-5 -5 -12 -5 -18 -1l-107 76l-107 -76c-6 -4 -13 -4 -18 1z" />
    <glyph glyph-name="scircumflex" unicode="&#x15d;" horiz-adv-x="457" 
d="M162 409c0 -112 284 -93 284 -262c0 -95 -90 -157 -222 -157c-81 0 -137 23 -160 36c-47 27 -52 67 -22 93c30 25 60 11 76 -11c13 -17 47 -78 116 -78c49 0 81 30 81 68c0 112 -283 79 -283 254c0 93 79 156 200 156c73 0 128 -22 151 -35c48 -27 53 -67 22 -93
c-30 -25 -59 -11 -75 11c-13 17 -47 78 -105 78c-38 0 -63 -27 -63 -60zM110 572l-14 14c-5 5 -5 11 -1 17l111 146c10 14 19 14 28 14s20 0 30 -14l111 -146c4 -6 4 -12 -1 -17l-14 -14c-5 -5 -12 -5 -18 -1l-107 76l-107 -76c-6 -4 -13 -4 -18 1z" />
    <glyph glyph-name="Scedilla" unicode="&#x15e;" horiz-adv-x="509" 
d="M163 563c0 -163 338 -164 338 -378c0 -118 -105 -195 -265 -195c-79 0 -139 19 -171 39c-49 29 -55 68 -35 99c25 38 67 25 89 -9c10 -15 52 -89 138 -89c65 0 111 43 111 103c0 163 -338 162 -338 377c0 119 103 198 238 198c66 0 126 -19 158 -39c49 -29 55 -68 35 -99
c-25 -39 -67 -25 -89 9c-10 15 -52 89 -120 89c-58 0 -89 -55 -89 -105zM340 -156c0 -45 -46 -75 -112 -75c-29 0 -49 6 -49 15s20 15 43 15c39 0 58 18 58 45c0 34 -27 62 -68 69l38 85c2 4 7 6 13 6c11 0 8 -6 4 -15l-22 -52c51 -9 95 -49 95 -93z" />
    <glyph glyph-name="scedilla" unicode="&#x15f;" horiz-adv-x="457" 
d="M162 409c0 -112 284 -93 284 -262c0 -95 -90 -157 -222 -157c-81 0 -137 23 -160 36c-47 27 -52 67 -22 93c30 25 60 11 76 -11c13 -17 47 -78 116 -78c49 0 81 30 81 68c0 112 -283 79 -283 254c0 93 79 156 200 156c73 0 128 -22 151 -35c48 -27 53 -67 22 -93
c-30 -25 -59 -11 -75 11c-13 17 -47 78 -105 78c-38 0 -63 -27 -63 -60zM315 -156c0 -45 -46 -75 -112 -75c-29 0 -49 6 -49 15s20 15 43 15c39 0 58 18 58 45c0 34 -27 62 -68 69l38 85c2 4 7 6 13 6c11 0 8 -6 4 -15l-22 -52c51 -9 95 -49 95 -93z" />
    <glyph glyph-name="Tcaron" unicode="&#x164;" horiz-adv-x="523" 
d="M-26 608l7 69c1 12 10 21 23 21h487c13 0 22 -9 23 -21l6 -69c1 -6 -2 -10 -8 -10s-13 2 -18 6l-9 7c-37 29 -95 47 -142 47h-26v-532c0 -33 14 -73 35 -100c3 -4 5 -9 5 -14v-2c0 -6 -4 -10 -10 -10h-199c-6 0 -10 4 -10 10v2c0 5 2 10 5 14c21 26 35 67 35 100v532h-26
c-47 0 -105 -18 -142 -47l-9 -7c-5 -4 -12 -6 -18 -6s-10 4 -9 10zM123 950c5 5 12 5 18 1l107 -76l107 76c6 4 13 4 18 -1l14 -14c5 -5 5 -11 1 -17l-111 -146c-10 -14 -21 -14 -30 -14s-18 0 -28 14l-111 146c-4 6 -4 12 1 17z" />
    <glyph glyph-name="Utilde" unicode="&#x168;" 
d="M60 246v326c0 33 -14 73 -32 96c-6 8 -8 13 -8 18v2c0 6 4 10 10 10h195c8 0 14 -6 14 -14c0 -4 -2 -8 -4 -11l-16 -20c-12 -15 -20 -38 -20 -57v-447c0 -71 47 -119 110 -119c62 0 110 48 110 119v423c0 33 -14 73 -32 96c-6 8 -8 13 -8 18v2c0 6 4 10 10 10h195
c8 0 14 -6 14 -14c0 -4 -2 -8 -4 -11l-16 -20c-12 -15 -20 -38 -20 -57v-350c0 -153 -102 -256 -249 -256c-146 0 -249 103 -249 256zM236 883c77 0 190 -119 222 -37c3 9 10 11 18 8c10 -4 14 -13 11 -22c-21 -60 -64 -92 -103 -92c-75 0 -174 123 -217 42
c-5 -10 -15 -15 -25 -12s-14 11 -11 20c19 51 59 93 105 93z" />
    <glyph glyph-name="utilde" unicode="&#x169;" 
d="M60 165v195c0 33 -14 73 -35 100c-3 4 -5 9 -5 14v2c0 6 4 9 10 10l131 22c23 4 38 -9 38 -32v-296c0 -71 33 -116 92 -116c64 0 118 54 118 136v160c0 33 -14 73 -32 96c-6 8 -8 13 -8 18v2c0 6 4 9 10 10l131 22c22 4 38 -9 38 -32v-381c0 -13 4 -20 13 -20
c7 0 10 5 12 8c6 9 10 12 15 12s9 -4 9 -9v-11c0 -57 -31 -85 -88 -85c-62 0 -91 32 -98 93c-43 -58 -116 -92 -187 -92c-101 0 -164 68 -164 174zM236 691c77 0 190 -119 222 -37c3 9 10 11 18 8c10 -4 14 -13 11 -22c-21 -60 -64 -92 -103 -92c-75 0 -174 123 -217 42
c-5 -10 -15 -15 -25 -12s-14 11 -11 20c19 51 59 93 105 93z" />
    <glyph glyph-name="Umacron" unicode="&#x16a;" 
d="M60 246v326c0 33 -14 73 -32 96c-6 8 -8 13 -8 18v2c0 6 4 10 10 10h195c8 0 14 -6 14 -14c0 -4 -2 -8 -4 -11l-16 -20c-12 -15 -20 -38 -20 -57v-447c0 -71 47 -119 110 -119c62 0 110 48 110 119v423c0 33 -14 73 -32 96c-6 8 -8 13 -8 18v2c0 6 4 10 10 10h195
c8 0 14 -6 14 -14c0 -4 -2 -8 -4 -11l-16 -20c-12 -15 -20 -38 -20 -57v-350c0 -153 -102 -256 -249 -256c-146 0 -249 103 -249 256zM119 790h381c15 0 25 -10 25 -25s-10 -25 -25 -25h-381c-15 0 -25 10 -25 25s10 25 25 25z" />
    <glyph glyph-name="umacron" unicode="&#x16b;" 
d="M60 165v195c0 33 -14 73 -35 100c-3 4 -5 9 -5 14v2c0 6 4 9 10 10l131 22c23 4 38 -9 38 -32v-296c0 -71 33 -116 92 -116c64 0 118 54 118 136v160c0 33 -14 73 -32 96c-6 8 -8 13 -8 18v2c0 6 4 9 10 10l131 22c22 4 38 -9 38 -32v-381c0 -13 4 -20 13 -20
c7 0 10 5 12 8c6 9 10 12 15 12s9 -4 9 -9v-11c0 -57 -31 -85 -88 -85c-62 0 -91 32 -98 93c-43 -58 -116 -92 -187 -92c-101 0 -164 68 -164 174zM119 598h381c15 0 25 -10 25 -25s-10 -25 -25 -25h-381c-15 0 -25 10 -25 25s10 25 25 25z" />
    <glyph glyph-name="Ubreve" unicode="&#x16c;" 
d="M60 246v326c0 33 -14 73 -32 96c-6 8 -8 13 -8 18v2c0 6 4 10 10 10h195c8 0 14 -6 14 -14c0 -4 -2 -8 -4 -11l-16 -20c-12 -15 -20 -38 -20 -57v-447c0 -71 47 -119 110 -119c62 0 110 48 110 119v423c0 33 -14 73 -32 96c-6 8 -8 13 -8 18v2c0 6 4 10 10 10h195
c8 0 14 -6 14 -14c0 -4 -2 -8 -4 -11l-16 -20c-12 -15 -20 -38 -20 -57v-350c0 -153 -102 -256 -249 -256c-146 0 -249 103 -249 256zM191 900c13 0 21 -9 22 -23c3 -47 41 -48 98 -48c56 0 94 1 97 49c1 14 8 22 21 22s23 -9 23 -22c-2 -83 -58 -138 -141 -138
c-85 0 -142 55 -144 137c0 13 10 23 24 23z" />
    <glyph glyph-name="ubreve" unicode="&#x16d;" 
d="M60 165v195c0 33 -14 73 -35 100c-3 4 -5 9 -5 14v2c0 6 4 9 10 10l131 22c23 4 38 -9 38 -32v-296c0 -71 33 -116 92 -116c64 0 118 54 118 136v160c0 33 -14 73 -32 96c-6 8 -8 13 -8 18v2c0 6 4 9 10 10l131 22c22 4 38 -9 38 -32v-381c0 -13 4 -20 13 -20
c7 0 10 5 12 8c6 9 10 12 15 12s9 -4 9 -9v-11c0 -57 -31 -85 -88 -85c-62 0 -91 32 -98 93c-43 -58 -116 -92 -187 -92c-101 0 -164 68 -164 174zM191 708c13 0 21 -9 22 -23c3 -47 41 -48 98 -48c56 0 94 1 97 49c1 14 8 22 21 22s23 -9 23 -22c-2 -83 -58 -138 -141 -138
c-85 0 -142 55 -144 137c0 13 10 23 24 23z" />
    <glyph glyph-name="Uring" unicode="&#x16e;" 
d="M60 246v326c0 33 -14 73 -32 96c-6 8 -8 13 -8 18v2c0 6 4 10 10 10h195c8 0 14 -6 14 -14c0 -4 -2 -8 -4 -11l-16 -20c-12 -15 -20 -38 -20 -57v-447c0 -71 47 -119 110 -119c62 0 110 48 110 119v423c0 33 -14 73 -32 96c-6 8 -8 13 -8 18v2c0 6 4 10 10 10h195
c8 0 14 -6 14 -14c0 -4 -2 -8 -4 -11l-16 -20c-12 -15 -20 -38 -20 -57v-350c0 -153 -102 -256 -249 -256c-146 0 -249 103 -249 256zM311 893c-27 0 -44 -17 -44 -43s17 -43 44 -43c25 0 42 17 42 43s-17 43 -42 43zM310 750c-60 0 -100 40 -100 100s40 100 100 100
s99 -40 99 -100s-39 -100 -99 -100z" />
    <glyph glyph-name="uring" unicode="&#x16f;" 
d="M60 165v195c0 33 -14 73 -35 100c-3 4 -5 9 -5 14v2c0 6 4 9 10 10l131 22c23 4 38 -9 38 -32v-296c0 -71 33 -116 92 -116c64 0 118 54 118 136v160c0 33 -14 73 -32 96c-6 8 -8 13 -8 18v2c0 6 4 9 10 10l131 22c22 4 38 -9 38 -32v-381c0 -13 4 -20 13 -20
c7 0 10 5 12 8c6 9 10 12 15 12s9 -4 9 -9v-11c0 -57 -31 -85 -88 -85c-62 0 -91 32 -98 93c-43 -58 -116 -92 -187 -92c-101 0 -164 68 -164 174zM311 701c-27 0 -44 -17 -44 -43s17 -43 44 -43c25 0 42 17 42 43s-17 43 -42 43zM310 558c-60 0 -100 40 -100 100
s40 100 100 100s99 -40 99 -100s-39 -100 -99 -100z" />
    <glyph glyph-name="Udoubleacute" unicode="&#x170;" 
d="M60 246v326c0 33 -14 73 -32 96c-6 8 -8 13 -8 18v2c0 6 4 10 10 10h195c8 0 14 -6 14 -14c0 -4 -2 -8 -4 -11l-16 -20c-12 -15 -20 -38 -20 -57v-447c0 -71 47 -119 110 -119c62 0 110 48 110 119v423c0 33 -14 73 -32 96c-6 8 -8 13 -8 18v2c0 6 4 10 10 10h195
c8 0 14 -6 14 -14c0 -4 -2 -8 -4 -11l-16 -20c-12 -15 -20 -38 -20 -57v-350c0 -153 -102 -256 -249 -256c-146 0 -249 103 -249 256zM298 748l-14 14c-5 5 -5 11 -1 17l111 146c23 30 44 6 56 -6c20 -21 48 -43 16 -66l-150 -106c-6 -4 -13 -4 -18 1zM156 748l-14 14
c-5 5 -5 11 -1 17l111 146c22 30 43 6 55 -6c20 -21 48 -43 16 -66l-149 -106c-6 -4 -13 -4 -18 1z" />
    <glyph glyph-name="udoubleacute" unicode="&#x171;" 
d="M60 165v195c0 33 -14 73 -35 100c-3 4 -5 9 -5 14v2c0 6 4 9 10 10l131 22c23 4 38 -9 38 -32v-296c0 -71 33 -116 92 -116c64 0 118 54 118 136v160c0 33 -14 73 -32 96c-6 8 -8 13 -8 18v2c0 6 4 9 10 10l131 22c22 4 38 -9 38 -32v-381c0 -13 4 -20 13 -20
c7 0 10 5 12 8c6 9 10 12 15 12s9 -4 9 -9v-11c0 -57 -31 -85 -88 -85c-62 0 -91 32 -98 93c-43 -58 -116 -92 -187 -92c-101 0 -164 68 -164 174zM298 556l-14 14c-5 5 -5 11 -1 17l111 146c23 30 44 6 56 -6c20 -21 48 -43 16 -66l-150 -106c-6 -4 -13 -4 -18 1zM156 556
l-14 14c-5 5 -5 11 -1 17l111 146c22 30 43 6 55 -6c20 -21 48 -43 16 -66l-149 -106c-6 -4 -13 -4 -18 1z" />
    <glyph glyph-name="Uogonek" unicode="&#x172;" 
d="M60 246v326c0 33 -14 73 -32 96c-6 8 -8 13 -8 18v2c0 6 4 10 10 10h195c8 0 14 -6 14 -14c0 -4 -2 -8 -4 -11l-16 -20c-12 -15 -20 -38 -20 -57v-447c0 -71 47 -119 110 -119c62 0 110 48 110 119v423c0 33 -14 73 -32 96c-6 8 -8 13 -8 18v2c0 6 4 10 10 10h195
c8 0 14 -6 14 -14c0 -4 -2 -8 -4 -11l-16 -20c-12 -15 -20 -38 -20 -57v-350c0 -153 -102 -256 -249 -256c-146 0 -249 103 -249 256zM557 15c-36 -23 -60 -68 -60 -109c0 -42 24 -68 63 -68c18 0 38 -5 38 -14s-20 -15 -49 -15c-67 0 -112 32 -112 83c0 49 41 108 105 140
c6 3 13 1 17 -4s4 -9 -2 -13z" />
    <glyph glyph-name="uogonek" unicode="&#x173;" 
d="M60 165v195c0 33 -14 73 -35 100c-3 4 -5 9 -5 14v2c0 6 4 9 10 10l131 22c23 4 38 -9 38 -32v-296c0 -71 33 -116 92 -116c64 0 118 54 118 136v160c0 33 -14 73 -32 96c-6 8 -8 13 -8 18v2c0 6 4 9 10 10l131 22c22 4 38 -9 38 -32v-381c0 -13 4 -20 13 -20
c7 0 10 5 12 8c6 9 10 12 15 12s9 -4 9 -9v-11c0 -57 -31 -85 -88 -85c-62 0 -91 32 -98 93c-43 -58 -116 -92 -187 -92c-101 0 -164 68 -164 174zM556 15c-36 -23 -60 -68 -60 -109c0 -42 24 -68 63 -68c18 0 38 -5 38 -14s-20 -15 -49 -15c-67 0 -112 32 -112 83
c0 49 41 108 105 140c6 3 13 1 17 -4s4 -9 -2 -13z" />
    <glyph glyph-name="Wcircumflex" unicode="&#x174;" horiz-adv-x="894" 
d="M284 24c-4 -14 -20 -24 -35 -24s-30 9 -35 24l-168 553c-9 31 -34 65 -59 86l-10 9c-4 4 -7 10 -7 16s4 10 10 10h214c8 0 13 -5 13 -13c0 -4 -2 -9 -4 -13l-12 -19c-10 -15 -11 -36 -6 -53l116 -387l109 347l-5 17c-9 31 -34 65 -59 86l-10 9c-4 4 -7 10 -7 16
s4 10 10 10h214c8 0 13 -5 13 -13c0 -4 -2 -9 -4 -13l-12 -19c-10 -15 -11 -36 -6 -53l116 -387l116 368c9 28 6 63 -10 89c-3 5 -5 12 -5 17v1c0 6 4 10 10 10h110c7 0 12 -5 12 -12c0 -5 -2 -10 -6 -13l-23 -20c-17 -15 -35 -40 -42 -61l-179 -568c-4 -14 -20 -24 -35 -24
s-30 9 -35 24l-141 467zM307 764l-14 14c-5 5 -5 11 -1 17l111 146c10 14 19 14 28 14s20 0 30 -14l111 -146c4 -6 4 -12 -1 -17l-14 -14c-5 -5 -12 -5 -18 -1l-107 76l-107 -76c-6 -4 -13 -4 -18 1z" />
    <glyph glyph-name="wcircumflex" unicode="&#x175;" horiz-adv-x="761" 
d="M183 461l116 -287l50 120c12 29 15 49 15 66l-15 38c-8 19 -26 39 -42 52l-29 23c-5 4 -8 10 -8 16s4 9 10 9h132c25 0 51 -14 60 -37l115 -287l50 120c30 73 7 91 7 138c0 48 24 76 60 76h4c42 0 54 -24 38 -62l-180 -426c-5 -12 -19 -20 -32 -20h-1c-13 0 -27 8 -32 20
l-109 270l-114 -270c-5 -12 -19 -20 -32 -20h-1c-13 0 -27 8 -32 20l-152 378c-8 19 -26 39 -42 52l-29 23c-5 4 -8 10 -8 16s4 9 10 9h132c24 0 50 -14 59 -37zM247 572l-14 14c-5 5 -5 11 -1 17l111 146c10 14 19 14 28 14s20 0 30 -14l111 -146c4 -6 4 -12 -1 -17
l-14 -14c-5 -5 -12 -5 -18 -1l-107 76l-107 -76c-6 -4 -13 -4 -18 1z" />
    <glyph glyph-name="Ycircumflex" unicode="&#x176;" horiz-adv-x="596" 
d="M489 591l-136 -241v-224c0 -33 14 -73 35 -100c3 -4 5 -9 5 -14v-2c0 -6 -4 -10 -10 -10h-200c-6 0 -10 4 -10 10v2c0 5 2 10 5 14c21 26 35 67 35 100v204l-151 251c-17 28 -46 59 -72 78l-18 13c-5 3 -8 10 -8 16s4 10 10 10h239c8 0 13 -5 13 -13c0 -4 -2 -9 -4 -13
l-11 -19c-9 -15 -9 -35 0 -50l123 -204l110 192c13 23 18 53 8 79c-2 5 -3 11 -3 16v2c0 6 4 10 10 10h125c6 0 11 -4 11 -11c0 -5 -3 -11 -8 -14l-31 -20c-23 -15 -54 -39 -67 -62zM155 764l-14 14c-5 5 -5 11 -1 17l111 146c10 14 19 14 28 14s20 0 30 -14l111 -146
c4 -6 4 -12 -1 -17l-14 -14c-5 -5 -12 -5 -18 -1l-107 76l-107 -76c-6 -4 -13 -4 -18 1z" />
    <glyph glyph-name="ycircumflex" unicode="&#x177;" horiz-adv-x="532" 
d="M183 461l147 -303l68 136c34 69 18 91 18 134c0 52 24 80 60 80h3c42 0 57 -24 38 -62l-219 -446c-66 -134 -171 -192 -257 -206c-24 -4 -42 13 -42 39v55c0 24 13 33 38 25c63 -19 165 -19 218 82l-194 403c-9 19 -26 39 -42 52l-29 23c-5 4 -8 10 -8 16s4 9 10 9h132
c24 0 48 -14 59 -37zM132 572l-14 14c-5 5 -5 11 -1 17l111 146c10 14 19 14 28 14s20 0 30 -14l111 -146c4 -6 4 -12 -1 -17l-14 -14c-5 -5 -12 -5 -18 -1l-107 76l-107 -76c-6 -4 -13 -4 -18 1z" />
    <glyph glyph-name="Zacute" unicode="&#x179;" horiz-adv-x="541" 
d="M-3 46l365 612h-176c-47 0 -103 -19 -141 -47l-9 -7c-5 -4 -12 -6 -18 -6s-10 4 -9 10l7 69c1 12 10 21 23 21h455c32 0 43 -18 26 -46l-365 -612h196c47 0 104 19 141 47l9 7c5 4 12 6 18 6s10 -4 9 -10l-7 -69c-1 -12 -10 -21 -23 -21h-475c-32 0 -43 18 -26 46z
M179 748l-14 14c-5 5 -5 11 -1 17l111 146c22 30 43 6 55 -6c20 -21 48 -43 16 -66l-149 -106c-6 -4 -13 -4 -18 1z" />
    <glyph glyph-name="zacute" unicode="&#x17a;" horiz-adv-x="488" 
d="M14 59l287 400h-103c-47 0 -104 -19 -142 -47l-9 -7c-5 -4 -12 -6 -17 -6c-6 0 -10 4 -9 10l7 69c1 12 9 20 22 20h379c44 0 56 -23 30 -58l-287 -400h123c47 0 103 19 141 47l9 7c5 4 12 6 18 6s10 -4 9 -10l-7 -69c-1 -12 -10 -21 -23 -21h-399c-43 0 -55 24 -29 59z
M156 556l-14 14c-5 5 -5 11 -1 17l111 146c22 30 43 6 55 -6c20 -21 48 -43 16 -66l-149 -106c-6 -4 -13 -4 -18 1z" />
    <glyph glyph-name="Zdotaccent" unicode="&#x17b;" horiz-adv-x="541" 
d="M-3 46l365 612h-176c-47 0 -103 -19 -141 -47l-9 -7c-5 -4 -12 -6 -18 -6s-10 4 -9 10l7 69c1 12 10 21 23 21h455c32 0 43 -18 26 -46l-365 -612h196c47 0 104 19 141 47l9 7c5 4 12 6 18 6s10 -4 9 -10l-7 -69c-1 -12 -10 -21 -23 -21h-475c-32 0 -43 18 -26 46z
M203 847c0 34 23 56 57 56c35 0 58 -22 58 -56c0 -33 -23 -57 -58 -57c-34 0 -57 24 -57 57z" />
    <glyph glyph-name="zdotaccent" unicode="&#x17c;" horiz-adv-x="488" 
d="M14 59l287 400h-103c-47 0 -104 -19 -142 -47l-9 -7c-5 -4 -12 -6 -17 -6c-6 0 -10 4 -9 10l7 69c1 12 9 20 22 20h379c44 0 56 -23 30 -58l-287 -400h123c47 0 103 19 141 47l9 7c5 4 12 6 18 6s10 -4 9 -10l-7 -69c-1 -12 -10 -21 -23 -21h-399c-43 0 -55 24 -29 59z
M181 655c0 34 23 56 57 56c35 0 58 -22 58 -56c0 -33 -23 -57 -58 -57c-34 0 -57 24 -57 57z" />
    <glyph glyph-name="AEacute" unicode="&#x1fc;" horiz-adv-x="783" 
d="M136 250h180v322c0 29 -10 63 -27 89l-58 -155zM276 10v2c0 5 2 10 5 14c21 26 35 67 35 100v84h-193l-35 -93c-10 -28 -6 -63 10 -89c3 -5 5 -12 5 -17v-1c0 -6 -4 -10 -10 -10h-111c-7 0 -12 5 -12 12c0 5 2 10 6 13l23 20c17 15 34 40 42 61l209 568c5 14 20 24 36 24
h438c13 0 22 -9 23 -21l7 -69c1 -6 -3 -10 -9 -10s-13 2 -18 6l-9 7c-38 28 -95 47 -142 47h-120v-289h24c45 0 103 11 146 27c5 2 13 3 19 3s10 -4 10 -10v-77c0 -8 -5 -13 -13 -13c-4 0 -9 1 -13 2l-34 13c-24 9 -57 15 -82 15h-57v-289h130c47 0 105 18 142 47l9 7
c5 4 12 6 18 6s10 -4 9 -10l-7 -69c-1 -12 -10 -21 -23 -21h-448c-6 0 -10 4 -10 10zM295 748l-14 14c-5 5 -5 11 -1 17l111 146c22 30 43 6 55 -6c20 -21 48 -43 16 -66l-149 -106c-6 -4 -13 -4 -18 1z" />
    <glyph glyph-name="aeacute" unicode="&#x1fd;" horiz-adv-x="816" 
d="M348 260c-86 0 -179 -10 -179 -104c0 -60 37 -106 86 -106c54 0 90 56 93 148v62zM510 142c148 42 151 193 151 212c0 68 -33 115 -73 115c-56 0 -93 -90 -93 -210c0 -45 6 -85 15 -117zM24 147c0 145 189 153 324 152c-3 118 -36 170 -82 170c-51 0 -84 -61 -97 -78
c-16 -22 -46 -36 -76 -11c-31 26 -26 66 22 93c23 13 78 35 155 35c71 0 126 -19 163 -58c43 38 98 58 160 58c119 0 207 -76 207 -181c0 -135 -144 -216 -281 -213c21 -54 55 -84 93 -84c55 0 89 61 93 67c25 45 62 49 89 22s22 -66 -26 -93c-23 -13 -79 -36 -154 -36
c-113 0 -199 52 -239 138c-24 -87 -82 -138 -173 -138c-102 0 -178 65 -178 157zM338 556l-14 14c-5 5 -5 11 -1 17l111 146c22 30 43 6 55 -6c20 -21 48 -43 16 -66l-149 -106c-6 -4 -13 -4 -18 1z" />
    <glyph glyph-name="Wgrave" unicode="&#x1e80;" horiz-adv-x="894" 
d="M284 24c-4 -14 -20 -24 -35 -24s-30 9 -35 24l-168 553c-9 31 -34 65 -59 86l-10 9c-4 4 -7 10 -7 16s4 10 10 10h214c8 0 13 -5 13 -13c0 -4 -2 -9 -4 -13l-12 -19c-10 -15 -11 -36 -6 -53l116 -387l109 347l-5 17c-9 31 -34 65 -59 86l-10 9c-4 4 -7 10 -7 16
s4 10 10 10h214c8 0 13 -5 13 -13c0 -4 -2 -9 -4 -13l-12 -19c-10 -15 -11 -36 -6 -53l116 -387l116 368c9 28 6 63 -10 89c-3 5 -5 12 -5 17v1c0 6 4 10 10 10h110c7 0 12 -5 12 -12c0 -5 -2 -10 -6 -13l-23 -20c-17 -15 -35 -40 -42 -61l-179 -568c-4 -14 -20 -24 -35 -24
s-30 9 -35 24l-141 467zM528 762l-14 -14c-5 -5 -12 -5 -18 -1l-150 106c-31 23 -4 45 16 66c12 12 33 36 56 6l111 -146c4 -6 4 -12 -1 -17z" />
    <glyph glyph-name="wgrave" unicode="&#x1e81;" horiz-adv-x="761" 
d="M183 461l116 -287l50 120c12 29 15 49 15 66l-15 38c-8 19 -26 39 -42 52l-29 23c-5 4 -8 10 -8 16s4 9 10 9h132c25 0 51 -14 60 -37l115 -287l50 120c30 73 7 91 7 138c0 48 24 76 60 76h4c42 0 54 -24 38 -62l-180 -426c-5 -12 -19 -20 -32 -20h-1c-13 0 -27 8 -32 20
l-109 270l-114 -270c-5 -12 -19 -20 -32 -20h-1c-13 0 -27 8 -32 20l-152 378c-8 19 -26 39 -42 52l-29 23c-5 4 -8 10 -8 16s4 9 10 9h132c24 0 50 -14 59 -37zM468 570l-14 -14c-5 -5 -12 -5 -18 -1l-150 106c-31 23 -4 45 16 66c12 12 33 36 56 6l111 -146
c4 -6 4 -12 -1 -17z" />
    <glyph glyph-name="Wacute" unicode="&#x1e82;" horiz-adv-x="894" 
d="M284 24c-4 -14 -20 -24 -35 -24s-30 9 -35 24l-168 553c-9 31 -34 65 -59 86l-10 9c-4 4 -7 10 -7 16s4 10 10 10h214c8 0 13 -5 13 -13c0 -4 -2 -9 -4 -13l-12 -19c-10 -15 -11 -36 -6 -53l116 -387l109 347l-5 17c-9 31 -34 65 -59 86l-10 9c-4 4 -7 10 -7 16
s4 10 10 10h214c8 0 13 -5 13 -13c0 -4 -2 -9 -4 -13l-12 -19c-10 -15 -11 -36 -6 -53l116 -387l116 368c9 28 6 63 -10 89c-3 5 -5 12 -5 17v1c0 6 4 10 10 10h110c7 0 12 -5 12 -12c0 -5 -2 -10 -6 -13l-23 -20c-17 -15 -35 -40 -42 -61l-179 -568c-4 -14 -20 -24 -35 -24
s-30 9 -35 24l-141 467zM350 748l-14 14c-5 5 -5 11 -1 17l111 146c22 30 43 6 55 -6c20 -21 48 -43 16 -66l-149 -106c-6 -4 -13 -4 -18 1z" />
    <glyph glyph-name="wacute" unicode="&#x1e83;" horiz-adv-x="761" 
d="M183 461l116 -287l50 120c12 29 15 49 15 66l-15 38c-8 19 -26 39 -42 52l-29 23c-5 4 -8 10 -8 16s4 9 10 9h132c25 0 51 -14 60 -37l115 -287l50 120c30 73 7 91 7 138c0 48 24 76 60 76h4c42 0 54 -24 38 -62l-180 -426c-5 -12 -19 -20 -32 -20h-1c-13 0 -27 8 -32 20
l-109 270l-114 -270c-5 -12 -19 -20 -32 -20h-1c-13 0 -27 8 -32 20l-152 378c-8 19 -26 39 -42 52l-29 23c-5 4 -8 10 -8 16s4 9 10 9h132c24 0 50 -14 59 -37zM290 556l-14 14c-5 5 -5 11 -1 17l111 146c22 30 43 6 55 -6c20 -21 48 -43 16 -66l-149 -106
c-6 -4 -13 -4 -18 1z" />
    <glyph glyph-name="Wdieresis" unicode="&#x1e84;" horiz-adv-x="894" 
d="M284 24c-4 -14 -20 -24 -35 -24s-30 9 -35 24l-168 553c-9 31 -34 65 -59 86l-10 9c-4 4 -7 10 -7 16s4 10 10 10h214c8 0 13 -5 13 -13c0 -4 -2 -9 -4 -13l-12 -19c-10 -15 -11 -36 -6 -53l116 -387l109 347l-5 17c-9 31 -34 65 -59 86l-10 9c-4 4 -7 10 -7 16
s4 10 10 10h214c8 0 13 -5 13 -13c0 -4 -2 -9 -4 -13l-12 -19c-10 -15 -11 -36 -6 -53l116 -387l116 368c9 28 6 63 -10 89c-3 5 -5 12 -5 17v1c0 6 4 10 10 10h110c7 0 12 -5 12 -12c0 -5 -2 -10 -6 -13l-23 -20c-17 -15 -35 -40 -42 -61l-179 -568c-4 -14 -20 -24 -35 -24
s-30 9 -35 24l-141 467zM450 847c0 34 22 56 56 56c35 0 58 -22 58 -56c0 -33 -23 -57 -58 -57c-34 0 -56 24 -56 57zM300 847c0 34 23 56 57 56c35 0 58 -22 58 -56c0 -33 -23 -57 -58 -57c-34 0 -57 24 -57 57z" />
    <glyph glyph-name="wdieresis" unicode="&#x1e85;" horiz-adv-x="761" 
d="M183 461l116 -287l50 120c12 29 15 49 15 66l-15 38c-8 19 -26 39 -42 52l-29 23c-5 4 -8 10 -8 16s4 9 10 9h132c25 0 51 -14 60 -37l115 -287l50 120c30 73 7 91 7 138c0 48 24 76 60 76h4c42 0 54 -24 38 -62l-180 -426c-5 -12 -19 -20 -32 -20h-1c-13 0 -27 8 -32 20
l-109 270l-114 -270c-5 -12 -19 -20 -32 -20h-1c-13 0 -27 8 -32 20l-152 378c-8 19 -26 39 -42 52l-29 23c-5 4 -8 10 -8 16s4 9 10 9h132c24 0 50 -14 59 -37zM390 655c0 34 22 56 56 56c35 0 58 -22 58 -56c0 -33 -23 -57 -58 -57c-34 0 -56 24 -56 57zM240 655
c0 34 23 56 57 56c35 0 58 -22 58 -56c0 -33 -23 -57 -58 -57c-34 0 -57 24 -57 57z" />
    <glyph glyph-name="Ygrave" unicode="&#x1ef2;" horiz-adv-x="596" 
d="M489 591l-136 -241v-224c0 -33 14 -73 35 -100c3 -4 5 -9 5 -14v-2c0 -6 -4 -10 -10 -10h-200c-6 0 -10 4 -10 10v2c0 5 2 10 5 14c21 26 35 67 35 100v204l-151 251c-17 28 -46 59 -72 78l-18 13c-5 3 -8 10 -8 16s4 10 10 10h239c8 0 13 -5 13 -13c0 -4 -2 -9 -4 -13
l-11 -19c-9 -15 -9 -35 0 -50l123 -204l110 192c13 23 18 53 8 79c-2 5 -3 11 -3 16v2c0 6 4 10 10 10h125c6 0 11 -4 11 -11c0 -5 -3 -11 -8 -14l-31 -20c-23 -15 -54 -39 -67 -62zM376 762l-14 -14c-5 -5 -12 -5 -18 -1l-150 106c-31 23 -4 45 16 66c12 12 33 36 56 6
l111 -146c4 -6 4 -12 -1 -17z" />
    <glyph glyph-name="ygrave" unicode="&#x1ef3;" horiz-adv-x="532" 
d="M183 461l147 -303l68 136c34 69 18 91 18 134c0 52 24 80 60 80h3c42 0 57 -24 38 -62l-219 -446c-66 -134 -171 -192 -257 -206c-24 -4 -42 13 -42 39v55c0 24 13 33 38 25c63 -19 165 -19 218 82l-194 403c-9 19 -26 39 -42 52l-29 23c-5 4 -8 10 -8 16s4 9 10 9h132
c24 0 48 -14 59 -37zM353 570l-14 -14c-5 -5 -12 -5 -18 -1l-150 106c-31 23 -4 45 16 66c12 12 33 36 56 6l111 -146c4 -6 4 -12 -1 -17z" />
    </font>
</defs>
</svg>
